<?xml version="1.0" encoding="UTF-8" standalone="no"?>
<svg width="500px" height="500px" viewBox="0 0 500 500" version="1.1" xmlns="http://www.w3.org/2000/svg" xmlns:xlink="http://www.w3.org/1999/xlink">
    <!-- Generator: Sketch 3.6.1 (26313) - http://www.bohemiancoding.com/sketch -->
    <title>OK Copy</title>
    <desc>Created with Sketch.</desc>
    <defs>
        <circle id="path-1" cx="242.677026" cy="242.290273" r="242"></circle>
        <linearGradient x1="50%" y1="50%" x2="7.30512058%" y2="24.2369958%" id="linearGradient-3">
            <stop stop-color="#FFFFFF" stop-opacity="0" offset="0%"></stop>
            <stop stop-color="#FFFFFF" stop-opacity="0.6" offset="100%"></stop>
        </linearGradient>
        <linearGradient x1="50%" y1="50%" x2="89.9851404%" y2="80.6122083%" id="linearGradient-4">
            <stop stop-color="#000000" stop-opacity="0" offset="0%"></stop>
            <stop stop-color="#000000" stop-opacity="0.15" offset="100%"></stop>
        </linearGradient>
        <circle id="path-5" cx="233" cy="231" r="242"></circle>
        <filter x="-50%" y="-50%" width="200%" height="200%" filterUnits="objectBoundingBox" id="filter-7">
            <feOffset dx="0.400000006" dy="0.5" in="SourceAlpha" result="shadowOffsetOuter1"></feOffset>
            <feGaussianBlur stdDeviation="0.200000003" in="shadowOffsetOuter1" result="shadowBlurOuter1"></feGaussianBlur>
            <feColorMatrix values="0 0 0 0 1   0 0 0 0 1   0 0 0 0 1  0 0 0 0.35 0" in="shadowBlurOuter1" type="matrix" result="shadowMatrixOuter1"></feColorMatrix>
            <feMerge>
                <feMergeNode in="shadowMatrixOuter1"></feMergeNode>
                <feMergeNode in="SourceGraphic"></feMergeNode>
            </feMerge>
        </filter>
    </defs>
    <g id="Favicon" stroke="none" stroke-width="1" fill="none" fill-rule="evenodd">
        <g id="OK-Copy">
            <g id="монета" transform="translate(9.000000, 11.000000)">
                <mask id="mask-2" fill="white">
                    <use xlink:href="#path-1"></use>
                </mask>
                <g id="Oval-3">
                    <use fill="#BFA000" fill-rule="evenodd" xlink:href="#path-1"></use>
                    <use fill="none" xlink:href="#path-1"></use>
                    <use fill="none" xlink:href="#path-1"></use>
                </g>
                <mask id="mask-6" fill="white">
                    <use xlink:href="#path-5"></use>
                </mask>
                <g id="Oval-3">
                    <use fill="#FFD700" xlink:href="#path-5"></use>
                    <use fill="url(#linearGradient-3)" xlink:href="#path-5"></use>
                    <use fill="url(#linearGradient-4)" xlink:href="#path-5"></use>
                </g>
                <path d="M232.5,440 C348.203655,440 442,346.203655 442,230.5 C442,114.796345 348.203655,21 232.5,21 C116.796345,21 23,114.796345 23,230.5 C23,346.203655 116.796345,440 232.5,440 Z M232.5,425 C339.919384,425 427,337.919384 427,230.5 C427,123.080616 339.919384,36 232.5,36 C125.080616,36 38,123.080616 38,230.5 C38,337.919384 125.080616,425 232.5,425 Z" id="Combined-Shape" fill="#222222" mask="url(#mask-6)"></path>
                <path d="M230.748974,291.256147 L313.580645,291.256147 L313.580645,343.83871 L152.290323,343.83871 L152.290323,335.454426 L234.539356,169.329613 L159.579769,169.329613 L159.579769,118.032258 L312.706688,118.032258 L312.706688,126.745899 L230.748974,291.256147 Z" id="Shape-Copy" fill="#222222" filter="url(#filter-7)" mask="url(#mask-6)"></path>
                <rect id="Rectangle-8" fill="#222222" mask="url(#mask-6)" x="173" y="197" width="128" height="23"></rect>
                <rect id="Rectangle-8" fill="#222222" mask="url(#mask-6)" x="173" y="233" width="128" height="23"></rect>
            </g>
        </g>
    </g>
</svg>