<?xml version="1.0" encoding="utf-8"?>
<!-- Generator: Adobe Illustrator 16.0.0, SVG Export Plug-In . SVG Version: 6.00 Build 0)  -->
<!DOCTYPE svg PUBLIC "-//W3C//DTD SVG 1.1 Tiny//EN" "http://www.w3.org/Graphics/SVG/1.1/DTD/svg11-tiny.dtd">
<svg version="1.1" baseProfile="tiny" id="Layer_1" xmlns="http://www.w3.org/2000/svg" xmlns:xlink="http://www.w3.org/1999/xlink"
	 x="0px" y="0px" width="105px" height="28px" viewBox="0 0 523.954 98.262" xml:space="preserve">
<g>
	<g>
		<path d="M163.883,64.299h22.796v14.775h-39.286V16h16.49V64.299z"/>
		<path d="M226.417,80.246c-16.67,0-32.258-10.812-32.258-32.709c0-21.807,16.129-32.799,32.528-32.799
			c16.129,0,32.168,10.992,32.168,32.799C258.855,66.82,245.52,80.246,226.417,80.246z M226.508,64.658
			c7.838,0,15.857-5.855,15.857-17.121c0-11.262-7.838-17.119-15.678-17.119c-8.201,0-16.039,5.586-16.039,17.119
			C210.648,58.803,218.396,64.658,226.508,64.658z"/>
		<path d="M267.777,30.418V16h46.855v14.418h-15.408v48.656h-15.949V30.418H267.777z"/>
		<path d="M376.627,18.434l-25.32,45.953h25.59v14.688h-49.829v-2.342l25.41-46.404H329.32V16h47.307V18.434z"/>
		<path d="M420.78,80.246c-16.671,0-32.258-10.812-32.258-32.709c0-21.807,16.128-32.799,32.527-32.799
			c16.129,0,32.168,10.992,32.168,32.799C453.218,66.82,439.884,80.246,420.78,80.246z M420.869,64.658
			c7.839,0,15.86-5.855,15.86-17.121c0-11.262-7.841-17.119-15.68-17.119c-8.2,0-16.038,5.586-16.038,17.119
			C405.012,58.803,412.761,64.658,420.869,64.658z"/>
		<path d="M485.928,46.549v32.525h-16.488V15.73h5.136l32.889,31.086V16h16.49v63.256h-4.867L485.928,46.549z"/>
	</g>
	<path d="M49.131,16.377c18.06,0,32.754,14.693,32.754,32.754S67.19,81.885,49.131,81.885c-18.061,0-32.753-14.693-32.753-32.754
		S31.07,16.377,49.131,16.377 M49.131,0C21.993,0,0,21.994,0,49.131c0,27.135,21.993,49.131,49.131,49.131
		c27.135,0,49.131-21.996,49.131-49.131C98.262,21.994,76.266,0,49.131,0L49.131,0z"/>
</g>
</svg>
