<?xml version="1.0" encoding="UTF-8" standalone="no"?>
<svg width="133px" height="30px" viewBox="0 0 133 30" version="1.1" xmlns="http://www.w3.org/2000/svg" xmlns:xlink="http://www.w3.org/1999/xlink">
    <!-- Generator: Sketch 3.7.2 (28276) - http://www.bohemiancoding.com/sketch -->
    <title>LOGO</title>
    <desc>Created with Sketch.</desc>
    <defs></defs>
    <g id="История-розыгрышей" stroke="none" stroke-width="1" fill="none" fill-rule="evenodd">
        <g id="1024" transform="translate(-40.000000, -1280.000000)" fill="#222222">
            <g id="подвал" transform="translate(20.000000, 1270.000000)">
                <g id="LOGO" transform="translate(20.000000, 10.000000)">
                    <polygon id="Shape" points="44.6140907 14.2077295 50.4166667 14.2077295 50.4166667 17.9166667 40.4166667 17.9166667 40.4166667 2.08333333 44.6140907 2.08333333"></polygon>
                    <path d="M60.810148,18.3333333 C56.5157042,18.3333333 52.5,15.5825243 52.5,10.011449 C52.5,4.46327166 56.655074,1.66666667 60.8797041,1.66666667 C65.034778,1.66666667 69.1666667,4.46327166 69.1666667,10.011449 C69.1666667,14.9174656 65.7313693,18.3333333 60.810148,18.3333333 L60.810148,18.3333333 Z M60.8335909,14.3674055 C62.8527781,14.3674055 64.9185936,12.8777656 64.9185936,10.011449 C64.9185936,7.14615009 62.8994065,5.6560013 60.8797041,5.6560013 C58.7670026,5.6560013 56.7478154,7.07720177 56.7478154,10.011449 C56.7478154,12.8777656 58.7438172,14.3674055 60.8335909,14.3674055 L60.8335909,14.3674055 Z" id="Shape"></path>
                    <path d="M40.8917541,28.0049744 L40.8917541,21.6488344 C40.8917541,21.568817 40.9300228,21.5288088 41.0065613,21.5288088 L42.9217528,21.5288088 C43.5062284,21.5288088 43.9654523,21.6775347 44.2994383,21.9749911 C44.6334244,22.2724474 44.8004149,22.6977513 44.8004149,23.2509157 C44.8004149,23.4770521 44.7334447,23.7110127 44.5995024,23.9528047 C44.4655601,24.1945967 44.2976999,24.3885492 44.0959166,24.5346681 C44.0854796,24.5659793 44.0889585,24.5903321 44.1063536,24.6077272 C44.3916334,24.750367 44.6108084,24.9625841 44.7638853,25.2443849 C44.9169623,25.5261856 44.9934996,25.8305954 44.9934996,26.1576234 C44.9934996,26.7386199 44.8186814,27.2117597 44.4690398,27.5770569 C44.1193981,27.9423541 43.6558255,28.125 43.078308,28.125 L41.0169983,28.125 C40.9335018,28.125 40.8917541,28.0849919 40.8917541,28.0049744 L40.8917541,28.0049744 Z M41.7893371,27.248291 C41.7893371,27.3109134 41.8171689,27.3422241 41.8728332,27.3422241 L43.057434,27.3422241 C43.380983,27.3422241 43.6366872,27.2361156 43.8245543,27.0238953 C44.0124215,26.811675 44.1063536,26.5333575 44.1063536,26.1889344 C44.1063536,25.8479903 44.0124215,25.5618451 43.8245543,25.3304902 C43.6366872,25.0991353 43.3427143,24.9834596 42.9426269,24.9834596 L41.8728332,24.9834596 C41.8171689,24.9834596 41.7893371,25.0112913 41.7893371,25.0669557 L41.7893371,27.248291 Z M41.7893371,24.1276246 C41.7893371,24.190247 41.8171689,24.2215577 41.8728332,24.2215577 L42.9217528,24.2215577 C43.2418228,24.2215577 43.4870901,24.1284953 43.6575621,23.9423677 C43.8280342,23.7562401 43.9132689,23.5188004 43.9132689,23.2300417 C43.9132689,22.9412829 43.8262947,22.7142802 43.6523436,22.5490267 C43.4783926,22.3837732 43.2313858,22.3011477 42.9113158,22.3011477 L41.8728332,22.3011477 C41.8171689,22.3011477 41.7893371,22.3289794 41.7893371,22.3846437 L41.7893371,24.1276246 Z M46.0893858,27.9945374 L46.0893858,21.6383974 C46.0893858,21.565338 46.1293939,21.5288088 46.2094114,21.5288088 L46.8356321,21.5288088 C46.9226076,21.5288088 46.9660947,21.565338 46.9660947,21.6383974 L46.9660947,24.1380617 C46.9660947,24.2041631 46.9939265,24.2372133 47.0495908,24.2372133 L48.2811582,24.2372133 C48.8551967,24.2372133 49.3178996,24.4215986 49.6692807,24.7903749 C50.0206618,25.1591511 50.1963498,25.625333 50.1963498,26.1889344 C50.1963498,26.7525358 50.0084854,27.2161084 49.6327512,27.5796662 C49.2570169,27.9432239 48.7595243,28.125 48.1402585,28.125 L46.2094114,28.125 C46.1293939,28.125 46.0893858,28.0815129 46.0893858,27.9945374 L46.0893858,27.9945374 Z M46.9660947,27.2587281 C46.9660947,27.3143924 46.9974055,27.3422241 47.0600279,27.3422241 L48.1402585,27.3422241 C48.4812026,27.3422241 48.7629991,27.2300274 48.9856564,27.0056305 C49.2083138,26.7812337 49.3196408,26.5124833 49.3196408,26.1993714 C49.3196408,25.8132001 49.210923,25.5174877 48.9934842,25.3122254 C48.7760454,25.1069632 48.4916397,25.0043336 48.1402585,25.0043336 L47.0495908,25.0043336 C46.9939265,25.0043336 46.9660947,25.0356443 46.9660947,25.0982667 L46.9660947,27.2587281 Z M50.8434445,28.0049744 L50.8434445,21.6488344 C50.8434445,21.568817 50.8869316,21.5288088 50.9739071,21.5288088 L51.6366573,21.5288088 C51.7166748,21.5288088 51.756683,21.565338 51.756683,21.6383974 L51.756683,27.9945374 C51.756683,28.0815129 51.7166748,28.125 51.6366573,28.125 L50.9739071,28.125 C50.8869316,28.125 50.8434445,28.0849919 50.8434445,28.0049744 L50.8434445,28.0049744 Z M53.0560909,27.9945374 L53.0560909,21.6383974 C53.0560909,21.565338 53.099578,21.5288088 53.1865535,21.5288088 L53.7814632,21.5288088 C53.8614807,21.5288088 53.9014888,21.568817 53.9014888,21.6488344 L53.9014888,26.3611451 C53.9014888,26.3820192 53.9084467,26.3872377 53.9223628,26.3768006 L53.9327998,26.3507081 L56.422027,21.7010195 C56.4255061,21.6940615 56.4333338,21.6836246 56.4455103,21.6697085 C56.4576869,21.6557924 56.4655146,21.6462252 56.4689936,21.6410067 C56.4724726,21.6357882 56.4794306,21.6270907 56.4898676,21.6149142 C56.5003047,21.6027376 56.5090021,21.5940402 56.5159602,21.5888216 C56.5229182,21.5836031 56.5316156,21.5766452 56.5420527,21.5679476 C56.5524897,21.5592501 56.5629267,21.5531619 56.5733637,21.5496828 C56.5838008,21.5462038 56.5959772,21.5427248 56.6098933,21.5392458 C56.6238093,21.5357668 56.6394647,21.5331576 56.6568598,21.5314181 C56.6742549,21.5296786 56.6916498,21.5288088 56.7090449,21.5288088 L57.2048029,21.5288088 C57.2813414,21.5288088 57.31961,21.568817 57.31961,21.6488344 L57.31961,28.0049744 C57.31961,28.0849919 57.2778624,28.125 57.1943659,28.125 L56.5838007,28.125 C56.5037832,28.125 56.4637751,28.0815129 56.4637751,27.9945374 L56.4637751,23.2196047 C56.4637751,23.1987305 56.4533382,23.1987305 56.4324641,23.2196047 C56.1715375,23.7240627 55.7566704,24.5155282 55.1878505,25.5940247 C54.6190305,26.6725213 54.2041634,27.4622473 53.9432368,27.9632263 C53.9084466,28.0432438 53.8771359,28.0902099 53.8493037,28.104126 C53.8214716,28.1180421 53.7605896,28.125 53.666656,28.125 L53.1865535,28.125 C53.099578,28.125 53.0560909,28.0815129 53.0560909,27.9945374 L53.0560909,27.9945374 Z M58.7912286,28.0049744 L58.7912286,21.6488344 C58.7912286,21.568817 58.8329763,21.5288088 58.9164728,21.5288088 L62.2719719,21.5288088 C62.3589475,21.5288088 62.4024346,21.565338 62.4024346,21.6383974 L62.4024346,22.181122 C62.4024346,22.2611395 62.3589475,22.3011477 62.2719719,22.3011477 L59.7723077,22.3011477 C59.7166434,22.3011477 59.6888116,22.3289794 59.6888116,22.3846437 L59.6888116,27.9945374 C59.6888116,28.0815129 59.6488035,28.125 59.568786,28.125 L58.9164728,28.125 C58.8329763,28.125 58.7912286,28.0849919 58.7912286,28.0049744 L58.7912286,28.0049744 Z M63.1695549,28.0049744 L63.1695549,21.6488344 C63.1695549,21.568817 63.213042,21.5288088 63.3000175,21.5288088 L65.1264945,21.5288088 C65.7353232,21.5288088 66.2206394,21.7131942 66.5824576,22.0819704 C66.9442758,22.4507467 67.1251822,22.918668 67.1251822,23.4857484 C67.1251822,24.0249967 66.9355784,24.4807417 66.5563651,24.8529969 C66.1771518,25.2252522 65.704012,25.411377 65.1369315,25.411377 L64.150634,25.411377 C64.0949696,25.411377 64.0671379,25.4426878 64.0671379,25.5053101 L64.0671379,27.9945374 C64.0671379,28.0815129 64.0253902,28.125 63.9418937,28.125 L63.3000175,28.125 C63.213042,28.125 63.1695549,28.0849919 63.1695549,28.0049744 L63.1695549,28.0049744 Z M64.0567009,24.5555421 C64.0567009,24.6181645 64.0845326,24.6494752 64.140197,24.6494752 L65.1264945,24.6494752 C65.4639596,24.6494752 65.7335797,24.5442364 65.9353629,24.3337556 C66.1371461,24.1232748 66.2380362,23.8371296 66.2380362,23.4753114 C66.2380362,23.1691576 66.1388856,22.8969282 65.9405814,22.6586153 C65.7422772,22.4203023 65.4709176,22.3011477 65.1264945,22.3011477 L64.150634,22.3011477 C64.0880116,22.3011477 64.0567009,22.3289794 64.0567009,22.3846437 L64.0567009,24.5555421 Z M68.0697317,27.9945374 L68.0697317,21.6383974 C68.0697317,21.565338 68.1097399,21.5288088 68.1897574,21.5288088 L68.8159781,21.5288088 C68.9029536,21.5288088 68.9464407,21.565338 68.9464407,21.6383974 L68.9464407,24.1380617 C68.9464407,24.2041631 68.9742724,24.2372133 69.0299368,24.2372133 L70.2615041,24.2372133 C70.8355426,24.2372133 71.2982455,24.4215986 71.6496266,24.7903749 C72.0010078,25.1591511 72.1766957,25.625333 72.1766957,26.1889344 C72.1766957,26.7525358 71.9888314,27.2161084 71.6130971,27.5796662 C71.2373628,27.9432239 70.7398702,28.125 70.1206045,28.125 L68.1897574,28.125 C68.1097399,28.125 68.0697317,28.0815129 68.0697317,27.9945374 L68.0697317,27.9945374 Z M68.9464407,27.2587281 C68.9464407,27.3143924 68.9777514,27.3422241 69.0403738,27.3422241 L70.1206045,27.3422241 C70.4615485,27.3422241 70.743345,27.2300274 70.9660024,27.0056305 C71.1886597,26.7812337 71.2999868,26.5124833 71.2999868,26.1993714 C71.2999868,25.8132001 71.191269,25.5174877 70.9738302,25.3122254 C70.7563913,25.1069632 70.4719856,25.0043336 70.1206045,25.0043336 L69.0299368,25.0043336 C68.9742724,25.0043336 68.9464407,25.0356443 68.9464407,25.0982667 L68.9464407,27.2587281 Z M72.8237904,28.0049744 L72.8237904,21.6488344 C72.8237904,21.568817 72.8672775,21.5288088 72.9542531,21.5288088 L73.6170033,21.5288088 C73.6970208,21.5288088 73.7370289,21.565338 73.7370289,21.6383974 L73.7370289,27.9945374 C73.7370289,28.0815129 73.6970208,28.125 73.6170033,28.125 L72.9542531,28.125 C72.8672775,28.125 72.8237904,28.0849919 72.8237904,28.0049744 L72.8237904,28.0049744 Z M74.9529407,28.0049744 L74.9529407,21.6488344 C74.9529407,21.568817 74.9912094,21.5288088 75.0677479,21.5288088 L76.9829394,21.5288088 C77.567415,21.5288088 78.0266389,21.6775347 78.3606249,21.9749911 C78.694611,22.2724474 78.8616015,22.6977513 78.8616015,23.2509157 C78.8616015,23.4770521 78.7946313,23.7110127 78.660689,23.9528047 C78.5267467,24.1945967 78.3588865,24.3885492 78.1571032,24.5346681 C78.1466662,24.5659793 78.1501451,24.5903321 78.1675402,24.6077272 C78.45282,24.750367 78.671995,24.9625841 78.825072,25.2443849 C78.9781489,25.5261856 79.0546862,25.8305954 79.0546862,26.1576234 C79.0546862,26.7386199 78.879868,27.2117597 78.5302264,27.5770569 C78.1805848,27.9423541 77.7170121,28.125 77.1394946,28.125 L75.0781849,28.125 C74.9946884,28.125 74.9529407,28.0849919 74.9529407,28.0049744 L74.9529407,28.0049744 Z M75.8505237,27.248291 C75.8505237,27.3109134 75.8783555,27.3422241 75.9340198,27.3422241 L77.1186206,27.3422241 C77.4421696,27.3422241 77.6978738,27.2361156 77.8857409,27.0238953 C78.0736081,26.811675 78.1675402,26.5333575 78.1675402,26.1889344 C78.1675402,25.8479903 78.0736081,25.5618451 77.8857409,25.3304902 C77.6978738,25.0991353 77.4039009,24.9834596 77.0038135,24.9834596 L75.9340198,24.9834596 C75.8783555,24.9834596 75.8505237,25.0112913 75.8505237,25.0669557 L75.8505237,27.248291 Z M75.8505237,24.1276246 C75.8505237,24.190247 75.8783555,24.2215577 75.9340198,24.2215577 L76.9829394,24.2215577 C77.3030094,24.2215577 77.5482767,24.1284953 77.7187487,23.9423677 C77.8892208,23.7562401 77.9744555,23.5188004 77.9744555,23.2300417 C77.9744555,22.9412829 77.8874813,22.7142802 77.7135302,22.5490267 C77.5395792,22.3837732 77.2925724,22.3011477 76.9725024,22.3011477 L75.9340198,22.3011477 C75.8783555,22.3011477 75.8505237,22.3289794 75.8505237,22.3846437 L75.8505237,24.1276246 Z M79.6704699,27.9632263 L81.2516771,21.6592715 C81.2655932,21.5722959 81.3229962,21.5288088 81.4238878,21.5288088 L82.3319078,21.5288088 C82.4188833,21.5288088 82.4728073,21.565338 82.4936814,21.6383974 L84.1166367,27.9423523 C84.1375108,27.9806215 84.1409898,28.0206297 84.1270737,28.0623779 C84.1131576,28.1041262 84.0766285,28.125 84.0174851,28.125 L83.3703904,28.125 C83.2799359,28.125 83.2294908,28.1006472 83.2190537,28.0519409 L82.8641954,26.6585999 C82.8537583,26.6307677 82.8398424,26.6168519 82.8224473,26.6168519 L80.9333483,26.6168519 C80.9089951,26.6168519 80.8863818,26.6272888 80.8655077,26.6481629 L80.5263048,28.0519409 C80.5158677,28.1006472 80.4689017,28.125 80.3854052,28.125 L79.8113695,28.125 C79.7487471,28.125 79.7061298,28.1136934 79.6835161,28.0910797 C79.6609025,28.0684661 79.6565538,28.0258487 79.6704699,27.9632263 L79.6704699,27.9632263 Z M81.0638109,25.865387 C81.0672899,25.8758241 81.0864242,25.8810426 81.1212145,25.8810426 L82.5980516,25.8810426 C82.6328418,25.8810426 82.6537156,25.8766938 82.6606736,25.8679963 C82.6676317,25.8592987 82.6676317,25.8358157 82.6606736,25.7975465 L82.1910081,23.8719179 L81.8935533,22.5255434 C81.8900743,22.5116273 81.8848558,22.5020602 81.8778978,22.4968416 C81.8709397,22.4916231 81.8639818,22.4907533 81.8570238,22.4942324 C81.8500657,22.4977114 81.8448473,22.5046693 81.8413682,22.5151064 L81.5491319,23.8301698 L81.0690294,25.7975465 C81.0620714,25.8323367 81.0603319,25.85495 81.0638109,25.865387 L81.0638109,25.865387 Z M84.9776902,28.0049744 L84.9776902,21.6488344 C84.9776902,21.568817 85.0194378,21.5288088 85.1029343,21.5288088 L88.547148,21.5288088 C88.6410816,21.5288088 88.6880477,21.568817 88.6880477,21.6488344 L88.6880477,22.170685 C88.6880477,22.2576605 88.6445606,22.3011477 88.5575851,22.3011477 L85.9587692,22.3011477 C85.9031049,22.3011477 85.8752731,22.3289794 85.8752731,22.3846437 L85.8752731,24.2111207 C85.8752731,24.2702641 85.8996259,24.2998353 85.9483322,24.2998353 L88.0983566,24.2998353 C88.1818531,24.2998353 88.2236007,24.341583 88.2236007,24.4250795 L88.2236007,24.9625856 C88.2236007,25.039124 88.185332,25.0773927 88.1087936,25.0773927 L85.9587692,25.0773927 C85.9031049,25.0773927 85.8752731,25.1104429 85.8752731,25.1765443 L85.8752731,27.248291 C85.8752731,27.3109134 85.8996259,27.3422241 85.9483322,27.3422241 L88.5888961,27.3422241 C88.6758716,27.3422241 88.7193587,27.3822323 88.7193587,27.4622498 L88.7193587,27.9945374 C88.7193587,28.0815129 88.6758716,28.125 88.5888961,28.125 L85.1029343,28.125 C85.0194378,28.125 84.9776902,28.0849919 84.9776902,28.0049744 L84.9776902,28.0049744 Z M89.1994613,22.181122 L89.1994613,21.6488344 C89.1994613,21.568817 89.2412089,21.5288088 89.3247054,21.5288088 L93.2072736,21.5288088 C93.2907701,21.5288088 93.3325178,21.565338 93.3325178,21.6383974 L93.3325178,22.181122 C93.3325178,22.2611395 93.2907701,22.3011477 93.2072736,22.3011477 L91.7930586,22.3011477 C91.7304362,22.3011477 91.6991255,22.3289794 91.6991255,22.3846437 L91.6991255,27.9945374 C91.6991255,28.0815129 91.6591173,28.125 91.5790998,28.125 L90.9267866,28.125 C90.8432901,28.125 90.8015425,28.0849919 90.8015425,28.0049744 L90.8015425,22.3950808 C90.8015425,22.3324584 90.7737107,22.3011477 90.7180464,22.3011477 L89.3247054,22.3011477 C89.2412089,22.3011477 89.1994613,22.2611395 89.1994613,22.181122 L89.1994613,22.181122 Z M96.4114361,28.0310669 L96.4114361,21.6383974 C96.4114361,21.565338 96.4514443,21.5288088 96.5314617,21.5288088 L97.225523,21.5288088 C97.2881454,21.5288088 97.3194561,21.561859 97.3194561,21.6279604 L97.3194561,24.2789613 C97.3264141,24.3381047 97.3411998,24.3668062 97.3638134,24.3650667 C97.386427,24.3633271 97.4116496,24.3485415 97.4394817,24.3207094 L99.6521281,21.6070864 C99.6938764,21.5549011 99.742582,21.5288088 99.7982463,21.5288088 L100.492308,21.5288088 C100.558409,21.5288088 100.601026,21.5444642 100.620161,21.5757754 C100.639296,21.6070866 100.633207,21.6418762 100.601896,21.6801455 L98.6240825,24.1067506 C98.5753762,24.176331 98.5927711,24.2111207 98.6762676,24.2111207 L98.9528484,24.2111207 C99.8956631,24.2807012 100.405332,24.8686469 100.481871,25.9749757 L100.643644,28.0206299 C100.643644,28.0902103 100.608855,28.125 100.539274,28.125 L99.9182719,28.125 C99.8382544,28.125 99.7982463,28.0936893 99.7982463,28.0310669 L99.6730022,26.1054383 C99.6660441,25.9906306 99.6547375,25.8871313 99.6390819,25.7949372 C99.6234263,25.7027432 99.5903761,25.5975043 99.5399303,25.4792176 C99.4894845,25.3609309 99.426863,25.26265 99.3520641,25.184372 C99.2772651,25.1060941 99.1711566,25.0391239 99.0337352,24.9834596 C98.8963139,24.9277952 98.7354116,24.8999635 98.5510234,24.8999635 C98.154415,24.8999635 97.8500052,25.0138997 97.6377849,25.2417756 C97.4255647,25.4696515 97.3194561,25.77841 97.3194561,26.1680604 L97.3194561,28.0206299 C97.3194561,28.0902103 97.2881454,28.125 97.225523,28.125 L96.5314617,28.125 C96.4514443,28.125 96.4114361,28.0936893 96.4114361,28.0310669 L96.4114361,28.0310669 Z M101.280302,27.9632263 L102.861509,21.6592715 C102.875425,21.5722959 102.932828,21.5288088 103.03372,21.5288088 L103.94174,21.5288088 C104.028715,21.5288088 104.082639,21.565338 104.103513,21.6383974 L105.726469,27.9423523 C105.747343,27.9806215 105.750822,28.0206297 105.736906,28.0623779 C105.72299,28.1041262 105.686461,28.125 105.627317,28.125 L104.980222,28.125 C104.889768,28.125 104.839323,28.1006472 104.828886,28.0519409 L104.474027,26.6585999 C104.46359,26.6307677 104.449674,26.6168519 104.432279,26.6168519 L102.54318,26.6168519 C102.518827,26.6168519 102.496214,26.6272888 102.47534,26.6481629 L102.136137,28.0519409 C102.1257,28.1006472 102.078734,28.125 101.995237,28.125 L101.421202,28.125 C101.358579,28.125 101.315962,28.1136934 101.293348,28.0910797 C101.270735,28.0684661 101.266386,28.0258487 101.280302,27.9632263 L101.280302,27.9632263 Z M102.673643,25.865387 C102.677122,25.8758241 102.696256,25.8810426 102.731046,25.8810426 L104.207884,25.8810426 C104.242674,25.8810426 104.263548,25.8766938 104.270506,25.8679963 C104.277464,25.8592987 104.277464,25.8358157 104.270506,25.7975465 L103.80084,23.8719179 L103.503385,22.5255434 C103.499906,22.5116273 103.494688,22.5020602 103.48773,22.4968416 C103.480772,22.4916231 103.473814,22.4907533 103.466856,22.4942324 C103.459898,22.4977114 103.454679,22.5046693 103.4512,22.5151064 L103.158964,23.8301698 L102.678861,25.7975465 C102.671903,25.8323367 102.670164,25.85495 102.673643,25.865387 L102.673643,25.865387 Z M106.331815,28.0206299 L106.545774,25.8810426 C106.587522,25.4357278 106.7319,25.0704361 106.97891,24.7851564 C107.225921,24.4998766 107.554683,24.3276677 107.965208,24.2685243 C108.045225,24.2615663 108.156552,24.2580873 108.299192,24.2580873 C108.386168,24.2580873 108.403562,24.2215581 108.351377,24.1484987 L106.373563,21.6801455 C106.342252,21.6418762 106.335294,21.6070866 106.352689,21.5757754 C106.370085,21.5444642 106.411832,21.5288088 106.477934,21.5288088 L107.161558,21.5288088 C107.220701,21.5288088 107.271146,21.5549011 107.312894,21.6070864 L109.462919,24.2215577 C109.473356,24.2354738 109.486402,24.2476502 109.502058,24.2580873 C109.517713,24.2685244 109.533369,24.2702638 109.549024,24.2633058 C109.56468,24.2563478 109.574247,24.2389529 109.577726,24.2111207 L109.577726,21.6279604 C109.577726,21.561859 109.610776,21.5288088 109.676878,21.5288088 L110.370939,21.5288088 C110.447477,21.5288088 110.485746,21.565338 110.485746,21.6383974 L110.485746,24.2476503 C110.492704,24.3276678 110.532712,24.3311467 110.605772,24.2580873 L112.755796,21.6070864 C112.797544,21.5549011 112.84625,21.5288088 112.901914,21.5288088 L113.585538,21.5288088 C113.65164,21.5288088 113.694257,21.5444642 113.713392,21.5757754 C113.732526,21.6070866 113.726438,21.6418762 113.695127,21.6801455 L111.717313,24.1484987 C111.665128,24.2215581 111.682523,24.2580873 111.769498,24.2580873 C111.898222,24.2580873 111.990415,24.2615663 112.046079,24.2685243 C112.50531,24.3102726 112.867123,24.4894395 113.131528,24.8060304 C113.395934,25.1226213 113.547269,25.548795 113.585538,26.0845643 L113.736875,28.0206299 C113.747312,28.0902103 113.712522,28.125 113.632505,28.125 L113.011503,28.125 C112.931485,28.125 112.891477,28.0936893 112.891477,28.0310669 L112.745359,26.1471863 C112.734922,26.0080255 112.713178,25.8775642 112.680128,25.7557984 C112.647077,25.6340327 112.594023,25.5070503 112.520963,25.3748475 C112.447904,25.2426447 112.338316,25.1374059 112.192197,25.0591279 C112.046078,24.9808499 111.87039,24.9417115 111.665128,24.9417115 C111.292873,24.9417115 111.003249,25.0608662 110.796247,25.2991792 C110.589245,25.5374921 110.485746,25.8445111 110.485746,26.2202454 L110.485746,28.0310669 C110.485746,28.0936893 110.447477,28.125 110.370939,28.125 L109.676878,28.125 C109.610776,28.125 109.577726,28.0902103 109.577726,28.0206299 L109.577726,26.1471863 C109.577726,25.3435325 109.1933,24.9417115 108.424436,24.9417115 C108.215695,24.9417115 108.035658,24.9808499 107.884321,25.0591279 C107.732983,25.1374059 107.618177,25.241775 107.539899,25.3722383 C107.461622,25.5027015 107.405088,25.6305537 107.370298,25.7557984 C107.335508,25.8810432 107.312895,26.0115045 107.302457,26.1471863 L107.177213,28.0310669 C107.177213,28.0936893 107.137205,28.125 107.057188,28.125 L106.436186,28.125 C106.356168,28.125 106.321378,28.0902103 106.331815,28.0206299 L106.331815,28.0206299 Z M114.211759,27.7179566 C114.211759,27.6483761 114.218717,27.5953219 114.232633,27.5587921 C114.246549,27.5222624 114.263944,27.4970399 114.284818,27.4831238 C114.305692,27.4692077 114.342221,27.4518129 114.394407,27.4309387 L114.587491,27.3578797 C114.970184,27.2117608 115.205014,26.7229656 115.29199,25.8914796 C115.319822,25.6862173 115.345044,25.4452987 115.367658,25.1687165 C115.390272,24.8921343 115.406797,24.6442578 115.417234,24.4250795 C115.427671,24.2059011 115.446805,23.8032105 115.474637,23.2169954 C115.50247,22.6307803 115.526822,22.135897 115.547696,21.7323305 C115.551175,21.652313 115.56944,21.598389 115.602491,21.5705569 C115.635541,21.5427247 115.688596,21.5288088 115.761655,21.5288088 L118.971036,21.5288088 C119.040617,21.5288088 119.090192,21.5435944 119.119764,21.5731661 C119.149335,21.6027378 119.164121,21.6557921 119.164121,21.7323305 L119.164121,27.248291 C119.164121,27.3109134 119.184995,27.3422241 119.226743,27.3422241 L119.451139,27.3422241 C119.527677,27.3422241 119.575513,27.35614 119.594648,27.3839722 C119.613782,27.4118044 119.623349,27.4657284 119.623349,27.5457459 L119.623349,29.4296264 C119.61987,29.4957278 119.610303,29.5426939 119.594648,29.5705261 C119.578992,29.5983582 119.563337,29.6140136 119.547681,29.6174926 C119.532025,29.6209716 119.503324,29.6227111 119.461576,29.6227111 L118.99191,29.6227111 C118.929288,29.6227111 118.885801,29.6114045 118.861448,29.5887908 C118.837094,29.5661772 118.823179,29.5131229 118.8197,29.4296264 L118.8197,28.2189331 C118.812741,28.1563107 118.762296,28.125 118.668363,28.125 L115.177183,28.125 C115.159787,28.125 115.145002,28.1258697 115.132825,28.1276093 C115.120649,28.1293488 115.110212,28.1302185 115.101514,28.1302185 C115.092817,28.1302185 115.085859,28.1328277 115.08064,28.1380463 C115.075422,28.1432648 115.070203,28.1467438 115.064985,28.1484833 C115.059766,28.1502228 115.055417,28.1571807 115.051938,28.1693573 C115.048459,28.1815339 115.04585,28.1893616 115.044111,28.1928406 C115.042371,28.1963196 115.039762,28.2076262 115.036283,28.2267609 C115.032804,28.2458955 115.029325,28.2589416 115.025846,28.2658997 L115.025846,29.4191894 C115.022367,29.4852908 115.0128,29.5331266 114.997144,29.5626983 C114.981489,29.59227 114.964963,29.6096648 114.947568,29.6148834 C114.930173,29.6201019 114.902341,29.6227111 114.864072,29.6227111 L114.373533,29.6227111 C114.31091,29.6227111 114.269163,29.613144 114.248289,29.5940094 C114.227414,29.5748747 114.215238,29.5339968 114.211759,29.4713745 L114.211759,27.7179566 Z M115.730344,27.2796021 C115.699033,27.3213503 115.716428,27.3422241 115.782529,27.3422241 L118.167386,27.3422241 C118.233488,27.3422241 118.266538,27.3109134 118.266538,27.248291 L118.266538,22.4263918 C118.266538,22.3428953 118.219572,22.3011477 118.125638,22.3011477 L116.424405,22.3011477 C116.368741,22.3011477 116.340909,22.3359373 116.340909,22.4055178 C116.240018,24.3363745 116.172178,25.4809553 116.137388,25.8392945 C116.05737,26.4689973 115.92169,26.9490951 115.730344,27.2796021 L115.730344,27.2796021 Z M120.74011,27.9945374 L120.74011,21.6383974 C120.74011,21.565338 120.780118,21.5288088 120.860135,21.5288088 L121.486356,21.5288088 C121.573331,21.5288088 121.616819,21.565338 121.616819,21.6383974 L121.616819,24.1380617 C121.616819,24.2041631 121.64465,24.2372133 121.700315,24.2372133 L122.931882,24.2372133 C123.50592,24.2372133 123.968623,24.4215986 124.320005,24.7903749 C124.671386,25.1591511 124.847074,25.625333 124.847074,26.1889344 C124.847074,26.7525358 124.659209,27.2161084 124.283475,27.5796662 C123.907741,27.9432239 123.410248,28.125 122.790982,28.125 L120.860135,28.125 C120.780118,28.125 120.74011,28.0815129 120.74011,27.9945374 L120.74011,27.9945374 Z M121.616819,27.2587281 C121.616819,27.3143924 121.648129,27.3422241 121.710752,27.3422241 L122.790982,27.3422241 C123.131926,27.3422241 123.413723,27.2300274 123.63638,27.0056305 C123.859038,26.7812337 123.970365,26.5124833 123.970365,26.1993714 C123.970365,25.8132001 123.861647,25.5174877 123.644208,25.3122254 C123.426769,25.1069632 123.142363,25.0043336 122.790982,25.0043336 L121.700315,25.0043336 C121.64465,25.0043336 121.616819,25.0356443 121.616819,25.0982667 L121.616819,27.2587281 Z M125.494168,28.0049744 L125.494168,21.6488344 C125.494168,21.568817 125.537655,21.5288088 125.624631,21.5288088 L126.287381,21.5288088 C126.367399,21.5288088 126.407407,21.565338 126.407407,21.6383974 L126.407407,27.9945374 C126.407407,28.0815129 126.367399,28.125 126.287381,28.125 L125.624631,28.125 C125.537655,28.125 125.494168,28.0849919 125.494168,28.0049744 L125.494168,28.0049744 Z M127.706815,27.9945374 L127.706815,21.6383974 C127.706815,21.565338 127.750302,21.5288088 127.837277,21.5288088 L128.432187,21.5288088 C128.512204,21.5288088 128.552213,21.568817 128.552213,21.6488344 L128.552213,26.3611451 C128.552213,26.3820192 128.559171,26.3872377 128.573087,26.3768006 L128.583524,26.3507081 L131.072751,21.7010195 C131.07623,21.6940615 131.084058,21.6836246 131.096234,21.6697085 C131.108411,21.6557924 131.116238,21.6462252 131.119717,21.6410067 C131.123196,21.6357882 131.130154,21.6270907 131.140591,21.6149142 C131.151029,21.6027376 131.159726,21.5940402 131.166684,21.5888216 C131.173642,21.5836031 131.182339,21.5766452 131.192776,21.5679476 C131.203214,21.5592501 131.21365,21.5531619 131.224088,21.5496828 C131.234525,21.5462038 131.246701,21.5427248 131.260617,21.5392458 C131.274533,21.5357668 131.290189,21.5331576 131.307584,21.5314181 C131.324979,21.5296786 131.342374,21.5288088 131.359769,21.5288088 L131.855527,21.5288088 C131.932065,21.5288088 131.970334,21.568817 131.970334,21.6488344 L131.970334,28.0049744 C131.970334,28.0849919 131.928586,28.125 131.84509,28.125 L131.234525,28.125 C131.154507,28.125 131.114499,28.0815129 131.114499,27.9945374 L131.114499,23.2196047 C131.114499,23.1987305 131.104062,23.1987305 131.083188,23.2196047 C130.822261,23.7240627 130.407394,24.5155282 129.838574,25.5940247 C129.269754,26.6725213 128.854887,27.4622473 128.593961,27.9632263 C128.55917,28.0432438 128.52786,28.0902099 128.500028,28.104126 C128.472195,28.1180421 128.411313,28.125 128.31738,28.125 L127.837277,28.125 C127.750302,28.125 127.706815,28.0815129 127.706815,27.9945374 L127.706815,27.9945374 Z M128.593961,20.0885012 C128.593961,20.046753 128.601788,20.016312 128.617444,19.9971774 C128.6331,19.9780428 128.668759,19.9684756 128.724423,19.9684756 L128.948819,19.9684756 C128.969693,19.9684756 128.987088,19.9702151 129.001004,19.9736941 C129.01492,19.9771731 129.025357,19.9806521 129.032315,19.9841311 C129.039273,19.9876102 129.046231,19.9945681 129.053189,20.0050052 C129.060147,20.0154422 129.065366,20.0232699 129.068845,20.0284884 C129.072324,20.033707 129.076672,20.0467531 129.081891,20.0676272 C129.087109,20.0885013 129.091458,20.1024172 129.094937,20.1093753 C129.164518,20.3285536 129.254971,20.4885862 129.3663,20.5894778 C129.477628,20.6903694 129.634182,20.7408145 129.835965,20.7408145 C130.222136,20.7408145 130.467404,20.5303368 130.571774,20.1093753 C130.575253,20.0989382 130.579602,20.0850223 130.584821,20.0676272 C130.590039,20.0502321 130.593518,20.0380557 130.595258,20.0310977 C130.596997,20.0241396 130.601346,20.0154422 130.608304,20.0050052 C130.615262,19.9945681 130.62309,19.9876102 130.631787,19.9841311 C130.640485,19.9806521 130.652661,19.9771731 130.668317,19.9736941 C130.683972,19.9702151 130.702237,19.9684756 130.723111,19.9684756 L130.947507,19.9684756 C131.003171,19.9684756 131.037961,19.9780428 131.051877,19.9971774 C131.065793,20.016312 131.072751,20.046753 131.072751,20.0885012 C131.055356,20.4607565 130.930983,20.7712545 130.699628,21.0200045 C130.468273,21.2687545 130.17517,21.3931277 129.82031,21.3931277 C129.482844,21.3931277 129.198439,21.267015 128.967084,21.014786 C128.735729,20.762557 128.611356,20.4537985 128.593961,20.0885012 L128.593961,20.0885012 Z" id="ВЫИГРЫВАЕТ-КАЖДЫЙ"></path>
                    <polygon id="Shape" points="71.25 5.7026535 71.25 2.08333333 82.9166667 2.08333333 82.9166667 5.7026535 79.0801498 5.7026535 79.0801498 17.9166667 75.1089265 17.9166667 75.1089265 5.7026535"></polygon>
                    <polygon id="Shape" points="97.4322684 2.69432554 91.0805455 14.2296274 97.5 14.2296274 97.5 17.9166667 85 17.9166667 85 17.3287687 91.3743001 5.68025499 85.5649321 5.68025499 85.5649321 2.08333333 97.4322684 2.08333333"></polygon>
                    <path d="M107.89361,18.3333333 C103.598842,18.3333333 99.5833333,15.5825243 99.5833333,10.011449 C99.5833333,4.46327166 103.738214,1.66666667 107.962909,1.66666667 C112.118048,1.66666667 116.25,4.46327166 116.25,10.011449 C116.250258,14.9174656 112.815165,18.3333333 107.89361,18.3333333 L107.89361,18.3333333 Z M107.916538,14.3674055 C109.936014,14.3674055 112.002377,12.8777656 112.002377,10.011449 C112.002377,7.14615009 109.982385,5.6560013 107.962909,5.6560013 C105.850433,5.6560013 103.831214,7.07720177 103.831214,10.011449 C103.831472,12.8777656 105.827762,14.3674055 107.916538,14.3674055 L107.916538,14.3674055 Z" id="Shape"></path>
                    <polygon id="Shape" points="122.492005 9.76471576 122.492005 17.8713047 118.333333 17.8713047 118.333333 2.08333333 119.628757 2.08333333 127.924157 9.83126331 127.924157 2.15062861 132.083333 2.15062861 132.083333 17.9166667 130.855758 17.9166667"></polygon>
                    <path d="M14.9998283,3.75 C21.2029821,3.75 26.25,8.7966744 26.25,15.0001717 C26.25,21.2036691 21.2026386,26.2503435 14.9998283,26.2503435 C8.79633093,26.2503435 3.75,21.2036691 3.75,15.0001717 C3.75,8.7966744 8.79633093,3.75 14.9998283,3.75 L14.9998283,3.75 Z M15,0 C6.71459974,0 0,6.71490505 0,15 C0,23.2844843 6.71459974,30 15,30 C23.2844843,30 30,23.2844843 30,15 C30,6.71490505 23.2844843,0 15,0 L15,0 L15,0 Z" id="Shape"></path>
                    <g id="z" transform="translate(10.416667, 9.166667)">
                        <polygon id="Shape-Copy" points="4.25638183 9.26954023 8.75 9.26954023 8.75 12.0833333 0 12.0833333 0 11.6346743 4.46201007 2.74501916 0.395452447 2.74501916 0.395452447 0 8.70258785 0 8.70258785 0.466283525"></polygon>
                        <rect id="Rectangle-46" x="0.833333333" y="4.16666667" width="7.5" height="1.25"></rect>
                        <rect id="Rectangle-46" x="0.833333333" y="6.66666667" width="7.5" height="1.25"></rect>
                    </g>
                </g>
            </g>
        </g>
    </g>
</svg>