<?xml version="1.0" standalone="no"?>
<!DOCTYPE svg PUBLIC "-//W3C//DTD SVG 1.1//EN" "http://www.w3.org/Graphics/SVG/1.1/DTD/svg11.dtd">
<svg xmlns="http://www.w3.org/2000/svg">
<metadata>Copyright (C) 2016 by original authors @ fontello.com</metadata>
<defs>
<font id="fontello" horiz-adv-x="1000" >
<font-face font-family="fontello" font-weight="400" font-stretch="normal" units-per-em="1000" ascent="850" descent="-150" />
<missing-glyph horiz-adv-x="1000" />
<glyph glyph-name="vk-simple" unicode="&#xe800;" d="M549 68c0 0 18 2 27 12 9 9 9 26 9 26 0 0-2 80 36 92 36 12 83-77 133-112 38-26 67-20 67-20l133 2c0 0 70 4 37 59-3 5-19 41-99 115-84 78-73 65 28 200 62 82 86 132 78 153-7 20-52 15-52 15l-150-1c0 0-12 2-20-3-8-5-13-17-13-17 0 0-24-63-56-117-67-113-93-120-104-112-26 16-19 66-19 101 0 110 16 156-33 168-16 4-28 6-70 7-54 0-99 0-125-13-17-8-30-27-22-28 10-1 32-6 44-22 16-21 15-68 15-68 0 0 9-130-21-146-20-11-48 11-107 115-31 52-54 111-54 111 0 0-4 11-12 17-10 7-23 9-23 9l-143-1c0 0-22-1-30-10-7-8 0-25 0-25 0 0 112-262 238-394 116-121 248-113 248-113l60 0z" horiz-adv-x="1000" />

<glyph glyph-name="arrow-down" unicode="&#xe801;" d="M487 124l-4 4-450 450-10 10-21-21 10-10 450-450 3-4 0 0 21-21 11 10 494 494 11 11-22 21-10-10-483-484z" horiz-adv-x="1000" />

<glyph glyph-name="fb-simple" unicode="&#xe802;" d="M0 313l0 191 154 0 0 96q0 104 68 177t163 73l153 0 0-191-153 0q-15 0-27-16t-12-41l0-98 192 0 0-191-192 0 0-463-192 0 0 463-154 0z" horiz-adv-x="538" />

<glyph glyph-name="arrow-left" unicode="&#xe803;" d="M276 365l3 3 450 450 11 11-21 21-11-11-450-449-3-4 0 0-22-21 11-10 494-494 11-11 21 21-11 11-483 483z" horiz-adv-x="1000" />

<glyph glyph-name="arrow-right" unicode="&#xe804;" d="M727 335l-3-3-450-450-11-11 21-21 11 11 450 450 3 3 1 0 21 21-11 10-494 494-10 11-22-21 11-11 483-483z" horiz-adv-x="1000" />

<glyph glyph-name="arrow-slim-down" unicode="&#xe805;" d="M494 192l-1-2-9 5-482 292-8 5 9 18 8-5 482-292 1 0 0 0 482 292 9 5 9-18-8-5-483-292-8-5-1 2z" horiz-adv-x="1000" />

<glyph glyph-name="arrow-slim-left" unicode="&#xe806;" d="M336 350l-3 1 5 9 293 482 5 8 18-9-5-8-292-482 0-1 0 0 292-483 5-8-18-9-5 8-293 483-5 8 3 1z" horiz-adv-x="1000" />

<glyph glyph-name="arrow-slim-right" unicode="&#xe807;" d="M652 350l2-1-5-8-292-483-5-8-19 9 5 8 293 483 0 0 0 1-293 482-5 8 19 9 5-8 292-482 5-9-2-1z" horiz-adv-x="1000" />

<glyph glyph-name="games-cards-24" unicode="&#xe808;" d="M267 867c-46 0-84-38-84-84l0-866c0-46 38-84 84-84l519 0c45 0 83 38 83 84l0 866c0 46-38 84-83 84l-519 0z m0-34l519 0c28 0 50-22 50-50l0-866c0-28-22-50-50-50l-519 0c-28 0-50 22-50 50l0 866c0 28 22 50 50 50z m38-643l0 16c0 3 0 6 1 7 0 2 0 4 1 7 1 3 3 5 5 8l120 164c11 15 16 31 16 47 0 14-4 25-12 35-8 9-20 14-36 14-10 0-19-3-29-8-10-6-18-12-24-19-5-6-9-8-13-4l-16 14c-4 3-4 6-2 10 9 15 21 26 36 34 16 7 32 11 50 11 26 0 47-7 64-22 17-15 25-36 25-63 0-12-2-25-7-37-6-13-12-24-19-32l-106-146c-3-5-3-7 2-7l128 0c4 0 6-2 6-5l0-28c0-3-2-5-6-5l-175 0c-6 0-9 3-9 9l0 0z m242 70l0 15c0 7 0 11 1 14 0 3 2 6 4 11l106 219c1 2 3 3 5 3l32 0c2 0 3-1 4-3 1-1 1-3 0-5l-105-217c-3-4-2-6 3-6l69 0c1 0 2 0 2 0 1 0 1 1 2 1 0 0 0 1 1 1 0 0 0 1 0 1 0 1 0 1 0 1l0 2 0 1 0 97c0 3 2 5 5 5l32 0c3 0 5-2 5-5l0-96 0-1c0-2 0-4 0-5 0 0 1-1 1-1 1-1 2-1 4-1l30 0c4 0 6-2 6-6l0-25c0-4-2-6-6-6l-28 0c-3 0-4 0-6-1-1-1-1-3-1-6l0-61c0-3-2-5-5-5l-32 0c-3 0-5 2-5 5l0 61c0 5-2 7-6 7l-113 0c-3 0-5 2-5 6l0 0z" horiz-adv-x="1000" />

<glyph glyph-name="games-cards-36" unicode="&#xe809;" d="M267 867c-46 0-84-38-84-84l0-866c0-46 38-84 84-84l519 0c45 0 83 38 83 84l0 866c0 46-38 84-83 84l-519 0z m0-34l519 0c28 0 50-22 50-50l0-866c0-28-22-50-50-50l-519 0c-28 0-50 22-50 50l0 866c0 28 22 50 50 50z m29-610c-2 3-1 7 3 9l24 15c2 1 4 2 5 2 2 0 3-1 5-3l5-7c13-16 29-24 46-24 16 0 29 5 40 15 11 10 17 23 17 41l0 26c0 14-5 26-15 35-10 10-22 15-38 15l-34 0c-4 0-6 1-6 4l0 28c0 4 2 5 5 5l35 0c16 0 28 5 39 13 10 9 15 21 15 37 0 15-5 28-14 37-9 9-22 14-39 14-21 0-37-9-49-26-3-6-7-8-12-5l-24 14c-2 3-3 5-3 6 0 1 1 3 2 5 9 15 22 26 37 33 16 7 33 11 51 11 31 0 54-8 70-24 16-16 24-37 24-63 0-14-4-28-12-42-9-13-20-22-32-26-2-1-3-2-3-3 0-1 1-2 2-2 10-2 19-7 26-15 7-7 12-15 14-23 3-9 4-18 4-27l0-26c0-29-9-52-28-69-18-17-42-26-72-26-27 0-49 7-64 19-12 9-20 18-24 27l0 0z m230 45l0 153c0 32 10 57 29 75 19 18 44 27 74 27 21 0 38-3 51-9 13-6 26-16 37-31 3-4 3-8-2-12l-20-17c-2-1-4-2-7-1-2 0-3 2-5 4-15 19-33 28-54 28-19 0-34-5-44-16-10-11-15-25-15-42l0-44c0-3 1-5 2-6 2-1 3-1 5 1 15 13 32 19 52 19 27 0 50-8 68-24 18-15 27-36 27-63l0-40c0-28-9-50-27-67-18-17-42-26-71-26-30 0-54 8-72 24-18 15-28 37-28 67l0 0z m44 0c0-16 6-29 16-39 11-10 24-14 40-14 15 0 28 4 38 14 10 10 15 24 16 41l0 40c0 15-5 27-15 36-10 9-24 13-39 13-16 0-29-5-40-15-10-9-16-22-16-37l0-39z" horiz-adv-x="1000" />

<glyph glyph-name="games-cards-52" unicode="&#xe80a;" d="M233 867c-45 0-83-38-83-84l0-866c0-46 38-84 83-84l519 0c46 0 84 38 84 84l0 866c0 46-38 84-84 84l-519 0z m0-34l519 0c28 0 50-22 50-50l0-866c0-28-22-50-50-50l-519 0c-28 0-50 22-50 50l0 866c0 28 22 50 50 50z m50-598c-2 4-1 7 2 8l26 15c3 2 6 1 9-2 8-11 15-18 22-23 7-5 16-7 28-7 17 0 31 5 41 15 10 10 16 23 16 39l0 42c0 7-1 13-3 18-2 6-5 11-8 16-4 5-10 9-18 12-7 3-17 4-27 4-11 0-22-3-32-9-7-5-13-7-18-5l-19 8c-6 3-8 7-8 12l0 145c0 4 1 6 4 6l159 0c3 0 5-2 5-5l0-28c0-3-1-5-5-5l-114 0c-4 0-6-2-6-6l0-74c0-7 4-9 12-6 10 4 19 6 28 6 31 0 54-8 70-24 16-17 23-39 23-66l0-37c0-29-9-53-28-70-19-17-43-26-72-26-21 0-39 4-52 11-13 7-25 19-35 36l0 0z m229-19c0 3 0 6 0 8 0 1 1 4 2 6 1 3 3 5 5 8l127 163c11 15 17 30 17 46 0 14-4 25-12 35-9 9-22 14-39 14-10 0-20-3-31-9-10-5-19-12-25-18-5-6-9-8-13-5l-18 15c-4 2-4 6-2 10 9 15 22 26 39 33 16 8 33 11 52 11 27 0 50-7 68-22 18-15 27-36 27-62 0-12-3-24-9-37-5-12-11-23-19-32l-113-144c-3-5-2-7 3-7l135 0c4 0 6-2 6-5l0-27c0-4-2-6-6-6l-185 0c-6 0-9 3-9 9l0 16z" horiz-adv-x="1000" />

<glyph glyph-name="games-type-revert" unicode="&#xe80b;" d="M267 867c-46 0-84-38-84-84l0-866c0-46 38-84 84-84l519 0c45 0 83 38 83 84l0 866c0 46-38 84-83 84l-519 0z m0-34l519 0c28 0 50-22 50-50l0-866c0-28-22-50-50-50l-519 0c-28 0-50 22-50 50l0 866c0 28 22 50 50 50z m502-400l-28-6c-35 101-139 163-247 142-83-16-145-77-167-153l61-11c17 51 61 92 118 103 74 15 146-26 173-93l-37-7c-3-5-7-9 1-16l68-46c6-4 13-2 17 3l46 69c4 5 0 11-5 15l0 0z m-204-230c-68-13-134 21-166 79l34 6c3 6 5 13-1 16l-68 47c-6 4-14 2-18-3l-45-69c-5-10 0-11 5-15l28 5c34-87 137-147 243-126 78 15 137 69 163 139l-62 11c-20-45-61-79-113-90l0 0z" horiz-adv-x="1000" />

<glyph glyph-name="games-type-throw" unicode="&#xe80c;" d="M270 867c-46 0-83-38-83-84l0-866c0-46 37-84 83-84l520 0c46 0 83 38 83 84l0 866c0 46-37 84-83 84l-520 0z m0-34l520 0c28 0 50-22 50-50l0-866c0-28-22-50-50-50l-520 0c-28 0-50 22-50 50l0 866c0 28 22 50 50 50z m319-221c-16 0-31-5-44-15l0 0c-14-10-19-26-22-39-2-14-2-26-2-33l0-88-392 0 0-175 391 1 0-89c-1-11-1-23 1-36 3-13 10-27 22-37 26-19 62-19 87 0l258 194 0-1 21 16c13 10 20 25 19 40 1 15-5 30-19 40l-277 208c-13 9-28 14-43 14z m23-41l277-208c6-4 7-8 6-12l0-1 0-1c1-4 0-8-6-12l26-10-16-20-10 30-279-209c-12-9-35-9-47 0-5 4-7 8-9 16-1 8-1 19-1 30l0 0 0 122-391 0 0 108 392-1 0 122 0 0c0 7 0 17 2 26 2 10 5 17 9 20 12 9 36 9 47 0z m287-248c9 8 14 17 13 27 1 10-3 20-13 27l-277 207c-18 14-48 14-67 0-18-14-17-45-17-59l-1-105-392 1 0-142 392 1-1-106c0-23-1-46 17-60 19-14 49-14 67 0l279 209 0 0z" horiz-adv-x="1000" />

<glyph glyph-name="hart" unicode="&#xe80d;" d="M750 783c-104 0-188-51-251-119-61 70-145 119-249 119-147 0-250-113-250-237 0-66 30-114 63-159l389-420c43-37 52-37 95 0l390 420c39 45 63 93 63 159 0 124-103 237-250 237" horiz-adv-x="1000" />

<glyph glyph-name="ok-black" unicode="&#xe80e;" d="M648 332c-7 14-27 26-54 5-36-28-94-28-94-28 0 0-58 0-94 28-27 21-47 9-54-5-13-26 2-38 34-58 27-17 65-24 90-26l-21-20c-28-29-56-56-75-75-12-11-12-30 0-41l3-3c12-12 30-12 42 0l75 74c29-28 57-55 76-74 12-12 30-12 42 0l3 3c12 11 12 30 0 41l-96 95c25 2 62 9 89 26 32 20 47 32 34 58l0 0z m-148 204c35 0 63-28 63-62 0-35-28-63-63-63-35 0-63 28-63 63 0 34 28 62 63 62l0 0z m0-189c71 0 128 57 128 127 0 69-57 126-128 126-71 0-128-57-128-126 0-70 57-127 128-127l0 0z m-500 503l1000 0 0-1000-1000 0 0 1000z" horiz-adv-x="1000" />

<glyph glyph-name="person" unicode="&#xe80f;" d="M500 317c138 0 250 112 250 250 0 138-112 250-250 250-138 0-250-112-250-250 0-138 112-250 250-250z m467-257c-74 71-261 133-477 133-215 0-395-62-468-133-17-16-22-38-22-62l0-140 487 0 513 0 0 140c0 24-16 46-33 62z" horiz-adv-x="1000" />

<glyph glyph-name="person2" unicode="&#xe810;" d="M698 274c83 0 151 68 151 152 0 83-68 151-151 151-84 0-151-68-151-151 0-84 67-152 151-152l0 0 0 0z m282-156c-44 43-158 81-288 81-130 0-239-38-283-81-11-9-14-23-14-37l0-85 295 0 310 0 0 85c0 14-10 28-20 37l0 0 0 0z m-596 210c106 0 192 87 192 195 0 107-86 194-192 194-106 0-192-87-192-194 0-108 86-195 192-195l0 0 0 0z m358-199c-56 55-200 103-366 103-165 0-303-48-359-103-13-12-17-30-17-48l0-109 374 0 393 0 0 109c0 18-12 36-25 48l0 0 0 0z" horiz-adv-x="1000" />

<glyph glyph-name="picture" unicode="&#xe811;" d="M21 850c-12 0-21-9-21-21l0-958c0-12 9-21 21-21l958 0c3 0 6 0 8 2 2 0 3 1 5 3 4 3 5 5 7 8 1 2 1 5 1 8 0 0 0 958 0 958 0 12-9 21-21 21l-958 0z m20-959l0 226 336 336 553-562-889 0 0 0z m918 30l-370 376 145 146 225-225 0-297 0 0z m0 356l-210 210c-8 8-21 8-29 0l-160-160-168 170c-4 4-9 6-15 6l0 0c-5 0-10-2-14-6l-322-321 0 633 918 0 0-532 0 0z" horiz-adv-x="1000" />

<glyph glyph-name="play" unicode="&#xe812;" d="M864 401l-678 437c-40 22-86 20-86-58l0-860c0-71 49-83 86-59l678 437c28 29 28 75 0 103" horiz-adv-x="1000" />

<glyph glyph-name="plus" unicode="&#xe813;" d="M875 475l-250 0 0 250c0 69-56 125-125 125-69 0-125-56-125-125l0-250-250 0c-69 0-125-56-125-125 0-69 56-125 125-125l250 0 0-250c0-69 56-125 125-125 69 0 125 56 125 125l0 250 250 0c69 0 125 56 125 125 0 69-56 125-125 125" horiz-adv-x="1000" />

<glyph glyph-name="Twitter" unicode="&#xe814;" d="M5 613l995 0 0-563-995 0z m660-157c-13-5-26-9-40-11 14 9 25 22 30 39-13-8-28-14-44-17-13 13-31 22-51 22-38 0-69-31-69-70 0-5 0-11 1-16-58 3-109 31-143 73-6-10-10-22-10-35 0-24 13-45 31-58-11 0-22 4-31 9l0-1c0-34 24-62 56-68-6-2-12-3-19-3-4 0-9 1-13 1 9-27 35-47 65-48-24-19-54-30-86-30-6 0-11 1-17 1 31-20 68-31 107-31 128 0 198 106 198 198l0 9c14 10 25 22 35 36z" horiz-adv-x="1000" />

<glyph glyph-name="tw" unicode="&#xe815;" d="M-17 867l0-17 0-1017 1034 0 0 1034-1034 0z m34-34l966 0 0-966-966 0 0 966z m764-317c-20-9-41-15-63-18 23 14 40 35 48 61-21-13-45-22-69-27-20 22-49 35-80 35-61 0-110-49-110-110 0-8 1-16 3-24-91 4-171 48-225 114-10-16-15-35-15-55 0-38 19-72 48-91-18 0-34 5-49 13 0 0 0-1 0-1 0-53 38-97 88-107-10-3-19-4-29-4-7 0-14 0-21 2 14-44 55-75 102-76-37-30-84-47-135-47-9 0-18 0-27 1 49-31 106-49 168-49 201 0 311 167 311 312 0 5 0 9 0 14 22 15 40 35 55 57" horiz-adv-x="1000" />

<glyph glyph-name="tw-black" unicode="&#xe816;" d="M0 850l1000 0 0-1000-1000 0 0 1000z m781-334c-20-9-41-15-63-18 23 14 40 35 48 61-21-13-45-22-69-27-20 22-49 35-80 35-61 0-110-49-110-110 0-8 1-16 3-24-91 4-171 48-225 114-10-16-15-35-15-55 0-38 19-72 48-91-18 0-34 5-49 13 0 0 0-1 0-1 0-53 38-97 88-107-10-3-19-4-29-4-7 0-14 0-21 2 14-44 55-75 102-76-37-30-84-47-135-47-9 0-18 0-27 1 49-31 106-49 168-49 201 0 311 167 311 312 0 5 0 9 0 14 22 15 40 35 55 57" horiz-adv-x="1000" />

<glyph glyph-name="wk" unicode="&#xe817;" d="M764 219c-1 2-1 3-2 4-9 16-27 36-53 60l-1 0 0 0 0 1 0 0c-12 11-20 18-23 22-6 7-7 14-4 22 2 5 11 17 25 35 8 10 14 18 18 23 32 42 46 69 42 80l-2 3c-1 2-4 3-8 4-5 2-11 2-18 1l-80-1c-1 1-3 1-6 0-2 0-3 0-3 0l-2-1-1-1c-1 0-2-1-3-3-1-1-2-3-3-5-8-21-18-42-29-61-7-11-13-21-19-29-6-8-11-14-15-18-3-4-7-7-10-9-3-3-6-4-7-3-2 0-4 0-5 1-3 1-5 4-6 6-2 3-3 7-4 11 0 4 0 8 0 11-1 3-1 7 0 13 0 6 0 9 0 11 0 7 0 15 0 23 1 8 1 14 1 19 0 5 0 10 0 15 0 5 0 9-1 12 0 3-1 6-3 9-1 3-3 5-5 6-3 2-6 3-10 4-9 2-22 3-37 4-34 0-57-2-66-7-4-2-8-5-11-8-3-4-4-6-1-7 11-1 19-5 23-11l2-3c1-3 3-7 4-13 1-6 2-13 2-20 1-13 1-24 0-34-1-9-1-16-2-22-1-5-2-9-4-12-2-4-3-6-3-6-1-1-1-2-2-2-2-1-5-1-7-1-3 0-6 1-10 4-3 2-7 6-11 10-4 5-9 11-14 19-5 8-10 17-15 28l-5 8c-2 5-6 12-11 22-5 10-9 19-13 28-1 4-4 7-7 9l-1 1c-1 0-2 1-4 2-2 1-5 1-7 2l-76-1c-8 0-13-2-16-5l-1-2c0-1-1-2-1-4 0-2 1-5 2-7 11-26 23-51 36-74 13-24 25-43 34-57 10-15 20-29 30-41 10-13 16-21 20-25 3-4 5-6 7-8l7-7c5-4 11-9 20-15 8-6 18-12 28-18 11-6 23-11 37-15 14-3 27-5 40-4l32 0c7 0 12 2 15 6l1 1c1 1 2 3 2 5 1 2 1 5 1 8 0 7 1 14 2 21 1 6 3 11 5 14 2 3 3 6 6 8 2 2 4 3 4 4 1 0 2 1 3 1 4 1 9 0 15-5 6-4 12-9 17-15 6-6 12-13 19-21 8-8 14-14 20-18l5-3c4-2 9-4 15-6 6-2 11-2 15-1l71 1c7 0 13 1 17 3 4 3 6 5 7 8 0 2 0 6 0 9-1 3-1 6-2 7l0 0z m-781 648l0-17 0-1017 1034 0 0 1034-1034 0z m34-34l966 0 0-966-966 0 0 966z" horiz-adv-x="1000" />

<glyph glyph-name="wk-black" unicode="&#xe818;" d="M0 850l1000 0 0-1000-1000 0 0 1000z m764-631c-1 2-1 3-2 4-9 16-27 36-53 60l-1 0 0 0 0 1 0 0c-12 11-20 18-23 22-6 7-7 14-4 22 2 5 11 17 25 35 8 10 14 18 18 23 32 42 46 69 42 80l-2 3c-1 2-4 3-8 4-5 2-11 2-18 1l-80-1c-1 1-3 1-6 0-2 0-3 0-3 0l-2-1-1-1c-1 0-2-1-3-3-1-1-2-3-3-5-8-21-18-42-29-61-7-11-13-21-19-29-6-8-11-14-15-18-3-4-7-7-10-9-3-3-6-4-7-3-2 0-4 0-5 1-3 1-5 4-6 6-2 3-3 7-4 11 0 4 0 8 0 11-1 3-1 7 0 13 0 6 0 9 0 11 0 7 0 15 0 23 1 8 1 14 1 19 0 5 0 10 0 15 0 5 0 9-1 12 0 3-1 6-3 9-1 3-3 5-5 6-3 2-6 3-10 4-9 2-22 3-37 4-34 0-57-2-66-7-4-2-8-5-11-8-3-4-4-6-1-7 11-1 19-5 23-11l2-3c1-3 3-7 4-13 1-6 2-13 2-20 1-13 1-24 0-34-1-9-1-16-2-22-1-5-2-9-4-12-2-4-3-6-3-6-1-1-1-2-2-2-2-1-5-1-7-1-3 0-6 1-10 4-3 2-7 6-11 10-4 5-9 11-14 19-5 8-10 17-15 28l-5 8c-2 5-6 12-11 22-5 10-9 19-13 28-1 4-4 7-7 9l-1 1c-1 0-2 1-4 2-2 1-5 1-7 2l-76-1c-8 0-13-2-16-5l-1-2c0-1-1-2-1-4 0-2 1-5 2-7 11-26 23-51 36-74 13-24 25-43 34-57 10-15 20-29 30-41 10-13 16-21 20-25 3-4 5-6 7-8l7-7c5-4 11-9 20-15 8-6 18-12 28-18 11-6 23-11 37-15 14-3 27-5 40-4l32 0c7 0 12 2 15 6l1 1c1 1 2 3 2 5 1 2 1 5 1 8 0 7 1 14 2 21 1 6 3 11 5 14 2 3 3 6 6 8 2 2 4 3 4 4 1 0 2 1 3 1 4 1 9 0 15-5 6-4 12-9 17-15 6-6 12-13 19-21 8-8 14-14 20-18l5-3c4-2 9-4 15-6 6-2 11-2 15-1l71 1c7 0 13 1 17 3 4 3 6 5 7 8 0 2 0 6 0 9-1 3-1 6-2 7l0 0z" horiz-adv-x="1000" />

<glyph glyph-name="pencil" unicode="&#xe819;" d="M344 206l179-103 223 387-178 103-224-387z m-82-349l227 187-179 103-48-290 0 0z m579 935l-59 35c-48 29-76 10-94-25l-86-149 179-103 86 149c21 36 23 65-26 93l0 0z" horiz-adv-x="1000" />

<glyph glyph-name="x" unicode="&#xe81a;" d="M630 350l370 370-130 130-370-370-370 370-130-130 370-370-370-370 130-130 370 370 370-370 130 130-370 370z" horiz-adv-x="1000" />

<glyph glyph-name="Instagram" unicode="&#xe81b;" d="M5 613l995 0 0-563-995 0z m387-99c-34 0-62-28-62-62l0-206c0-34 28-62 62-62l206 0c34 0 62 28 62 62l0 206c0 34-28 62-62 62l-206 0z m0-26l206 0c20 0 36-16 36-36l0-52-51 0c-18 30-51 50-88 50-38 0-70-20-88-50l-52 0 0 52c0 20 17 36 37 36z m191-12c-7 0-12-6-12-13l0-25c0-7 5-13 12-13l26 0c7 0 12 6 12 13l0 25c0 7-5 13-12 13l-26 0z m-88-51c22 0 42-10 56-25l0 0c9-10 15-21 18-33 0 0 0 0 0-1 0-1 0-2 0-3 0 0 1 0 1 0 0-1 0-2 0-3 0 0 0-1 0-1 0-1 0-2 0-3 1 0 1-1 1-2 0 0 0-1 0-1 0-1 0-3 0-4 0-1 0-3 0-4 0-2-1-5-1-8 0-2-1-5-2-7 0-1 0-2-1-4 0-1 0-2-1-3-2-6-5-11-8-17-5-7-11-13-18-18-2-1-4-3-6-4-1-1-2-1-3-2-2-1-4-2-7-3-5-2-11-4-18-5-2-1-5-1-7-1-2 0-3 0-4 0-2 0-3 0-4 0-3 0-5 0-8 1-6 1-12 3-18 5-2 1-4 2-6 3-2 1-3 1-4 2-2 1-4 3-6 4-10 8-19 19-24 31-1 2-2 4-3 6 0 1 0 1 0 1 0 2-1 3-1 4-1 2-1 5-1 7-1 3-1 6-1 8 0 1 0 3 0 4 0 1 0 3 0 4 0 0 0 1 0 1 0 1 0 2 0 2 0 1 0 2 0 3 0 0 0 1 1 1 0 1 0 2 0 3 0 0 0 0 0 0 0 1 1 2 1 3 0 1 0 1 0 1 0 1 0 2 1 3 3 11 9 21 16 30l0 0c14 15 34 25 57 25z m0-28c-9 0-18-2-25-7 2 1 4 1 7 1 13 0 24-11 24-24 0-14-11-25-24-25-14 0-25 11-25 25 0 2 1 5 2 7-5-7-8-16-8-25 0-27 22-48 49-48 26 0 48 21 48 48 0 27-22 48-48 48z" horiz-adv-x="1000" />

<glyph glyph-name="x-slim" unicode="&#xe81c;" d="M1000 819l-31 31-469-469-469 469-31-31 469-469-469-469 31-31 469 469 469-469 31 31-469 469z" horiz-adv-x="1000" />

<glyph glyph-name="fb" unicode="&#xe81d;" d="M530 89l0 250 69 0 9 86-78 0 0 43c0 23 2 35 35 35l43 0 0 86-69 0c-83 0-112-42-112-112l0-52-52 0 0-86 52 0 0-250 103 0z m-547 778l0-17 0-1017 1034 0 0 1034-1034 0z m34-34l966 0 0-966-966 0 0 966z" horiz-adv-x="1000" />

<glyph glyph-name="fb-black" unicode="&#xe81e;" d="M0 850l1000 0 0-1000-1000 0 0 1000z m530-761l0 250 69 0 9 86-78 0 0 43c0 23 2 35 35 35l43 0 0 86-69 0c-83 0-112-42-112-112l0-52-52 0 0-86 52 0 0-250 103 0z" horiz-adv-x="1000" />

<glyph glyph-name="purse" unicode="&#xe81f;" d="M780 161l187 0 0 62-187 0 0-62z m124 373l-871 0 0-622c0-34 28-62 63-62l808 0c35 0 63 28 63 62l0 187-218 0c-17 0-31 14-31 31l0 124c0 18 14 32 31 32l218 0 0 186c0 35-28 62-63 62l0 0z m0 280c0 18-7 27-23 33-12 5-24 2-39-1l-809-249 871 0 0 217 0 0z" horiz-adv-x="1000" />

<glyph glyph-name="question" unicode="&#xe820;" d="M611 159l-255 0 0 25c0 43 5 79 15 106 10 27 24 51 44 74 19 22 63 62 131 118 36 29 54 56 54 81 0 25-7 44-22 57-14 14-36 21-66 21-31 0-58-11-78-32-21-21-35-57-40-110l-261 32c9 96 44 173 105 232 60 58 153 87 278 87 98 0 177-20 236-61 82-55 122-128 122-220 0-38-10-75-31-110-21-35-64-78-129-129-45-36-73-65-85-87-12-21-18-50-18-84l0 0z m-264-68l273 0 0-241-273 0 0 241z" horiz-adv-x="1000" />

<glyph glyph-name="refresh" unicode="&#xe821;" d="M968 225l-312 0c-17 0-31-14-31-31 0-18 16-30 29-43l87-87c-65-55-149-89-241-89-186 0-340 136-369 313l-127 0c31-247 241-438 496-438 127 0 242 48 330 125l89-89c17-17 32-36 49-36 18 0 32 14 32 31l0 313c0 3 0 31-32 31l0 0z m-937 250l313 0c17 0 31 14 31 32 0 17-17 29-30 42l-87 87c66 55 150 89 242 89 185 0 339-135 369-312l126 0c-31 246-240 437-495 437-127 0-242-48-330-125l-90 89c-17 17-31 36-49 36-17 0-31-14-31-31l0-312c0-4 0-32 31-32l0 0z" horiz-adv-x="1000" />

<glyph glyph-name="smile" unicode="&#xe822;" d="M854 704c-195 195-513 195-708 0-195-195-195-513 0-708 195-195 513-195 708 0 195 195 195 513 0 708z m-55-653c-165-165-433-165-598 0-165 165-165 433 0 598 165 165 433 165 598 0 165-165 165-433 0-598z m-486 434c0 33 27 59 59 59 32 0 58-26 58-59 0-32-26-58-58-58-32 0-59 26-59 58z m266 0c0 33 26 59 58 59 32 0 59-26 59-59 0-32-27-58-59-58s-58 26-58 58z m138-239c-36-84-121-138-216-138-98 0-183 54-218 139-6 14 1 31 15 37 4 1 8 2 11 2 11 0 22-7 26-18 27-63 91-103 166-103 72 0 137 40 164 103 6 15 23 21 37 15s21-23 15-37z" horiz-adv-x="1000" />

<glyph glyph-name="star" unicode="&#xe823;" d="M1000 467l-345 53-155 330-155-330-345-53 250-255-59-362 309 171 310-171-59 362 249 255" horiz-adv-x="1000" />

<glyph glyph-name="hart2" unicode="&#xe824;" d="M267 772c-146 0-250-113-250-238 0-67 31-116 62-159l1-1 364-393 0 0c21-18 36-30 56-30 20 0 34 12 55 30l1 0 364 393 0 0c38 44 63 94 63 160 0 125-104 238-250 238-97 0-174-47-234-107-58 62-136 107-232 107z m0-33c92 0 165-44 220-106l12-14 12 14c57 60 131 106 222 106 129 0 217-99 217-205 0-58-20-98-55-138l-362-390c-19-16-29-22-33-22-5 0-14 6-34 22l-360 389c-31 41-56 82-56 139 0 106 88 205 217 205z" horiz-adv-x="1000" />

<glyph glyph-name="menu" unicode="&#xe825;" d="M0 683l1000 0 0-133-1000 0 0 133z m0-266l1000 0 0-134-1000 0 0 134z m0-267l1000 0 0-133-1000 0 0 133z" horiz-adv-x="1000" />

<glyph glyph-name="msg" unicode="&#xe826;" d="M500 251l-104 85-361-370 921 0-355 371-101-86 0 0z m153 125l344-357c2 7 3 14 3 22l0 618-347-283 0 0z m-653 284l0-619c0-8 1-15 3-22l345 356-348 285 0 0z m969 57l-938 0 469-376 469 376 0 0z" horiz-adv-x="1000" />

<glyph glyph-name="msg2" unicode="&#xe827;" d="M833 850l-666 0c-92 0-167-74-167-165l0-528c0-92 64-151 156-151l208 0 136-156 136 156 208 0c92 0 156 59 156 151l0 528c0 91-75 165-167 165" horiz-adv-x="1000" />

<glyph glyph-name="ok" unicode="&#xe828;" d="M-17 867l0-17 0-1017 1034 0 0 1034-1034 0z m34-34l966 0 0-966-966 0 0 966z m631-501c-7 14-27 26-54 5-36-28-94-28-94-28 0 0-58 0-94 28-27 21-47 9-54-5-13-26 2-38 34-58 27-17 65-24 90-26l-21-20c-28-29-56-56-75-75-12-11-12-30 0-41l3-3c12-12 30-12 42 0l75 74c29-28 57-55 76-74 12-12 30-12 42 0l3 3c12 11 12 30 0 41l-96 95c25 2 62 9 89 26 32 20 47 32 34 58l0 0z m-148 204c35 0 63-28 63-62 0-35-28-63-63-63-35 0-63 28-63 63 0 34 28 62 63 62l0 0z m0-189c71 0 128 57 128 127 0 69-57 126-128 126-71 0-128-57-128-126 0-70 57-127 128-127l0 0z" horiz-adv-x="1000" />

<glyph glyph-name="Facebook" unicode="&#xe829;" d="M0 626c0 3 3 6 6 6l988 0c3 0 6-3 6-6l0-553c0-3-3-6-6-6l-988 0c-3 0-6 3-6 6l0 553z m453-216l-40 0 0-60 40 0 0-174 75 0 0 175 53 0 6 59-59 0 0 33c0 14 3 19 18 19l41 0 0 61-53 0c-56 0-81-23-81-67l0-46z" horiz-adv-x="1000" />

<glyph glyph-name="Odnoklassniki" unicode="&#xe82a;" d="M0 626c0 3 3 6 6 6l988 0c3 0 6-3 6-6l0-553c0-3-3-6-6-6l-988 0c-3 0-6 3-6 6l0 553z m602-272c-5 10-19 19-37 4-25-19-65-19-65-19 0 0-39 0-64 19-18 15-32 6-37-4-9-17 1-26 23-40 19-12 45-16 62-18l-14-14c-20-20-39-39-52-52-8-8-8-21 0-29l2-2c8-8 21-8 29 0l52 52c19-20 38-39 51-52 8-8 21-8 29 0l2 2c8 8 8 21 0 29l-66 66c17 2 43 6 62 18 22 14 31 23 23 40z m-102 142c24 0 44-19 44-43 0-24-20-43-44-43-24 0-43 19-43 43 0 24 19 43 43 43l0 0z m0-131c49 0 88 39 88 88 0 49-39 88-88 88-48 0-88-39-88-88 0-49 40-88 88-88l0 0z" horiz-adv-x="1000" />

<glyph glyph-name="Vkontakte" unicode="&#xe82b;" d="M0 626c0 3 3 6 6 6l988 0c3 0 6-3 6-6l0-553c0-3-3-6-6-6l-988 0c-3 0-6 3-6 6l0 553z m524-454c0 0 11 1 16 7 6 6 5 16 5 16 0 0 0 48 22 55 22 7 50-46 79-67 23-15 40-12 40-12l79 1c0 0 42 3 22 35-2 3-11 25-59 69-50 46-43 39 17 118 36 49 51 79 46 92-4 12-31 8-31 8l-89 0c0 0-7 1-12-2-5-3-8-10-8-10 0 0-14-37-33-69-39-68-55-72-62-67-15 9-11 39-11 60 0 65 10 93-20 100-9 2-16 4-41 4-32 0-59 0-74-8-11-5-18-16-14-16 6-1 20-4 27-14 9-12 9-40 9-40 0 0 5-77-13-87-12-6-28 7-64 68-18 32-32 67-32 67 0 0-2 6-7 9-6 5-14 6-14 6l-85-1c0 0-12 0-17-5-4-5-1-16-1-16 0 0 67-155 142-234 69-71 148-67 148-67l35 0z" horiz-adv-x="1000" />

<glyph glyph-name="Google" unicode="&#xe82c;" d="M5 613l995 0 0-563-995 0z m341-179c0-28 10-48 28-60 15-10 33-11 42-11 2 0 4 0 5 0 0 0-3-19 11-38l0 0c-25 0-103-5-103-70 0-66 72-69 87-69 1 0 1 0 1 0 0 0 2 0 3 0 10 0 34 1 56 12 29 14 44 39 44 73 0 33-23 53-39 67-10 9-19 17-19 24 0 7 7 13 15 20 13 12 25 28 25 59 0 28-4 46-26 58 3 1 11 2 15 2 12 2 29 4 29 13l0 2-86 0c-1 0-88-3-88-82z m140-169c1-27-21-46-55-49-35-2-63 13-65 40 0 12 5 25 16 35 11 10 26 16 43 17 2 0 4 0 6 0 32 0 53-18 55-43z m-23 187c9-30-4-61-25-67-2 0-4-1-7-1-18 0-37 19-44 45-4 15-3 28 1 40 4 12 12 20 22 23 2 1 5 1 7 1 23 0 37-9 46-41z m146-65l0 56-36 0 0-56-56 0 0-36 56 0 0-56 36 0 0 56 56 0 0 36-56 0z" horiz-adv-x="1000" />

<glyph glyph-name="lotzon" unicode="&#xe82d;" d="M101 310l0-38-101 0 0 162 42 0 0-124 59 0z m111-44c-44 0-86 28-86 87 0 58 43 87 87 87 43 0 85-29 85-87 0-52-35-87-86-87l0 0z m0 41c21 0 42 16 42 46 0 30-20 45-41 45-22 0-43-15-43-45 0-30 21-46 42-46l0 0z m114 90l0 37 120 0 0-37-39 0 0-125-41 0 0 125-40 0 0 0z m277 31l-65-118 66 0 0-38-128 0 0 6 65 119-59 0 0 37 121 0 0-6 0 0z m123-162c-44 0-86 28-86 87 0 58 43 87 87 87 43 0 85-29 85-87 0-52-35-87-86-87l0 0z m0 41c21 0 42 16 42 46 0 30-20 45-41 45-22 0-43-15-43-45 0-30 21-46 42-46l0 0z m164 48l0-82-42 0 0 161 13 0 84-79 0 78 42 0 0-161-12 0-85 83 0 0z" horiz-adv-x="1000" />

<glyph glyph-name="o" unicode="&#xe82e;" d="M500 683c184 0 333-149 333-333 0-184-149-333-333-333-184 0-333 149-333 333 0 184 149 333 333 333l0 0z m0 167c-276 0-500-224-500-500 0-276 224-500 500-500 276 0 500 224 500 500 0 276-224 500-500 500l0 0 0 0z" horiz-adv-x="1000" />

<glyph glyph-name="photo" unicode="&#xe82f;" d="M500 476c-103 0-187-84-187-188 0-103 84-187 187-187 104 0 188 84 188 187 0 104-84 188-188 188l0 0z m0-438c-138 0-250 112-250 250 0 138 112 250 250 250 138 0 250-112 250-250 0-138-112-250-250-250l0 0z m375 625l-94 0-31 63c-18 36-28 62-62 62l-375 0c-35 0-46-30-63-62l-31-63-94 0c-69 0-125-56-125-125l0-500c0-69 56-125 125-125l750 0c69 0 125 56 125 125l0 500c0 69-56 125-125 125l0 0z" horiz-adv-x="1000" />

<glyph glyph-name="kubok" unicode="&#xe830;" d="M812 443l0 188c123 0 125 6 125-63 0-69-56-125-125-125l0 0z m-624 0c-69 0-125 56-125 125 0 69 2 63 125 63l0-188 0 0z m624 250c0 69-56 125-125 125l-374 0c-69 0-125-56-125-125-213 0-187 0-187-125 0-103 84-187 187-187 8 0 15 1 22 2 42-123 140-233 259-250l0-190-94 0c-17 0-31-14-31-31 0-17 14-31 31-31l250 0c17 0 31 14 31 31 0 17-14 31-31 31l-94 0 0 190c119 17 217 127 259 250 7-1 14-2 22-2 103 0 187 84 187 187 0 125 26 125-187 125l0 0z" horiz-adv-x="1000" />

<glyph glyph-name="arrow-slim-top" unicode="&#xe831;" d="M494 508l1 2 8-5 483-292 8-5-9-18-9 5-482 292 0 0-1 0-482-292-8-5-9 18 8 5 482 292 9 5 1-2z" horiz-adv-x="1000" />

<glyph glyph-name="arrow-top" unicode="&#xe832;" d="M517 576l3-4 450-450 10-10 22 21-11 11-450 449-3 4 0 0-21 21-11-10-494-494-10-11 21-21 10 10 484 484z" horiz-adv-x="1000" />

<glyph glyph-name="calendar" unicode="&#xe833;" d="M471 288l62 0 0 62-62 0 0-62z m0-250l62 0 0 62-62 0 0-62z m250 250l62 0 0 62-62 0 0-62z m0-250l62 0 0 62-62 0 0-62z m-500 0l62 0 0 62-62 0 0-62z m687 562l-812 0 0 63c0 34 28 62 62 62l125 0 0-31c0-17 14-31 32-31 17 0 31 14 31 31l0 31 312 0 0-31c0-17 14-31 32-31 17 0 31 14 31 31l0 31 125 0c34 0 62-28 62-62l0-63 0 0z m-62-312c0-35-28-63-63-63l-62 0c-35 0-63 28-63 63l0 62c0 35 28 63 63 63l62 0c35 0 63-28 63-63l0-62 0 0z m0-250c0-35-28-63-63-63l-62 0c-35 0-63 28-63 63l0 62c0 35 28 63 63 63l62 0c35 0 63-28 63-63l0-62 0 0z m-250 250c0-35-28-63-63-63l-62 0c-35 0-63 28-63 63l0 62c0 35 28 63 63 63l62 0c35 0 63-28 63-63l0-62 0 0z m0-250c0-35-28-63-63-63l-62 0c-35 0-63 28-63 63l0 62c0 35 28 63 63 63l62 0c35 0 63-28 63-63l0-62 0 0z m-250 250c0-35-28-63-63-63l-62 0c-35 0-63 28-63 63l0 62c0 35 28 63 63 63l62 0c35 0 63-28 63-63l0-62 0 0z m0-250c0-35-28-63-63-63l-62 0c-35 0-63 28-63 63l0 62c0 35 28 63 63 63l62 0c35 0 63-28 63-63l0-62 0 0z m500 750l-125 0 0 31c0 17-14 31-31 31-18 0-32-14-32-31l0-31-312 0 0 31c0 17-14 31-31 31-18 0-32-14-32-31l0-31-125 0c-69 0-125-56-125-125l0-688c0-69 56-125 125-125l688 0c69 0 125 56 125 125l0 688c0 69-56 125-125 125l0 0z m-625-500l62 0 0 62-62 0 0-62z" horiz-adv-x="1000" />

<glyph glyph-name="check" unicode="&#xe834;" d="M372-50c-32 0-63 12-83 32l-268 269c-35 35-26 85 20 112 47 26 112 20 147-16l176-177 443 542c30 38 95 49 144 26 49-23 64-72 33-110l-523-641c-18-22-50-36-84-37-2 0-3 0-5 0l0 0z" horiz-adv-x="1000" />

<glyph glyph-name="arrow-curve" unicode="&#xe835;" d="M134 169l544 0 0-182 322 266-322 267 0-182-490 0 0 376-188 0 0-424c0-67 60-121 134-121l0 0z" horiz-adv-x="1000" />

<glyph glyph-name="ok-simple" unicode="&#xe836;" d="M793 313c-15 29-54 53-107 11-71-56-185-56-185-56 0 0-114 0-185 56-53 42-93 18-107-11-25-50 3-74 67-115 54-35 129-48 177-53l-40-40c-57-56-112-111-150-149-22-23-22-60 0-82l7-7c23-23 60-23 82 0l149 149c57-57 112-111 150-149 22-23 59-23 82 0l7 7c22 22 22 59 0 82l-190 189c48 5 122 18 176 53 63 41 91 65 67 115l0 0z m-292 408c69 0 124-55 124-124 0-69-55-125-124-125-69 0-125 56-125 125 0 69 56 124 125 124l0 0z m0-377c140 0 253 113 253 253 0 140-113 253-253 253-140 0-253-113-253-253 0-140 113-253 253-253l0 0z" horiz-adv-x="1000" />
</font>
</defs>
</svg>
