<?xml version="1.0" standalone="no"?>
<!DOCTYPE svg PUBLIC "-//W3C//DTD SVG 1.1//EN" "http://www.w3.org/Graphics/SVG/1.1/DTD/svg11.dtd" >
<svg xmlns="http://www.w3.org/2000/svg">
<metadata></metadata>
<defs>
<font id="pf_handbook_proregular" horiz-adv-x="3723" >
<font-face units-per-em="2048" ascent="1536" descent="-512" />
<missing-glyph horiz-adv-x="430" />
<glyph unicode="fj" horiz-adv-x="899" d="M37 780v101q0 18 20 18h84q23 0 23 21v122q0 135 82 205t217 70q80 0 140.5 -17.5t96.5 -39.5q14 -10 17.5 -16.5t-4.5 -22.5l-43 -82q-10 -16 -37 -6q-29 10 -69 22t-99 12q-74 0 -106.5 -42t-32.5 -107v-98q0 -20 22 -21h420q10 0 14 -6t4 -12v-996q0 -53 -12 -100 t-39.5 -83t-70.5 -56.5t-103 -20.5q-41 0 -65.5 3t-49.5 10q-14 4 -20 10t-2 22l22 101q4 23 35 14q12 -4 26.5 -6t31.5 -2q31 0 48 11t25.5 29.5t10.5 41t2 45.5v833q0 10 -3.5 16.5t-19.5 6.5h-256q-20 0 -20 -21v-721q0 -18 -21 -18h-123q-10 0 -14 6t-4 12v717 q0 25 -21 25h-90q-16 0 -16 20z" />
<glyph unicode="ffj" horiz-adv-x="1357" d="M37 780v101q0 18 20 18h84q23 0 23 21v67q0 127 82 207t217 80q66 0 116 -12.5t89 -28.5q4 -2 10 -3t12 5q39 39 99.5 60.5t132.5 21.5q80 0 140 -17.5t97 -39.5q14 -10 17.5 -16.5t-5.5 -22.5l-43 -82q-10 -16 -36 -6q-29 10 -69 22t-99 12q-66 0 -103 -42t-37 -107v-98 q0 -20 23 -21h420q10 0 14 -6t4 -12v-996q0 -53 -12 -100t-40 -83t-71 -56.5t-102 -20.5q-41 0 -65.5 3t-49.5 10q-14 4 -20 10t-2 22l22 99q4 23 35 14q25 -6 57 -6q31 0 48.5 11t25.5 29.5t10 41t2 45.5v833q0 10 -3 16.5t-19 6.5h-256q-20 0 -21 -21v-721q0 -18 -20 -18 h-123q-10 0 -14 6t-4 12v717q0 25 -21 25h-256q-20 0 -20 -21v-721q0 -18 -21 -18h-123q-10 0 -14 6t-4 12v717q0 25 -21 25h-90q-16 0 -16 20zM326 920q0 -20 22 -21h252q23 0 23 21v151q0 20 -9 25q-27 10 -62.5 19t-86.5 9q-78 0 -108.5 -43t-30.5 -108v-53z" />
<glyph unicode="ff" horiz-adv-x="1021" d="M37 780v101q0 18 20 18h84q23 0 23 21v92q0 57 21.5 106t61.5 86t94 57.5t122 20.5q66 0 116 -14.5t89 -30.5q2 -2 10 -2t12 4q39 39 100.5 60.5t133.5 21.5q59 0 111 -13.5t89 -31.5q14 -4 15 -21q0 -10 -4 -18l-29 -72q-12 -23 -27 -22q-6 0 -14 4q-27 10 -59.5 17 t-79.5 7q-72 0 -106 -40.5t-34 -100.5v-110q0 -20 23 -21h170q20 0 20 -20v-101q0 -18 -20 -18h-172q-20 0 -21 -21v-721q0 -18 -20 -18h-123q-10 0 -14 6t-4 12v717q0 25 -21 25h-258q-20 0 -20 -21v-721q0 -18 -21 -18h-123q-10 0 -14 6t-4 12v717q0 25 -21 25h-90 q-16 0 -16 20zM326 920q0 -20 22 -21h252q23 0 23 21v159q0 20 -9 25q-27 10 -62.5 19.5t-86.5 9.5q-78 0 -108.5 -43t-30.5 -109v-61z" />
<glyph unicode="fi" horiz-adv-x="901" d="M37 780v101q0 18 20 18h84q23 0 23 21v139q0 127 82 194.5t217 67.5q80 0 140.5 -17.5t96.5 -39.5q18 -12 19 -23q0 -4 -6 -16l-43 -82q-6 -12 -17 -13q-8 0 -20 7q-29 10 -69 22t-99 12q-80 0 -109.5 -42t-29.5 -107v-102q0 -20 22 -21h404q20 0 27 -8t7 -31v-842 q0 -18 -20 -18h-123q-10 0 -14 6t-4 12v717q0 25 -21 25h-258q-20 0 -20 -21v-721q0 -18 -21 -18h-123q-10 0 -14 6t-4 12v717q0 25 -21 25h-90q-16 0 -16 20z" />
<glyph unicode="fl" horiz-adv-x="966" d="M37 780v101q0 18 20 18h84q23 0 23 21v139q0 127 82 194.5t217 67.5q53 0 100 -9t82 -22q8 -4 21 -4q10 0 14 2l59 15q20 4 25 4q23 0 22 -37v-1016q0 -72 20.5 -92.5t70.5 -20.5h26q14 0 16.5 -10t2.5 -20v-97q0 -23 -21 -26q-12 -4 -29.5 -4h-27.5q-70 0 -113 20.5 t-67.5 58t-32.5 92t-8 121.5v844q0 12 -4.5 17.5t-14.5 9.5q-27 10 -60.5 17t-78.5 7q-78 0 -108.5 -42t-30.5 -107v-102q0 -20 22 -21h160q20 0 25.5 -6t5.5 -29v-76q0 -23 -9.5 -25.5t-21.5 -2.5h-162q-20 0 -20 -21v-721q0 -18 -21 -18h-123q-10 0 -14 6t-4 12v717 q0 25 -21 25h-90q-16 0 -16 20z" />
<glyph unicode="ffi" horiz-adv-x="1359" d="M37 780v101q0 18 20 18h84q23 0 23 21v88q0 57 21.5 106t61.5 86t94 57.5t122 20.5q66 0 116 -14.5t89 -30.5q2 -2 10 -2t12 4q39 39 99.5 60.5t132.5 21.5q80 0 140 -17.5t97 -39.5q18 -12 19 -23q0 -4 -7 -16l-43 -82q-6 -12 -16 -13q-8 0 -20 7q-29 10 -69 22t-99 12 q-66 0 -103 -42t-37 -107v-98q0 -20 23 -21h410q20 0 24 -8t4 -31v-842q0 -18 -20 -18h-123q-10 0 -14.5 6t-4.5 12v717q0 25 -20 25h-258q-20 0 -21 -21v-721q0 -18 -20 -18h-123q-10 0 -14 6t-4 12v717q0 25 -21 25h-256q-20 0 -20 -21v-721q0 -18 -21 -18h-123 q-10 0 -14 6t-4 12v717q0 25 -21 25h-90q-16 0 -16 20zM326 920q0 -20 22 -21h252q23 0 23 21v157q0 20 -9 25q-27 10 -62.5 19t-86.5 9q-78 0 -108.5 -43t-30.5 -108v-59z" />
<glyph unicode="ffl" horiz-adv-x="1370" d="M37 780v101q0 18 20 18h84q23 0 23 21v88q0 57 21.5 106t61.5 86t94 57.5t122 20.5q66 0 116 -14.5t89 -30.5q2 -2 10 -2t12 4q39 39 99.5 60.5t132.5 21.5q53 0 99 -9.5t81 -21.5q8 -4 20 -4q10 0 15 2l59 14l25 5q23 0 22 -37v-1012q0 -72 20.5 -92.5t69.5 -20.5h27 q14 0 16 -10t2 -20v-97q0 -23 -20 -26q-12 -4 -29.5 -4h-28.5q-70 0 -112.5 20.5t-67 58t-33 92t-8.5 121.5v840q0 12 -4 17.5t-14 9.5q-27 10 -60.5 17t-78.5 7q-66 0 -103 -42t-37 -107v-98q0 -20 23 -21h160q20 0 25 -6t5 -29v-76q0 -23 -9 -25.5t-21 -2.5h-162 q-20 0 -21 -21v-721q0 -18 -20 -18h-123q-10 0 -14 6t-4 12v717q0 25 -21 25h-254q-20 0 -20 -21v-721q0 -18 -21 -18h-123q-10 0 -14 6t-4 12v717q0 25 -21 25h-90q-16 0 -16 20zM326 920q0 -20 22 -21h252q23 0 23 21v157q0 20 -9 25q-27 10 -62.5 19t-86.5 9 q-78 0 -108.5 -43t-30.5 -108v-59z" />
<glyph unicode="ft" horiz-adv-x="1067" d="M37 780v101q0 18 20 18h84q23 0 23 21v137q0 53 16.5 100t48 83t77.5 56.5t108 20.5q41 0 79.5 -5t61.5 -12q25 -6 25 -20q0 -8 -2 -12l-23 -101q-2 -14 -16 -14q-10 0 -17 2q-43 12 -86 12q-61 0 -85.5 -38.5t-24.5 -90.5v-118q0 -20 22 -21h252q25 0 25 25v172 q0 16 18 22l119 29h6q18 0 18 -19v-210q0 -20 21 -21h188q20 0 21 -18v-101q0 -20 -21 -20h-186q-23 0 -23 -21v-469q0 -59 25 -94t86 -35q20 0 54 4t50 11q12 4 17 4q10 0 14 -15l23 -100q2 -4 2 -12q0 -16 -25 -23q-27 -8 -72 -13t-86 -5q-129 0 -189 68.5t-60 179.5v499 q0 20 -23 23h-256q-20 0 -20 -21v-721q0 -18 -21 -18h-123q-10 0 -14 6t-4 12v717q0 25 -21 25h-90q-16 0 -16 20z" />
<glyph unicode=" "  horiz-adv-x="430" />
<glyph unicode="&#x09;" horiz-adv-x="430" />
<glyph unicode="&#xa0;" horiz-adv-x="430" />
<glyph unicode="!" horiz-adv-x="538" d="M170 88q0 45 33 77t78 32q47 0 79.5 -31t32.5 -78q0 -45 -31.5 -76.5t-78.5 -31.5t-80 31.5t-33 76.5zM193 1243q0 20 20 21h137q20 0 21 -19l-31 -897q0 -18 -18 -18h-72q-18 0 -19 16z" />
<glyph unicode="&#x22;" horiz-adv-x="589" d="M117 866v379q0 18 18 19h98q8 0 14.5 -4.5t4.5 -12.5v-381q0 -16 -21 -16h-94q-20 0 -20 16zM350 866v379q0 18 21 19h96q23 0 18 -17v-381q0 -16 -18 -16h-96q-20 0 -21 16z" />
<glyph unicode="#" horiz-adv-x="972" d="M45 371q0 6 1 7t2 7t3 20.5t8 43.5q6 20 25 20h119q16 0 20 16l58 248q2 12 -1.5 18.5t-21.5 6.5h-125q-12 0 -14 5t-2 11l16 76q2 18 23 18h141q14 0 18 17l54 245q4 12 18 13h84q18 0 21.5 -6.5t1.5 -16.5l-50 -223q-4 -12 0.5 -20.5t22.5 -8.5h160q14 0 18 17l57 245 q0 12 19 13h82q18 0 21 -6.5t1 -16.5l-47 -223q-4 -12 -1 -19.5t22 -7.5h110q16 0 17.5 -10t-0.5 -20l-15 -62q-6 -20 -24 -20h-123q-18 0 -21 -13l-55 -249q-2 -14 1 -20.5t22 -6.5h127q20 0 16 -18l-14 -74q-6 -20 -25 -21h-141q-18 0 -21 -10l-53 -242q-2 -14 -18 -14 h-84q-18 0 -21.5 7t-1.5 18l49 217q2 10 -1 18t-21 8h-160q-16 0 -18 -12l-60 -242q-2 -14 -16 -14h-86q-27 0 -23 23q0 4 8.5 37.5t18.5 74.5l24 107q2 10 -1 17t-21 7h-107q-12 0 -14 5.5t-2 9.5zM356 475.5q2 -6.5 23 -6.5h158q16 0 20 16l55 248q2 12 -1 18.5t-21 6.5 h-154q-10 0 -18 -6.5t-8 -12.5l-54 -243q-2 -14 0 -20.5z" />
<glyph unicode="$" horiz-adv-x="972" d="M123 911q0 63 23.5 118.5t63.5 98.5t92 72t112 41q12 0 12 16v113q0 18 20 19h64q20 0 20 -19v-110q0 -10 17 -15q80 -6 147.5 -33.5t122.5 -74.5q16 -14 0 -35l-61 -76q-16 -23 -41 0q-55 51 -112.5 69.5t-113.5 18.5q-37 0 -74.5 -13.5t-68.5 -39t-50.5 -63 t-19.5 -89.5q0 -47 23 -79.5t57.5 -55t75.5 -37t78 -26.5q66 -18 127 -44t109.5 -66t78 -97.5t29.5 -138.5q0 -74 -23.5 -132.5t-64.5 -101.5t-97.5 -68.5t-121.5 -35.5q-16 -2 -17 -17v-127q0 -20 -20 -20h-64q-10 0 -15 3t-5 15v127q0 14 -16 15q-80 6 -148.5 32.5 t-134.5 81.5q-14 12 2 35l59 72q14 20 39 0q43 -39 105.5 -64.5t130.5 -25.5q49 0 91 12t75 37.5t51 63.5t18 87t-18 83t-49 58.5t-70 41t-78 28.5q-55 16 -117.5 39t-116.5 60.5t-90 97t-36 149.5z" />
<glyph unicode="%" horiz-adv-x="1433" d="M82 700v351q0 104 67.5 162.5t180.5 58.5q111 0 180.5 -57.5t69.5 -163.5v-351q0 -104 -67 -162.5t-183 -58.5q-115 0 -181.5 55.5t-66.5 165.5zM217 700q0 -49 29.5 -78.5t83.5 -29.5q53 0 82.5 29.5t29.5 78.5v351q0 47 -29.5 77.5t-82.5 30.5t-83 -30.5t-30 -77.5 v-351zM381 -43l569 1352q6 12 13.5 14t13.5 2h61q18 0 20.5 -6t-1.5 -19l-568 -1347q-4 -10 -10 -12t-14 -2h-74q-18 0 -10 18zM858 211v352q0 102 67.5 160.5t178.5 58.5t179.5 -57t68.5 -162v-352q0 -104 -66.5 -160.5t-181.5 -56.5q-113 0 -179.5 54t-66.5 163zM987 211 q0 -51 31 -83t86 -32q53 0 86 32t33 83v352q0 49 -33 81t-86 32t-85 -33t-32 -80v-352z" />
<glyph unicode="&#x26;" horiz-adv-x="1167" d="M131 352v453q0 80 29.5 144.5t82 108.5t123 68.5t152.5 24.5h258q23 0 23 -21v-100q0 -20 -21 -20h-260q-98 0 -160.5 -56.5t-62.5 -146.5v-453q0 -43 7 -84t29.5 -72.5t64.5 -50t112 -18.5h16q68 0 112 21.5t69.5 57.5t36 80t10.5 87v217q0 4 -2 12t-19 8h-229 q-20 0 -21 21v98q0 20 23 21h418q53 0 114.5 15t120.5 58q10 8 21 9q10 0 20 -13l39 -57q8 -10 8 -23q0 -10 -10 -20q-59 -57 -137 -80t-148 -27q-37 -4 -37 -32v-209q0 -84 -25.5 -155t-75.5 -122t-123 -79.5t-165 -28.5h-16q-193 0 -285 98t-92 266z" />
<glyph unicode="'" horiz-adv-x="354" d="M111 866v379q0 18 18 19h98q20 0 21 -17l-2 -381q0 -16 -19 -16h-96q-20 0 -20 16z" />
<glyph unicode="(" horiz-adv-x="665" d="M106 543q0 127 34 256t85 244.5t108.5 211t104.5 156.5q16 20 47 4l58 -31q29 -16 8 -45q-55 -84 -103.5 -179t-84 -197.5t-57 -209t-21.5 -210.5q0 -113 23.5 -220.5t61.5 -206t85 -185.5t94 -160q20 -29 -4 -47l-53 -35q-35 -20 -62 8q-55 70 -112.5 164t-104.5 203.5 t-77 230.5t-30 248z" />
<glyph unicode=")" horiz-adv-x="665" d="M115 1339q-20 29 8 45l57 31q31 16 47 -4q47 -61 104.5 -156.5t109 -211t85 -244.5t33.5 -256t-29.5 -248t-76.5 -230.5t-104.5 -203.5t-112.5 -164q-25 -31 -60 -8l-53 35q-27 16 -6 47q47 74 94 160.5t85 185t61.5 206t23.5 220.5q0 104 -21.5 210.5t-57.5 209 t-84 197.5t-103 179z" />
<glyph unicode="*" horiz-adv-x="757" d="M70 1085l20 66q12 37 47 23l180 -74q14 -4 15 8l-23 203q-2 14 5.5 21t33.5 7h64q39 0 34 -30l-20 -195q-2 -20 14 -14l176 71q35 16 48 -20l24 -61q4 -12 1 -23.5t-19 -15.5l-191 -45q-8 -2 -11 -7.5t5 -13.5l123 -147q25 -31 0 -47l-55 -37q-20 -12 -30.5 -12.5 t-23.5 22.5l-96 160q-10 23 -24 0l-101 -162q-10 -18 -20 -20.5t-31 12.5l-51 34q-33 23 -2 56l121 141q14 14 -4 19l-189 47q-29 6 -20 34z" />
<glyph unicode="+" horiz-adv-x="972" d="M82 455v65q0 31 31 31h297q10 0 10 8v299q0 31 29 31h69q31 0 31 -31v-297q0 -10 10 -10h301q31 0 31 -31v-63q0 -31 -31 -31h-301q-10 0 -10 -8v-301q0 -29 -29 -29h-69q-31 0 -31 29v299q0 10 -8 10h-299q-31 0 -31 29z" />
<glyph unicode="," horiz-adv-x="436" d="M109 -197l22 369q4 35 33 35h137q41 0 29 -43l-105 -371q-8 -27 -32 -26h-60q-16 0 -21.5 11t-2.5 25z" />
<glyph unicode="-" horiz-adv-x="696" d="M111 440v95q0 20 18 20h418q20 0 20 -18v-97q0 -20 -18 -20h-418q-20 0 -20 20z" />
<glyph unicode="." horiz-adv-x="436" d="M109 92q0 45 31.5 77t76.5 32q47 0 80 -31t33 -78t-33 -78.5t-80 -31.5q-45 0 -76.5 32.5t-31.5 77.5z" />
<glyph unicode="/" horiz-adv-x="620" d="M10 -106l479 1464q8 25 41 24h60q10 0 16 -6t2 -18l-481 -1469q-10 -25 -35 -24h-63q-29 0 -19 29z" />
<glyph unicode="0" horiz-adv-x="972" d="M137 336v598q0 80 26.5 144.5t75 109.5t116 68.5t149.5 23.5q80 0 147.5 -22.5t116.5 -66.5t76.5 -108.5t27.5 -148.5v-598q0 -166 -99 -257t-267 -91q-166 0 -267.5 87t-101.5 261zM303 336q0 -92 54.5 -149.5t146.5 -57.5t147.5 56.5t55.5 150.5v598q0 90 -55.5 147.5 t-145.5 57.5q-92 0 -147.5 -58.5t-55.5 -146.5v-598z" />
<glyph unicode="1" horiz-adv-x="972" d="M213 967v94q0 14 3 25.5t17 21.5l220 135q16 10 27.5 15.5t25.5 5.5h67q31 0 31 -31v-1213q0 -20 -20 -20h-127q-18 0 -19 18v1004q0 20 -14 20q-6 0 -18 -6l-140 -82q-20 -10 -33 -10q-20 0 -20 23z" />
<glyph unicode="2" horiz-adv-x="972" d="M94 33v59q0 23 3 41.5t22 42.5l475 608q33 41 49 87.5t16 86.5q0 33 -10 66t-32.5 58.5t-59.5 41t-90 15.5q-31 0 -61.5 -9.5t-58.5 -24.5t-50.5 -32.5t-36.5 -34.5q-12 -14 -25.5 -20t-25.5 4l-66 53q-14 10 -14 19.5t6 19.5q55 86 148.5 126t191.5 40q74 0 138.5 -20.5 t112.5 -60.5t75.5 -99.5t27.5 -136.5q0 -72 -33.5 -142.5t-68.5 -113.5l-422 -541q-18 -25 10 -25h506q20 0 21 -18v-103q0 -20 -21 -20h-692q-35 0 -35 33z" />
<glyph unicode="3" horiz-adv-x="972" d="M102 174q0 8 17 19l88 55q12 8 19 8t18 -10l20 -29q33 -39 74 -63.5t96 -24.5q41 0 80 13.5t68.5 39t47 64.5t17.5 92v96q0 80 -54 133.5t-144 53.5h-127q-20 0 -21 18v104q0 18 18 19h130q86 0 144 48t58 138q0 84 -50 137.5t-146 53.5q-61 0 -107.5 -27t-75.5 -70 q-6 -10 -17 -19t-28 1l-90 53q-14 10 -12 19.5t8 19.5q53 86 142.5 125t187.5 39q174 0 263 -91t89 -235q0 -39 -12 -77.5t-33.5 -73.5t-53.5 -62.5t-69 -40.5q-10 -4 -10 -10t8 -8q45 -10 77 -35.5t51.5 -59.5t28.5 -72t9 -75v-98q0 -82 -27.5 -147.5t-78 -111.5 t-120 -70.5t-151.5 -24.5q-68 0 -128 15t-111 56q-63 49 -89 99q-4 8 -4 16z" />
<glyph unicode="4" horiz-adv-x="972" d="M78 293v57q0 35 3 51.5t15 38.5l422 815q4 8 19 9h125q12 0 18 -9.5t0 -19.5l-418 -805q-4 -6 -4 -14t16 -8h275q16 0 18 10t2 16v359q0 20 19 20h125q20 0 20 -20v-355q0 -16 2 -23t19 -7h120q20 0 21 -21v-94q0 -20 -21 -21h-114q-12 0 -19.5 -5t-7.5 -23v-224 q0 -20 -20 -20h-125q-18 0 -19 20v224q0 29 -26 28h-445q-20 0 -20 21z" />
<glyph unicode="5" horiz-adv-x="972" d="M123 164q-10 20 8 31l94 53q20 12 35 -4q39 -53 77 -84t109 -31q102 0 157.5 58.5t55.5 144.5v157q0 33 -9 67t-32.5 61.5t-64.5 44t-102 16.5q-35 0 -67 -11.5t-52 -25.5q-37 -29 -68 -16l-71 30q-12 6 -21.5 15.5t-9.5 27.5v545q0 20 18 21h592q20 0 21 -19v-106 q0 -16 -19 -17h-426q-25 0 -24 -22v-279q0 -39 45 -20q51 23 104 22q92 0 157.5 -25.5t108.5 -70.5t63.5 -106.5t20.5 -133.5v-139q0 -86 -29.5 -152.5t-79.5 -112.5t-119 -70.5t-146 -24.5q-123 0 -198 42t-128 134z" />
<glyph unicode="6" horiz-adv-x="972" d="M121 326v575q0 90 28.5 161t80 119t122 73.5t154.5 25.5q111 0 186.5 -30.5t141.5 -116.5q18 -25 -7 -46l-77 -63q-10 -10 -22.5 -5t-20.5 15q-39 47 -88.5 76t-114.5 29q-55 0 -96 -17.5t-69 -47.5t-41 -68.5t-13 -83.5v-166q0 -16 8 -21.5t18 4.5q41 35 92.5 52.5 t100.5 17.5q76 0 140.5 -21.5t112.5 -63.5t75.5 -102.5t27.5 -138.5v-147q0 -80 -26.5 -143.5t-75.5 -109.5t-117 -70.5t-147 -24.5q-80 0 -149 20.5t-118 62.5t-77.5 105.5t-28.5 149.5zM285 326q0 -90 60.5 -144.5t146.5 -54.5t143 54.5t59 154.5l2 147q2 90 -59.5 137.5 t-144.5 47.5q-86 0 -146.5 -54.5t-60.5 -140.5v-147z" />
<glyph unicode="7" horiz-adv-x="972" d="M127 1004v239q0 20 18 21h680q41 0 41 -29v-61q0 -16 -6 -34t-10 -28q-131 -285 -236 -518q-45 -98 -88 -195.5t-78.5 -177.5t-60.5 -134t-31 -67q-10 -20 -26 -20h-133q-10 0 -16.5 6t-0.5 19l477 1058q8 16 2 27.5t-28 11.5h-332q-18 0 -23.5 -5t-5.5 -17v-94 q0 -23 -18 -23h-105q-20 0 -20 21z" />
<glyph unicode="8" horiz-adv-x="972" d="M98 362q0 98 45 179.5t117 117.5q10 4 11 10.5t-7 10.5q-35 16 -61.5 46t-45 64.5t-27.5 73.5t-9 74q0 78 28.5 142.5t77.5 110.5t116.5 70.5t145.5 24.5q80 0 148 -24.5t117 -68.5t76.5 -108.5t27.5 -144.5q0 -72 -33.5 -140.5t-91.5 -113.5q-18 -16 -4 -24 q66 -39 107 -111t41 -168q0 -92 -31 -166t-84 -125t-125 -77.5t-154 -26.5q-84 0 -154.5 22.5t-121.5 68.5t-80 116.5t-29 166.5zM264 356q0 -113 60.5 -170t156.5 -57q43 0 84 16.5t74 47t52.5 76.5t19.5 106q0 55 -18.5 97t-49.5 70.5t-71 43t-85 14.5q-41 0 -80.5 -16.5 t-71.5 -48t-51.5 -76.5t-19.5 -103zM283 940q0 -84 57 -142.5t149 -58.5q41 0 79 15.5t66 43t44 64.5t16 80q0 86 -56 144.5t-149 58.5q-88 0 -147 -58.5t-59 -146.5z" />
<glyph unicode="9" horiz-adv-x="972" d="M100 795v133q0 80 28 144.5t79 110.5t120.5 71.5t155.5 25.5q160 0 258.5 -92t98.5 -270v-523q0 -193 -98.5 -300t-297.5 -107q-111 0 -195.5 44t-139.5 134q-14 25 6 35l94 55q12 8 20.5 3t14.5 -13q35 -47 84 -82t114 -35q119 0 176.5 68.5t57.5 193.5v125 q0 14 -7 19.5t-18 -5.5q-41 -35 -92 -53t-102 -18q-76 0 -140.5 23.5t-112.5 66.5t-76 105.5t-28 140.5zM266 795q0 -92 50.5 -143.5t154.5 -51.5q86 0 145.5 54.5t59.5 140.5v147q0 90 -59.5 144.5t-147.5 54.5q-84 0 -143.5 -56.5t-59.5 -140.5v-149z" />
<glyph unicode=":" horiz-adv-x="436" d="M109 90q0 47 31.5 78t76.5 31v2q47 0 80 -31t33 -78t-33 -78.5t-80 -31.5q-45 0 -76.5 32.5t-31.5 75.5zM109 674q0 43 31.5 75.5t76.5 32.5t79 -32.5t34 -73.5q0 -47 -33 -80t-80 -33q-45 0 -76.5 32t-31.5 79z" />
<glyph unicode=";" horiz-adv-x="436" d="M96 -197l23 367q2 16 10 26.5t25 10.5h135q41 0 28 -45l-104 -369q-8 -27 -33 -26h-59q-14 0 -20.5 10t-4.5 26zM109 674q0 43 31.5 75.5t76.5 32.5q47 0 80 -30.5t33 -75.5q0 -47 -33 -79t-80 -32q-45 0 -76.5 31t-31.5 78z" />
<glyph unicode="&#x3c;" horiz-adv-x="972" d="M53 469v90q0 33 27 47l794 408q14 8 27.5 4t13.5 -21v-82q0 -10 -6 -25.5t-20 -21.5l-664 -333q-27 -14 0 -29l668 -332q18 -10 20 -24.5t2 -26.5v-82q-2 -12 -13 -21.5t-28 0.5l-784 406q-37 16 -37 43z" />
<glyph unicode="=" horiz-adv-x="972" d="M82 297v65q0 31 31 31h747q31 0 31 -31v-63q0 -31 -31 -31h-747q-31 0 -31 29zM82 647v66q0 31 31 30h747q31 0 31 -30v-64q0 -31 -31 -31h-747q-31 0 -31 29z" />
<glyph unicode="&#x3e;" horiz-adv-x="972" d="M55 41v82q2 12 3 26.5t22 24.5l665 332q29 16 0 29l-663 333q-14 6 -19.5 21.5t-5.5 25.5l-2 82q0 16 13.5 20.5t27.5 -3.5l795 -408q27 -14 27 -47v-90q0 -27 -35 -43l-789 -406q-16 -8 -28.5 0.5t-10.5 20.5z" />
<glyph unicode="?" horiz-adv-x="1005" d="M178 1114q53 86 141.5 130t186.5 44q76 0 140.5 -21.5t111.5 -63.5t73.5 -103t26.5 -139q0 -100 -51 -184.5t-150 -143.5q-86 -53 -130 -106.5t-44 -131.5v-43q0 -29 -18 -28h-119q-16 0 -22.5 5t-6.5 25v70q0 78 43 155.5t121 131.5q94 63 150.5 119.5t56.5 125.5 q0 37 -11 70t-35 59.5t-58.5 42t-81.5 15.5q-57 0 -106.5 -36t-80.5 -79q-16 -23 -41 -6l-88 57q-23 14 -8 35zM287 88q0 45 32.5 77t77.5 32q47 0 80 -31t33 -78q0 -45 -32 -76.5t-81 -31.5q-45 0 -77.5 31.5t-32.5 76.5z" />
<glyph unicode="@" horiz-adv-x="1544" d="M139 598q0 141 51.5 262t141.5 210t216 140.5t273 51.5q135 0 252 -43t203 -120t135 -182.5t49 -230.5q0 -123 -28.5 -205t-72.5 -131t-99.5 -69.5t-106.5 -20.5q-66 0 -112 19.5t-76 54.5q-8 8 -17 2q-35 -33 -83 -54.5t-99 -21.5q-49 0 -93 16.5t-78 46t-53.5 71.5 t-19.5 95q0 111 71 172.5t179 61.5q29 0 53.5 -7t46.5 -18q12 -4 20.5 4.5t8.5 18.5q0 39 -24.5 69.5t-98.5 30.5q-41 0 -81 -11t-74 -24q-18 -4 -25 13l-23 67q-6 18 9 25q45 23 100 35t102 12q141 0 197.5 -62.5t56.5 -185.5v-192q0 -55 25.5 -91t91.5 -36q27 0 58.5 13 t58 47t45 93.5t18.5 153.5q0 113 -46 202t-119.5 150.5t-165 93t-179.5 31.5q-121 0 -224 -43t-179 -117.5t-119 -177t-43 -219.5q0 -119 41 -220.5t115 -176t179 -117.5t234 -43q41 0 86.5 5t90.5 13.5t86 19.5t73 25q16 8 26.5 7.5t20.5 -25.5l19 -49q10 -27 -1 -34 t-20 -11q-86 -29 -177 -47.5t-191 -18.5q-158 0 -288 46t-222 133.5t-143.5 212t-51.5 280.5zM647 492q0 -53 36 -89t89 -36t89 35.5t36 89.5q0 18 -7 40.5t-21.5 41t-39 30.5t-57.5 12q-53 0 -89 -35.5t-36 -88.5z" />
<glyph unicode="A" horiz-adv-x="935" d="M41 31l303 1208q2 10 9 17.5t24 7.5h174q25 0 31 -21l311 -1208q3 -7 3 -14q0 -5 -1 -9q-2 -12 -21 -12h-124q-27 0 -29 14l-68 267q-4 8 -8 8h-362q-8 0 -9.5 -2t-3.5 -4l-65 -269q-2 -14 -27 -14h-110q-16 0 -24 6q-5 4 -4 13q0 5 1 12zM319 430h283q10 0 12 3q1 2 1 5 t-1 8l-90 369l-57 258q-2 6 -5 6t-5 -4l-56 -252l-92 -377q-1 -7 -1 -10q0 -6 11 -6z" />
<glyph unicode="B" horiz-adv-x="974" d="M111 23v1218q0 23 22 23h367q166 0 263 -84t97 -246q0 -33 -10 -68t-28.5 -67.5t-43 -61t-53.5 -49.5q-4 -8 2 -14q84 -43 127 -125t43 -172q0 -84 -25.5 -152.5t-73.5 -119t-116 -78t-152 -27.5h-395q-25 0 -24 23zM283 168q0 -18 16 -18h227q94 0 147.5 61.5 t53.5 159.5q0 43 -11 85t-38 73.5t-70 52t-104 20.5h-205q-16 0 -16 -16v-418zM283 766q0 -18 16 -18h201q96 0 143 56t47 134q0 82 -49 130t-143 48h-199q-16 0 -16 -16v-334z" />
<glyph unicode="C" horiz-adv-x="880" d="M119 334v598q0 80 27.5 144.5t76.5 109.5t118 69.5t151 24.5q94 0 182 -31t166 -121q10 -12 10 -21t-16 -24l-78 -65q-8 -8 -21.5 -5t-21.5 13q-37 47 -96.5 75.5t-122.5 28.5q-98 0 -150.5 -55t-52.5 -143v-596q0 -86 57.5 -142.5t155.5 -56.5q63 0 118.5 32t90.5 67 q10 12 20 19t27 -5l82 -68q6 -4 7 -14t-3 -18q-61 -80 -151.5 -121t-190.5 -41q-82 0 -152.5 22.5t-122 66.5t-81 108.5t-29.5 148.5z" />
<glyph unicode="D" horiz-adv-x="1007" d="M125 23v1218q0 23 25 23h366q184 0 281.5 -96.5t97.5 -272.5v-514q0 -190 -99.5 -285.5t-279.5 -95.5h-366q-25 0 -25 23zM297 168q0 -18 16 -18h207q102 0 152.5 54t50.5 150v559q0 106 -60.5 154.5t-156.5 48.5h-191q-18 0 -18 -16v-932z" />
<glyph unicode="E" horiz-adv-x="901" d="M123 23v1218q0 23 24 23h660q27 0 27 -23v-100q0 -25 -25 -25h-498q-16 0 -16 -16v-350q0 -16 14 -17h412q25 0 24 -24v-103q0 -23 -22 -22h-412q-16 0 -16 -19v-397q0 -18 14 -18h506q25 0 25 -23v-102q0 -25 -25 -25h-668q-25 0 -24 23z" />
<glyph unicode="F" horiz-adv-x="823" d="M119 23v1218q0 23 24 23h631q25 0 25 -21v-104q0 -23 -25 -23h-467q-18 0 -18 -16v-359q0 -16 16 -16h400q23 0 22 -25v-102q0 -23 -22 -23h-398q-16 0 -16 -18v-532q0 -25 -23 -25h-125q-25 0 -24 23z" />
<glyph unicode="G" horiz-adv-x="983" d="M119 334v598q0 80 29.5 144.5t82 109.5t123 69.5t152.5 24.5q100 0 197.5 -39t148.5 -127q8 -14 5 -22.5t-15 -18.5l-80 -63q-10 -8 -21.5 -3t-21.5 17q-43 59 -100.5 81.5t-110.5 22.5q-113 0 -165 -62t-52 -151v-579q0 -86 57.5 -142.5t155.5 -56.5q88 0 141 51.5 t53 143.5v188q0 16 -12 17h-151q-25 0 -25 22v105q0 25 25 24h313q27 0 26 -24v-334q0 -76 -26.5 -138.5t-75.5 -107.5t-117.5 -70.5t-150.5 -25.5t-152.5 22.5t-122 66.5t-81 108.5t-29.5 148.5z" />
<glyph unicode="H" horiz-adv-x="1069" d="M129 23v1218q0 23 23 23h124q25 0 25 -21v-498q0 -18 16 -18h437q16 0 16 18v496q0 23 23 23h125q27 0 26 -21v-1218q0 -25 -24 -25h-125q-25 0 -25 23v538q0 18 -16 19h-437q-16 0 -16 -19v-536q0 -25 -22 -25h-125q-25 0 -25 23z" />
<glyph unicode="I" horiz-adv-x="493" d="M156 23v1218q0 23 24 23h127q25 0 25 -21v-1218q0 -25 -25 -25h-127q-25 0 -24 23z" />
<glyph unicode="J" horiz-adv-x="550" d="M0 -84q55 23 102.5 47.5t80 61t51 90t18.5 135.5v987q0 27 31 27h106q31 0 31 -27v-971q0 -96 -17.5 -176t-60.5 -143.5t-114.5 -109.5t-180.5 -77q-7 -2 -12 -2q-8 0 -13 4q-10 5 -16 27l-26 82q-4 14 -4 24q0 13 24 21z" />
<glyph unicode="K" horiz-adv-x="1021" d="M129 18v1225q0 20 23 21h133q18 0 18 -19v-508q0 -18 8 -16t15 8l424 520q12 14 28 15h133q20 0 24.5 -9.5t-3.5 -19.5l-379 -465q-8 -10 -4 -15t14 -5q16 0 29.5 1t28.5 -1q141 -10 209.5 -98.5t78.5 -239.5l31 -392q0 -20 -20 -20h-119q-23 0 -23 18l-24 369 q-2 33 -10.5 74t-31 75.5t-63.5 58t-110 23.5q-117 0 -176.5 -67.5t-59.5 -175.5v-355q0 -20 -18 -20h-133q-23 0 -23 18z" />
<glyph unicode="L" horiz-adv-x="872" d="M135 23v1218q0 23 23 23h125q23 0 22 -21v-1075q0 -18 17 -18h487q25 0 25 -23v-102q0 -25 -23 -25h-651q-25 0 -25 23z" />
<glyph unicode="M" horiz-adv-x="1284" d="M123 23v1202q0 39 37 39h80q29 0 35 -5.5t16 -25.5l274 -733l78 -226q10 -16 19 -2q20 55 39.5 116t39.5 116l273 731q10 16 19 22.5t30 6.5h82q23 0 30 -10.5t7 -26.5v-1202q0 -25 -23 -25h-117q-23 0 -22 23v794q0 4 -3 5t-5 -3l-86 -239l-199 -510q-4 -6 -12 -17.5 t-27 -11.5h-80q-16 0 -25.5 5t-15.5 22l-188 495l-88 250q-6 6 -6 0v-788q0 -25 -23 -25h-115q-25 0 -24 23z" />
<glyph unicode="N" horiz-adv-x="1062" d="M125 23v1189q0 27 7 39.5t36 12.5h74q25 0 35 -9.5t20 -23.5l477 -879q2 -4 4 -5t2 3v891q0 23 23 23h115q25 0 24 -21v-1202q0 -27 -13.5 -34t-25.5 -7h-78q-23 0 -34 7t-19 24l-477 876q-6 6 -6 0v-882q0 -25 -23 -25h-116q-25 0 -25 23z" />
<glyph unicode="O" horiz-adv-x="1017" d="M119 338v594q0 82 30.5 146.5t83 109.5t123 68.5t152.5 23.5q80 0 150.5 -22.5t125 -66.5t85 -109.5t30.5 -149.5v-594q0 -84 -29.5 -148.5t-82 -109.5t-123 -68.5t-154.5 -23.5t-154.5 22.5t-124 66.5t-83 109.5t-29.5 151.5zM291 342q0 -92 56 -148.5t161 -56.5 q102 0 160.5 56.5t58.5 148.5v586q0 88 -59.5 145t-157.5 57q-100 0 -159.5 -58t-59.5 -144v-586z" />
<glyph unicode="P" horiz-adv-x="937" d="M131 23v1218q0 23 25 23h350q90 0 160.5 -29t120 -79t76 -118.5t26.5 -148.5q0 -76 -29 -143.5t-80 -117.5t-120.5 -79t-151.5 -29h-189q-16 0 -16 -18v-477q0 -25 -24 -25h-123q-25 0 -25 23zM301 684q0 -18 16 -18h189q96 0 154.5 60t58.5 165q0 39 -13.5 80t-40 72.5 t-66.5 52t-93 20.5h-187q-18 0 -18 -16v-416z" />
<glyph unicode="Q" horiz-adv-x="1017" d="M119 338v594q0 82 30.5 146.5t83 109.5t123 68.5t152.5 23.5q80 0 150.5 -22.5t125 -66.5t85 -109.5t30.5 -149.5v-594q0 -141 -81 -232.5t-214 -109.5q-18 -2 -18 -27q0 -45 18.5 -68.5t65.5 -23.5q23 0 60.5 8.5t66.5 20.5q20 10 30.5 8t14.5 -18l30 -70q4 -14 2 -24.5 t-20 -20.5q-47 -27 -99.5 -38t-90.5 -11q-123 0 -182.5 62.5t-59.5 178.5q0 10 -7 16.5t-12 8.5q-61 14 -112 43t-90 71t-60.5 98t-21.5 128zM291 342q0 -92 56 -148.5t161 -56.5q102 0 160.5 56.5t58.5 148.5v586q0 88 -59.5 145t-157.5 57q-100 0 -159.5 -58t-59.5 -144 v-586z" />
<glyph unicode="R" horiz-adv-x="989" d="M131 23v1218q0 23 25 23h360q193 0 286 -96.5t93 -258.5q0 -53 -16.5 -104t-44 -97t-61.5 -84t-66 -67q-10 -6 -7 -14q2 -4 7.5 -15.5t28 -59.5t68.5 -146.5t130 -276.5q6 -14 6 -23q0 -8 -5 -13q-11 -9 -24 -9h-106q-33 0 -44 10t-22 31l-209 461q-4 8 -10 13t-20 5 h-181q-16 0 -16 -18v-477q0 -25 -24 -25h-123q-25 0 -25 23zM301 684q0 -18 16 -18h250q10 0 18.5 3t14.5 7q55 39 88 102.5t33 112.5q0 39 -9.5 80t-35 72.5t-69.5 52t-113 20.5h-175q-18 0 -18 -16v-416z" />
<glyph unicode="S" horiz-adv-x="927" d="M51 147q-7 8 -7 17q0 12 15 24l76 70q12 10 21.5 5t23.5 -19q47 -51 110.5 -78t133.5 -27q117 0 190.5 52.5t73.5 156.5q0 51 -21.5 87t-55 60.5t-75.5 42t-83 31.5q-59 20 -125 47t-120 68t-90 101.5t-36 146.5q0 82 28.5 146.5t79 109.5t118 68.5t145.5 23.5 q74 0 166 -18.5t180 -83.5q18 -14 12 -25.5t-10 -19.5l-49 -78q-10 -14 -24.5 -12.5t-27.5 10.5q-70 41 -123 58t-106 17q-45 0 -85 -10t-69.5 -33.5t-47 -61.5t-17.5 -95q0 -41 21.5 -72t56.5 -54.5t78 -42t86 -34.5q68 -27 133 -54.5t116.5 -68.5t83 -100.5t31.5 -151.5 q0 -84 -31.5 -150.5t-89 -112.5t-137.5 -71.5t-174 -25.5q-117 0 -218.5 40t-156.5 117z" />
<glyph unicode="T" horiz-adv-x="854" d="M31 1139v102q0 23 24 23h744q25 0 24 -21v-104q0 -23 -24 -23h-271q-18 0 -18 -16v-1075q0 -25 -23 -25h-125q-25 0 -24 23v1075q0 18 -16 18h-267q-25 0 -24 23z" />
<glyph unicode="U" horiz-adv-x="1019" d="M119 328v913q0 23 22 23h127q23 0 23 -21v-915q0 -84 62.5 -137.5t154.5 -53.5q102 0 161.5 55.5t59.5 141.5v907q0 23 25 23h123q25 0 24 -21v-915q0 -82 -31.5 -145.5t-86 -106.5t-125 -65.5t-148.5 -22.5t-149.5 22.5t-125 65.5t-85 106.5t-31.5 145.5z" />
<glyph unicode="V" horiz-adv-x="911" d="M23 1229q-2 6 -2 11q0 8 4 14q6 10 24 10h127q23 0 29 -19l178 -708l78 -328q4 -12 8 0l74 328l176 708q8 18 29 19h118q29 0 31 -14q1 -5 1 -10q0 -9 -3 -15l-334 -1207q-6 -18 -29 -18h-139q-23 0 -31 20z" />
<glyph unicode="W" horiz-adv-x="1363" d="M18 1235q-1 3 -1 5q1 6 5 14q6 10 21 10h133q16 0 19 -8.5t6 -18.5l141 -651l59 -303q4 -10 11 0q12 72 26.5 146.5t26.5 145.5l135 674q2 4 7 9.5t22 5.5h116q23 0 29 -21l141 -665l58 -295q0 -6 4 -5t6 5l57 301l138 659q4 20 26 21h121q23 0 27 -12q2 -6 2 -11.5 t-2 -11.5l-281 -1211q-4 -6 -10 -12t-12 -6h-152q-18 0 -23 16l-141 672l-47 248q0 4 -4 0l-47 -252l-133 -670q-6 -14 -25 -14h-147q-18 0 -25 12z" />
<glyph unicode="X" horiz-adv-x="923" d="M41 33l315 602q10 23 6 33t-8 18l-286 549q-16 29 22 29h135q18 0 26.5 -5.5t14.5 -17.5l199 -410q8 -8 16 0q51 100 102.5 204t100.5 206q6 12 14.5 17.5t26.5 5.5h123q33 0 22 -29q-72 -139 -146.5 -278.5t-145.5 -278.5q-10 -25 0 -41q37 -70 76.5 -146.5t81.5 -155.5 t83 -156t78 -146q5 -11 5 -18q0 -15 -23 -15h-127q-16 0 -26.5 3t-18.5 20l-228 454q-2 6 -9 9t-11 -7l-228 -456q-10 -16 -19 -19.5t-26 -3.5h-127q-24 0 -24 15q0 7 6 18z" />
<glyph unicode="Y" horiz-adv-x="890" d="M35 1229q-4 10 -4 17q0 18 24 18h117q33 0 43 -23l221 -561q10 -16 19 -2q55 139 110.5 279.5t108.5 279.5q8 16 16 21.5t31 5.5h113q23 0 26 -10v-5q0 -8 -4 -18l-315 -729q-10 -23 -11 -49v-428q0 -25 -24 -25h-123q-25 0 -25 23v434q0 25 -8 41z" />
<glyph unicode="Z" horiz-adv-x="860" d="M70 33v65q0 29 14 58l489 936q14 25 -14 24h-434q-25 0 -25 23v102q0 23 25 23h616q27 0 36 -9.5t9 -27.5v-60q0 -20 -9 -44.5t-17 -39.5l-473 -909q-14 -25 12 -24h475q10 0 17.5 -6.5t7.5 -16.5v-102q0 -25 -25 -25h-665q-20 0 -29.5 10t-9.5 23z" />
<glyph unicode="[" horiz-adv-x="667" d="M211 -283v1663q0 20 18 21h301q20 0 21 -21v-102q0 -18 -19 -18h-135q-23 0 -22 -23v-1376q0 -20 20 -21h135q20 0 21 -18v-105q0 -18 -19 -18h-303q-18 0 -18 18z" />
<glyph unicode="\" horiz-adv-x="620" d="M10 1358q-4 12 2 18t17 6h59q33 0 41 -24l479 -1464q10 -29 -18 -29h-64q-25 0 -34 24z" />
<glyph unicode="]" horiz-adv-x="649" d="M100 -182q0 18 19 18h135q23 0 22 23v1376q0 20 -22 20h-135q-18 0 -19 21v102q0 20 19 21h301q20 0 20 -21v-1663q0 -18 -18 -18h-303q-18 0 -19 18v103z" />
<glyph unicode="^" horiz-adv-x="1122" d="M156 820.5q-2 13.5 8 25.5l309 418q8 10 14.5 15t26.5 5h94q16 0 21.5 -3t15.5 -17l303 -412q12 -16 6 -25.5t-18 -19.5l-45 -35q-12 -10 -43 21l-283 305q-4 4 -7 9t-9 5t-9 -3t-10 -11l-258 -310q-12 -16 -23 -22t-26 2l-55 35q-10 4 -12 17.5z" />
<glyph unicode="_" horiz-adv-x="1024" d="M-2 -193q0 18 20 19h986q20 0 20 -19v-81q0 -20 -18 -21h-988q-20 0 -20 19v83z" />
<glyph unicode="`" horiz-adv-x="897" d="M235.5 1251.5q-2.5 12.5 14.5 24.5l90 59q12 8 23.5 0t17.5 -18l156 -260q14 -23 -9 -37l-39 -25q-10 -8 -22 -4t-21 13l-200 227q-8 8 -10.5 20.5z" />
<glyph unicode="a" horiz-adv-x="897" d="M82 301q0 66 21.5 123t63.5 99t103.5 66.5t143.5 24.5q90 0 161 -39q14 -8 25.5 -5t11.5 22v18q0 82 -42 121t-140 39q-18 0 -47 -4t-58.5 -10t-58 -15.5t-47.5 -19.5q-23 -10 -31 12l-34 90q-6 20 10 27q55 29 133 45t152 16q94 0 157.5 -22.5t101 -65.5t53 -103.5 t15.5 -133.5v-566q0 -20 -18 -20h-113q-18 0 -18 16v37q0 14 -8.5 16.5t-18.5 -8.5q-41 -41 -93 -57t-112 -16q-154 0 -233.5 86t-79.5 227zM236 305q0 -76 45 -128t139 -52q84 0 133 51t49 129q0 76 -44 128t-140 52q-84 0 -133 -51t-49 -129z" />
<glyph unicode="b" horiz-adv-x="923" d="M111 18v1266q0 20 20 21h125q18 0 18 -19v-426q0 -12 10.5 -19t24.5 5q25 20 71 40.5t128 20.5q86 0 148.5 -27.5t101.5 -75.5t57.5 -109.5t18.5 -129.5v-237q0 -150 -88.5 -244t-256.5 -94q-74 0 -118.5 22.5t-73.5 44.5q-14 10 -24.5 8t-10.5 -16v-29q0 -20 -22 -20 h-109q-20 0 -20 18zM274 328q0 -84 54.5 -142.5t142.5 -58.5q109 0 154 57.5t45 143.5v237q0 84 -45 143.5t-152 59.5q-88 0 -143.5 -59.5t-55.5 -143.5v-237z" />
<glyph unicode="c" horiz-adv-x="823" d="M92 326v235q0 82 27.5 147.5t76 109.5t114 67.5t143.5 23.5q198 -1 315 -155q8 -10 6 -23.5t-14 -21.5l-72 -56q-27 -18 -47 13q-35 51 -85 76.5t-107 25.5q-88 0 -140.5 -54.5t-52.5 -140.5v-254q0 -84 54.5 -136t144.5 -52q80 0 127 35t84 82q10 12 30 -2l68 -49 q22 -13 22 -28q0 -9 -6 -17q-61 -92 -146 -128t-177 -36q-166 0 -265.5 90t-99.5 248z" />
<glyph unicode="d" horiz-adv-x="923" d="M94 328v237q0 70 22.5 132.5t65.5 108.5t103.5 73.5t136.5 27.5q82 0 129 -22.5t67 -38.5q16 -12 24.5 -6t8.5 20v424q0 20 21 21h125q20 0 20 -19v-1268q0 -18 -18 -18h-111q-20 0 -20 20v29q0 12 -11.5 16.5t-23.5 -6.5q-27 -23 -82 -46t-129 -23q-150 0 -239 86 t-89 252zM258 328q0 -86 48 -142.5t143 -56.5q86 0 144 57.5t58 141.5l2 237q0 84 -47 142.5t-149 58.5q-106 0 -152.5 -58.5t-46.5 -142.5v-237z" />
<glyph unicode="e" horiz-adv-x="897" d="M96 324v233q0 78 27 143.5t75 112.5t113.5 72.5t145.5 25.5q82 0 148.5 -25.5t113.5 -72.5t72.5 -112.5t25.5 -143.5v-96q0 -23 -13 -36t-28 -13h-479q-16 0 -26.5 -10.5t-10.5 -26.5v-39q0 -41 10.5 -79t34 -65.5t61 -44t91.5 -16.5q61 0 111 28.5t85 76.5q16 23 41 6 l72 -49q25 -16 16 -33q-49 -90 -135 -131t-186 -41q-166 0 -265.5 91t-99.5 245zM264 567q0 -8 6 -16t25 -8h336q20 0 20 22v19q0 78 -49 132t-145 54q-86 0 -139.5 -55.5t-53.5 -132.5v-15z" />
<glyph unicode="f" horiz-adv-x="561" d="M37 780v101q0 18 20 18h84q23 0 23 21v137q0 53 16.5 100t48 83t77.5 56.5t108 20.5q41 0 73.5 -3t67.5 -14q16 -4 21 -10q4 -3 4 -10q0 -5 -2 -12l-23 -99q-4 -10 -10 -13t-23 1q-25 6 -45 8t-41 2q-61 0 -85.5 -38.5t-24.5 -90.5v-118q0 -20 22 -21h170q20 0 21 -20 v-101q0 -18 -21 -18h-172q-20 0 -20 -21v-721q0 -18 -21 -18h-123q-10 0 -14 6t-4 12v717q0 25 -21 25h-90q-16 0 -16 20z" />
<glyph unicode="g" horiz-adv-x="897" d="M57 590q0 68 29 126t77 102t111.5 68.5t135.5 24.5q68 0 129 -20.5t108 -56.5q10 -8 21 0q39 33 87 52t97 19q29 2 29 -31v-104q0 -16 -5.5 -20.5t-25.5 -1.5q-17 3 -33 3q-34 0 -63 -12q-16 -2 -11 -16q35 -59 35 -133q0 -72 -29.5 -131.5t-80 -102.5t-117 -66.5 t-141.5 -23.5q-31 0 -48 -4q-53 -12 -93 -57t-44 -82q0 -16 15 -10q57 14 122.5 19t100.5 5q70 0 142.5 -12t132 -43t96 -82t36.5 -129q0 -45 -18 -87t-49 -79t-70 -65.5t-78 -45.5q-9 -5 -17 -5q-15 0 -26 18l-45 69q-12 19 13 35q51 31 86.5 72t35.5 82q0 37 -22.5 61.5 t-56 39t-75.5 20.5t-81 6q-66 0 -148.5 -10.5t-158.5 -22.5q-25 -4 -34 2t-17 16q-18 27 -27.5 62t-9.5 74q0 57 40 109t95 83q6 4 6 9t-6 10l-8 4q-63 41 -102.5 107.5t-39.5 154.5zM221 582q0 -74 49 -130.5t140 -56.5q96 0 148 54.5t52 132.5q0 76 -52 132t-136 56 q-92 0 -146.5 -56.5t-54.5 -131.5z" />
<glyph unicode="h" horiz-adv-x="954" d="M117 18v1266q0 20 18 21h127q18 0 19 -21v-432q0 -16 10 -19.5t20 7.5q45 33 99.5 50t111.5 17q154 0 236 -93t82 -247v-547q0 -20 -19 -20h-127q-18 0 -18 18v547q0 88 -46 144.5t-151 56.5q-90 0 -143 -56.5t-53 -142.5v-547q0 -20 -21 -20h-125q-20 0 -20 18z" />
<glyph unicode="i" horiz-adv-x="415" d="M109 1180q0 41 29.5 70.5t70.5 29.5q45 0 75.5 -28.5t30.5 -71.5q0 -41 -30.5 -72t-73.5 -31t-72.5 29t-29.5 74zM125 18v859q0 20 18 20h127q20 0 21 -20v-859q0 -18 -19 -18h-127q-20 0 -20 18z" />
<glyph unicode="j" horiz-adv-x="448" d="M-45 -336l18 100q4 20 35 15q14 -2 26.5 -3t22.5 -1q55 2 77 34.5t22 92.5v977q0 18 20 18h123q10 0 14 -6t4 -12v-996q0 -53 -13 -100t-40.5 -83t-74 -56.5t-109.5 -20.5q-70 0 -103 8q-14 4 -20 11q-4 3 -4 11q0 5 2 11zM133 1180q0 41 30 70.5t70 29.5q45 0 76 -28.5 t31 -71.5q0 -41 -30.5 -72t-73.5 -31t-73 29t-30 74z" />
<glyph unicode="k" horiz-adv-x="894" d="M117 18v1266q0 20 18 21h127q18 0 19 -19v-725q0 -23 10 -27t20 7l318 346q10 10 28 10h152q23 0 22 -18q0 -4 -3 -9.5t-7 -9.5l-270 -291q-12 -14 8 -20q14 -2 27.5 -3t25.5 -5q125 -29 173.5 -115t54.5 -205l8 -186q0 -35 -29 -35h-108q-29 0 -29 29l-10 190 q-2 39 -11.5 75t-31 63.5t-58 43t-92.5 15.5q-96 0 -146 -57.5t-50 -137.5v-201q0 -20 -21 -20h-125q-20 0 -20 18z" />
<glyph unicode="l" horiz-adv-x="452" d="M129 256v1028q0 20 18 21h125q20 0 21 -19v-1032q0 -72 20.5 -92.5t69.5 -20.5h27q14 0 16 -10t2 -20v-97q0 -23 -20 -26q-12 -4 -30 -4h-28q-70 0 -112.5 17t-67.5 51t-33 85t-8 119z" />
<glyph unicode="m" horiz-adv-x="1439" d="M109 18v549q0 74 23.5 136.5t67.5 108.5t109.5 71.5t149.5 25.5q82 0 144.5 -31.5t105.5 -80.5q12 -14 24 -2q41 47 106.5 80.5t155.5 33.5q86 0 149.5 -25.5t105.5 -70.5t62.5 -107.5t20.5 -138.5v-547q0 -20 -18 -20h-127q-18 0 -19 18v549q0 80 -45 140.5t-139 60.5 q-39 0 -72.5 -17.5t-58.5 -45t-38 -63.5t-13 -75v-547q0 -20 -19 -20h-125q-20 0 -20 18v549q0 80 -43 140.5t-137 60.5q-45 0 -80 -16.5t-57.5 -44t-35 -64.5t-12.5 -76v-547q0 -20 -18 -20h-127q-20 0 -20 18z" />
<glyph unicode="n" horiz-adv-x="946" d="M113 18v859q0 20 18 20h119q18 0 18 -18v-31q0 -18 15 -19q4 0 16 9q85 71 202 71h3q154 0 243 -93t89 -249v-547q0 -20 -19 -20h-127q-18 0 -18 18v547q0 88 -49.5 145.5t-147.5 57.5q-90 0 -143 -56.5t-53 -144.5v-547q0 -20 -21 -20h-125q-20 0 -20 18z" />
<glyph unicode="o" horiz-adv-x="917" d="M98 332v235q0 158 92.5 251t266.5 93t268 -90t94 -254v-233q0 -166 -97 -256t-263 -90q-170 0 -265.5 89t-95.5 255zM262 332q0 -88 45 -145.5t150 -57.5q104 0 150 56.5t48 146.5v235q0 88 -48 144.5t-148 56.5q-90 0 -143.5 -55.5t-53.5 -145.5v-235z" />
<glyph unicode="p" horiz-adv-x="929" d="M113 -352v1231q0 18 18 18h113q20 0 20 -18v-43q0 -12 10.5 -11.5t22.5 13.5q27 23 79 46t130 23q147 0 238.5 -87t91.5 -249v-241q0 -72 -25 -134.5t-69 -109.5t-104 -73.5t-132 -26.5q-80 0 -124 19.5t-71 43.5q-16 14 -25.5 7t-9.5 -19v-387q0 -20 -18 -21h-127 q-18 0 -18 19zM276 330q0 -84 54.5 -143.5t142.5 -59.5q90 0 143.5 58.5t53.5 144.5v239q0 86 -50.5 142.5t-146.5 56.5q-86 0 -141.5 -56.5t-55.5 -140.5v-241z" />
<glyph unicode="q" horiz-adv-x="929" d="M102 328v241q0 76 24 138.5t68 106.5t105 68.5t135 24.5q78 0 128 -23.5t77 -45.5q12 -12 22.5 -8t10.5 16v33q0 18 20 18h113q20 0 20 -18v-1250q0 -20 -18 -20h-127q-20 0 -21 18v410q0 10 -9 18t-25 -6q-27 -25 -71 -44t-122 -19q-80 0 -141.5 26.5t-103.5 73.5 t-63.5 108.5t-21.5 133.5zM266 330q0 -84 53.5 -143.5t143.5 -59.5q88 0 142 58.5t54 144.5v239q0 86 -54 142.5t-140 56.5t-142.5 -55.5t-56.5 -141.5v-241z" />
<glyph unicode="r" horiz-adv-x="604" d="M121 18v859q0 20 18 20h107q20 0 20 -18v-97q0 -10 7.5 -13t15.5 7q35 49 96 91t143 42q12 0 31 -1t25 -5q16 -4 19 -11q1 -3 1 -7q0 -5 -2 -13l-24 -120q-4 -16 -11.5 -19.5t-15.5 -1.5q-31 6 -59 6q-115 0 -160 -66.5t-45 -164.5v-486q0 -20 -19 -20h-127q-20 0 -20 18 z" />
<glyph unicode="s" horiz-adv-x="802" d="M70 190q-2 5 -2 9q0 9 10 14l104 47q10 4 15.5 0t9.5 -10q31 -59 85 -93t124 -34q66 0 109.5 33.5t43.5 81.5q0 49 -34.5 75.5t-94.5 48.5q-47 18 -107.5 39t-113.5 52.5t-89 80t-36 121.5q0 61 25.5 108.5t68.5 79t98.5 48t116.5 16.5h11q80 1 153 -27q78 -30 138 -94 q14 -14 -7 -34l-55 -64q-20 -23 -47 2q-41 37 -92 58.5t-103 21.5q-68 0 -107.5 -27.5t-39.5 -74.5q0 -45 34 -73t93 -50q59 -23 120.5 -45.5t112 -54t82 -79.5t31.5 -122q0 -51 -21.5 -97.5t-62.5 -81t-101.5 -55t-138.5 -20.5q-109 0 -200.5 49t-132.5 151z" />
<glyph unicode="t" horiz-adv-x="624" d="M35 776v101q0 20 16 20h86q25 0 25 25v172q0 16 18 22l119 29q5 2 9 2q6 0 10 -4q6 -6 6 -17v-208q0 -20 20 -21h188q20 0 21 -18v-101q0 -20 -21 -20h-186q-23 0 -22 -21v-467q0 -59 20.5 -94t81.5 -35q35 0 66.5 4.5t54.5 8.5t30 -3.5t9 -19.5l16 -84q2 -8 2 -13.5 t-2 -9.5q-4 -6 -20 -12q-31 -14 -84.5 -19t-94.5 -5q-68 0 -114.5 18.5t-74.5 51t-40 77.5t-12 101v501q0 20 -23 21h-84q-20 0 -20 18z" />
<glyph unicode="u" horiz-adv-x="940" d="M98 330v547q0 20 19 20h127q18 0 18 -18v-549q0 -86 49 -143.5t148 -57.5q90 0 143 56.5t53 144.5v547q0 20 19 20h127q20 0 20 -18v-859q0 -20 -20 -20h-117q-20 0 -20 18v31q0 14 -9.5 17.5t-19.5 -7.5q-39 -35 -98.5 -53t-112.5 -18q-154 0 -240 92t-86 250z" />
<glyph unicode="v" horiz-adv-x="827" d="M29 868q-3 8 -3 14q0 15 19 15h113q35 0 41 -25l139 -423l68 -232q4 -10 9 -10t9 8l63 221l140 430q4 10 11 20.5t28 10.5h116q22 0 22 -15q0 -5 -3 -12l-299 -845q-4 -14 -11.5 -19.5t-25.5 -5.5h-100q-29 0 -37 23z" />
<glyph unicode="w" horiz-adv-x="1236" d="M20 870q-3 8 -3 14q0 15 20 15h127q29 0 35 -27l75 -337l60 -283q2 -8 7 -8t7 8l78 274l104 340q4 16 12.5 24.5t24.5 8.5h92q10 0 20.5 -4t16.5 -27l125 -405l60 -211q2 -6 7 -7t7 7l39 197l92 421q4 12 11 20.5t26 8.5h121q20 0 20 -16q0 -5 -2 -11l-231 -843 q-8 -29 -33 -29h-92q-16 0 -24.5 3t-12.5 20l-131 417l-64 232q-8 14 -12 0l-65 -248l-123 -401q-4 -16 -13.5 -19.5t-23.5 -3.5h-92q-14 0 -23.5 5t-13.5 22z" />
<glyph unicode="x" horiz-adv-x="792" d="M22 9q-1 3 -1 5q0 7 6 15l256 407q14 23 12 34t-10 26l-232 370q-8 12 -4 21.5t21 9.5h118q20 0 28.5 -3t19.5 -20l151 -260q8 -12 13.5 -10t9.5 12l149 258q10 16 18.5 19.5t28.5 3.5h119q16 0 20.5 -9t-4.5 -22l-235 -372q-12 -20 -8 -30.5t8 -19.5l262 -415 q6 -7 6 -14q0 -3 -1 -5q-3 -10 -19 -10h-125q-14 0 -25.5 4t-21.5 21l-174 297q-8 14 -14.5 8t-10.5 -11l-172 -294q-10 -16 -21.5 -20.5t-25.5 -4.5h-123q-15 0 -19 9z" />
<glyph unicode="y" horiz-adv-x="843" d="M35 862q-2 8 -2 14.5t2 11.5q4 11 22 11h109q20 0 30.5 -9t14.5 -22l172 -690q4 -16 12 -19t17 19l225 682q4 12 13 25.5t34 13.5h96q20 0 26 -11q3 -6 3 -15q0 -6 -2 -13l-395 -1192q-4 -14 -19.5 -28.5t-44.5 -14.5h-76q-33 0 -33 28q0 10 5 25l96 291q4 10 5 20.5 t-15 10.5h-21q-39 0 -49 41z" />
<glyph unicode="z" horiz-adv-x="823" d="M74 29v55q0 12 2 26.5t12 26.5l397 592q10 12 4 21.5t-22 9.5h-352q-20 0 -21 18v99q0 20 19 20h563q41 0 41 -35v-57q0 -14 -4 -29.5t-8 -23.5l-394 -582q-16 -31 19 -31h401q20 0 21 -20v-99q0 -20 -19 -20h-627q-16 0 -24 9t-8 20z" />
<glyph unicode="{" horiz-adv-x="692" d="M78 510v88q0 23 12 29t35 16q61 29 99 74t38 121v264q0 164 79 230.5t226 66.5h31q20 0 20 -21v-100q0 -20 -18 -21h-25q-43 0 -71.5 -5t-46 -19t-23.5 -42t-6 -73v-315q0 -74 -37 -133.5t-100 -96.5q-8 -6 -8 -14t8 -10q35 -16 60.5 -45t43 -62.5t25.5 -70.5t8 -70v-330 q0 -47 6 -73.5t23.5 -42t46 -19.5t71.5 -4h25q18 0 18 -20v-101q0 -20 -20 -20h-31q-147 0 -225 66.5t-78 230.5v291q0 76 -38 123t-97 69q-29 10 -40 17.5t-11 21.5z" />
<glyph unicode="|" horiz-adv-x="464" d="M170 -217v1583q0 18 20 18h78q20 0 21 -16v-1583q0 -20 -19 -21h-80q-20 0 -20 19z" />
<glyph unicode="}" horiz-adv-x="692" d="M70 -188q0 20 18 20h25q43 0 71.5 4t46 19.5t23.5 42t6 73.5v330q0 33 8 70t25.5 70.5t43 62t60.5 45.5q8 2 9 10q0 8 -9 14q-63 37 -100 96.5t-37 133.5v315q0 45 -6 73t-23.5 42t-46 19t-71.5 5h-25q-18 0 -18 21v100q0 20 20 21h31q147 0 226 -66.5t79 -230.5v-264 q0 -76 38 -121t99 -74q23 -10 35 -16t12 -29v-84q0 -16 -11 -24.5t-40 -18.5q-59 -23 -97 -70t-38 -122v-291q0 -164 -78 -230.5t-225 -66.5h-31q-20 0 -20 20v101z" />
<glyph unicode="~" horiz-adv-x="972" d="M20 596q0 8 7 14q61 80 123.5 112t115.5 32q57 0 115.5 -19.5t110.5 -44.5q51 -25 101 -44t101 -19q45 0 78 25.5t62 54.5q14 14 22 14t14 -6l68 -53q12 -10 12 -17q0 -6 -8 -18q-51 -68 -112.5 -108t-133.5 -40q-63 0 -127.5 28t-124.5 54q-47 23 -89 38t-83 15 q-43 0 -79.5 -23.5t-77.5 -70.5q-6 -6 -13 -6l-6 2l-69 66q-6 6 -7 14z" />
<glyph unicode="&#xa1;" horiz-adv-x="538" d="M172 788q0 45 32 77t79 32t79.5 -31.5t32.5 -77.5q0 -45 -32.5 -76.5t-77.5 -31.5q-47 0 -80 30.5t-33 77.5zM195 -369l30 897q0 18 19 19h71q18 0 19 -17l39 -897q0 -20 -21 -20h-137q-20 0 -20 18z" />
<glyph unicode="&#xa2;" horiz-adv-x="972" d="M154 326v235q0 143 81.5 232.5t208.5 109.5q6 2 14.5 5t8.5 26v92q0 18 20 18h64q20 0 20 -18v-96q0 -23 10.5 -25t18.5 -4q72 -14 128 -52t103 -99q8 -10 6.5 -23.5t-14.5 -21.5l-78 -56q-27 -18 -47 13q-35 51 -79 78.5t-101 27.5q-86 0 -143.5 -54.5t-57.5 -140.5 v-254q0 -84 57.5 -136t141.5 -52q39 0 67.5 9.5t51 25.5t40 37.5t36.5 46.5q10 12 30 -2l80 -51q20 -12 22.5 -23.5t-5.5 -21.5q-47 -70 -106.5 -107t-125.5 -49q-10 -2 -22.5 -3t-12.5 -30v-88q0 -20 -20 -20h-64q-10 0 -15 3t-5 15v90q0 18 -11.5 23.5t-19.5 7.5 q-131 23 -206.5 108.5t-75.5 223.5z" />
<glyph unicode="&#xa3;" horiz-adv-x="972" d="M70 18v103q0 16 20 20q35 10 55.5 33t30.5 50.5t13.5 57t3.5 54.5v213q0 20 -21 20h-80q-18 0 -18 21v102q0 18 18 19h78q23 0 23 22v178q0 80 27.5 147.5t76.5 117t115.5 77t144.5 27.5q98 0 192.5 -39t145.5 -127q12 -23 -8 -35l-90 -57q-29 -18 -41 6q-31 53 -80 82 t-115 29q-86 0 -144.5 -54.5t-58.5 -140.5v-211q0 -20 21 -20h223q20 0 21 -21v-102q0 -18 -21 -19h-221q-23 0 -23 -22v-123q0 -86 -6 -152.5t-37 -115.5q-6 -16 9 -17h497q20 0 21 -18v-103q0 -20 -19 -20h-735q-18 0 -18 18z" />
<glyph unicode="&#xa4;" horiz-adv-x="1007" d="M113 178q-14 12 0 27l108 114q-31 43 -45 89.5t-14 93.5q0 96 57 182l-94 104q-6 10 -8 14.5t8 14.5l68 66q14 14 26 2l94 -105q84 57 187 58q47 0 94 -14.5t88 -43.5l113 107q4 8 13 9t15 -9l66 -66q14 -16 2 -28l-109 -105q61 -84 62 -190q0 -49 -14.5 -97.5 t-45.5 -91.5l103 -98q14 -14 2 -27l-70 -69q-14 -14 -26 0l-105 100q-86 -61 -184 -61q-102 0 -189 67l-106 -108q-12 -16 -27 -2zM295 498q0 -43 16.5 -81t45 -65.5t66.5 -44t81 -16.5t81 16.5t65.5 44t44 65.5t16.5 81t-16.5 80.5t-44 66.5t-65.5 45.5t-81 16.5t-81 -16.5 t-66.5 -45.5t-45 -66.5t-16.5 -80.5z" />
<glyph unicode="&#xa5;" horiz-adv-x="972" d="M76 1233q-16 31 16 31h121q16 0 23.5 -3.5t15.5 -19.5l127 -293l96 -243q14 -29 27 -3l102 256l119 279q8 16 15 21.5t28 5.5h108q18 0 21.5 -9.5t-2.5 -19.5l-209 -481q-8 -16 12 -17h189q18 0 18 -18v-76q0 -20 -18 -20h-774q-20 0 -21 18v76q0 20 21 20h159 q10 0 12.5 8.5t-1.5 12.5zM90 430v76q0 18 21 18h774q18 0 18 -18v-76q0 -10 -7 -14t-11 -4h-301q-14 0 -16.5 -8.5t-2.5 -18.5v-365q0 -20 -20 -20h-123q-20 0 -21 18v365q0 10 -5 18.5t-21 8.5h-264q-20 0 -21 20z" />
<glyph unicode="&#xa6;" horiz-adv-x="464" d="M170 -217l2 725q0 18 21 18h77q20 0 21 -16l-2 -727q-4 -18 -19 -19h-80q-20 0 -20 19zM170 635v731q0 18 20 18h78q20 0 21 -16v-733q-4 -18 -19 -19h-80q-20 0 -20 19z" />
<glyph unicode="&#xa7;" horiz-adv-x="925" d="M125 0q0 10 12 23l68 63q10 10 20 10q14 0 27 -14q39 -41 103.5 -69.5t127.5 -28.5q37 0 73 6t64.5 20.5t47 38t18.5 55.5q0 61 -68.5 96.5t-171.5 69.5q-63 20 -116.5 47t-93 60t-62 74t-22.5 94q0 78 46 133t126 92q12 4 16 4q14 0 22 -18l29 -64q2 -4 4 -9t2 -9 q0 -14 -20 -25q-33 -16 -53.5 -43.5t-20.5 -50.5q0 -47 44 -79t147 -66q70 -25 133 -50.5t111 -59.5t77 -80t29 -107q0 -63 -29 -112.5t-79 -82.5t-116.5 -50.5t-142.5 -17.5q-100 0 -193.5 36t-152.5 102q-6 6 -6 12zM154 1108q0 113 88 183.5t252 70.5q90 0 164.5 -29.5 t134.5 -95.5q6 -6 6 -12q0 -10 -13 -23l-59 -63q-10 -10 -20 -11q-14 0 -27 15q-39 41 -89.5 63.5t-101.5 22.5q-92 0 -137 -32t-45 -79t42 -78.5t147 -68.5q70 -25 130 -49.5t103 -57.5t67.5 -77t24.5 -107q0 -84 -47 -142.5t-121 -88.5q-2 0 -4 -1.5t-6 -1.5q-12 0 -18 15 l-35 80q-4 8 -4 12q0 12 14 16q31 16 49.5 41t18.5 62q0 33 -16.5 56.5t-45 41.5t-68.5 34.5t-89 33.5q-63 23 -116.5 46t-93.5 55t-62.5 73t-22.5 96z" />
<glyph unicode="&#xa8;" horiz-adv-x="931" d="M186 1116q0 41 28 68.5t69 27.5t68.5 -27.5t27.5 -68.5t-27.5 -68.5t-68.5 -27.5t-69 27.5t-28 68.5zM518 1116q0 41 27.5 68.5t68.5 27.5t69 -27.5t28 -68.5t-27 -68.5t-68 -27.5t-69.5 27.5t-28.5 68.5z" />
<glyph unicode="&#xa9;" horiz-adv-x="1447" d="M125 489v283q0 113 44 204t124 154.5t190.5 98.5t243.5 35t244.5 -33t192.5 -95.5t126 -154.5t45 -209v-283q0 -117 -45 -208t-126 -153t-192.5 -95t-244.5 -33t-243.5 34t-190.5 97.5t-124 154.5t-44 203zM215 485q0 -82 32 -155.5t95.5 -130t159.5 -89t223 -32.5 t224.5 32.5t163 88t99 129t33.5 157.5v293q0 86 -33.5 160t-99 128t-163 86t-224.5 32t-223 -33t-159.5 -88t-95.5 -129t-32 -156v-293zM496 492v256q0 109 68.5 170t178.5 61q76 0 129.5 -26t88.5 -85q8 -14 -7 -22l-59 -39q-20 -10 -29 4q-41 74 -125 74q-59 0 -97 -38 t-38 -97v-256q0 -59 37 -97.5t96 -38.5q41 0 72 19.5t53 48.5q4 8 12.5 11t18.5 -5l61 -41q8 -8 0 -20q-80 -109 -215 -109q-111 0 -178 58.5t-67 171.5z" />
<glyph unicode="&#xaa;" horiz-adv-x="598" d="M43 692q0 96 64.5 150.5t164.5 54.5q23 0 53.5 -7t55.5 -28q8 -4 10 6v11q0 41 -22.5 61.5t-79.5 20.5q-25 0 -69 -8.5t-73 -22.5q-12 -6 -18 -2t-12 16l-21 49q-14 25 13 39q39 18 88 29.5t96 11.5q129 0 181 -55t52 -154v-342q0 -14 -3 -20t-19 -6h-76q-16 0 -19 6 t-3 16v14q0 8 -4.5 6.5t-8.5 -3.5q-20 -16 -57 -31t-68 -15q-109 0 -167 53.5t-58 149.5zM174 694q0 -41 28.5 -70.5t76.5 -29.5q49 0 76.5 29.5t27.5 70.5t-29.5 69t-74.5 28q-47 0 -76 -28t-29 -69z" />
<glyph unicode="&#xab;" horiz-adv-x="980" d="M98.5 416q1.5 18 18.5 41l235 297q12 14 24.5 23t39.5 9h100q23 0 27 -10t-8 -26l-252 -318q-12 -14 -11.5 -21.5t11.5 -17.5l247 -311q12 -16 6 -28.5t-20 -12.5h-98q-23 0 -37 8t-33 31l-231 291q-20 27 -18.5 45zM462.5 416q2.5 18 18.5 41l238 297q10 14 22.5 23 t40.5 9h99q23 0 27.5 -10t-7.5 -26l-254 -318q-12 -14 -10 -21.5t10 -17.5l250 -311q12 -16 6 -28.5t-22 -12.5h-97q-23 0 -37 8t-32 31l-232 291q-23 27 -20.5 45z" />
<glyph unicode="&#xac;" horiz-adv-x="972" d="M82 455v65q0 31 31 31h747q31 0 31 -31v-403q0 -29 -29 -29h-84q-31 0 -30 29v299q0 10 -9 10h-626q-31 0 -31 29z" />
<glyph unicode="&#xad;" horiz-adv-x="696" d="M111 440v95q0 20 18 20h418q20 0 20 -18v-97q0 -20 -18 -20h-418q-20 0 -20 20z" />
<glyph unicode="&#xae;" horiz-adv-x="837" d="M86 899v152q0 61 24.5 111t67.5 86t103.5 54.5t134.5 18.5q72 0 133 -18.5t105 -52t70 -85t26 -114.5v-152q0 -66 -26 -116t-70 -84.5t-105 -52t-133 -17.5q-74 0 -134.5 18.5t-103.5 54t-67.5 86t-24.5 111.5zM147 895q0 -41 16.5 -80t50.5 -67.5t84 -46t118 -17.5 q66 0 117 17.5t84.5 46t51 66.5t17.5 81v158q0 90 -68.5 150.5t-201.5 60.5q-68 0 -118 -17.5t-84 -46.5t-50.5 -66.5t-16.5 -80.5v-158zM305 797v348q0 16 17 16h110q57 0 88 -28.5t31 -75.5q0 -31 -15.5 -55.5t-39.5 -40.5q-6 -4 -8.5 -7.5t1.5 -13.5l64 -133 q4 -8 4 -16.5t-16 -8.5h-35q-16 0 -23 15l-57 133q-4 8 -18 8h-23q-12 0 -12 -10v-129q0 -16 -15 -17h-36q-16 0 -17 15zM373 1004q0 -8 10 -9h43q23 0 41 16.5t18 39.5t-15 37t-38 14h-47q-12 0 -12 -10v-88z" />
<glyph unicode="&#xaf;" horiz-adv-x="897" d="M219 1075v84q0 20 19 21h436q20 0 20 -19v-86q0 -20 -18 -20h-436q-20 0 -21 20z" />
<glyph unicode="&#xb0;" horiz-adv-x="620" d="M61 1071q0 49 18.5 90t50.5 72t74 48t91 17q121 0 184.5 -64.5t63.5 -162.5q0 -49 -20.5 -90t-54.5 -71.5t-78 -48t-93 -17.5t-92 17.5t-75 47t-50.5 71.5t-18.5 91zM170 1071q0 -53 36 -94t89 -41q55 0 95 40t40 95q0 53 -36 93t-99 40q-49 0 -87 -39t-38 -94z" />
<glyph unicode="&#xb1;" horiz-adv-x="972" d="M82 111v65q0 31 31 31h747q31 0 31 -31v-63q0 -31 -31 -31h-747q-31 0 -31 29zM82 680v65q0 31 31 31h297q10 0 10 8v299q0 31 29 31h69q31 0 31 -31v-297q0 -10 10 -10h301q31 0 31 -31v-63q0 -31 -31 -31h-301q-10 0 -10 -8v-301q0 -29 -29 -29h-69q-31 0 -31 29v299 q0 10 -8 10h-299q-31 0 -31 29z" />
<glyph unicode="&#xb2;" horiz-adv-x="632" d="M37 698v45q0 14 2 23.5t14 26.5l299 362q10 12 24.5 39t14.5 49q0 45 -29.5 74t-76.5 29q-39 0 -70 -20.5t-45 -39.5q-12 -16 -19.5 -20t-19.5 6l-59 45q-20 12 -2 35q41 55 98 79.5t119 24.5q111 0 174 -54t63 -149q0 -41 -25.5 -89t-47.5 -77l-228 -280q-6 -8 -4 -13.5 t8 -5.5h289q8 0 15.5 -6t7.5 -16v-70q0 -25 -23 -24h-448q-18 0 -24.5 5t-6.5 21z" />
<glyph unicode="&#xb3;" horiz-adv-x="632" d="M59 796.5q0 10.5 17 18.5l49 31q27 16 47 -6q43 -63 109 -64q47 0 80.5 29t33.5 74v59q0 41 -31.5 71.5t-78.5 30.5h-80q-18 0 -23.5 4.5t-5.5 16.5v61q0 16 5 21.5t22 5.5h82q47 0 76.5 25.5t29.5 70.5t-30.5 71.5t-77.5 26.5q-37 0 -62.5 -14t-42.5 -37 q-8 -10 -20.5 -19t-28.5 1l-55 35q-16 10 -13.5 22t9.5 23q35 53 91 77.5t122 24.5q111 0 176 -57.5t65 -149.5q0 -43 -20.5 -86t-61.5 -71q-4 -4 0 -7q41 -23 63.5 -62.5t22.5 -80.5v-51q0 -109 -67.5 -168t-179.5 -59q-72 0 -127.5 24.5t-90.5 89.5q-4 8 -4 18.5z" />
<glyph unicode="&#xb4;" horiz-adv-x="897" d="M389 1057l154 260q6 10 15 19.5t26 -1.5l90 -59q16 -12 14 -24.5t-8 -20.5l-203 -227q-6 -8 -18.5 -12.5t-24.5 3.5l-39 25q-18 14 -6 37z" />
<glyph unicode="&#xb6;" horiz-adv-x="919" d="M61 973q0 68 25 128t70 105t105.5 72t131.5 27h178q18 0 19 -19v-622q0 -18 -19 -19h-178q-74 0 -134 25.5t-104 69.5t-69 103.5t-25 129.5zM442 -88q-4 23 17 27q72 8 115.5 26.5t68.5 47t34 67.5t9 88v1118q0 18 21 19h90q20 0 20 -19v-1106q0 -80 -18.5 -144.5 t-59.5 -110.5t-106.5 -72.5t-161.5 -32.5q-8 0 -13 3t-7 15z" />
<glyph unicode="&#xb7;" horiz-adv-x="436" d="M109 475q0 43 31.5 76t76.5 33t79 -33t34 -74q0 -47 -33 -79.5t-80 -32.5q-45 0 -76.5 31.5t-31.5 78.5z" />
<glyph unicode="&#xb8;" horiz-adv-x="835" d="M291 -340l33 43q12 12 24 6q23 -12 46.5 -22.5t56.5 -10.5q41 0 63.5 17.5t22.5 46.5q0 8 -2.5 19.5t-10.5 21.5t-23.5 18t-41.5 8h-56q-39 0 -53 23t-6 53q10 43 18.5 74t18.5 61q2 6 6 16.5t16 10.5h62q10 0 11 -11t-1 -18q-8 -31 -15 -58.5t-9 -37.5q-8 -23 14 -22h22 q72 0 114 -42t42 -114q0 -59 -50 -108.5t-138 -49.5q-53 0 -90 11.5t-72 33.5q-16 12 -2 31z" />
<glyph unicode="&#xb9;" horiz-adv-x="524" d="M86 1247v66q0 14 4 23.5t19 17.5l153 84q16 10 31 10h45q23 0 27 -9t4 -26v-715q0 -29 -29 -28h-80q-29 0 -29 26v576q0 10 -6 6l-88 -47q-18 -10 -34.5 -6t-16.5 22z" />
<glyph unicode="&#xba;" horiz-adv-x="612" d="M57 711v143q0 100 68 159.5t180 59.5q113 0 181.5 -57.5t68.5 -161.5v-141q0 -109 -66.5 -166.5t-183.5 -57.5q-115 0 -181.5 57.5t-66.5 164.5zM190 711q0 -47 31 -79t84 -32t84 32t33 79v143q0 45 -32 74.5t-85 29.5q-51 0 -83 -29.5t-32 -74.5v-143z" />
<glyph unicode="&#xbb;" horiz-adv-x="980" d="M91 770.5q5 11.5 28 11.5h98q29 0 41 -9t23 -23l237 -299q16 -20 18.5 -40t-20.5 -46l-231 -289q-18 -23 -32.5 -31t-37.5 -8h-96q-16 0 -22.5 12t5.5 29l250 309q8 10 10.5 17.5t-10.5 23.5l-254 317q-12 14 -7 25.5zM457 770.5q4 11.5 26 11.5h101q27 0 39 -9t24 -23 l236 -299q16 -20 18 -40t-18 -46l-232 -289q-18 -23 -32.5 -31t-36.5 -8h-99q-14 0 -20 12t6 29l250 309q8 10 9 17.5t-9 23.5l-254 317q-12 14 -8 25.5z" />
<glyph unicode="&#xbc;" horiz-adv-x="1433" d="M156 1063v65q0 14 4 23.5t18 17.5l154 84q16 10 30 11h46q23 0 26.5 -9.5t3.5 -25.5v-715q0 -29 -28 -29h-80q-29 0 -29 27v575q0 10 -6 7l-88 -47q-18 -10 -34.5 -6.5t-16.5 22.5zM330 -43l569 1352q6 12 13.5 14t13.5 2h61q18 0 20.5 -6t-1.5 -19l-568 -1347 q-4 -10 -10 -12t-14 -2h-74q-18 0 -10 18zM705 184v35q0 23 2 32t10 23l262 500q4 4 14 4h101q8 0 12 -5t0 -13l-240 -467q-2 -4 -2 -9t13 -5h147q10 0 12 6t2 10v178q0 12 13 12h98q14 0 14 -12v-176q0 -10 2 -14t13 -4h84q14 0 14 -13v-82q0 -12 -14 -12h-80 q-18 0 -19 -16v-144q0 -12 -14 -12h-98q-12 0 -13 12v144q0 16 -18 16h-301q-14 0 -14 12z" />
<glyph unicode="&#xbd;" horiz-adv-x="1433" d="M135 1063v65q0 14 4 23.5t19 17.5l153 84q16 10 31 11h45q23 0 27 -9.5t4 -25.5v-715q0 -29 -29 -29h-80q-29 0 -28 27v575q0 10 -7 7l-88 -47q-18 -10 -34.5 -6.5t-16.5 22.5zM315 -43l570 1352q6 12 13 14t13 2h62q18 0 20 -6t-2 -19l-567 -1347q-4 -10 -10 -12t-15 -2 h-73q-18 0 -11 18zM795 27v45q0 14 2 23t14 26l299 362q10 12 24.5 39t14.5 49q0 45 -29.5 74t-77.5 29q-39 0 -69.5 -20.5t-44.5 -39.5q-12 -16 -19.5 -20t-19.5 6l-60 45q-20 12 -2 35q41 55 98.5 79.5t118.5 24.5q111 0 174.5 -54t63.5 -148q0 -41 -25.5 -89.5 t-48.5 -76.5l-227 -281q-6 -8 -4 -13t8 -5h289q8 0 15 -6.5t7 -16.5v-69q0 -25 -22 -25h-449q-18 0 -24 5t-6 22z" />
<glyph unicode="&#xbe;" horiz-adv-x="1433" d="M74 612.5q0 10.5 16 18.5l49 31q27 16 47 -7q43 -63 109 -63q47 0 81 28.5t34 73.5v60q0 41 -32 71.5t-79 30.5h-80q-18 0 -23.5 4t-5.5 17v61q0 16 5.5 21.5t21.5 5.5h82q47 0 77 25.5t30 70.5t-31 71.5t-78 26.5q-37 0 -62.5 -14.5t-41.5 -36.5q-8 -10 -20.5 -19.5 t-29.5 1.5l-55 34q-16 10 -13 22.5t9 22.5q35 53 91 78t122 25q111 0 176.5 -57.5t65.5 -149.5q0 -43 -20.5 -86t-61.5 -72q-4 -4 0 -6q41 -23 63.5 -62.5t22.5 -80.5v-51q0 -109 -67.5 -168.5t-180.5 -59.5q-72 0 -127 24.5t-90 90.5q-4 8 -4 18.5zM365 -43l569 1352 q6 12 13 14t14 2h61q18 0 20 -6t-2 -19l-567 -1347q-4 -10 -10 -12t-14 -2h-74q-18 0 -10 18zM745 184v35q0 23 2.5 32t10.5 23l262 500q4 4 14 4h101q8 0 12 -5t0 -13l-240 -467q-2 -4 -2 -9t13 -5h147q10 0 12 6t2 10v178q0 12 13 12h98q14 0 14 -12v-176q0 -10 2 -14 t13 -4h84q14 0 14 -13v-82q0 -12 -14 -12h-80q-18 0 -19 -16v-144q0 -12 -14 -12h-98q-12 0 -13 12v144q0 16 -18 16h-301q-14 0 -15 12z" />
<glyph unicode="&#xbf;" horiz-adv-x="1005" d="M172 -80q0 100 56.5 182t154.5 142q86 53 130 106t44 131v43q0 29 18 29h119q16 0 22.5 -5t6.5 -26v-69q0 -78 -43 -156t-121 -131q-94 -63 -152.5 -114.5t-64.5 -121.5q-4 -35 8 -70.5t37 -63t61.5 -45t81.5 -17.5q72 0 113 28.5t68 67.5q4 4 6 8t6 10q16 23 41 7 l90 -58q12 -8 12 -16t-4 -19q-53 -88 -138 -129t-183 -41q-76 0 -142.5 20.5t-117 62.5t-80 103.5t-29.5 141.5zM530 788q0 45 32 77t81 32q45 0 78 -31.5t33 -77.5q0 -45 -33 -76.5t-78 -31.5q-47 0 -80 30.5t-33 77.5z" />
<glyph unicode="&#xc0;" horiz-adv-x="935" d="M41 31l303 1208q2 10 9 17.5t24 7.5h174q25 0 31 -21l311 -1208q4 -10 2 -22.5t-21 -12.5h-124q-27 0 -29 14l-68 267q-4 8 -8 8h-362q-8 0 -9.5 -2t-3.5 -4l-65 -269q-2 -14 -27 -14h-110q-16 0 -23.5 6t-3.5 25zM145.5 1472.5q-6.5 10.5 6.5 26.5l61 90q10 10 22.5 8 t22.5 -10l238 -188q20 -16 6 -37l-27 -37q-8 -10 -20.5 -11t-22.5 3l-270 141q-10 4 -16.5 14.5zM308 433q1 -3 11 -3h283q10 0 12 3t0 13l-90 369l-57 258q-2 6 -5 6t-5 -4l-56 -252l-92 -377q-2 -10 -1 -13z" />
<glyph unicode="&#xc1;" horiz-adv-x="935" d="M41 31l303 1208q2 10 9 17.5t24 7.5h174q25 0 31 -21l311 -1208q4 -10 2 -22.5t-21 -12.5h-124q-27 0 -29 14l-68 267q-4 8 -8 8h-362q-8 0 -9.5 -2t-3.5 -4l-65 -269q-2 -14 -27 -14h-110q-16 0 -23.5 6t-3.5 25zM308 433q1 -3 11 -3h283q10 0 12 3t0 13l-90 369 l-57 258q-2 6 -5 6t-5 -4l-56 -252l-92 -377q-2 -10 -1 -13zM406 1368q-16 20 6 37l237 188q10 8 22.5 10.5t22.5 -8.5l62 -90q12 -16 6 -26.5t-17 -14.5l-270 -141q-10 -4 -22.5 -3t-20.5 11z" />
<glyph unicode="&#xc2;" horiz-adv-x="935" d="M41 31l303 1208q2 10 9 17.5t24 7.5h174q25 0 31 -21l311 -1208q4 -10 2 -22.5t-21 -12.5h-124q-27 0 -29 14l-68 267q-4 8 -8 8h-362q-8 0 -9.5 -2t-3.5 -4l-65 -269q-2 -14 -27 -14h-110q-16 0 -23.5 6t-3.5 25zM172 1382l197 203q10 10 19 14.5t26 4.5h65 q16 0 25.5 -4.5t19.5 -14.5l197 -203q23 -18 -2 -34l-29 -21q-14 -10 -24.5 -8t-20.5 10l-180 125q-14 14 -31 0l-186 -125q-12 -8 -21.5 -10t-23.5 8l-29 21q-25 16 -2 34zM308 433q1 -3 11 -3h283q10 0 12 3t0 13l-90 369l-57 258q-2 6 -5 6t-5 -4l-56 -252l-92 -377 q-2 -10 -1 -13z" />
<glyph unicode="&#xc3;" horiz-adv-x="935" d="M41 31l303 1208q2 10 9 17.5t24 7.5h174q25 0 31 -21l311 -1208q4 -10 2 -22.5t-21 -12.5h-124q-27 0 -29 14l-68 267q-4 8 -8 8h-362q-8 0 -9.5 -2t-3.5 -4l-65 -269q-2 -14 -27 -14h-110q-16 0 -23.5 6t-3.5 25zM168 1384.5q2 10.5 6 18.5q27 51 68 90t92 39 q31 0 60.5 -12.5t57 -25.5t54 -25.5t49.5 -12.5t41 21.5t33 46.5q4 6 8 10t14 -2l66 -31q18 -6 6 -35q-33 -70 -77 -99.5t-83 -29.5q-33 0 -62.5 11.5t-56 24.5t-52 24.5t-52.5 11.5q-16 0 -37.5 -19.5t-36.5 -43.5q-12 -20 -35 -9l-55 33q-10 4 -8 14.5zM308 433 q1 -3 11 -3h283q10 0 12 3t0 13l-90 369l-57 258q-2 6 -5 6t-5 -4l-56 -252l-92 -377q-2 -10 -1 -13z" />
<glyph unicode="&#xc4;" horiz-adv-x="935" d="M41 31l303 1208q2 10 9 17.5t24 7.5h174q25 0 31 -21l311 -1208q4 -10 2 -22.5t-21 -12.5h-124q-27 0 -29 14l-68 267q-4 8 -8 8h-362q-8 0 -9.5 -2t-3.5 -4l-65 -269q-2 -14 -27 -14h-110q-16 0 -23.5 6t-3.5 25zM186 1434q0 41 28 68.5t69 27.5t68.5 -27.5t27.5 -68.5 t-27.5 -69t-68.5 -28t-69 28t-28 69zM308 433q1 -3 11 -3h283q10 0 12 3t0 13l-90 369l-57 258q-2 6 -5 6t-5 -4l-56 -252l-92 -377q-2 -10 -1 -13zM518 1434q0 41 27.5 68.5t68.5 27.5t69 -27.5t28 -68.5t-27 -69t-68 -28t-69.5 28t-28.5 69z" />
<glyph unicode="&#xc5;" horiz-adv-x="935" d="M41 31l303 1208q2 10 9 17.5t24 7.5h174q25 0 31 -21l311 -1208q4 -10 2 -22.5t-21 -12.5h-124q-27 0 -29 14l-68 267q-4 8 -8 8h-362q-8 0 -9.5 -2t-3.5 -4l-65 -269q-2 -14 -27 -14h-110q-16 0 -23.5 6t-3.5 25zM270 1470q0 35 13.5 67t38 56.5t56.5 39t68 14.5 q72 0 124.5 -50t52.5 -122q0 -35 -13.5 -67t-38 -55.5t-56.5 -38t-69 -14.5t-68.5 13.5t-55 36t-38 54.5t-14.5 66zM308 433q1 -3 11 -3h283q10 0 12 3t0 13l-90 369l-57 258q-2 6 -5 6t-5 -4l-56 -252l-92 -377q-2 -10 -1 -13zM362 1473q0 -37 25 -63t59 -26q35 0 62 26 t27 63q0 35 -27 62.5t-62 27.5t-59.5 -27t-24.5 -63z" />
<glyph unicode="&#xc6;" horiz-adv-x="1492" d="M45 39l444 1196q4 8 12.5 18.5t33.5 10.5h864q27 0 26 -23v-100q0 -25 -24 -25h-496q-18 0 -18 -16v-361q0 -16 16 -16h410q25 0 24 -25v-102q0 -23 -22 -23h-410q-18 0 -18 -18v-387q0 -18 16 -18h504q25 0 25 -23v-102q0 -25 -25 -25h-668q-25 0 -24 23v258q0 10 -3 18 t-20 8h-370q-8 0 -9.5 -2t-3.5 -6l-98 -279q-8 -20 -29 -20h-114q-18 0 -22.5 11.5t-0.5 27.5zM371 473q-6 -14 8 -14h313q23 0 23 24v617q0 16 -19 16h-80q-16 0 -24 -18z" />
<glyph unicode="&#xc7;" horiz-adv-x="880" d="M119 334v598q0 80 27.5 144.5t76.5 109.5t118 69.5t151 24.5q94 0 182 -30.5t166 -121.5q10 -12 10 -21t-16 -24l-78 -65q-8 -8 -21.5 -5t-21.5 13q-37 47 -96.5 75.5t-122.5 28.5q-98 0 -150.5 -55t-52.5 -143v-596q0 -86 57.5 -142.5t155.5 -56.5q63 0 118.5 32 t90.5 67q10 12 20 19t27 -5l82 -68q6 -4 7 -14t-3 -18q-55 -72 -134 -112t-169 -48l-19 -70q-8 -23 15 -22h22q72 0 114 -42t42 -114q0 -59 -50.5 -108.5t-138.5 -49.5q-53 0 -90 11.5t-71 33.5q-16 12 -2 31l32 43q12 12 25 6q23 -12 46.5 -22.5t55.5 -10.5q41 0 63.5 17.5 t22.5 46.5q0 8 -2 19.5t-10 21.5t-23.5 18t-42.5 8h-55q-39 0 -53 23t-6 53q8 35 14 59.5t14 49.5q-143 14 -235 101t-92 241z" />
<glyph unicode="&#xc8;" horiz-adv-x="901" d="M123 23v1218q0 23 24 23h660q27 0 27 -23v-100q0 -25 -25 -25h-498q-16 0 -16 -16v-350q0 -16 14 -17h412q25 0 24 -24v-103q0 -23 -22 -22h-412q-16 0 -16 -19v-397q0 -18 14 -18h506q25 0 25 -23v-102q0 -25 -25 -25h-668q-25 0 -24 23zM192.5 1472.5 q-6.5 10.5 6.5 26.5l61 90q10 10 22.5 8t22.5 -10l238 -188q20 -16 6 -37l-27 -37q-8 -10 -20.5 -11t-22.5 3l-270 141q-10 4 -16.5 14.5z" />
<glyph unicode="&#xc9;" horiz-adv-x="901" d="M123 23v1218q0 23 24 23h660q27 0 27 -23v-100q0 -25 -25 -25h-498q-16 0 -16 -16v-350q0 -16 14 -17h412q25 0 24 -24v-103q0 -23 -22 -22h-412q-16 0 -16 -19v-397q0 -18 14 -18h506q25 0 25 -23v-102q0 -25 -25 -25h-668q-25 0 -24 23zM350 1368q-16 20 6 37l238 188 q10 8 22.5 10.5t22.5 -8.5l61 -90q12 -16 6 -26.5t-16 -14.5l-270 -141q-10 -4 -22.5 -3t-20.5 11z" />
<glyph unicode="&#xca;" horiz-adv-x="901" d="M123 23v1218q0 23 24 23h660q27 0 27 -23v-100q0 -25 -25 -25h-498q-16 0 -16 -16v-350q0 -16 14 -17h412q25 0 24 -24v-103q0 -23 -22 -22h-412q-16 0 -16 -19v-397q0 -18 14 -18h506q25 0 25 -23v-102q0 -25 -25 -25h-668q-25 0 -24 23zM184 1382l197 203 q10 10 19.5 14.5t25.5 4.5h66q16 0 25 -4.5t20 -14.5l196 -203q23 -18 -2 -34l-29 -21q-14 -10 -24 -8t-21 10l-180 125q-14 14 -31 0l-186 -125q-12 -8 -21.5 -10t-23.5 8l-29 21q-25 16 -2 34z" />
<glyph unicode="&#xcb;" horiz-adv-x="901" d="M123 23v1218q0 23 24 23h660q27 0 27 -23v-100q0 -25 -25 -25h-498q-16 0 -16 -16v-350q0 -16 14 -17h412q25 0 24 -24v-103q0 -23 -22 -22h-412q-16 0 -16 -19v-397q0 -18 14 -18h506q25 0 25 -23v-102q0 -25 -25 -25h-668q-25 0 -24 23zM201 1434q0 41 27.5 68.5 t68.5 27.5t68.5 -27.5t27.5 -68.5t-27.5 -69t-68.5 -28t-68.5 28t-27.5 69zM532 1434q0 41 28 68.5t69 27.5t68.5 -27.5t27.5 -68.5t-26.5 -69t-67.5 -28t-70 28t-29 69z" />
<glyph unicode="&#xcc;" horiz-adv-x="493" d="M-82 1472.5q-6 10.5 6 26.5l62 90q10 10 22 8t23 -10l237 -188q20 -16 6 -37l-26 -37q-8 -10 -20.5 -11t-22.5 3l-271 141q-10 4 -16 14.5zM156 23v1218q0 23 24 23h127q25 0 25 -21v-1218q0 -25 -25 -25h-127q-25 0 -24 23z" />
<glyph unicode="&#xcd;" horiz-adv-x="493" d="M156 23v1218q0 23 24 23h127q25 0 25 -21v-1218q0 -25 -25 -25h-127q-25 0 -24 23zM188 1368q-16 20 7 37l237 188q10 8 22.5 10.5t22.5 -8.5l62 -90q12 -16 6 -26.5t-17 -14.5l-270 -141q-10 -4 -22.5 -3t-20.5 11z" />
<glyph unicode="&#xce;" horiz-adv-x="493" d="M-33 1399l197 203q10 10 19.5 14t25.5 4h65q16 0 25.5 -4t19.5 -14l197 -203q23 -18 -2 -35l-29 -21q-14 -10 -24 -8t-21 11l-180 124q-14 14 -31 0l-186 -124q-12 -8 -21.5 -10.5t-23.5 7.5l-29 21q-25 16 -2 35zM156 23v1218q0 23 24 23h127q25 0 25 -21v-1218 q0 -25 -25 -25h-127q-25 0 -24 23z" />
<glyph unicode="&#xcf;" horiz-adv-x="493" d="M-18 1434q0 41 27.5 68.5t68.5 27.5t68.5 -27.5t27.5 -68.5t-27.5 -69t-68.5 -28t-68.5 28t-27.5 69zM156 23v1218q0 23 24 23h127q25 0 25 -21v-1218q0 -25 -25 -25h-127q-25 0 -24 23zM313 1434q0 41 28 68.5t69 27.5t68.5 -27.5t27.5 -68.5t-26.5 -69t-67.5 -28 t-70 28t-29 69z" />
<glyph unicode="&#xd0;" horiz-adv-x="995" d="M18 608v74q0 25 23 25h68q16 0 16 18v516q0 23 25 23h352q184 0 281.5 -96.5t97.5 -272.5v-514q0 -190 -99.5 -285.5t-279.5 -95.5h-352q-25 0 -25 23v542q0 18 -16 19h-66q-25 0 -25 24zM295 168q0 -18 16 -18h195q100 0 151.5 54t51.5 150v559q0 106 -60.5 154.5 t-156.5 48.5h-179q-18 0 -18 -16v-373q0 -14 5 -17t13 -3h144q25 0 24 -23v-76q0 -25 -22 -24h-148q-16 0 -16 -19v-397z" />
<glyph unicode="&#xd1;" horiz-adv-x="1062" d="M125 23v1189q0 27 7 39.5t36 12.5h74q25 0 35 -9.5t20 -23.5l477 -879q2 -4 4 -5t2 3v891q0 23 23 23h115q25 0 24 -21v-1202q0 -27 -13.5 -34t-25.5 -7h-78q-23 0 -34 7t-19 24l-477 876q-6 6 -6 0v-882q0 -25 -23 -25h-116q-25 0 -25 23zM248 1376q2 10 6 19 q27 51 67.5 90t92.5 39q31 0 60.5 -12.5t57 -25.5t54 -25.5t49.5 -12.5t41 21.5t33 46.5q4 6 8 10t14 -2l66 -31q18 -6 6 -35q-33 -70 -77 -99.5t-83 -29.5q-33 0 -62.5 11.5t-56 24.5t-52.5 24.5t-52 11.5q-16 0 -38 -19.5t-36 -44.5q-12 -20 -35 -8l-55 33q-10 4 -8 14z " />
<glyph unicode="&#xd2;" horiz-adv-x="1017" d="M119 338v594q0 82 30.5 146.5t83 109.5t123 68.5t152.5 23.5q80 0 150.5 -22.5t125 -66.5t85 -109.5t30.5 -149.5v-594q0 -84 -29.5 -148.5t-82 -109.5t-123 -68.5t-154.5 -23.5t-154.5 22.5t-124 66.5t-83 109.5t-29.5 151.5zM235.5 1489q-6.5 10 6.5 27l61 90 q10 10 22.5 8t22.5 -10l238 -189q20 -16 6 -37l-27 -37q-8 -10 -20.5 -11t-22.5 3l-270 142q-10 4 -16.5 14zM291 342q0 -92 56 -148.5t161 -56.5q102 0 160.5 56.5t58.5 148.5v586q0 88 -59.5 145t-157.5 57q-100 0 -159.5 -58t-59.5 -144v-586z" />
<glyph unicode="&#xd3;" horiz-adv-x="1017" d="M119 338v594q0 82 30.5 146.5t83 109.5t123 68.5t152.5 23.5q80 0 150.5 -22.5t125 -66.5t85 -109.5t30.5 -149.5v-594q0 -84 -29.5 -148.5t-82 -109.5t-123 -68.5t-154.5 -23.5t-154.5 22.5t-124 66.5t-83 109.5t-29.5 151.5zM291 342q0 -92 56 -148.5t161 -56.5 q102 0 160.5 56.5t58.5 148.5v586q0 88 -59.5 145t-157.5 57q-100 0 -159.5 -58t-59.5 -144v-586zM438 1382q-16 20 6 37l238 189q10 8 22.5 10t22.5 -8l61 -90q12 -16 6 -26.5t-16 -14.5l-270 -142q-10 -4 -22.5 -3t-20.5 12z" />
<glyph unicode="&#xd4;" horiz-adv-x="1017" d="M119 338v594q0 82 30.5 146.5t83 109.5t123 68.5t152.5 23.5q80 0 150.5 -22.5t125 -66.5t85 -109.5t30.5 -149.5v-594q0 -84 -29.5 -148.5t-82 -109.5t-123 -68.5t-154.5 -23.5t-154.5 22.5t-124 66.5t-83 109.5t-29.5 151.5zM246 1382l196 203q10 10 19.5 14.5 t25.5 4.5h66q16 0 25.5 -4.5t19.5 -14.5l197 -203q23 -18 -2 -34l-29 -21q-14 -10 -24.5 -8t-20.5 10l-180 125q-14 14 -31 0l-186 -125q-12 -8 -21.5 -10t-24.5 8l-28 21q-25 16 -2 34zM291 342q0 -92 56 -148.5t161 -56.5q102 0 160.5 56.5t58.5 148.5v586q0 88 -59.5 145 t-157.5 57q-100 0 -159.5 -58t-59.5 -144v-586z" />
<glyph unicode="&#xd5;" horiz-adv-x="1017" d="M119 338v594q0 82 30.5 146.5t83 109.5t123 68.5t152.5 23.5q80 0 150.5 -22.5t125 -66.5t85 -109.5t30.5 -149.5v-594q0 -84 -29.5 -148.5t-82 -109.5t-123 -68.5t-154.5 -23.5t-154.5 22.5t-124 66.5t-83 109.5t-29.5 151.5zM225 1396.5q2 10.5 6 18.5q27 51 68 90 t92 39q31 0 60.5 -12t57.5 -25.5t54.5 -26t48.5 -12.5q23 0 41.5 21.5t32.5 46.5q4 6 8 10t15 -2l65 -31q18 -5 6 -34q-33 -70 -77 -99.5t-82 -29.5q-33 0 -63 11t-56.5 24.5t-52 24.5t-52.5 11q-16 0 -37.5 -19.5t-35.5 -43.5q-12 -20 -35 -8l-56 32q-10 4 -8 14.5z M291 342q0 -92 56 -148.5t161 -56.5q102 0 160.5 56.5t58.5 148.5v586q0 88 -59.5 145t-157.5 57q-100 0 -159.5 -58t-59.5 -144v-586z" />
<glyph unicode="&#xd6;" horiz-adv-x="1017" d="M119 338v594q0 82 30.5 146.5t83 109.5t123 68.5t152.5 23.5q80 0 150.5 -22.5t125 -66.5t85 -109.5t30.5 -149.5v-594q0 -84 -29.5 -148.5t-82 -109.5t-123 -68.5t-154.5 -23.5t-154.5 22.5t-124 66.5t-83 109.5t-29.5 151.5zM246 1434q0 41 27.5 68.5t68.5 27.5 t68.5 -27.5t27.5 -68.5t-27.5 -69t-68.5 -28t-68.5 28t-27.5 69zM291 342q0 -92 56 -148.5t161 -56.5q102 0 160.5 56.5t58.5 148.5v586q0 88 -59.5 145t-157.5 57q-100 0 -159.5 -58t-59.5 -144v-586zM578 1434q0 41 27.5 68.5t68.5 27.5t68.5 -27.5t27.5 -68.5t-26.5 -69 t-67.5 -28t-69.5 28t-28.5 69z" />
<glyph unicode="&#xd7;" horiz-adv-x="972" d="M133 227l256 256q6 6 0 13l-254 256q-23 20 -2 41l47 47q20 20 43 0l254 -254q6 -6 12 -2l256 256q20 20 41 2l50 -51q20 -23 0 -43l-254 -252q-6 -8 0 -17l258 -256q20 -23 0 -43l-45 -45q-23 -23 -45 0l-256 256q-4 4 -6.5 5t-6.5 -3l-256 -256q-23 -18 -41 0l-49 49 q-23 20 -2 41z" />
<glyph unicode="&#xd8;" horiz-adv-x="1017" d="M119 338v594q0 82 30.5 146.5t83 109.5t123 68.5t152.5 23.5q133 0 231 -57q10 -8 23 4q6 12 15 26.5t16 26.5q10 16 28 8q16 -8 31.5 -17t32.5 -16q18 -10 8 -26q-10 -23 -23.5 -43.5t-23.5 -42.5q-4 -8 -3 -13.5t3 -9.5q23 -37 38 -86t15 -102v-594q0 -84 -29.5 -148.5 t-82 -109.5t-123 -68.5t-154.5 -23.5q-72 0 -129 13t-105 44q-4 4 -11 6t-11 -8l-27 -49q-14 -20 -28 -10l-66 34q-14 8 -4 29l39 72q6 16 2 26q-23 35 -37 86.5t-14 106.5zM291 365q0 -4 2 -8.5t6 3.5l367 682q4 8 6 17.5t-8 17.5q-59 53 -154 53q-100 0 -159.5 -58 t-59.5 -144v-563zM346 213q-6 -10 2 -23q59 -53 160 -53q102 0 160.5 56.5t58.5 148.5v571q0 4 -1 5.5t-1 -0.5z" />
<glyph unicode="&#xd9;" horiz-adv-x="1019" d="M119 328v913q0 23 22 23h127q23 0 23 -21v-915q0 -84 62.5 -137.5t154.5 -53.5q102 0 161.5 55.5t59.5 141.5v907q0 23 25 23h123q25 0 24 -21v-915q0 -82 -31.5 -145.5t-86 -106.5t-125 -65.5t-148.5 -22.5t-149.5 22.5t-125 65.5t-85 106.5t-31.5 145.5zM246 1472.5 q-6 10.5 6 26.5l61 90q10 10 22.5 8t22.5 -10l238 -188q20 -16 6 -37l-27 -37q-8 -10 -20 -11t-23 3l-270 141q-10 4 -16 14.5z" />
<glyph unicode="&#xda;" horiz-adv-x="1019" d="M119 328v913q0 23 22 23h127q23 0 23 -21v-915q0 -84 62.5 -137.5t154.5 -53.5q102 0 161.5 55.5t59.5 141.5v907q0 23 25 23h123q25 0 24 -21v-915q0 -82 -31.5 -145.5t-86 -106.5t-125 -65.5t-148.5 -22.5t-149.5 22.5t-125 65.5t-85 106.5t-31.5 145.5zM432 1368 q-16 20 6 37l238 188q10 8 22.5 10.5t22.5 -8.5l61 -90q12 -16 6 -26.5t-16 -14.5l-270 -141q-10 -4 -22.5 -3t-20.5 11z" />
<glyph unicode="&#xdb;" horiz-adv-x="1019" d="M119 328v913q0 23 22 23h127q23 0 23 -21v-915q0 -84 62.5 -137.5t154.5 -53.5q102 0 161.5 55.5t59.5 141.5v907q0 23 25 23h123q25 0 24 -21v-915q0 -82 -31.5 -145.5t-86 -106.5t-125 -65.5t-148.5 -22.5t-149.5 22.5t-125 65.5t-85 106.5t-31.5 145.5zM242 1382 l196 203q10 10 19.5 14.5t25.5 4.5h66q16 0 25.5 -4.5t19.5 -14.5l197 -203q23 -18 -3 -34l-28 -21q-14 -10 -24.5 -8t-20.5 10l-180 125q-14 14 -31 0l-187 -125q-12 -8 -21 -10t-24 8l-28 21q-25 16 -2 34z" />
<glyph unicode="&#xdc;" horiz-adv-x="1019" d="M119 328v913q0 23 22 23h127q23 0 23 -21v-915q0 -84 62.5 -137.5t154.5 -53.5q102 0 161.5 55.5t59.5 141.5v907q0 23 25 23h123q25 0 24 -21v-915q0 -82 -31.5 -145.5t-86 -106.5t-125 -65.5t-148.5 -22.5t-149.5 22.5t-125 65.5t-85 106.5t-31.5 145.5zM254 1434 q0 41 27.5 68.5t68.5 27.5t68.5 -27.5t27.5 -68.5t-27.5 -69t-68.5 -28t-68.5 28t-27.5 69zM586 1434q0 41 27.5 68.5t68.5 27.5t68.5 -27.5t27.5 -68.5t-26.5 -69t-67.5 -28t-69.5 28t-28.5 69z" />
<glyph unicode="&#xdd;" horiz-adv-x="890" d="M35 1229q-14 35 20 35h117q33 0 43 -23l221 -561q10 -16 19 -2q55 139 110.5 279.5t108.5 279.5q8 16 16 21.5t31 5.5h113q23 0 25.5 -9.5t-3.5 -23.5l-315 -729q-10 -23 -11 -49v-428q0 -25 -24 -25h-123q-25 0 -25 23v434q0 25 -8 41zM342 1368q-16 20 6 37l238 188 q10 8 22.5 10.5t22.5 -8.5l61 -90q12 -16 6 -26.5t-16 -14.5l-270 -141q-10 -4 -22.5 -3t-20.5 11z" />
<glyph unicode="&#xde;" horiz-adv-x="937" d="M131 23v1218q0 23 25 23h120q25 0 25 -21v-219q4 -12 18 -12h187q90 0 160.5 -29t120 -79t76 -119.5t26.5 -149.5q0 -76 -29 -142.5t-80 -116.5t-120.5 -80t-151.5 -30h-189q-16 0 -16 -18v-223q0 -25 -24 -25h-123q-20 0 -25 23zM301 426q0 -12 16 -12h189 q96 0 154.5 60.5t58.5 162.5q0 41 -14.5 82t-42 72.5t-67.5 52t-89 20.5h-187q-14 0 -18 -12v-426z" />
<glyph unicode="&#xdf;" horiz-adv-x="991" d="M156 18v965q0 74 24.5 136.5t70.5 108.5t110.5 71.5t146.5 25.5q162 0 257 -86t95 -238q0 -31 -5 -63.5t-16.5 -62t-28.5 -54t-44 -39.5q-12 -8 0 -16q59 -35 87 -97.5t28 -136.5v-215q0 -72 -26 -134t-71 -109q-43 -45 -100 -69.5t-119 -24.5h-137q-18 0 -18 16v88 q0 20 10 23.5t26 3.5h86q39 0 73 17t58.5 47t39 67t14.5 75v215q0 86 -49.5 133.5t-135.5 47.5h-24q-18 0 -19 18v96q0 18 17 19h33q74 0 115.5 46t41.5 118q0 78 -49 126t-135 48t-138 -56.5t-52 -138.5v-969q0 -20 -19 -20h-127q-20 0 -20 18z" />
<glyph unicode="&#xe0;" horiz-adv-x="897" d="M82 301q0 66 21.5 123t63.5 99t103.5 66.5t143.5 24.5q90 0 161 -39q14 -8 25.5 -5t11.5 22v18q0 82 -42 121t-140 39q-18 0 -47 -4t-58.5 -10t-58 -15.5t-47.5 -19.5q-23 -10 -31 12l-34 90q-6 20 10 27q55 29 133 45t152 16q94 0 157.5 -22.5t101 -65.5t53 -103.5 t15.5 -133.5v-566q0 -20 -18 -20h-113q-18 0 -18 16v37q0 14 -8.5 16.5t-18.5 -8.5q-41 -41 -93 -57t-112 -16q-154 0 -233.5 86t-79.5 227zM235.5 1251.5q-2.5 12.5 14.5 24.5l90 59q12 8 23.5 0t17.5 -18l156 -260q14 -23 -9 -37l-39 -25q-10 -8 -22 -4t-21 13l-200 227 q-8 8 -10.5 20.5zM236 305q0 -76 45 -128t139 -52q84 0 133 51t49 129q0 76 -44 128t-140 52q-84 0 -133 -51t-49 -129z" />
<glyph unicode="&#xe1;" horiz-adv-x="897" d="M82 301q0 66 21.5 123t63.5 99t103.5 66.5t143.5 24.5q90 0 161 -39q14 -8 25.5 -5t11.5 22v18q0 82 -42 121t-140 39q-18 0 -47 -4t-58.5 -10t-58 -15.5t-47.5 -19.5q-23 -10 -31 12l-34 90q-6 20 10 27q55 29 133 45t152 16q94 0 157.5 -22.5t101 -65.5t53 -103.5 t15.5 -133.5v-566q0 -20 -18 -20h-113q-18 0 -18 16v37q0 14 -8.5 16.5t-18.5 -8.5q-41 -41 -93 -57t-112 -16q-154 0 -233.5 86t-79.5 227zM236 305q0 -76 45 -128t139 -52q84 0 133 51t49 129q0 76 -44 128t-140 52q-84 0 -133 -51t-49 -129zM389 1057l154 260 q6 10 15 19.5t26 -1.5l90 -59q16 -12 14 -24.5t-8 -20.5l-203 -227q-6 -8 -18.5 -12.5t-24.5 3.5l-39 25q-18 14 -6 37z" />
<glyph unicode="&#xe2;" horiz-adv-x="897" d="M82 301q0 66 21.5 123t63.5 99t103.5 66.5t143.5 24.5q90 0 161 -39q14 -8 25.5 -5t11.5 22v18q0 82 -42 121t-140 39q-18 0 -47 -4t-58.5 -10t-58 -15.5t-47.5 -19.5q-23 -10 -31 12l-34 90q-6 20 10 27q55 29 133 45t152 16q94 0 157.5 -22.5t101 -65.5t53 -103.5 t15.5 -133.5v-566q0 -20 -18 -20h-113q-18 0 -18 16v37q0 14 -8.5 16.5t-18.5 -8.5q-41 -41 -93 -57t-112 -16q-154 0 -233.5 86t-79.5 227zM181.5 1055.5q0.5 11.5 11.5 21.5l196 240q10 10 19.5 16t25.5 6h66q16 0 25.5 -6t19.5 -16l196 -240q10 -10 11.5 -21.5 t-13.5 -21.5l-28 -24q-14 -12 -23.5 -9t-21.5 13l-187 164q-16 16 -30 2l-181 -166q-10 -10 -20 -13.5t-25 9.5l-28 24q-14 10 -13.5 21.5zM236 305q0 -76 45 -128t139 -52q84 0 133 51t49 129q0 76 -44 128t-140 52q-84 0 -133 -51t-49 -129z" />
<glyph unicode="&#xe3;" horiz-adv-x="897" d="M82 301q0 66 21.5 123t63.5 99t103.5 66.5t143.5 24.5q90 0 161 -39q14 -8 25.5 -5t11.5 22v18q0 82 -42 121t-140 39q-18 0 -47 -4t-58.5 -10t-58 -15.5t-47.5 -19.5q-23 -10 -31 12l-34 90q-6 20 10 27q55 29 133 45t152 16q94 0 157.5 -22.5t101 -65.5t53 -103.5 t15.5 -133.5v-566q0 -20 -18 -20h-113q-18 0 -18 16v37q0 14 -8.5 16.5t-18.5 -8.5q-41 -41 -93 -57t-112 -16q-154 0 -233.5 86t-79.5 227zM195 1089.5q2 10.5 6 18.5q27 51 67.5 90t91.5 39q31 0 61 -12.5t57.5 -25.5t54 -25.5t49.5 -12.5t41 21.5t32 46.5q4 6 8.5 10 t14.5 -2l65 -31q19 -6 7 -35q-33 -70 -77 -99.5t-83 -29.5q-33 0 -62.5 11.5t-56.5 25t-52.5 24.5t-51.5 11q-16 0 -38 -19.5t-36 -43.5q-12 -20 -35 -9l-55 33q-10 4 -8 14.5zM236 305q0 -76 45 -128t139 -52q84 0 133 51t49 129q0 76 -44 128t-140 52q-84 0 -133 -51 t-49 -129z" />
<glyph unicode="&#xe4;" horiz-adv-x="897" d="M82 301q0 66 21.5 123t63.5 99t103.5 66.5t143.5 24.5q90 0 161 -39q14 -8 25.5 -5t11.5 22v18q0 82 -42 121t-140 39q-18 0 -47 -4t-58.5 -10t-58 -15.5t-47.5 -19.5q-23 -10 -31 12l-34 90q-6 20 10 27q55 29 133 45t152 16q94 0 157.5 -22.5t101 -65.5t53 -103.5 t15.5 -133.5v-566q0 -20 -18 -20h-113q-18 0 -18 16v37q0 14 -8.5 16.5t-18.5 -8.5q-41 -41 -93 -57t-112 -16q-154 0 -233.5 86t-79.5 227zM186 1116q0 41 28 68.5t69 27.5t68.5 -27.5t27.5 -68.5t-27.5 -68.5t-68.5 -27.5t-69 27.5t-28 68.5zM236 305q0 -76 45 -128 t139 -52q84 0 133 51t49 129q0 76 -44 128t-140 52q-84 0 -133 -51t-49 -129zM518 1116q0 41 27.5 68.5t68.5 27.5t69 -27.5t28 -68.5t-27 -68.5t-68 -27.5t-69.5 27.5t-28.5 68.5z" />
<glyph unicode="&#xe5;" horiz-adv-x="897" d="M82 301q0 66 21.5 123t63.5 99t103.5 66.5t143.5 24.5q90 0 161 -39q14 -8 25.5 -5t11.5 22v18q0 82 -42 121t-140 39q-18 0 -47 -4t-58.5 -10t-58 -15.5t-47.5 -19.5q-23 -10 -31 12l-34 90q-6 20 10 27q55 29 133 45t152 16q94 0 157.5 -22.5t101 -65.5t53 -103.5 t15.5 -133.5v-566q0 -20 -18 -20h-113q-18 0 -18 16v37q0 14 -8.5 16.5t-18.5 -8.5q-41 -41 -93 -57t-112 -16q-154 0 -233.5 86t-79.5 227zM236 305q0 -76 45 -128t139 -52q84 0 133 51t49 129q0 76 -44 128t-140 52q-84 0 -133 -51t-49 -129zM291 1149q0 35 13 66.5t38 56 t56.5 39t68.5 14.5q72 0 124 -50t52 -122q0 -35 -13.5 -66.5t-38 -55t-56 -38t-68.5 -14.5t-68.5 13.5t-55.5 36t-38 54t-14 66.5zM383 1151q0 -37 24.5 -62.5t59.5 -25.5t61.5 25.5t26.5 62.5q0 35 -26.5 62.5t-61.5 27.5t-59.5 -26.5t-24.5 -63.5z" />
<glyph unicode="&#xe6;" horiz-adv-x="1413" d="M82 303q0 72 26.5 130.5t71.5 99t106.5 63t133.5 22.5q35 0 81 -13t74 -30q14 -10 25.5 -6t11.5 23v22q0 82 -58 119t-144 37q-39 0 -95.5 -14.5t-95.5 -34.5q-23 -10 -31 12l-34 90q-6 20 10 27q55 29 124.5 45t143.5 16q92 0 161 -24.5t109 -85.5q47 53 116 81.5 t155 28.5q82 0 148.5 -25.5t113.5 -72.5t72.5 -112.5t25.5 -143.5v-96q0 -23 -13 -36t-28 -13h-479q-16 0 -26.5 -10.5t-10.5 -26.5v-39q0 -84 53.5 -144.5t143.5 -60.5q61 0 108 29.5t82 77.5q16 23 41 6l78 -51q25 -16 16 -33q-49 -90 -135 -131t-186 -41q-98 0 -174 32.5 t-123 92.5q-41 -55 -112.5 -89t-161.5 -34q-68 0 -126.5 20.5t-102.5 60.5t-69.5 98t-25.5 134zM236 305q0 -76 44 -130t136 -54q43 0 76.5 15.5t57 42t36 59t12.5 67.5q0 76 -49 130t-131 54q-80 0 -131 -53t-51 -131zM780 567q0 -8 6.5 -16t24.5 -8h336q20 0 20 22v19 q0 78 -53 132t-141 54q-86 0 -139.5 -55.5t-53.5 -132.5v-15z" />
<glyph unicode="&#xe7;" horiz-adv-x="835" d="M92 326v235q0 82 27.5 147.5t76 109.5t114 67.5t143.5 23.5q199 -2 315 -155q8 -10 6 -23.5t-14 -21.5l-72 -56q-27 -18 -47 13q-35 51 -85 76.5t-107 25.5q-88 0 -140.5 -54.5t-52.5 -140.5v-254q0 -84 54.5 -136t144.5 -52q80 0 127 35t84 82q10 12 30 -2l68 -49 q20 -12 22 -23.5t-6 -21.5q-59 -90 -142 -126t-171 -38l-16 -68q-8 -23 14 -22h22q72 0 114 -42t42 -114q0 -59 -50 -108.5t-138 -49.5q-53 0 -90 11.5t-72 33.5q-16 12 -2 31l33 43q12 12 24 6q23 -12 46.5 -22.5t56.5 -10.5q41 0 63.5 17.5t22.5 46.5q0 8 -2.5 19.5 t-10.5 21.5t-23.5 18t-41.5 8h-56q-39 0 -53 23t-6 53q8 35 15.5 61.5t13.5 51.5q-129 20 -205 106t-76 224z" />
<glyph unicode="&#xe8;" horiz-adv-x="897" d="M96 324v233q0 78 27 143.5t75 112.5t113.5 72.5t145.5 25.5q82 0 148.5 -25.5t113.5 -72.5t72.5 -112.5t25.5 -143.5v-96q0 -23 -13 -36t-28 -13h-479q-16 0 -26.5 -10.5t-10.5 -26.5v-39q0 -41 10.5 -79t34 -65.5t61 -44t91.5 -16.5q61 0 111 28.5t85 76.5q16 23 41 6 l72 -49q25 -16 16 -33q-49 -90 -135 -131t-186 -41q-166 0 -265.5 91t-99.5 245zM223 1251.5q-2 12.5 15 24.5l90 59q12 8 23 0t18 -18l155 -260q14 -23 -8 -37l-39 -25q-10 -8 -22.5 -4t-20.5 13l-201 227q-8 8 -10 20.5zM264 567q0 -8 6 -16t25 -8h336q20 0 20 22v19 q0 78 -49 132t-145 54q-86 0 -139.5 -55.5t-53.5 -132.5v-15z" />
<glyph unicode="&#xe9;" horiz-adv-x="897" d="M96 324v233q0 78 27 143.5t75 112.5t113.5 72.5t145.5 25.5q82 0 148.5 -25.5t113.5 -72.5t72.5 -112.5t25.5 -143.5v-96q0 -23 -13 -36t-28 -13h-479q-16 0 -26.5 -10.5t-10.5 -26.5v-39q0 -41 10.5 -79t34 -65.5t61 -44t91.5 -16.5q61 0 111 28.5t85 76.5q16 23 41 6 l72 -49q25 -16 16 -33q-49 -90 -135 -131t-186 -41q-166 0 -265.5 91t-99.5 245zM264 567q0 -8 6 -16t25 -8h336q20 0 20 22v19q0 78 -49 132t-145 54q-86 0 -139.5 -55.5t-53.5 -132.5v-15zM369 1057l153 260q6 10 15.5 19.5t25.5 -1.5l90 -59q16 -12 14.5 -24.5 t-8.5 -20.5l-202 -227q-6 -8 -18.5 -12.5t-24.5 3.5l-39 25q-18 14 -6 37z" />
<glyph unicode="&#xea;" horiz-adv-x="897" d="M96 324v233q0 78 27 143.5t75 112.5t113.5 72.5t145.5 25.5q82 0 148.5 -25.5t113.5 -72.5t72.5 -112.5t25.5 -143.5v-96q0 -23 -13 -36t-28 -13h-479q-16 0 -26.5 -10.5t-10.5 -26.5v-39q0 -41 10.5 -79t34 -65.5t61 -44t91.5 -16.5q61 0 111 28.5t85 76.5q16 23 41 6 l72 -49q25 -16 16 -33q-49 -90 -135 -131t-186 -41q-166 0 -265.5 91t-99.5 245zM181.5 1055.5q0.5 11.5 11.5 21.5l196 240q10 10 19.5 16t25.5 6h66q16 0 25.5 -6t19.5 -16l196 -240q10 -10 11.5 -21.5t-13.5 -21.5l-28 -24q-14 -12 -23.5 -9t-21.5 13l-187 164 q-16 16 -30 2l-181 -166q-10 -10 -20 -13.5t-25 9.5l-28 24q-14 10 -13.5 21.5zM264 567q0 -8 6 -16t25 -8h336q20 0 20 22v19q0 78 -49 132t-145 54q-86 0 -139.5 -55.5t-53.5 -132.5v-15z" />
<glyph unicode="&#xeb;" horiz-adv-x="897" d="M96 324v233q0 78 27 143.5t75 112.5t113.5 72.5t145.5 25.5q82 0 148.5 -25.5t113.5 -72.5t72.5 -112.5t25.5 -143.5v-96q0 -23 -13 -36t-28 -13h-479q-16 0 -26.5 -10.5t-10.5 -26.5v-39q0 -41 10.5 -79t34 -65.5t61 -44t91.5 -16.5q61 0 111 28.5t85 76.5q16 23 41 6 l72 -49q25 -16 16 -33q-49 -90 -135 -131t-186 -41q-166 0 -265.5 91t-99.5 245zM203 1116q0 41 27.5 68.5t68.5 27.5t68.5 -27.5t27.5 -68.5t-27.5 -68.5t-68.5 -27.5t-68.5 27.5t-27.5 68.5zM264 567q0 -8 6 -16t25 -8h336q20 0 20 22v19q0 78 -49 132t-145 54 q-86 0 -139.5 -55.5t-53.5 -132.5v-15zM535 1116q0 41 27.5 68.5t68.5 27.5t68.5 -27.5t27.5 -68.5t-26.5 -68.5t-67.5 -27.5t-69.5 27.5t-28.5 68.5z" />
<glyph unicode="&#xec;" horiz-adv-x="415" d="M-26.5 1251.5q-2.5 12.5 14.5 24.5l90 59q12 8 23.5 0t17.5 -18l155 -260q14 -23 -8 -37l-39 -25q-10 -8 -22 -4t-21 13l-200 227q-8 8 -10.5 20.5zM125 18v859q0 20 18 20h127q20 0 21 -20v-859q0 -18 -19 -18h-127q-20 0 -20 18z" />
<glyph unicode="&#xed;" horiz-adv-x="415" d="M125 18v859q0 20 18 20h127q20 0 21 -20v-859q0 -18 -19 -18h-127q-20 0 -20 18zM152 1057l153 260q6 10 15.5 19.5t25.5 -1.5l90 -59q16 -12 14.5 -24.5t-8.5 -20.5l-202 -227q-6 -8 -18.5 -12.5t-24.5 3.5l-39 25q-18 14 -6 37z" />
<glyph unicode="&#xee;" horiz-adv-x="415" d="M-76.5 1055.5q0.5 11.5 10.5 21.5l197 240q10 10 19.5 16t25.5 6h66q16 0 25 -6t20 -16l196 -240q10 -10 11.5 -21.5t-13.5 -21.5l-28 -24q-14 -12 -23.5 -9t-21.5 13l-187 164q-16 16 -31 2l-180 -166q-10 -10 -20 -13.5t-25 9.5l-28 24q-14 10 -13.5 21.5zM125 18v859 q0 20 18 20h127q20 0 21 -20v-859q0 -18 -19 -18h-127q-20 0 -20 18z" />
<glyph unicode="&#xef;" horiz-adv-x="415" d="M-53 1116q0 41 27.5 68.5t68.5 27.5t68.5 -27.5t27.5 -68.5t-27.5 -68.5t-68.5 -27.5t-68.5 27.5t-27.5 68.5zM125 18v859q0 20 18 20h127q20 0 21 -20v-859q0 -18 -19 -18h-127q-20 0 -20 18zM279 1116q0 41 27.5 68.5t68.5 27.5t68.5 -27.5t27.5 -68.5t-26.5 -68.5 t-67.5 -27.5t-69.5 27.5t-28.5 68.5z" />
<glyph unicode="&#xf0;" horiz-adv-x="917" d="M96 334v192q0 80 25.5 143.5t72 108.5t109 68.5t133.5 23.5q61 0 113.5 -15t93.5 -50q4 -4 8 -4t4 8q0 66 -8 120t-41 101q0 2 -4 2q-2 0 -10 -8l-78 -84q-6 -6 -12 -6l-8 4l-45 41q-6 6 -7 12q0 6 4 10l82 91q8 8 9 12q0 4 -7 8q-45 33 -101 42t-116 13q-10 0 -24.5 4.5 t-14.5 22.5v98q0 16 9.5 20.5t27.5 4.5q96 0 187.5 -21.5t150.5 -72.5l8 -4q2 0 9 6l84 84q6 6 12 6t10 -6l47 -43q6 -6 6 -11q0 -6 -6 -12l-88 -88q-6 -6 -6 -12q0 -4 4 -8q33 -35 51.5 -92.5t27.5 -124t10 -136t1 -129.5v-321q0 -84 -26.5 -147.5t-75.5 -107.5t-117 -66.5 t-149 -22.5q-166 0 -260.5 90t-94.5 256zM258 332q0 -90 46 -146.5t149 -56.5q104 0 153 57.5t49 145.5v153q0 45 -7 88t-27.5 78t-59.5 56.5t-100 21.5q-102 0 -152.5 -57.5t-50.5 -145.5v-194z" />
<glyph unicode="&#xf1;" horiz-adv-x="946" d="M113 18v859q0 20 18 20h119q18 0 18 -18v-31q0 -18 15 -19q4 0 16 9q86 72 205 71q154 0 243 -93t89 -249v-547q0 -20 -19 -20h-127q-18 0 -18 18v547q0 88 -49.5 145.5t-147.5 57.5q-90 0 -143 -56.5t-53 -144.5v-547q0 -20 -21 -20h-125q-20 0 -20 18zM178 1089.5 q2 10.5 6 18.5q27 51 68 90t92 39q31 0 60.5 -12.5t57 -25.5t54.5 -25.5t49 -12.5q23 0 41.5 21.5t32.5 46.5q4 6 8 10t15 -2l65 -31q18 -6 6 -35q-33 -70 -77 -99.5t-83 -29.5q-33 0 -62.5 11.5t-56 25t-52 24.5t-52.5 11q-16 0 -37.5 -19.5t-36.5 -43.5q-12 -20 -34 -9 l-56 33q-10 4 -8 14.5z" />
<glyph unicode="&#xf2;" horiz-adv-x="917" d="M98 332v235q0 158 92.5 251t266.5 93t268 -90t94 -254v-233q0 -166 -97 -256t-263 -90q-170 0 -265.5 89t-95.5 255zM231.5 1251.5q-2.5 12.5 14.5 24.5l90 59q12 8 23.5 0t17.5 -18l155 -260q14 -23 -8 -37l-39 -25q-10 -8 -22 -4t-21 13l-200 227q-8 8 -10.5 20.5z M262 332q0 -88 45 -145.5t150 -57.5q104 0 150 56.5t48 146.5v235q0 88 -48 144.5t-148 56.5q-90 0 -143.5 -55.5t-53.5 -145.5v-235z" />
<glyph unicode="&#xf3;" horiz-adv-x="917" d="M98 332v235q0 158 92.5 251t266.5 93t268 -90t94 -254v-233q0 -166 -97 -256t-263 -90q-170 0 -265.5 89t-95.5 255zM262 332q0 -88 45 -145.5t150 -57.5q104 0 150 56.5t48 146.5v235q0 88 -48 144.5t-148 56.5q-90 0 -143.5 -55.5t-53.5 -145.5v-235zM389 1057l154 260 q6 10 15 19.5t26 -1.5l90 -59q16 -12 14 -24.5t-8 -20.5l-203 -227q-6 -8 -18.5 -12.5t-24.5 3.5l-39 25q-18 14 -6 37z" />
<glyph unicode="&#xf4;" horiz-adv-x="917" d="M98 332v235q0 158 92.5 251t266.5 93t268 -90t94 -254v-233q0 -166 -97 -256t-263 -90q-170 0 -265.5 89t-95.5 255zM181.5 1055.5q0.5 11.5 11.5 21.5l196 240q10 10 19.5 16t25.5 6h66q16 0 25.5 -6t19.5 -16l196 -240q10 -10 11.5 -21.5t-13.5 -21.5l-28 -24 q-14 -12 -23.5 -9t-21.5 13l-187 164q-16 16 -30 2l-181 -166q-10 -10 -20 -13.5t-25 9.5l-28 24q-14 10 -13.5 21.5zM262 332q0 -88 45 -145.5t150 -57.5q104 0 150 56.5t48 146.5v235q0 88 -48 144.5t-148 56.5q-90 0 -143.5 -55.5t-53.5 -145.5v-235z" />
<glyph unicode="&#xf5;" horiz-adv-x="917" d="M98 332v235q0 158 92.5 251t266.5 93t268 -90t94 -254v-233q0 -166 -97 -256t-263 -90q-170 0 -265.5 89t-95.5 255zM186.5 1089.5q1.5 10.5 6.5 18.5q27 51 67.5 90t91.5 39q31 0 60.5 -12.5t57.5 -25.5t54.5 -25.5t48.5 -12.5q23 0 41.5 21.5t32.5 46.5q4 6 8 10t15 -2 l65 -31q18 -6 6 -35q-33 -70 -76.5 -99.5t-82.5 -29.5q-33 0 -63 11.5t-56.5 25t-52 24.5t-52.5 11q-16 0 -37.5 -19.5t-35.5 -43.5q-12 -20 -35 -9l-55 33q-10 4 -8.5 14.5zM262 332q0 -88 45 -145.5t150 -57.5q104 0 150 56.5t48 146.5v235q0 88 -48 144.5t-148 56.5 q-90 0 -143.5 -55.5t-53.5 -145.5v-235z" />
<glyph unicode="&#xf6;" horiz-adv-x="917" d="M98 332v235q0 158 92.5 251t266.5 93t268 -90t94 -254v-233q0 -166 -97 -256t-263 -90q-170 0 -265.5 89t-95.5 255zM199 1116q0 41 27.5 68.5t68.5 27.5t68.5 -27.5t27.5 -68.5t-27.5 -68.5t-68.5 -27.5t-68.5 27.5t-27.5 68.5zM262 332q0 -88 45 -145.5t150 -57.5 q104 0 150 56.5t48 146.5v235q0 88 -48 144.5t-148 56.5q-90 0 -143.5 -55.5t-53.5 -145.5v-235zM530 1116q0 41 28 68.5t69 27.5t68.5 -27.5t27.5 -68.5t-26.5 -68.5t-67.5 -27.5t-70 27.5t-29 68.5z" />
<glyph unicode="&#xf7;" horiz-adv-x="972" d="M82 442v66q0 31 31 31h747q31 0 31 -31v-64q0 -31 -31 -30h-747q-31 0 -31 28zM381 119q0 41 27.5 68.5t68.5 27.5t68.5 -27.5t27.5 -68.5t-26.5 -68.5t-67.5 -27.5t-69.5 27.5t-28.5 68.5zM383 807q0 41 27.5 68.5t68.5 27.5t68.5 -27.5t27.5 -68.5t-27.5 -68.5 t-68.5 -27.5t-68.5 27.5t-27.5 68.5z" />
<glyph unicode="&#xf8;" horiz-adv-x="917" d="M98 332v235q0 158 95.5 251t263.5 93q135 0 231 -67q4 -2 9 -4t12 6l36 45q4 4 8.5 6t12.5 -4l47 -39q10 -10 4 -20l-47 -58q-6 -8 -5 -11t3 -7q51 -80 51 -191v-233q0 -166 -97 -256t-263 -90q-72 0 -131.5 17.5t-104.5 49.5q-4 2 -9 4t-13 -8l-31 -41q-4 -6 -8 -8 t-12 4l-50 37q-8 8 0 18l45 60q6 8 0 18q-47 78 -47 193zM262 315.5q0 -8.5 2 -16.5q2 -6 5 -10t7 2l314 405q10 12 5 18.5t-7 8.5q-27 20 -58.5 32.5t-70.5 12.5q-90 0 -143.5 -55.5t-53.5 -145.5v-235v-16.5zM326 176q23 -29 56.5 -38t74.5 -9q102 0 149 56.5t49 146.5 v235v21.5t-4 19.5q-4 10 -10 4l-315 -403q-10 -16 0 -33z" />
<glyph unicode="&#xf9;" horiz-adv-x="940" d="M98 330v547q0 20 19 20h127q18 0 18 -18v-549q0 -86 49 -143.5t148 -57.5q90 0 143 56.5t53 144.5v547q0 20 19 20h127q20 0 20 -18v-859q0 -20 -20 -20h-117q-20 0 -20 18v31q0 14 -9.5 17.5t-19.5 -7.5q-39 -35 -98.5 -53t-112.5 -18q-154 0 -240 92t-86 250z M231.5 1251.5q-2.5 12.5 14.5 24.5l90 59q12 8 23.5 0t17.5 -18l155 -260q14 -23 -8 -37l-39 -25q-10 -8 -22 -4t-21 13l-200 227q-8 8 -10.5 20.5z" />
<glyph unicode="&#xfa;" horiz-adv-x="940" d="M98 330v547q0 20 19 20h127q18 0 18 -18v-549q0 -86 49 -143.5t148 -57.5q90 0 143 56.5t53 144.5v547q0 20 19 20h127q20 0 20 -18v-859q0 -20 -20 -20h-117q-20 0 -20 18v31q0 14 -9.5 17.5t-19.5 -7.5q-39 -35 -98.5 -53t-112.5 -18q-154 0 -240 92t-86 250zM399 1057 l154 260q6 10 15.5 19.5t25.5 -1.5l90 -59q16 -12 14 -24.5t-8 -20.5l-203 -227q-6 -8 -18 -12.5t-25 3.5l-38 25q-18 14 -7 37z" />
<glyph unicode="&#xfb;" horiz-adv-x="940" d="M98 330v547q0 20 19 20h127q18 0 18 -18v-549q0 -86 49 -143.5t148 -57.5q90 0 143 56.5t53 144.5v547q0 20 19 20h127q20 0 20 -18v-859q0 -20 -20 -20h-117q-20 0 -20 18v31q0 14 -9.5 17.5t-19.5 -7.5q-39 -35 -98.5 -53t-112.5 -18q-154 0 -240 92t-86 250z M171 1055.5q1 11.5 11 21.5l197 240q10 10 19.5 16t25.5 6h65q16 0 25.5 -6t20.5 -16l196 -240q10 -10 11 -21.5t-13 -21.5l-29 -24q-14 -12 -23 -9t-22 13l-186 164q-16 16 -31 2l-180 -166q-10 -10 -20.5 -13.5t-24.5 9.5l-29 24q-14 10 -13 21.5z" />
<glyph unicode="&#xfc;" horiz-adv-x="940" d="M98 330v547q0 20 19 20h127q18 0 18 -18v-549q0 -86 49 -143.5t148 -57.5q90 0 143 56.5t53 144.5v547q0 20 19 20h127q20 0 20 -18v-859q0 -20 -20 -20h-117q-20 0 -20 18v31q0 14 -9.5 17.5t-19.5 -7.5q-39 -35 -98.5 -53t-112.5 -18q-154 0 -240 92t-86 250zM197 1116 q0 41 27.5 68.5t68.5 27.5t68.5 -27.5t27.5 -68.5t-27.5 -68.5t-68.5 -27.5t-68.5 27.5t-27.5 68.5zM528 1116q0 41 28 68.5t69 27.5t68.5 -27.5t27.5 -68.5t-26.5 -68.5t-67.5 -27.5t-70 27.5t-29 68.5z" />
<glyph unicode="&#xfd;" horiz-adv-x="843" d="M35 862q-4 16 0 26.5t22 10.5h109q20 0 30.5 -9t14.5 -22l172 -690q4 -16 12 -19t17 19l225 682q4 12 13 25.5t34 13.5h96q20 0 25.5 -11t1.5 -28l-395 -1192q-4 -14 -19.5 -28.5t-44.5 -14.5h-76q-45 0 -28 53l96 291q4 10 5 20.5t-15 10.5h-21q-39 0 -49 41zM342 1057 l154 260q6 10 15 19.5t26 -1.5l90 -59q16 -12 14 -24.5t-8 -20.5l-203 -227q-6 -8 -18.5 -12.5t-24.5 3.5l-39 25q-18 14 -6 37z" />
<glyph unicode="&#xfe;" horiz-adv-x="929" d="M113 -352v1638q0 18 18 19h113q20 0 20 -19v-450q0 -12 10.5 -11.5t22.5 13.5q27 23 71 46t121 23q74 0 137.5 -22.5t109.5 -65.5t73 -105.5t27 -142.5v-241q0 -72 -25 -134.5t-69 -109.5t-104 -73.5t-132 -26.5q-80 0 -124 19.5t-71 43.5q-16 14 -25.5 7t-9.5 -19v-387 q0 -20 -18 -21h-127q-18 0 -18 19zM276 330q0 -84 54.5 -143.5t142.5 -59.5q90 0 143.5 58.5t53.5 144.5v239q0 86 -55.5 142.5t-141.5 56.5t-141.5 -56.5t-55.5 -140.5v-241z" />
<glyph unicode="&#xff;" horiz-adv-x="843" d="M35 862q-4 16 0 26.5t22 10.5h109q20 0 30.5 -9t14.5 -22l172 -690q4 -16 12 -19t17 19l225 682q4 12 13 25.5t34 13.5h96q20 0 25.5 -11t1.5 -28l-395 -1192q-4 -14 -19.5 -28.5t-44.5 -14.5h-76q-45 0 -28 53l96 291q4 10 5 20.5t-15 10.5h-21q-39 0 -49 41zM135 1116 q0 41 27.5 68.5t68.5 27.5t69 -27.5t28 -68.5t-28 -68.5t-69 -27.5t-68.5 27.5t-27.5 68.5zM467 1116q0 41 27.5 68.5t68.5 27.5t68.5 -27.5t27.5 -68.5t-26.5 -68.5t-67.5 -27.5t-69.5 27.5t-28.5 68.5z" />
<glyph unicode="&#x100;" horiz-adv-x="935" d="M41 31l303 1208q2 10 9 17.5t24 7.5h174q25 0 31 -21l311 -1208q4 -10 2 -22.5t-21 -12.5h-124q-27 0 -29 14l-68 267q-4 8 -8 8h-362q-8 0 -9.5 -2t-3.5 -4l-65 -269q-2 -14 -27 -14h-110q-16 0 -23.5 6t-3.5 25zM213 1399v84q0 20 18 20h437q20 0 20 -18v-86 q0 -20 -18 -21h-437q-20 0 -20 21zM308 433q1 -3 11 -3h283q10 0 12 3t0 13l-90 369l-57 258q-2 6 -5 6t-5 -4l-56 -252l-92 -377q-2 -10 -1 -13z" />
<glyph unicode="&#x101;" horiz-adv-x="897" d="M82 301q0 66 21.5 123t63.5 99t103.5 66.5t143.5 24.5q90 0 161 -39q14 -8 25.5 -5t11.5 22v18q0 82 -42 121t-140 39q-18 0 -47 -4t-58.5 -10t-58 -15.5t-47.5 -19.5q-23 -10 -31 12l-34 90q-6 20 10 27q55 29 133 45t152 16q94 0 157.5 -22.5t101 -65.5t53 -103.5 t15.5 -133.5v-566q0 -20 -18 -20h-113q-18 0 -18 16v37q0 14 -8.5 16.5t-18.5 -8.5q-41 -41 -93 -57t-112 -16q-154 0 -233.5 86t-79.5 227zM219 1075v84q0 20 19 21h436q20 0 20 -19v-86q0 -20 -18 -20h-436q-20 0 -21 20zM236 305q0 -76 45 -128t139 -52q84 0 133 51 t49 129q0 76 -44 128t-140 52q-84 0 -133 -51t-49 -129z" />
<glyph unicode="&#x102;" horiz-adv-x="935" d="M41 31l303 1208q2 10 9 17.5t24 7.5h174q25 0 31 -21l311 -1208q4 -10 2 -22.5t-21 -12.5h-124q-27 0 -29 14l-68 267q-4 8 -8 8h-362q-8 0 -9.5 -2t-3.5 -4l-65 -269q-2 -14 -27 -14h-110q-16 0 -23.5 6t-3.5 25zM213 1571q0 10 4 16t21 6h43q16 0 20 -6t8 -20 q18 -59 50 -90t92 -31q111 0 141 121q4 14 7 20t22 6h43q16 0 20 -6t4 -16q-2 -51 -20.5 -97.5t-49 -80t-73.5 -53t-96 -19.5q-49 0 -91.5 19.5t-74 53t-50 80t-20.5 97.5zM308 433q1 -3 11 -3h283q10 0 12 3t0 13l-90 369l-57 258q-2 6 -5 6t-5 -4l-56 -252l-92 -377 q-2 -10 -1 -13z" />
<glyph unicode="&#x103;" horiz-adv-x="897" d="M82 301q0 66 21.5 123t63.5 99t103.5 66.5t143.5 24.5q90 0 161 -39q14 -8 25.5 -5t11.5 22v18q0 82 -42 121t-140 39q-18 0 -47 -4t-58.5 -10t-58 -15.5t-47.5 -19.5q-23 -10 -31 12l-34 90q-6 20 10 27q55 29 133 45t152 16q94 0 157.5 -22.5t101 -65.5t53 -103.5 t15.5 -133.5v-566q0 -20 -18 -20h-113q-18 0 -18 16v37q0 14 -8.5 16.5t-18.5 -8.5q-41 -41 -93 -57t-112 -16q-154 0 -233.5 86t-79.5 227zM223 1257q0 10 4 16.5t21 6.5h43q16 0 20 -6t8 -21q18 -59 50 -89.5t92 -30.5q111 0 141 120q4 14 7 20.5t22 6.5h43q16 0 20 -6 t4 -17q-2 -51 -20.5 -97t-49 -79.5t-73.5 -53t-96 -19.5q-49 0 -91 19.5t-74 53t-50.5 79.5t-20.5 97zM236 305q0 -76 45 -128t139 -52q84 0 133 51t49 129q0 76 -44 128t-140 52q-84 0 -133 -51t-49 -129z" />
<glyph unicode="&#x104;" horiz-adv-x="935" d="M41 31l303 1208q2 10 9 17.5t24 7.5h174q25 0 31 -21l311 -1208q4 -10 2 -22.5t-21 -12.5h-73q-41 -45 -66.5 -104.5t-25.5 -112.5q0 -27 13 -45.5t54 -18.5q29 0 60.5 15.5t62.5 32.5q12 6 19 -3l32 -45q4 -4 4 -8q0 -6 -6 -12q-31 -29 -87 -55.5t-113 -26.5 q-92 0 -127 43t-35 107q0 31 10 66.5t28.5 70.5t42 65.5t50.5 53.5l2 2l-66 256q-4 8 -8 8h-362q-8 0 -9.5 -2t-3.5 -4l-65 -269q-2 -14 -27 -14h-110q-16 0 -23.5 6t-3.5 25zM308 433q1 -3 11 -3h283q10 0 12 3t0 13l-90 369l-57 258q-2 6 -5 6t-5 -4l-56 -252l-92 -377 q-2 -10 -1 -13z" />
<glyph unicode="&#x105;" horiz-adv-x="897" d="M82 301q0 66 21.5 123t63.5 99t103.5 66.5t143.5 24.5q90 0 161 -39q14 -8 25.5 -5t11.5 22v18q0 82 -42 121t-140 39q-18 0 -47 -4t-58.5 -10t-58 -15.5t-47.5 -19.5q-23 -10 -31 12l-34 90q-6 20 10 27q55 29 133 45t152 16q94 0 157.5 -22.5t101 -65.5t53 -103.5 t15.5 -133.5v-566q0 -20 -18 -20h-58q-41 -45 -66.5 -104.5t-25.5 -112.5q0 -27 13.5 -45.5t54.5 -18.5q29 0 60.5 15.5t62.5 32.5q12 6 18 -3l33 -45q4 -4 4 -8q0 -6 -6 -12q-31 -29 -87 -55.5t-114 -26.5q-92 0 -127 43t-35 107q0 31 10.5 66.5t29 70.5t42 65.5t49.5 53.5 l11 8v22q0 14 -8.5 16.5t-18.5 -8.5q-41 -41 -93 -57t-112 -16q-154 0 -233.5 86t-79.5 227zM236 305q0 -76 45 -128t139 -52q84 0 133 51t49 129q0 76 -44 128t-140 52q-84 0 -133 -51t-49 -129z" />
<glyph unicode="&#x106;" horiz-adv-x="880" d="M119 334v598q0 80 27.5 144.5t76.5 109.5t118 69.5t151 24.5q94 0 182 -31t166 -121q10 -12 10 -21t-16 -24l-78 -65q-8 -8 -21.5 -5t-21.5 13q-37 47 -96.5 75.5t-122.5 28.5q-98 0 -150.5 -55t-52.5 -143v-596q0 -86 57.5 -142.5t155.5 -56.5q63 0 118.5 32t90.5 67 q10 12 20 19t27 -5l82 -68q6 -4 7 -14t-3 -18q-61 -80 -151.5 -121t-190.5 -41q-82 0 -152.5 22.5t-122 66.5t-81 108.5t-29.5 148.5zM399 1368q-16 20 7 37l237 188q10 8 22.5 10.5t22.5 -8.5l62 -90q12 -16 6 -26.5t-17 -14.5l-270 -141q-10 -4 -22.5 -3t-20.5 11z" />
<glyph unicode="&#x107;" horiz-adv-x="823" d="M92 326v235q0 82 27.5 147.5t76 109.5t114 67.5t143.5 23.5q198 -1 315 -155q8 -10 6 -23.5t-14 -21.5l-72 -56q-27 -18 -47 13q-35 51 -85 76.5t-107 25.5q-88 0 -140.5 -54.5t-52.5 -140.5v-254q0 -84 54.5 -136t144.5 -52q80 0 127 35t84 82q10 12 30 -2l68 -49 q20 -12 22 -23.5t-6 -21.5q-61 -92 -146 -128t-177 -36q-166 0 -265.5 90t-99.5 248zM346 1057l154 260q6 10 15 19.5t26 -1.5l90 -59q16 -12 14 -24.5t-8 -20.5l-203 -227q-6 -8 -18.5 -12.5t-24.5 3.5l-39 25q-18 14 -6 37z" />
<glyph unicode="&#x108;" horiz-adv-x="880" d="M119 334v598q0 80 27.5 144.5t76.5 109.5t118 69.5t151 24.5q94 0 182 -31t166 -121q10 -12 10 -21t-16 -24l-78 -65q-8 -8 -21.5 -5t-21.5 13q-37 47 -96.5 75.5t-122.5 28.5q-98 0 -150.5 -55t-52.5 -143v-596q0 -86 57.5 -142.5t155.5 -56.5q63 0 118.5 32t90.5 67 q10 12 20 19t27 -5l82 -68q6 -4 7 -14t-3 -18q-61 -80 -151.5 -121t-190.5 -41q-82 0 -152.5 22.5t-122 66.5t-81 108.5t-29.5 148.5zM238 1382l196 203q10 10 19.5 14.5t25.5 4.5h66q16 0 25.5 -4.5t19.5 -14.5l196 -203q23 -18 -2 -34l-28 -21q-14 -10 -24.5 -8t-20.5 10 l-181 125q-14 14 -30 0l-187 -125q-12 -8 -21 -10t-24 8l-28 21q-25 16 -2 34z" />
<glyph unicode="&#x109;" horiz-adv-x="823" d="M92 326v235q0 82 27.5 147.5t76 109.5t114 67.5t143.5 23.5q198 -1 315 -155q8 -10 6 -23.5t-14 -21.5l-72 -56q-27 -18 -47 13q-35 51 -85 76.5t-107 25.5q-88 0 -140.5 -54.5t-52.5 -140.5v-254q0 -84 54.5 -136t144.5 -52q80 0 127 35t84 82q10 12 30 -2l68 -49 q20 -12 22 -23.5t-6 -21.5q-61 -92 -146 -128t-177 -36q-166 0 -265.5 90t-99.5 248zM165 1055.5q1 11.5 11 21.5l197 240q10 10 19 16t26 6h65q16 0 25.5 -6t19.5 -16l197 -240q10 -10 11 -21.5t-13 -21.5l-29 -24q-14 -12 -23 -9t-22 13l-186 164q-16 16 -31 2l-180 -166 q-10 -10 -20.5 -13.5t-24.5 9.5l-29 24q-14 10 -13 21.5z" />
<glyph unicode="&#x10a;" horiz-adv-x="880" d="M119 334v598q0 80 27.5 144.5t76.5 109.5t118 69.5t151 24.5q94 0 182 -31t166 -121q10 -12 10 -21t-16 -24l-78 -65q-8 -8 -21.5 -5t-21.5 13q-37 47 -96.5 75.5t-122.5 28.5q-98 0 -150.5 -55t-52.5 -143v-596q0 -86 57.5 -142.5t155.5 -56.5q63 0 118.5 32t90.5 67 q10 12 20 19t27 -5l82 -68q6 -4 7 -14t-3 -18q-61 -80 -151.5 -121t-190.5 -41q-82 0 -152.5 22.5t-122 66.5t-81 108.5t-29.5 148.5zM377 1479q0 41 27.5 68.5t68.5 27.5t68.5 -27.5t27.5 -66.5q0 -41 -27.5 -69t-66.5 -28q-41 0 -69.5 27t-28.5 68z" />
<glyph unicode="&#x10b;" horiz-adv-x="823" d="M92 326v235q0 82 27.5 147.5t76 109.5t114 67.5t143.5 23.5q198 -1 315 -155q8 -10 6 -23.5t-14 -21.5l-72 -56q-27 -18 -47 13q-35 51 -85 76.5t-107 25.5q-88 0 -140.5 -54.5t-52.5 -140.5v-254q0 -84 54.5 -136t144.5 -52q80 0 127 35t84 82q10 12 30 -2l68 -49 q20 -12 22 -23.5t-6 -21.5q-61 -92 -146 -128t-177 -36q-166 0 -265.5 90t-99.5 248zM365 1130q0 41 27.5 69t68.5 28t68.5 -27.5t27.5 -66.5q0 -41 -27.5 -69t-66.5 -28q-41 0 -69.5 27t-28.5 67z" />
<glyph unicode="&#x10c;" horiz-adv-x="880" d="M119 334v598q0 80 27.5 144.5t76.5 109.5t118 69.5t151 24.5q94 0 182 -31t166 -121q10 -12 10 -21t-16 -24l-78 -65q-8 -8 -21.5 -5t-21.5 13q-37 47 -96.5 75.5t-122.5 28.5q-98 0 -150.5 -55t-52.5 -143v-596q0 -86 57.5 -142.5t155.5 -56.5q63 0 118.5 32t90.5 67 q10 12 20 19t27 -5l82 -68q6 -4 7 -14t-3 -18q-61 -80 -151.5 -121t-190.5 -41q-82 0 -152.5 22.5t-122 66.5t-81 108.5t-29.5 148.5zM221 1540q-23 18 2 35l29 20q14 10 23.5 8.5t21.5 -10.5l186 -125q16 -14 31 0l180 125q10 8 20.5 10.5t24.5 -8.5l29 -20q25 -16 2 -35 l-197 -203q-10 -10 -19 -14t-26 -4h-65q-16 0 -25.5 4t-19.5 14z" />
<glyph unicode="&#x10d;" horiz-adv-x="823" d="M92 326v235q0 82 27.5 147.5t76 109.5t114 67.5t143.5 23.5q198 -1 315 -155q8 -10 6 -23.5t-14 -21.5l-72 -56q-27 -18 -47 13q-35 51 -85 76.5t-107 25.5q-88 0 -140.5 -54.5t-52.5 -140.5v-254q0 -84 54.5 -136t144.5 -52q80 0 127 35t84 82q10 12 30 -2l68 -49 q20 -12 22 -23.5t-6 -21.5q-61 -92 -146 -128t-177 -36q-166 0 -265.5 90t-99.5 248zM179 1272.5q-1 11.5 14 21.5l28 25q14 12 24.5 9t20.5 -13l180 -166q14 -14 31 2l187 164q12 10 21 13t24 -9l28 -25q14 -10 13.5 -21t-11.5 -22l-196 -239q-10 -10 -19.5 -16.5 t-25.5 -6.5h-66q-16 0 -25.5 6t-19.5 17l-197 239q-10 10 -11 21.5z" />
<glyph unicode="&#x10e;" horiz-adv-x="1007" d="M125 23v1218q0 23 25 23h366q184 0 281.5 -96.5t97.5 -272.5v-514q0 -190 -99.5 -285.5t-279.5 -95.5h-366q-25 0 -25 23zM172 1540q-23 18 2 35l29 20q14 10 23.5 8.5t21.5 -10.5l186 -125q16 -14 31 0l180 125q10 8 20.5 10.5t24.5 -8.5l29 -20q25 -16 2 -35l-197 -203 q-10 -10 -19 -14t-26 -4h-65q-16 0 -25.5 4t-19.5 14zM297 168q0 -18 16 -18h207q102 0 152.5 54t50.5 150v559q0 106 -60.5 154.5t-156.5 48.5h-191q-18 0 -18 -16v-932z" />
<glyph unicode="&#x10f;" horiz-adv-x="1150" d="M94 328v237q0 70 22.5 132.5t65.5 108.5t103.5 73.5t136.5 27.5q82 0 129 -22.5t67 -38.5q16 -12 24.5 -6t8.5 20v424q0 20 21 21h125q20 0 20 -19v-1268q0 -18 -18 -18h-111q-20 0 -20 20v29q0 12 -11.5 16.5t-23.5 -6.5q-27 -23 -82 -46t-129 -23q-150 0 -239 86 t-89 252zM258 328q0 -86 48 -142.5t143 -56.5q86 0 144 57.5t58 141.5l2 237q0 84 -47 142.5t-149 58.5q-106 0 -152.5 -58.5t-46.5 -142.5v-237zM948 948l21 322q4 33 30 33h127q39 0 27 -41l-96 -324q-10 -25 -31 -25h-55q-14 0 -19.5 11.5t-3.5 23.5z" />
<glyph unicode="&#x110;" horiz-adv-x="995" d="M18 608v74q0 25 23 25h68q16 0 16 18v516q0 23 25 23h352q184 0 281.5 -96.5t97.5 -272.5v-514q0 -190 -99.5 -285.5t-279.5 -95.5h-352q-25 0 -25 23v542q0 18 -16 19h-66q-25 0 -25 24zM295 168q0 -18 16 -18h195q100 0 151.5 54t51.5 150v559q0 106 -60.5 154.5 t-156.5 48.5h-179q-18 0 -18 -16v-373q0 -14 5 -17t13 -3h144q25 0 24 -23v-76q0 -25 -22 -24h-148q-16 0 -16 -19v-397z" />
<glyph unicode="&#x111;" horiz-adv-x="923" d="M94 328v237q0 70 24.5 132.5t69.5 108.5t108.5 73.5t139.5 27.5q82 0 122 -22.5t60 -38.5q16 -12 24.5 -6t8.5 20v105q0 14 -3 18t-17 4h-148q-18 0 -18 21v75q0 18 20 19h144q10 0 16 4t6 20v117q0 20 21 21h125q20 0 20 -19v-121q0 -23 21 -22h65q18 0 19 -21v-73 q0 -20 -21 -21h-63q-14 0 -17.5 -6t-3.5 -16v-947q0 -18 -18 -18h-111q-20 0 -20 20v29q0 12 -11.5 16.5t-23.5 -6.5q-27 -23 -73 -46t-120 -23t-137 24.5t-109.5 68.5t-73 106.5t-26.5 138.5zM258 328q0 -86 56.5 -142.5t142.5 -56.5t140 57.5t54 141.5l2 237 q0 84 -54 142.5t-142 58.5q-90 0 -144.5 -58.5t-54.5 -142.5v-237z" />
<glyph unicode="&#x112;" horiz-adv-x="901" d="M123 23v1218q0 23 24 23h660q27 0 27 -23v-100q0 -25 -25 -25h-498q-16 0 -16 -16v-350q0 -16 14 -17h412q25 0 24 -24v-103q0 -23 -22 -22h-412q-16 0 -16 -19v-397q0 -18 14 -18h506q25 0 25 -23v-102q0 -25 -25 -25h-668q-25 0 -24 23zM221 1399v84q0 20 19 20h436 q20 0 20 -18v-86q0 -20 -18 -21h-436q-20 0 -21 21z" />
<glyph unicode="&#x113;" horiz-adv-x="897" d="M96 324v233q0 78 27 143.5t75 112.5t113.5 72.5t145.5 25.5q82 0 148.5 -25.5t113.5 -72.5t72.5 -112.5t25.5 -143.5v-96q0 -23 -13 -36t-28 -13h-479q-16 0 -26.5 -10.5t-10.5 -26.5v-39q0 -41 10.5 -79t34 -65.5t61 -44t91.5 -16.5q61 0 111 28.5t85 76.5q16 23 41 6 l72 -49q25 -16 16 -33q-49 -90 -135 -131t-186 -41q-166 0 -265.5 91t-99.5 245zM221 1075v84q0 20 19 21h436q20 0 20 -19v-86q0 -20 -18 -20h-436q-20 0 -21 20zM264 567q0 -8 6 -16t25 -8h336q20 0 20 22v19q0 78 -49 132t-145 54q-86 0 -139.5 -55.5t-53.5 -132.5v-15z " />
<glyph unicode="&#x114;" horiz-adv-x="901" d="M123 23v1218q0 23 24 23h660q27 0 27 -23v-100q0 -25 -25 -25h-498q-16 0 -16 -16v-350q0 -16 14 -17h412q25 0 24 -24v-103q0 -23 -22 -22h-412q-16 0 -16 -19v-397q0 -18 14 -18h506q25 0 25 -23v-102q0 -25 -25 -25h-668q-25 0 -24 23zM242 1571q0 10 4 16t20 6h43 q16 0 20.5 -6t8.5 -20q18 -59 50 -90t91 -31q111 0 142 121q4 14 7 20t21 6h43q16 0 20.5 -6t4.5 -16q-2 -51 -20.5 -97.5t-49.5 -80t-74 -53t-96 -19.5q-49 0 -91 19.5t-73.5 53t-50 80t-20.5 97.5z" />
<glyph unicode="&#x115;" horiz-adv-x="897" d="M96 324v233q0 78 27 143.5t75 112.5t113.5 72.5t145.5 25.5q82 0 148.5 -25.5t113.5 -72.5t72.5 -112.5t25.5 -143.5v-96q0 -23 -13 -36t-28 -13h-479q-16 0 -26.5 -10.5t-10.5 -26.5v-39q0 -41 10.5 -79t34 -65.5t61 -44t91.5 -16.5q61 0 111 28.5t85 76.5q16 23 41 6 l72 -49q25 -16 16 -33q-49 -90 -135 -131t-186 -41q-166 0 -265.5 91t-99.5 245zM233 1257q0 10 4.5 16.5t20.5 6.5h43q16 0 20.5 -6t8.5 -21q18 -59 50 -89.5t91 -30.5q111 0 141 120q4 14 7.5 20.5t21.5 6.5h43q16 0 20.5 -6t4.5 -17q-2 -51 -20.5 -97t-49.5 -79.5 t-74 -53t-96 -19.5q-49 0 -91 19.5t-74 53t-50.5 79.5t-20.5 97zM264 567q0 -8 6 -16t25 -8h336q20 0 20 22v19q0 78 -49 132t-145 54q-86 0 -139.5 -55.5t-53.5 -132.5v-15z" />
<glyph unicode="&#x116;" horiz-adv-x="901" d="M123 23v1218q0 23 24 23h660q27 0 27 -23v-100q0 -25 -25 -25h-498q-16 0 -16 -16v-350q0 -16 14 -17h412q25 0 24 -24v-103q0 -23 -22 -22h-412q-16 0 -16 -19v-397q0 -18 14 -18h506q25 0 25 -23v-102q0 -25 -25 -25h-668q-25 0 -24 23zM379 1438q0 41 27.5 68.5 t68.5 27.5t68.5 -27.5t27.5 -66.5q0 -41 -27.5 -69t-66.5 -28q-41 0 -69.5 27t-28.5 68z" />
<glyph unicode="&#x117;" horiz-adv-x="897" d="M96 324v233q0 78 27 143.5t75 112.5t113.5 72.5t145.5 25.5q82 0 148.5 -25.5t113.5 -72.5t72.5 -112.5t25.5 -143.5v-96q0 -23 -13 -36t-28 -13h-479q-16 0 -26.5 -10.5t-10.5 -26.5v-39q0 -41 10.5 -79t34 -65.5t61 -44t91.5 -16.5q61 0 111 28.5t85 76.5q16 23 41 6 l72 -49q25 -16 16 -33q-49 -90 -135 -131t-186 -41q-166 0 -265.5 91t-99.5 245zM264 567q0 -8 6 -16t25 -8h336q20 0 20 22v19q0 78 -49 132t-145 54q-86 0 -139.5 -55.5t-53.5 -132.5v-15zM365 1130q0 41 27.5 69t68.5 28t68.5 -27.5t27.5 -66.5q0 -41 -27.5 -69 t-66.5 -28q-41 0 -69.5 27t-28.5 67z" />
<glyph unicode="&#x118;" horiz-adv-x="901" d="M123 23v1218q0 23 24 23h660q27 0 27 -23v-100q0 -25 -25 -25h-498q-16 0 -16 -16v-350q0 -16 14 -17h412q25 0 24 -24v-103q0 -23 -22 -22h-412q-16 0 -16 -19v-397q0 -18 14 -18h506q25 0 25 -23v-102q0 -25 -25 -25h-63q-41 -45 -67 -104.5t-26 -112.5 q0 -27 13.5 -45.5t54.5 -18.5q29 0 60.5 15.5t62.5 32.5q12 6 18 -3l33 -45q4 -4 4 -8q0 -6 -6 -12q-31 -29 -87 -55.5t-114 -26.5q-92 0 -126.5 43t-34.5 107q0 55 30.5 120.5t75.5 112.5h-496q-25 0 -24 23z" />
<glyph unicode="&#x119;" horiz-adv-x="897" d="M96 324v233q0 78 27 143.5t75 112.5t113.5 72.5t145.5 25.5q82 0 148.5 -25.5t113.5 -72.5t72.5 -112.5t25.5 -143.5v-96q0 -23 -13 -36t-28 -13h-479q-16 0 -26.5 -10.5t-10.5 -26.5v-39q0 -41 10.5 -79t34 -65.5t61 -44t91.5 -16.5q61 0 111 28.5t85 76.5q16 23 41 6 l72 -49q25 -16 16 -33q-47 -84 -129 -127q-39 -45 -64.5 -103.5t-25.5 -111.5q0 -27 13.5 -45.5t54.5 -18.5q29 0 60.5 15.5t62.5 31.5q12 6 18 -2l33 -45q4 -4 4 -8q0 -6 -6 -12q-31 -29 -87.5 -55.5t-113.5 -26.5q-92 0 -127 43t-35 106q0 43 19.5 94.5t50.5 94.5 q-12 -2 -24.5 -2h-24.5q-166 0 -265.5 91t-99.5 245zM264 567q0 -8 6 -16t25 -8h336q20 0 20 22v19q0 78 -49 132t-145 54q-86 0 -139.5 -55.5t-53.5 -132.5v-15z" />
<glyph unicode="&#x11a;" horiz-adv-x="901" d="M123 23v1218q0 23 24 23h660q27 0 27 -23v-100q0 -25 -25 -25h-498q-16 0 -16 -16v-350q0 -16 14 -17h412q25 0 24 -24v-103q0 -23 -22 -22h-412q-16 0 -16 -19v-397q0 -18 14 -18h506q25 0 25 -23v-102q0 -25 -25 -25h-668q-25 0 -24 23zM178 1540q-23 18 2 35l29 20 q14 10 23.5 8.5t21.5 -10.5l186 -125q16 -14 31 0l180 125q10 8 20.5 10.5t24.5 -8.5l29 -20q25 -16 2 -35l-197 -203q-10 -10 -19 -14t-26 -4h-65q-16 0 -25.5 4t-19.5 14z" />
<glyph unicode="&#x11b;" horiz-adv-x="897" d="M96 324v233q0 78 27 143.5t75 112.5t113.5 72.5t145.5 25.5q82 0 148.5 -25.5t113.5 -72.5t72.5 -112.5t25.5 -143.5v-96q0 -23 -13 -36t-28 -13h-479q-16 0 -26.5 -10.5t-10.5 -26.5v-39q0 -41 10.5 -79t34 -65.5t61 -44t91.5 -16.5q61 0 111 28.5t85 76.5q16 23 41 6 l72 -49q25 -16 16 -33q-49 -90 -135 -131t-186 -41q-166 0 -265.5 91t-99.5 245zM173 1272.5q-1 11.5 13 21.5l29 25q14 12 24.5 9t20.5 -13l180 -166q14 -14 31 2l186 164q12 10 21.5 13t23.5 -9l29 -25q14 -10 13 -21t-11 -22l-196 -239q-10 -10 -19.5 -16.5t-25.5 -6.5 h-66q-16 0 -25.5 6t-19.5 17l-197 239q-10 10 -11 21.5zM264 567q0 -8 6 -16t25 -8h336q20 0 20 22v19q0 78 -49 132t-145 54q-86 0 -139.5 -55.5t-53.5 -132.5v-15z" />
<glyph unicode="&#x11c;" horiz-adv-x="983" d="M119 334v598q0 80 29.5 144.5t82 109.5t123 69.5t152.5 24.5q100 0 197.5 -39t148.5 -127q8 -14 5 -22.5t-15 -18.5l-80 -63q-10 -8 -21.5 -3t-21.5 17q-43 59 -100.5 81.5t-110.5 22.5q-113 0 -165 -62t-52 -151v-579q0 -86 57.5 -142.5t155.5 -56.5q88 0 141 51.5 t53 143.5v188q0 16 -12 17h-151q-25 0 -25 22v105q0 25 25 24h313q27 0 26 -24v-334q0 -76 -26.5 -138.5t-75.5 -107.5t-117.5 -70.5t-150.5 -25.5t-152.5 22.5t-122 66.5t-81 108.5t-29.5 148.5zM229 1382l197 203q10 10 19.5 14.5t25.5 4.5h66q16 0 25 -4.5t20 -14.5 l196 -203q23 -18 -2 -34l-28 -21q-14 -10 -24.5 -8t-21.5 10l-180 125q-14 14 -30 0l-187 -125q-12 -8 -21.5 -10t-23.5 8l-29 21q-25 16 -2 34z" />
<glyph unicode="&#x11d;" horiz-adv-x="897" d="M57 590q0 68 29 126t77 102t111.5 68.5t135.5 24.5q68 0 129 -20.5t108 -56.5q10 -8 21 0q39 33 87 52t97 19q29 2 29 -31v-104q0 -16 -5.5 -20.5t-25.5 -1.5q-53 8 -96 -9q-16 -2 -11 -16q35 -59 35 -133q0 -72 -29.5 -131.5t-80 -102.5t-117 -66.5t-141.5 -23.5 q-31 0 -48 -4q-53 -12 -93 -57t-44 -82q0 -16 15 -10q57 14 122.5 19t100.5 5q70 0 142.5 -12t132 -43t96 -82t36.5 -129q0 -45 -18 -87t-49 -79t-70 -65.5t-78 -45.5q-27 -14 -43 13l-45 69q-12 19 13 35q51 31 86.5 72t35.5 82q0 37 -22.5 61.5t-56 39t-75.5 20.5t-81 6 q-66 0 -148.5 -10.5t-158.5 -22.5q-25 -4 -34 2t-17 16q-18 27 -27.5 62t-9.5 74q0 57 40 109t95 83q6 4 6 9t-6 10l-8 4q-63 41 -102.5 107.5t-39.5 154.5zM163 1055.5q1 11.5 11 21.5l197 240q10 10 19 16t26 6h65q16 0 25.5 -6t19.5 -16l197 -240q10 -10 11 -21.5 t-13 -21.5l-29 -24q-14 -12 -23.5 -9t-21.5 13l-186 164q-16 16 -31 2l-180 -166q-10 -10 -20.5 -13.5t-24.5 9.5l-29 24q-14 10 -13 21.5zM221 582q0 -74 49 -130.5t140 -56.5q96 0 148 54.5t52 132.5q0 76 -52 132t-136 56q-92 0 -146.5 -56.5t-54.5 -131.5z" />
<glyph unicode="&#x11e;" horiz-adv-x="983" d="M119 334v598q0 80 29.5 144.5t82 109.5t123 69.5t152.5 24.5q100 0 197.5 -39t148.5 -127q8 -14 5 -22.5t-15 -18.5l-80 -63q-10 -8 -21.5 -3t-21.5 17q-43 59 -100.5 81.5t-110.5 22.5q-113 0 -165 -62t-52 -151v-579q0 -86 57.5 -142.5t155.5 -56.5q88 0 141 51.5 t53 143.5v188q0 16 -12 17h-151q-25 0 -25 22v105q0 25 25 24h313q27 0 26 -24v-334q0 -76 -26.5 -138.5t-75.5 -107.5t-117.5 -70.5t-150.5 -25.5t-152.5 22.5t-122 66.5t-81 108.5t-29.5 148.5zM262 1571q0 10 4 16t21 6h43q16 0 20 -6t8 -20q18 -59 50 -90t92 -31 q111 0 141 121q4 14 7 20t22 6h43q16 0 20 -6t4 -16q-2 -51 -20.5 -97.5t-49 -80t-73.5 -53t-96 -19.5q-49 0 -91 19.5t-74 53t-50.5 80t-20.5 97.5z" />
<glyph unicode="&#x11f;" horiz-adv-x="897" d="M57 590q0 68 29 126t77 102t111.5 68.5t135.5 24.5q68 0 129 -20.5t108 -56.5q10 -8 21 0q39 33 87 52t97 19q29 2 29 -31v-104q0 -16 -5.5 -20.5t-25.5 -1.5q-53 8 -96 -9q-16 -2 -11 -16q35 -59 35 -133q0 -72 -29.5 -131.5t-80 -102.5t-117 -66.5t-141.5 -23.5 q-31 0 -48 -4q-53 -12 -93 -57t-44 -82q0 -16 15 -10q57 14 122.5 19t100.5 5q70 0 142.5 -12t132 -43t96 -82t36.5 -129q0 -45 -18 -87t-49 -79t-70 -65.5t-78 -45.5q-27 -14 -43 13l-45 69q-12 19 13 35q51 31 86.5 72t35.5 82q0 37 -22.5 61.5t-56 39t-75.5 20.5t-81 6 q-66 0 -148.5 -10.5t-158.5 -22.5q-25 -4 -34 2t-17 16q-18 27 -27.5 62t-9.5 74q0 57 40 109t95 83q6 4 6 9t-6 10l-8 4q-63 41 -102.5 107.5t-39.5 154.5zM184 1257q0 10 4.5 16.5t20.5 6.5h43q16 0 20 -6t9 -21q18 -59 49.5 -89.5t91.5 -30.5q111 0 141 120q4 14 7 20.5 t22 6.5h43q16 0 20 -6t4 -17q-2 -51 -20 -97t-49 -79.5t-74 -53t-96 -19.5q-49 0 -91 19.5t-74 53t-50.5 79.5t-20.5 97zM221 582q0 -74 49 -130.5t140 -56.5q96 0 148 54.5t52 132.5q0 76 -52 132t-136 56q-92 0 -146.5 -56.5t-54.5 -131.5z" />
<glyph unicode="&#x120;" horiz-adv-x="983" d="M119 334v598q0 80 29.5 144.5t82 109.5t123 69.5t152.5 24.5q100 0 197.5 -39t148.5 -127q8 -14 5 -22.5t-15 -18.5l-80 -63q-10 -8 -21.5 -3t-21.5 17q-43 59 -100.5 81.5t-110.5 22.5q-113 0 -165 -62t-52 -151v-579q0 -86 57.5 -142.5t155.5 -56.5q88 0 141 51.5 t53 143.5v188q0 16 -12 17h-151q-25 0 -25 22v105q0 25 25 24h313q27 0 26 -24v-334q0 -76 -26.5 -138.5t-75.5 -107.5t-117.5 -70.5t-150.5 -25.5t-152.5 22.5t-122 66.5t-81 108.5t-29.5 148.5zM406 1438q0 41 27.5 68.5t68.5 27.5t68.5 -27.5t27.5 -66.5q0 -41 -27.5 -69 t-66.5 -28q-41 0 -69.5 27t-28.5 68z" />
<glyph unicode="&#x121;" horiz-adv-x="897" d="M57 590q0 68 29 126t77 102t111.5 68.5t135.5 24.5q68 0 129 -20.5t108 -56.5q10 -8 21 0q39 33 87 52t97 19q29 2 29 -31v-104q0 -16 -5.5 -20.5t-25.5 -1.5q-53 8 -96 -9q-16 -2 -11 -16q35 -59 35 -133q0 -72 -29.5 -131.5t-80 -102.5t-117 -66.5t-141.5 -23.5 q-31 0 -48 -4q-53 -12 -93 -57t-44 -82q0 -16 15 -10q57 14 122.5 19t100.5 5q70 0 142.5 -12t132 -43t96 -82t36.5 -129q0 -45 -18 -87t-49 -79t-70 -65.5t-78 -45.5q-27 -14 -43 13l-45 69q-12 19 13 35q51 31 86.5 72t35.5 82q0 37 -22.5 61.5t-56 39t-75.5 20.5t-81 6 q-66 0 -148.5 -10.5t-158.5 -22.5q-25 -4 -34 2t-17 16q-18 27 -27.5 62t-9.5 74q0 57 40 109t95 83q6 4 6 9t-6 10l-8 4q-63 41 -102.5 107.5t-39.5 154.5zM221 582q0 -74 49 -130.5t140 -56.5q96 0 148 54.5t52 132.5q0 76 -52 132t-136 56q-92 0 -146.5 -56.5 t-54.5 -131.5zM362 1130q0 41 28 69t69 28t68.5 -27.5t27.5 -66.5q0 -41 -27.5 -69t-66.5 -28q-41 0 -70 27t-29 67z" />
<glyph unicode="&#x122;" horiz-adv-x="983" d="M119 334v598q0 80 29.5 144.5t82 109.5t123 69.5t152.5 24.5q100 0 197.5 -39t148.5 -127q8 -14 5 -22.5t-15 -18.5l-80 -63q-10 -8 -21.5 -3t-21.5 17q-43 59 -100.5 81.5t-110.5 22.5q-113 0 -165 -62t-52 -151v-579q0 -86 57.5 -142.5t155.5 -56.5q88 0 141 51.5 t53 143.5v188q0 16 -12 17h-151q-25 0 -25 22v105q0 25 25 24h313q27 0 26 -24v-334q0 -76 -26.5 -138.5t-75.5 -107.5t-117.5 -70.5t-150.5 -25.5t-152.5 22.5t-122 66.5t-81 108.5t-29.5 148.5zM381 -434l20 321q4 33 31 33h127q39 0 27 -41l-97 -323q-10 -25 -30 -25h-56 q-14 0 -19 11.5t-3 23.5z" />
<glyph unicode="&#x123;" horiz-adv-x="897" d="M57 590q0 68 29 126t77 102t111.5 68.5t135.5 24.5q68 0 129 -20.5t108 -56.5q10 -8 21 0q39 33 87 52t97 19q29 2 29 -31v-104q0 -16 -5.5 -20.5t-25.5 -1.5q-53 8 -96 -9q-16 -2 -11 -16q35 -59 35 -133q0 -72 -29.5 -131.5t-80 -102.5t-117 -66.5t-141.5 -23.5 q-31 0 -48 -4q-53 -12 -93 -57t-44 -82q0 -16 15 -10q57 14 122.5 19t100.5 5q70 0 142.5 -12t132 -43t96 -82t36.5 -129q0 -45 -18 -87t-49 -79t-70 -65.5t-78 -45.5q-27 -14 -43 13l-45 69q-12 19 13 35q51 31 86.5 72t35.5 82q0 37 -22.5 61.5t-56 39t-75.5 20.5t-81 6 q-66 0 -148.5 -10.5t-158.5 -22.5q-25 -4 -34 2t-17 16q-18 27 -27.5 62t-9.5 74q0 57 40 109t95 83q6 4 6 9t-6 10l-8 4q-63 41 -102.5 107.5t-39.5 154.5zM221 582q0 -74 49 -130.5t140 -56.5q96 0 148 54.5t52 132.5q0 76 -52 132t-136 56q-92 0 -146.5 -56.5 t-54.5 -131.5zM332 1047l96 323q8 25 31 25h55q14 0 19.5 -11.5t3.5 -23.5l-21 -322q-4 -33 -31 -32h-127q-39 0 -26 41z" />
<glyph unicode="&#x124;" horiz-adv-x="1284" d="M129 23v1218q0 23 23 23h124q25 0 25 -21v-498q0 -18 16 -18h437q16 0 16 18v496q0 23 23 23h125q27 0 26 -21v-1218q0 -25 -24 -25h-125q-25 0 -25 23v538q0 18 -16 19h-437q-16 0 -16 -19v-536q0 -25 -22 -25h-125q-25 0 -25 23zM246 1382l196 203q10 10 19.5 14.5 t25.5 4.5h66q16 0 25.5 -4.5t19.5 -14.5l197 -203q23 -18 -2 -34l-29 -21q-14 -10 -24.5 -8t-20.5 10l-180 125q-14 14 -31 0l-186 -125q-12 -8 -21.5 -10t-24.5 8l-28 21q-25 16 -2 34z" />
<glyph unicode="&#x125;" horiz-adv-x="954" d="M-72 1382l197 203q10 10 19.5 14.5t25.5 4.5h66q16 0 25 -4.5t20 -14.5l196 -203q23 -18 -2 -34l-29 -21q-14 -10 -24 -8t-21 10l-180 125q-14 14 -31 0l-186 -125q-12 -8 -21.5 -10t-23.5 8l-29 21q-25 16 -2 34zM117 18v1266q0 20 18 21h127q18 0 19 -21v-432 q0 -16 10 -19.5t20 7.5q45 33 99.5 50t111.5 17q154 0 236 -93t82 -247v-547q0 -20 -19 -20h-127q-18 0 -18 18v547q0 88 -46 144.5t-151 56.5q-90 0 -143 -56.5t-53 -142.5v-547q0 -20 -21 -20h-125q-20 0 -20 18z" />
<glyph unicode="&#x126;" horiz-adv-x="1103" d="M39 1022v59q0 25 22 25h60q10 0 17 6t7 16v113q0 23 23 23h125q25 0 24 -21v-110q0 -27 21 -27h428q20 0 20 27v108q0 23 23 23h121q29 0 28 -21v-115q0 -10 7.5 -16t17.5 -6h59q23 0 23 -25v-59q0 -25 -25 -25h-55q-27 0 -27 -24v-948q0 -25 -24 -25h-123q-25 0 -25 23 v538q0 18 -16 19h-436q-16 0 -17 -19v-536q0 -25 -22 -25h-125q-25 0 -25 23v950q0 25 -26 24h-56q-25 0 -24 25zM317 745q0 -18 17 -18h436q16 0 16 18v228q0 25 -16 24h-436q-16 0 -17 -24v-228z" />
<glyph unicode="&#x127;" horiz-adv-x="974" d="M31 1030v66q0 20 18 20h60q10 0 19 7t9 20v100q0 20 19 21h127q18 0 18 -21v-96q0 -31 25 -31h350q20 0 20 -18v-68q0 -20 -18 -20h-356q-20 0 -21 -29v-129q0 -16 10.5 -19.5t20.5 7.5q45 33 99 50t112 17q154 0 235.5 -93t81.5 -247v-547q0 -20 -18 -20h-127 q-18 0 -19 18v547q0 88 -46 144.5t-150 56.5q-90 0 -143.5 -56.5t-53.5 -142.5v-547q0 -20 -20 -20h-125q-20 0 -21 18v963q0 29 -31 29h-55q-20 0 -20 20z" />
<glyph unicode="&#x128;" horiz-adv-x="493" d="M-47 1437.5q2 10.5 6 18.5q27 51 68 90t92 39q31 0 60.5 -12t57 -25.5t54 -26t49.5 -12.5t41 21.5t33 46.5q4 6 8 10t14 -2l66 -31q18 -5 6 -34q-33 -70 -77 -99.5t-83 -29.5q-33 0 -62.5 11t-56 24.5t-52 24.5t-52.5 11q-16 0 -37.5 -19.5t-36.5 -43.5q-12 -20 -35 -8 l-55 32q-10 4 -8 14.5zM156 23v1218q0 23 24 23h127q25 0 25 -21v-1218q0 -25 -25 -25h-127q-25 0 -24 23z" />
<glyph unicode="&#x129;" horiz-adv-x="536" d="M-10 1089.5q2 10.5 6 18.5q27 51 67.5 90t92.5 39q31 0 60.5 -12.5t57 -25.5t54 -25.5t49.5 -12.5t41 21.5t33 46.5q4 6 8 10t14 -2l66 -31q18 -6 6 -35q-33 -70 -77 -99.5t-83 -29.5q-33 0 -62.5 11.5t-56 25t-52.5 24.5t-52 11q-16 0 -38 -19.5t-36 -43.5 q-12 -20 -35 -9l-55 33q-10 4 -8 14.5zM186 18v859q0 20 19 20h127q20 0 20 -20v-859q0 -18 -18 -18h-127q-20 0 -21 18z" />
<glyph unicode="&#x12a;" horiz-adv-x="493" d="M-2 1399v84q0 20 18 20h437q20 0 20 -18v-86q0 -20 -18 -21h-437q-20 0 -20 21zM156 23v1218q0 23 24 23h127q25 0 25 -21v-1218q0 -25 -25 -25h-127q-25 0 -24 23z" />
<glyph unicode="&#x12b;" horiz-adv-x="479" d="M2 1075v84q0 20 18 21h437q20 0 20 -19v-86q0 -20 -18 -20h-436q-20 0 -21 20zM162 18v859q0 20 18 20h127q20 0 21 -20v-859q0 -18 -19 -18h-127q-20 0 -20 18z" />
<glyph unicode="&#x12c;" horiz-adv-x="555" d="M33 1571q0 10 4 16t20 6h43q16 0 20.5 -6t8.5 -20q18 -59 50 -90t91 -31q111 0 142 121q4 14 7 20t21 6h43q16 0 20.5 -6t4.5 -16q-2 -51 -20.5 -97.5t-49 -80t-73.5 -53t-97 -19.5q-49 0 -91 19.5t-73.5 53t-50 80t-20.5 97.5zM188 23v1218q0 23 25 23h127q25 0 25 -21 v-1218q0 -25 -25 -25h-127q-25 0 -25 23z" />
<glyph unicode="&#x12d;" horiz-adv-x="473" d="M-4 1270q0 10 4 16t20 6h43q16 0 20.5 -6t8.5 -20q18 -59 50 -90t91 -31q111 0 142 121q4 14 7 20t21 6h43q16 0 20.5 -6t4.5 -16q-2 -51 -20.5 -97.5t-49 -80t-73.5 -53t-97 -19.5q-49 0 -91 19.5t-73.5 53t-50 80t-20.5 97.5zM150 18v859q0 20 18 20h127q20 0 20 -20 v-859q0 -18 -18 -18h-127q-20 0 -20 18z" />
<glyph unicode="&#x12e;" horiz-adv-x="493" d="M47 -233q0 59 33 126.5t80 112.5q-4 8 -4 17v1218q0 23 24 23h127q25 0 25 -21v-1218q0 -25 -25 -25h-45q-41 -45 -66.5 -104.5t-25.5 -112.5q0 -27 13.5 -45.5t54.5 -18.5q29 0 60.5 15.5t61.5 32.5q12 6 19 -3l33 -45q4 -4 4 -8q0 -6 -6 -12q-31 -29 -87.5 -55.5 t-113.5 -26.5q-92 0 -127 43t-35 107z" />
<glyph unicode="&#x12f;" horiz-adv-x="415" d="M20 -233q0 57 32 123.5t79 113.5q-6 2 -6 14v859q0 20 18 20h127q20 0 21 -20v-859q0 -18 -19 -18h-36q-41 -45 -67 -104.5t-26 -112.5q0 -27 13.5 -45.5t54.5 -18.5q29 0 60.5 15.5t62.5 32.5q12 6 18 -3l33 -45q4 -4 4 -8q0 -6 -6 -12q-31 -29 -87 -55.5t-114 -26.5 q-92 0 -127 43t-35 107zM109 1180q0 41 29.5 70.5t70.5 29.5q45 0 75.5 -28.5t30.5 -71.5q0 -41 -30.5 -72t-73.5 -31t-72.5 29t-29.5 74z" />
<glyph unicode="&#x130;" horiz-adv-x="493" d="M150 1479q0 41 27.5 68.5t68.5 27.5t68.5 -27.5t27.5 -66.5q0 -41 -27.5 -69t-66.5 -28q-41 0 -69.5 27t-28.5 68zM156 23v1218q0 23 24 23h127q25 0 25 -21v-1218q0 -25 -25 -25h-127q-25 0 -24 23z" />
<glyph unicode="&#x131;" horiz-adv-x="415" d="M125 18v859q0 20 18 20h127q20 0 21 -20v-859q0 -18 -19 -18h-127q-20 0 -20 18z" />
<glyph unicode="&#x132;" horiz-adv-x="944" d="M133 23v1218q0 23 25 23h127q25 0 24 -21v-1218q0 -25 -24 -25h-127q-25 0 -25 23zM368 -102.5q1 10.5 23 18.5q55 23 102.5 47.5t80 61t51 90t18.5 135.5v987q0 27 31 27h106q31 0 31 -27v-971q0 -96 -17.5 -176t-60.5 -143.5t-114.5 -109.5t-180.5 -77 q-16 -4 -25.5 1.5t-15.5 27.5l-26 82q-4 16 -3 26.5z" />
<glyph unicode="&#x133;" horiz-adv-x="817" d="M109 1180q0 41 29.5 70.5t70.5 29.5q45 0 75.5 -28.5t30.5 -71.5q0 -41 -30.5 -72t-73.5 -31t-72.5 29t-29.5 74zM125 18v859q0 20 18 20h127q20 0 21 -20v-859q0 -18 -19 -18h-127q-20 0 -20 18zM324 -336l18 100q4 20 35 15q14 -2 26.5 -3t22.5 -1q55 2 76.5 34.5 t21.5 92.5v977q0 18 21 18h123q10 0 14 -6t4 -12v-996q0 -53 -13.5 -100t-41 -83t-73.5 -56.5t-109 -20.5q-70 0 -103 8q-14 4 -20.5 10.5t-1.5 22.5zM502 1180q0 41 29.5 70.5t70.5 29.5q45 0 76 -28.5t31 -71.5q0 -41 -31 -72t-74 -31t-72.5 29t-29.5 74z" />
<glyph unicode="&#x134;" horiz-adv-x="550" d="M-23.5 -100.5q0.5 10.5 23.5 18.5q55 23 102.5 47.5t80 61t51 90t18.5 135.5v987q0 27 31 27h106q31 0 31 -27v-971q0 -96 -17.5 -176t-60.5 -143.5t-114.5 -109.5t-180.5 -77q-16 -4 -25.5 1.5t-15.5 27.5l-26 82q-4 16 -3.5 26.5zM53 1386l197 203q10 10 19.5 14.5 t25.5 4.5h65q16 0 25.5 -4.5t20.5 -14.5l196 -203q23 -18 -2 -34l-29 -21q-14 -10 -24 -8t-21 10l-180 125q-14 14 -31 0l-186 -125q-12 -8 -21.5 -10t-23.5 8l-29 21q-25 16 -2 34z" />
<glyph unicode="&#x135;" horiz-adv-x="518" d="M-38 1055.5q1 11.5 11 21.5l197 240q10 10 19.5 16t25.5 6h66q16 0 25 -6t20 -16l196 -240q10 -10 11.5 -21.5t-13.5 -21.5l-28 -24q-14 -12 -23.5 -9t-22.5 13l-186 164q-16 16 -31 2l-180 -166q-10 -10 -20.5 -13.5t-24.5 9.5l-29 24q-14 10 -13 21.5zM-33 -336l19 100 q4 20 34 15q14 -2 26.5 -3t23.5 -1q55 2 76.5 34.5t21.5 92.5v977q0 18 20 18h123q10 0 14.5 -6t4.5 -12v-996q0 -53 -13.5 -100t-41 -83t-73.5 -56.5t-110 -20.5q-70 0 -102 8q-14 4 -20.5 10.5t-2.5 22.5z" />
<glyph unicode="&#x136;" horiz-adv-x="1021" d="M129 18v1225q0 20 23 21h133q18 0 18 -19v-508q0 -18 8 -16t15 8l424 520q12 14 28 15h133q20 0 24.5 -9.5t-3.5 -19.5l-379 -465q-8 -10 -4 -15t14 -5q16 0 29.5 1t28.5 -1q141 -10 209.5 -98.5t78.5 -239.5l31 -392q0 -20 -20 -20h-119q-23 0 -23 18l-24 369 q-2 33 -10.5 74t-31 75.5t-63.5 58t-110 23.5q-117 0 -176.5 -67.5t-59.5 -175.5v-355q0 -20 -18 -20h-133q-23 0 -23 18zM371 -393l20 321q4 33 31 33h127q39 0 26 -41l-96 -323q-10 -25 -30 -25h-56q-14 0 -19 11t-3 24z" />
<glyph unicode="&#x137;" horiz-adv-x="894" d="M117 18v1266q0 20 18 21h127q18 0 19 -19v-725q0 -23 10 -27t20 7l318 346q10 10 28 10h152q23 0 22 -18q0 -4 -3 -9.5t-7 -9.5l-270 -291q-12 -14 8 -20q14 -2 27.5 -3t25.5 -5q125 -29 173.5 -115t54.5 -205l8 -186q0 -35 -29 -35h-108q-29 0 -29 29l-10 190 q-2 39 -11.5 75t-31 63.5t-58 43t-92.5 15.5q-96 0 -146 -57.5t-50 -137.5v-201q0 -20 -21 -20h-125q-20 0 -20 18zM356 -434l21 321q4 33 31 33h127q39 0 26 -41l-96 -323q-10 -25 -31 -25h-55q-14 0 -19.5 11.5t-3.5 23.5z" />
<glyph unicode="&#x138;" horiz-adv-x="903" d="M117 18v863q0 20 18 20h127q18 0 19 -18v-322q0 -23 10 -27t20 7l318 346q10 10 28 10h152q23 0 22 -18q0 -4 -3 -9.5t-7 -9.5l-270 -291q-12 -14 8 -20q20 -2 37.5 -4t34.5 -6q57 -14 96 -44t62.5 -72t35 -93t15.5 -109l8 -186q0 -35 -29 -35h-108q-29 0 -29 29l-10 190 q-2 39 -11.5 75t-31 63.5t-58 43t-92.5 15.5q-96 0 -146 -57.5t-50 -137.5v-201q0 -20 -21 -20h-125q-20 0 -20 18z" />
<glyph unicode="&#x139;" horiz-adv-x="872" d="M135 23v1218q0 23 23 23h125q23 0 22 -21v-1075q0 -18 17 -18h487q25 0 25 -23v-102q0 -25 -23 -25h-651q-25 0 -25 23zM160 1368q-16 20 6 37l237 188q10 8 22.5 10.5t23.5 -8.5l61 -90q12 -16 6 -26.5t-16 -14.5l-271 -141q-10 -4 -22 -3t-21 11z" />
<glyph unicode="&#x13a;" horiz-adv-x="452" d="M129 256v1028q0 20 18 21h125q20 0 21 -19v-1032q0 -72 20.5 -92.5t69.5 -20.5h27q14 0 16 -10t2 -20v-97q0 -23 -20 -26q-12 -4 -30 -4h-28q-70 0 -112.5 17t-67.5 51t-33 85t-8 119zM160 1442q-16 20 6 37l237 188q10 8 22.5 10t23.5 -8l61 -90q12 -16 6 -26.5 t-16 -14.5l-271 -141q-10 -4 -22 -3t-21 11z" />
<glyph unicode="&#x13b;" horiz-adv-x="872" d="M135 23v1218q0 23 23 23h125q23 0 22 -21v-1075q0 -18 17 -18h487q25 0 25 -23v-102q0 -25 -23 -25h-651q-25 0 -25 23zM330 -434l20 321q4 33 31 33h127q39 0 27 -41l-97 -323q-10 -25 -30 -25h-56q-14 0 -19 11.5t-3 23.5z" />
<glyph unicode="&#x13c;" horiz-adv-x="452" d="M129 256v1028q0 20 18 21h125q20 0 21 -19v-1032q0 -72 20.5 -92.5t69.5 -20.5h27q14 0 16 -10t2 -20v-97q0 -23 -20 -26q-12 -4 -30 -4h-28q-70 0 -112.5 17t-67.5 51t-33 85t-8 119zM139 -434l21 321q4 33 30 33h127q39 0 27 -41l-96 -323q-10 -25 -31 -25h-55 q-14 0 -19.5 11.5t-3.5 23.5z" />
<glyph unicode="&#x13d;" horiz-adv-x="872" d="M135 23v1218q0 23 23 23h125q23 0 22 -21v-1075q0 -18 17 -18h487q25 0 25 -23v-102q0 -25 -23 -25h-651q-25 0 -25 23zM489 909l21 322q4 33 31 33h127q39 0 26 -41l-96 -324q-10 -25 -31 -25h-55q-14 0 -19.5 11.5t-3.5 23.5z" />
<glyph unicode="&#x13e;" horiz-adv-x="671" d="M129 256v1028q0 20 18 21h125q20 0 21 -19v-1032q0 -72 20.5 -92.5t69.5 -20.5h27q14 0 16 -10t2 -20v-97q0 -23 -20 -26q-12 -4 -30 -4h-28q-70 0 -112.5 17t-67.5 51t-33 85t-8 119zM451 936l20 321q4 33 31 33h127q39 0 26 -41l-96 -323q-10 -25 -31 -25h-55 q-14 0 -19 11.5t-3 23.5z" />
<glyph unicode="&#x13f;" horiz-adv-x="872" d="M135 23v1218q0 23 23 23h125q23 0 22 -21v-1075q0 -18 17 -18h487q25 0 25 -23v-102q0 -25 -23 -25h-651q-25 0 -25 23zM479 618q0 41 28 69t68 28q41 0 69 -27.5t28 -66.5q0 -41 -28 -69t-66 -28q-41 0 -70 27t-29 67z" />
<glyph unicode="&#x140;" horiz-adv-x="608" d="M129 256v1028q0 20 18 21h125q20 0 21 -19v-1032q0 -72 20.5 -92.5t69.5 -20.5h27q14 0 16 -10t2 -20v-97q0 -23 -20 -26q-12 -4 -30 -4h-28q-70 0 -112.5 17t-67.5 51t-33 85t-8 119zM397 700q0 41 28 69t69 28t68.5 -28t27.5 -67q0 -41 -27.5 -68.5t-66.5 -27.5 q-41 0 -70 26.5t-29 67.5z" />
<glyph unicode="&#x141;" horiz-adv-x="892" d="M12 436q-12 16 6 29l152 86q16 12 16 29v661q0 23 23 23h123q25 0 24 -21v-569q0 -8 9 -6l172 102q8 4 16 2t12 -10l41 -70q6 -10 3 -17t-9 -11l-229 -134q-14 -8 -15 -28v-334q0 -18 17 -18h487q25 0 25 -23v-102q0 -25 -23 -25h-651q-25 0 -25 23v385q0 12 -14 4 l-90 -54q-18 -12 -29 9z" />
<glyph unicode="&#x142;" horiz-adv-x="595" d="M6 483q-8 14 4 23l178 104q10 6 13.5 11.5t3.5 19.5v643q0 20 18 21h123q20 0 21 -19v-547q0 -23 14 -14l147 88q16 8 23 -6l41 -70q10 -16 -4 -22l-201 -119q-14 -8 -17 -16.5t-3 -24.5l2 -301q0 -72 20.5 -92.5t69.5 -20.5h26q14 0 16.5 -10t2.5 -20v-97q0 -23 -21 -26 q-12 -4 -29.5 -4h-27.5q-70 0 -113 17t-67.5 51t-32.5 85t-8 119v205q0 8 -2 16t-17 0l-116 -69q-16 -10 -23 6z" />
<glyph unicode="&#x143;" horiz-adv-x="1062" d="M125 23v1189q0 27 7 39.5t36 12.5h74q25 0 35 -9.5t20 -23.5l477 -879q2 -4 4 -5t2 3v891q0 23 23 23h115q25 0 24 -21v-1202q0 -27 -13.5 -34t-25.5 -7h-78q-23 0 -34 7t-19 24l-477 876q-6 6 -6 0v-882q0 -25 -23 -25h-116q-25 0 -25 23zM473 1368q-16 20 6 37l238 188 q10 8 22.5 10.5t22.5 -8.5l61 -90q12 -16 6 -26.5t-16 -14.5l-270 -141q-10 -4 -22.5 -3t-20.5 11z" />
<glyph unicode="&#x144;" horiz-adv-x="946" d="M113 18v859q0 20 18 20h119q18 0 18 -18v-31q0 -18 15 -19q4 0 16 9q86 72 205 71q154 0 243 -93t89 -249v-547q0 -20 -19 -20h-127q-18 0 -18 18v547q0 88 -49.5 145.5t-147.5 57.5q-90 0 -143 -56.5t-53 -144.5v-547q0 -20 -21 -20h-125q-20 0 -20 18zM381 1057 l154 260q6 10 15 19.5t25 -1.5l91 -59q16 -12 14 -24.5t-8 -20.5l-203 -227q-6 -8 -18.5 -12.5t-24.5 3.5l-39 25q-18 14 -6 37z" />
<glyph unicode="&#x145;" horiz-adv-x="1062" d="M125 23v1189q0 27 7 39.5t36 12.5h74q25 0 35 -9.5t20 -23.5l477 -879q2 -4 4 -5t2 3v891q0 23 23 23h115q25 0 24 -21v-1202q0 -27 -13.5 -34t-25.5 -7h-78q-23 0 -34 7t-19 24l-477 876q-6 6 -6 0v-882q0 -25 -23 -25h-116q-25 0 -25 23zM410 -393l20 321q4 33 31 33 h127q39 0 26 -41l-96 -323q-10 -25 -31 -25h-55q-14 0 -19 11t-3 24z" />
<glyph unicode="&#x146;" horiz-adv-x="946" d="M113 18v859q0 20 18 20h119q18 0 18 -18v-31q0 -18 15 -19q4 0 16 9q86 72 205 71q154 0 243 -93t89 -249v-547q0 -20 -19 -20h-127q-18 0 -18 18v547q0 88 -49.5 145.5t-147.5 57.5q-90 0 -143 -56.5t-53 -144.5v-547q0 -20 -21 -20h-125q-20 0 -20 18zM356 -434l21 321 q4 33 31 33h127q39 0 26 -41l-96 -323q-10 -25 -31 -25h-55q-14 0 -19.5 11.5t-3.5 23.5z" />
<glyph unicode="&#x147;" horiz-adv-x="1062" d="M125 23v1189q0 27 7 39.5t36 12.5h74q25 0 35 -9.5t20 -23.5l477 -879q2 -4 4 -5t2 3v891q0 23 23 23h115q25 0 24 -21v-1202q0 -27 -13.5 -34t-25.5 -7h-78q-23 0 -34 7t-19 24l-477 876q-6 6 -6 0v-882q0 -25 -23 -25h-116q-25 0 -25 23zM270 1540q-23 18 2 35l29 20 q14 10 23.5 8.5t21.5 -10.5l186 -125q16 -14 31 0l180 125q10 8 20.5 10.5t24.5 -8.5l29 -20q25 -16 2 -35l-196 -203q-10 -10 -19.5 -14t-25.5 -4h-66q-16 0 -25.5 4t-19.5 14z" />
<glyph unicode="&#x148;" horiz-adv-x="946" d="M113 18v859q0 20 18 20h119q18 0 18 -18v-31q0 -18 15 -19q4 0 16 9q86 72 205 71q154 0 243 -93t89 -249v-547q0 -20 -19 -20h-127q-18 0 -18 18v547q0 88 -49.5 145.5t-147.5 57.5q-90 0 -143 -56.5t-53 -144.5v-547q0 -20 -21 -20h-125q-20 0 -20 18zM155 1272.5 q-1 11.5 13 21.5l29 25q14 12 24 9t21 -13l180 -166q14 -14 31 2l186 164q12 10 21.5 13t23.5 -9l29 -25q14 -10 13 -21t-11 -22l-197 -239q-10 -10 -19.5 -16.5t-25.5 -6.5h-65q-16 0 -25.5 6t-20.5 17l-196 239q-10 10 -11 21.5z" />
<glyph unicode="&#x149;" horiz-adv-x="1067" d="M39 915l20 322q4 33 31 33h127q39 0 27 -41l-97 -324q-10 -25 -30 -24h-56q-14 0 -19 11t-3 23zM233 18v859q0 20 19 20h119q18 0 18 -18v-31q0 -18 14 -19q4 0 17 9q86 72 205 71q154 0 242.5 -93t88.5 -249v-547q0 -20 -18 -20h-127q-18 0 -18 18v547q0 88 -49.5 145.5 t-147.5 57.5q-90 0 -143.5 -56.5t-53.5 -144.5v-547q0 -20 -20 -20h-125q-20 0 -21 18z" />
<glyph unicode="&#x14a;" horiz-adv-x="1062" d="M125 23v1218q0 23 22 23h95q25 0 35 -9.5t20 -23.5l477 -871q2 -4 4 -5t2 3v883q0 23 23 23h115q25 0 24 -21v-1362q0 -49 -12 -93t-42 -77t-78 -51t-122 -18q-18 0 -54 4t-59 14q-16 6 -16 15.5t2 19.5l12 72q4 14 10.5 18t24.5 2q16 -2 40 -3t34 -1q59 0 80.5 27.5 t21.5 87.5v106q0 27 -12 49l-477 846q-6 6 -6 0v-874q0 -25 -23 -25h-116q-25 0 -25 23z" />
<glyph unicode="&#x14b;" horiz-adv-x="946" d="M113 18v859q0 20 18 20h119q18 0 18 -18v-31q0 -18 15 -19q4 0 16 9q45 37 98.5 54t112.5 17q154 0 240 -93t86 -249v-690q0 -49 -12.5 -93t-42 -76t-78 -50t-119.5 -18q-20 0 -54 4t-57 14q-18 8 -12 31l12 73q4 16 11.5 19.5t19.5 1.5q16 -2 31.5 -3t27.5 -1 q66 0 87.5 26.5t21.5 88.5v671q0 88 -46 145.5t-151 57.5q-90 0 -143 -56.5t-53 -144.5v-547q0 -20 -21 -20h-125q-20 0 -20 18z" />
<glyph unicode="&#x14c;" horiz-adv-x="1017" d="M119 338v594q0 82 30.5 146.5t83 109.5t123 68.5t152.5 23.5q80 0 150.5 -22.5t125 -66.5t85 -109.5t30.5 -149.5v-594q0 -84 -29.5 -148.5t-82 -109.5t-123 -68.5t-154.5 -23.5t-154.5 22.5t-124 66.5t-83 109.5t-29.5 151.5zM254 1399v84q0 20 18 20h437q20 0 20 -18 v-86q0 -20 -18 -21h-437q-20 0 -20 21zM291 342q0 -92 56 -148.5t161 -56.5q102 0 160.5 56.5t58.5 148.5v586q0 88 -59.5 145t-157.5 57q-100 0 -159.5 -58t-59.5 -144v-586z" />
<glyph unicode="&#x14d;" horiz-adv-x="917" d="M98 332v235q0 158 92.5 251t266.5 93t268 -90t94 -254v-233q0 -166 -97 -256t-263 -90q-170 0 -265.5 89t-95.5 255zM217 1075v84q0 20 19 21h436q20 0 20 -19v-86q0 -20 -18 -20h-436q-20 0 -21 20zM262 332q0 -88 45 -145.5t150 -57.5q104 0 150 56.5t48 146.5v235 q0 88 -48 144.5t-148 56.5q-90 0 -143.5 -55.5t-53.5 -145.5v-235z" />
<glyph unicode="&#x14e;" horiz-adv-x="1017" d="M119 338v594q0 82 30.5 146.5t83 109.5t123 68.5t152.5 23.5q80 0 150.5 -22.5t125 -66.5t85 -109.5t30.5 -149.5v-594q0 -84 -29.5 -148.5t-82 -109.5t-123 -68.5t-154.5 -23.5t-154.5 22.5t-124 66.5t-83 109.5t-29.5 151.5zM272 1571q0 10 4.5 16t20.5 6h43 q16 0 20.5 -6t8.5 -20q18 -59 50 -90t91 -31q111 0 141 121q4 14 7.5 20t21.5 6h43q16 0 20.5 -6t4.5 -16q-2 -51 -20.5 -97.5t-49.5 -80t-74 -53t-96 -19.5q-49 0 -91 19.5t-74 53t-50.5 80t-20.5 97.5zM291 342q0 -92 56 -148.5t161 -56.5q102 0 160.5 56.5t58.5 148.5 v586q0 88 -59.5 145t-157.5 57q-100 0 -159.5 -58t-59.5 -144v-586z" />
<glyph unicode="&#x14f;" horiz-adv-x="917" d="M98 332v235q0 158 92.5 251t266.5 93t268 -90t94 -254v-233q0 -166 -97 -256t-263 -90q-170 0 -265.5 89t-95.5 255zM229 1257q0 10 4.5 16.5t20.5 6.5h43q16 0 20.5 -6t8.5 -21q18 -59 50 -89.5t91 -30.5q111 0 141 120q4 14 7 20.5t22 6.5h43q16 0 20.5 -6t4.5 -17 q-2 -51 -20.5 -97t-49.5 -79.5t-74 -53t-96 -19.5q-49 0 -91 19.5t-74 53t-50.5 79.5t-20.5 97zM262 332q0 -88 45 -145.5t150 -57.5q104 0 150 56.5t48 146.5v235q0 88 -48 144.5t-148 56.5q-90 0 -143.5 -55.5t-53.5 -145.5v-235z" />
<glyph unicode="&#x150;" horiz-adv-x="1017" d="M119 338v594q0 82 30.5 146.5t83 109.5t123 68.5t152.5 23.5q80 0 150.5 -22.5t125 -66.5t85 -109.5t30.5 -149.5v-594q0 -84 -29.5 -148.5t-82 -109.5t-123 -68.5t-154.5 -23.5t-154.5 22.5t-124 66.5t-83 109.5t-29.5 151.5zM248 1358q-16 20 6 37l238 188q10 8 22 10 t23 -8l61 -90q12 -16 6 -26.5t-16 -14.5l-271 -141q-10 -4 -22 -3t-21 11zM291 342q0 -92 56 -148.5t161 -56.5q102 0 160.5 56.5t58.5 148.5v586q0 88 -59.5 145t-157.5 57q-100 0 -159.5 -58t-59.5 -144v-586zM559 1358q-16 20 6 37l238 188q10 8 22.5 10t22.5 -8l61 -90 q12 -16 6 -26.5t-16 -14.5l-270 -141q-10 -4 -22.5 -3t-20.5 11z" />
<glyph unicode="&#x151;" horiz-adv-x="917" d="M98 332v235q0 158 92.5 251t266.5 93t268 -90t94 -254v-233q0 -166 -97 -256t-263 -90q-170 0 -265.5 89t-95.5 255zM262 332q0 -88 45 -145.5t150 -57.5q104 0 150 56.5t48 146.5v235q0 88 -48 144.5t-148 56.5q-90 0 -143.5 -55.5t-53.5 -145.5v-235zM281 1057l155 260 q6 10 17.5 18t23.5 0l90 -59q16 -12 14.5 -24.5t-10.5 -20.5l-200 -227q-8 -8 -20.5 -12.5t-22.5 3.5l-39 25q-23 14 -8 37zM526 1057l156 260q6 10 17.5 18t23.5 0l90 -59q16 -12 14 -24.5t-10 -20.5l-201 -227q-8 -8 -20 -12.5t-23 3.5l-38 25q-23 14 -9 37z" />
<glyph unicode="&#x152;" horiz-adv-x="1376" d="M113 338v594q0 82 29.5 146.5t81.5 109.5t124 68.5t154 23.5q63 0 129 -16h649q27 0 27 -23v-100q0 -25 -25 -25h-496q-18 0 -18 -16v-361q0 -16 16 -16h412q25 0 25 -25v-102q0 -23 -23 -23h-412q-18 0 -18 -18v-387q0 -18 16 -18h504q25 0 25 -23v-102q0 -25 -25 -25 h-672q-25 -6 -54.5 -9t-57.5 -3q-84 0 -156 22.5t-124 66.5t-81.5 109.5t-29.5 151.5zM283 342q0 -92 57.5 -148.5t161.5 -56.5q23 0 47 5t47 14v958q-45 16 -92 16q-100 0 -160.5 -58t-60.5 -144v-586z" />
<glyph unicode="&#x153;" horiz-adv-x="1452" d="M90 332v235q0 166 98.5 255t260.5 89q164 0 260 -90q23 -18 31 -16t28 18q98 88 244 88q80 0 146.5 -25.5t113.5 -72.5t73.5 -112.5t26.5 -143.5v-96q0 -23 -12 -36t-29 -13h-477q-16 0 -26.5 -7.5t-10.5 -23.5v-64q0 -78 55.5 -132t141.5 -54q104 0 172 86 q14 16 24.5 29.5t32.5 -2.5l82 -51q23 -14 14 -33q-16 -27 -32.5 -47.5t-36.5 -36.5q-51 -47 -118 -67.5t-134 -20.5q-80 0 -144.5 21.5t-111.5 62.5q-23 18 -30 17t-27 -17q-47 -41 -112 -62.5t-142 -21.5q-166 0 -263.5 89t-97.5 255zM254 332q0 -88 52 -145.5t143 -57.5 q90 0 143 56.5t53 146.5v235q0 88 -52 144.5t-142 56.5t-143.5 -55.5t-53.5 -145.5v-235zM821 582q0 -18 5 -28.5t26 -10.5h334q20 0 20 22v19q0 78 -53 132t-139 54t-139.5 -55.5t-53.5 -132.5z" />
<glyph unicode="&#x154;" horiz-adv-x="989" d="M131 23v1218q0 23 25 23h360q193 0 286 -96.5t93 -258.5q0 -53 -16.5 -104t-44 -97t-61.5 -84t-66 -67q-10 -6 -7 -14q2 -4 7.5 -15.5t28 -59.5t68.5 -146.5t130 -276.5q12 -27 1 -36t-24 -9h-106q-33 0 -44 10t-22 31l-209 461q-4 8 -10 13t-20 5h-181q-16 0 -16 -18 v-477q0 -25 -24 -25h-123q-25 0 -25 23zM301 684q0 -18 16 -18h250q10 0 18.5 3t14.5 7q55 39 88 102.5t33 112.5q0 39 -9.5 80t-35 72.5t-69.5 52t-113 20.5h-175q-18 0 -18 -16v-416zM371 1368q-16 20 6 37l237 188q10 8 22.5 10.5t22.5 -8.5l62 -90q12 -16 6 -26.5 t-16 -14.5l-271 -141q-10 -4 -22 -3t-21 11z" />
<glyph unicode="&#x155;" horiz-adv-x="595" d="M121 18v859q0 20 18 20h107q20 0 20 -18v-97q0 -10 7.5 -13t15.5 7q35 49 96 91t143 42q12 0 31 -1t25 -5q16 -4 19 -11t-1 -20l-24 -120q-4 -16 -11.5 -19.5t-15.5 -1.5q-31 6 -59 6q-115 0 -160 -66.5t-45 -164.5v-486q0 -20 -19 -20h-127q-20 0 -20 18zM236 1057 l153 260q6 10 15.5 19.5t25.5 -1.5l90 -59q16 -12 14 -24.5t-8 -20.5l-202 -227q-6 -8 -18.5 -12.5t-24.5 3.5l-39 25q-18 14 -6 37z" />
<glyph unicode="&#x156;" horiz-adv-x="989" d="M131 23v1218q0 23 25 23h360q193 0 286 -96.5t93 -258.5q0 -53 -16.5 -104t-44 -97t-61.5 -84t-66 -67q-10 -6 -7 -14q2 -4 7.5 -15.5t28 -59.5t68.5 -146.5t130 -276.5q12 -27 1 -36t-24 -9h-106q-33 0 -44 10t-22 31l-209 461q-4 8 -10 13t-20 5h-181q-16 0 -16 -18 v-477q0 -25 -24 -25h-123q-25 0 -25 23zM301 684q0 -18 16 -18h250q10 0 18.5 3t14.5 7q55 39 88 102.5t33 112.5q0 39 -9.5 80t-35 72.5t-69.5 52t-113 20.5h-175q-18 0 -18 -16v-416zM383 -434l20 321q4 33 31 33h127q39 0 27 -41l-96 -323q-10 -25 -31 -25h-55 q-14 0 -19.5 11.5t-3.5 23.5z" />
<glyph unicode="&#x157;" horiz-adv-x="595" d="M100 -434l21 321q4 33 31 33h127q39 0 26 -41l-96 -323q-10 -25 -31 -25h-55q-14 0 -19.5 11.5t-3.5 23.5zM121 18v859q0 20 18 20h107q20 0 20 -18v-97q0 -10 7.5 -13t15.5 7q35 49 96 91t143 42q12 0 31 -1t25 -5q16 -4 19 -11t-1 -20l-24 -120q-4 -16 -11.5 -19.5 t-15.5 -1.5q-31 6 -59 6q-115 0 -160 -66.5t-45 -164.5v-486q0 -20 -19 -20h-127q-20 0 -20 18z" />
<glyph unicode="&#x158;" horiz-adv-x="989" d="M131 23v1218q0 23 25 23h360q193 0 286 -96.5t93 -258.5q0 -53 -16.5 -104t-44 -97t-61.5 -84t-66 -67q-10 -6 -7 -14q2 -4 7.5 -15.5t28 -59.5t68.5 -146.5t130 -276.5q12 -27 1 -36t-24 -9h-106q-33 0 -44 10t-22 31l-209 461q-4 8 -10 13t-20 5h-181q-16 0 -16 -18 v-477q0 -25 -24 -25h-123q-25 0 -25 23zM162 1540q-23 18 2 35l29 20q14 10 23 8.5t22 -10.5l186 -125q16 -14 31 0l180 125q10 8 20.5 10.5t24.5 -8.5l29 -20q25 -16 2 -35l-197 -203q-10 -10 -19.5 -14t-25.5 -4h-66q-16 0 -25 4t-20 14zM301 684q0 -18 16 -18h250 q10 0 18.5 3t14.5 7q55 39 88 102.5t33 112.5q0 39 -9.5 80t-35 72.5t-69.5 52t-113 20.5h-175q-18 0 -18 -16v-416z" />
<glyph unicode="&#x159;" horiz-adv-x="595" d="M46 1272.5q-1 11.5 13 21.5l29 25q14 12 24.5 9t20.5 -13l180 -166q14 -14 31 2l186 164q12 10 21.5 13t23.5 -9l29 -25q14 -10 13 -21t-11 -22l-196 -239q-10 -10 -19.5 -16.5t-25.5 -6.5h-66q-16 0 -25.5 6t-19.5 17l-197 239q-10 10 -11 21.5zM121 18v859q0 20 18 20 h107q20 0 20 -18v-97q0 -10 7.5 -13t15.5 7q35 49 96 91t143 42q12 0 31 -1t25 -5q16 -4 19 -11t-1 -20l-24 -120q-4 -16 -11.5 -19.5t-15.5 -1.5q-31 6 -59 6q-115 0 -160 -66.5t-45 -164.5v-486q0 -20 -19 -20h-127q-20 0 -20 18z" />
<glyph unicode="&#x15a;" horiz-adv-x="927" d="M51 147q-18 20 8 41l76 70q12 10 21.5 5t23.5 -19q47 -51 110.5 -78t133.5 -27q117 0 190.5 52.5t73.5 156.5q0 51 -21.5 87t-55 60.5t-75.5 42t-83 31.5q-59 20 -125 47t-120 68t-90 101.5t-36 146.5q0 82 28.5 146.5t79 109.5t118 68.5t145.5 23.5q74 0 166 -18.5 t180 -83.5q18 -14 12 -25.5t-10 -19.5l-49 -78q-10 -14 -24.5 -12.5t-27.5 10.5q-70 41 -123 58t-106 17q-45 0 -85 -10t-69.5 -33.5t-47 -61.5t-17.5 -95q0 -41 21.5 -72t56.5 -54.5t78 -42t86 -34.5q68 -27 133 -54.5t116.5 -68.5t83 -100.5t31.5 -151.5 q0 -84 -31.5 -150.5t-89 -112.5t-137.5 -71.5t-174 -25.5q-117 0 -218.5 40t-156.5 117zM356 1382q-16 20 6 37l238 189q10 8 22.5 10t22.5 -8l62 -90q12 -16 6 -26.5t-17 -14.5l-270 -142q-10 -4 -22.5 -3t-20.5 12z" />
<glyph unicode="&#x15b;" horiz-adv-x="802" d="M70 190q-6 16 8 23l104 47q10 4 15.5 0t9.5 -10q31 -59 85 -93t124 -34q66 0 109.5 33.5t43.5 81.5q0 49 -34.5 75.5t-94.5 48.5q-47 18 -107.5 39t-113.5 52.5t-89 80t-36 121.5q0 61 25.5 108.5t68.5 79t98.5 48t116.5 16.5q86 2 164 -27.5t138 -93.5q14 -14 -7 -34 l-55 -64q-20 -23 -47 2q-41 37 -92 58.5t-103 21.5q-68 0 -107.5 -27.5t-39.5 -74.5q0 -45 34 -73t93 -50q59 -23 120.5 -45.5t112 -54t82 -79.5t31.5 -122q0 -51 -21.5 -97.5t-62.5 -81t-101.5 -55t-138.5 -20.5q-109 0 -200.5 49t-132.5 151zM322 1057l153 260 q6 10 15.5 19.5t25.5 -1.5l90 -59q16 -12 14 -24.5t-8 -20.5l-202 -227q-6 -8 -18.5 -12.5t-24.5 3.5l-39 25q-18 14 -6 37z" />
<glyph unicode="&#x15c;" horiz-adv-x="927" d="M51 147q-18 20 8 41l76 70q12 10 21.5 5t23.5 -19q47 -51 110.5 -78t133.5 -27q117 0 190.5 52.5t73.5 156.5q0 51 -21.5 87t-55 60.5t-75.5 42t-83 31.5q-59 20 -125 47t-120 68t-90 101.5t-36 146.5q0 82 28.5 146.5t79 109.5t118 68.5t145.5 23.5q74 0 166 -18.5 t180 -83.5q18 -14 12 -25.5t-10 -19.5l-49 -78q-10 -14 -24.5 -12.5t-27.5 10.5q-70 41 -123 58t-106 17q-45 0 -85 -10t-69.5 -33.5t-47 -61.5t-17.5 -95q0 -41 21.5 -72t56.5 -54.5t78 -42t86 -34.5q68 -27 133 -54.5t116.5 -68.5t83 -100.5t31.5 -151.5 q0 -84 -31.5 -150.5t-89 -112.5t-137.5 -71.5t-174 -25.5q-117 0 -218.5 40t-156.5 117zM174 1382l197 203q10 10 19 14.5t26 4.5h65q16 0 25.5 -4.5t19.5 -14.5l197 -203q23 -18 -2 -34l-29 -21q-14 -10 -24.5 -8t-20.5 10l-180 125q-14 14 -31 0l-186 -125 q-12 -8 -21.5 -10t-23.5 8l-29 21q-25 16 -2 34z" />
<glyph unicode="&#x15d;" horiz-adv-x="802" d="M70 190q-6 16 8 23l104 47q10 4 15.5 0t9.5 -10q31 -59 85 -93t124 -34q66 0 109.5 33.5t43.5 81.5q0 49 -34.5 75.5t-94.5 48.5q-47 18 -107.5 39t-113.5 52.5t-89 80t-36 121.5q0 61 25.5 108.5t68.5 79t98.5 48t116.5 16.5q86 2 164 -27.5t138 -93.5q14 -14 -7 -34 l-55 -64q-20 -23 -47 2q-41 37 -92 58.5t-103 21.5q-68 0 -107.5 -27.5t-39.5 -74.5q0 -45 34 -73t93 -50q59 -23 120.5 -45.5t112 -54t82 -79.5t31.5 -122q0 -51 -21.5 -97.5t-62.5 -81t-101.5 -55t-138.5 -20.5q-109 0 -200.5 49t-132.5 151zM120 1055.5q1 11.5 11 21.5 l197 240q10 10 19 16t26 6h65q16 0 25.5 -6t19.5 -16l197 -240q10 -10 11 -21.5t-13 -21.5l-29 -24q-14 -12 -23.5 -9t-21.5 13l-186 164q-16 16 -31 2l-180 -166q-10 -10 -20.5 -13.5t-24.5 9.5l-29 24q-14 10 -13 21.5z" />
<glyph unicode="&#x15e;" horiz-adv-x="927" d="M51 147q-18 20 8 41l76 70q12 10 21.5 5t23.5 -19q47 -51 110.5 -78t133.5 -27q117 0 190.5 52.5t73.5 156.5q0 51 -21.5 87t-55 60.5t-75.5 42t-83 31.5q-59 20 -125 47t-120 68t-90 101.5t-36 146.5q0 82 28.5 146.5t79 109.5t118 68.5t145.5 23.5q74 0 166 -18.5 t180 -83.5q18 -14 12 -25.5t-10 -19.5l-49 -78q-10 -14 -24.5 -12.5t-27.5 10.5q-70 41 -123 58t-106 17q-45 0 -85 -10t-69.5 -33.5t-47 -61.5t-17.5 -95q0 -41 21.5 -72t56.5 -54.5t78 -42t86 -34.5q68 -27 133 -54.5t116.5 -68.5t83 -100.5t31.5 -151.5 q0 -154 -102.5 -248t-268.5 -108l-18 -74q-8 -23 14 -22h23q72 0 114 -42t42 -114q0 -59 -50.5 -108.5t-138.5 -49.5q-53 0 -90 11.5t-72 33.5q-16 12 -2 31l33 43q12 12 25 6q23 -12 46 -22.5t56 -10.5q41 0 63.5 17.5t22.5 46.5q0 8 -2 19.5t-10 21.5t-23.5 18t-42.5 8 h-55q-39 0 -53.5 23t-6.5 53q8 35 14.5 59.5t14.5 49.5q-109 4 -199 44t-141 111z" />
<glyph unicode="&#x15f;" horiz-adv-x="802" d="M70 190q-6 16 8 23l104 47q10 4 15.5 0t9.5 -10q31 -59 85 -93t124 -34q66 0 109.5 33.5t43.5 81.5q0 49 -34.5 75.5t-94.5 48.5q-47 18 -107.5 39t-113.5 52.5t-89 80t-36 121.5q0 61 25.5 108.5t68.5 79t98.5 48t116.5 16.5q86 2 164 -27.5t138 -93.5q14 -14 -7 -34 l-55 -64q-20 -23 -47 2q-41 37 -92 58.5t-103 21.5q-68 0 -107.5 -27.5t-39.5 -74.5q0 -45 34 -73t93 -50q59 -23 120.5 -45.5t112 -54t82 -80t31.5 -121.5q0 -98 -77 -172t-218 -80l-18 -72q-8 -23 14 -22h23q72 0 113.5 -42t41.5 -114q0 -59 -50 -108.5t-138 -49.5 q-53 0 -90 11.5t-72 33.5q-16 12 -2 31l33 43q12 12 24 6q23 -12 46.5 -22.5t56.5 -10.5q41 0 63.5 17.5t22.5 46.5q0 8 -2 19.5t-10.5 21.5t-23.5 18t-42 8h-55q-39 0 -53.5 23t-6.5 53q8 35 15.5 60.5t13.5 50.5q-90 12 -161 61t-105 135z" />
<glyph unicode="&#x160;" horiz-adv-x="927" d="M51 147q-18 20 8 41l76 70q12 10 21.5 5t23.5 -19q47 -51 110.5 -78t133.5 -27q117 0 190.5 52.5t73.5 156.5q0 51 -21.5 87t-55 60.5t-75.5 42t-83 31.5q-59 20 -125 47t-120 68t-90 101.5t-36 146.5q0 82 28.5 146.5t79 109.5t118 68.5t145.5 23.5q74 0 166 -18.5 t180 -83.5q18 -14 12 -25.5t-10 -19.5l-49 -78q-10 -14 -24.5 -12.5t-27.5 10.5q-70 41 -123 58t-106 17q-45 0 -85 -10t-69.5 -33.5t-47 -61.5t-17.5 -95q0 -41 21.5 -72t56.5 -54.5t78 -42t86 -34.5q68 -27 133 -54.5t116.5 -68.5t83 -100.5t31.5 -151.5 q0 -84 -31.5 -150.5t-89 -112.5t-137.5 -71.5t-174 -25.5q-117 0 -218.5 40t-156.5 117zM158 1540q-23 18 2 35l28 20q14 10 23.5 8.5t21.5 -10.5l187 -125q16 -14 31 0l180 125q10 8 20.5 10.5t24.5 -8.5l29 -20q25 -16 2 -35l-197 -203q-10 -10 -19.5 -14t-25.5 -4h-66 q-16 0 -25 4t-20 14z" />
<glyph unicode="&#x161;" horiz-adv-x="802" d="M70 190q-6 16 8 23l104 47q10 4 15.5 0t9.5 -10q31 -59 85 -93t124 -34q66 0 109.5 33.5t43.5 81.5q0 49 -34.5 75.5t-94.5 48.5q-47 18 -107.5 39t-113.5 52.5t-89 80t-36 121.5q0 61 25.5 108.5t68.5 79t98.5 48t116.5 16.5q86 2 164 -27.5t138 -93.5q14 -14 -7 -34 l-55 -64q-20 -23 -47 2q-41 37 -92 58.5t-103 21.5q-68 0 -107.5 -27.5t-39.5 -74.5q0 -45 34 -73t93 -50q59 -23 120.5 -45.5t112 -54t82 -79.5t31.5 -122q0 -51 -21.5 -97.5t-62.5 -81t-101.5 -55t-138.5 -20.5q-109 0 -200.5 49t-132.5 151zM118 1272.5q-1 11.5 13 21.5 l29 25q14 12 24.5 9t20.5 -13l180 -166q14 -14 31 2l186 164q12 10 21.5 13t23.5 -9l29 -25q14 -10 13 -21t-11 -22l-197 -239q-10 -10 -19 -16.5t-26 -6.5h-65q-16 0 -25.5 6t-19.5 17l-197 239q-10 10 -11 21.5z" />
<glyph unicode="&#x162;" horiz-adv-x="854" d="M31 1139v102q0 23 24 23h744q25 0 24 -21v-104q0 -23 -24 -23h-271q-18 0 -18 -16v-1075q0 -25 -23 -25h-125q-25 0 -24 23v1075q0 18 -16 18h-267q-25 0 -24 23zM311 -434l21 321q4 33 30 33h127q39 0 27 -41l-96 -323q-10 -25 -31 -25h-55q-14 0 -19.5 11.5t-3.5 23.5z " />
<glyph unicode="&#x163;" horiz-adv-x="624" d="M35 776v101q0 20 16 20h86q25 0 25 25v172q0 16 18 22l119 29q12 4 18.5 -2t6.5 -17v-208q0 -20 20 -21h188q20 0 21 -18v-101q0 -20 -21 -20h-186q-23 0 -22 -21v-467q0 -59 20.5 -94t81.5 -35q35 0 66.5 4.5t54.5 8.5t30 -3.5t9 -19.5l16 -84q4 -16 0 -22.5t-20 -12.5 q-31 -14 -84.5 -19t-94.5 -5q-68 0 -114.5 18.5t-74.5 51t-40 77.5t-12 101v501q0 20 -23 21h-84q-20 0 -20 18zM174 -434l21 321q4 33 30 33h127q39 0 27 -41l-96 -323q-10 -25 -31 -25h-55q-14 0 -19.5 11.5t-3.5 23.5z" />
<glyph unicode="&#x164;" horiz-adv-x="854" d="M31 1139v102q0 23 24 23h744q25 0 24 -21v-104q0 -23 -24 -23h-271q-18 0 -18 -16v-1075q0 -25 -23 -25h-125q-25 0 -24 23v1075q0 18 -16 18h-267q-25 0 -24 23zM145 1540q-23 18 2 35l29 20q14 10 23.5 8.5t21.5 -10.5l187 -125q16 -14 30 0l180 125q10 8 20.5 10.5 t25.5 -8.5l28 -20q25 -16 2 -35l-196 -203q-10 -10 -19.5 -14t-25.5 -4h-66q-16 0 -25.5 4t-19.5 14z" />
<glyph unicode="&#x165;" horiz-adv-x="765" d="M76 776v101q0 20 16 20h86q25 0 25 25v172q0 16 18 22l119 29q12 4 18.5 -2t6.5 -17v-208q0 -20 20 -21h188q20 0 21 -18v-101q0 -20 -21 -20h-186q-23 0 -22 -21v-467q0 -59 20.5 -94t81.5 -35q35 0 66.5 4.5t54.5 8.5t30 -3.5t9 -19.5l16 -84q4 -16 0 -22.5t-20 -12.5 q-31 -14 -84.5 -19t-94.5 -5q-68 0 -114.5 18.5t-74.5 51t-40 77.5t-12 101v501q0 20 -23 21h-84q-20 0 -20 18zM561 1047l21 321q4 33 30 33h127q39 0 27 -41l-96 -324q-10 -25 -31 -24h-55q-14 0 -19.5 11t-3.5 24z" />
<glyph unicode="&#x166;" horiz-adv-x="827" d="M39 1139v102q0 23 24 23h701q25 0 24 -21v-104q0 -23 -24 -23h-248q-18 0 -18 -16v-328q0 -27 20 -27h184q25 0 25 -22v-61q0 -25 -22 -25h-191q-16 0 -16 -25v-587q0 -25 -23 -25h-125q-25 0 -24 23v589q0 25 -17 25h-190q-23 0 -23 25v61q0 23 25 22h184q20 0 21 27 v326q0 18 -17 18h-246q-25 0 -24 23z" />
<glyph unicode="&#x167;" horiz-adv-x="643" d="M55 489v68q0 20 17 21h106q25 0 25 24v135q0 20 -23 21h-104q-20 0 -21 18v101q0 20 17 20h106q25 0 25 25v172q0 16 18 22l119 29q12 4 18.5 -2t6.5 -17v-208q0 -20 20 -21h188q20 0 21 -18v-101q0 -20 -21 -20h-186q-23 0 -22 -21v-139q0 -20 20 -20h188q20 0 21 -19 v-67q0 -20 -21 -21h-186q-23 0 -22 -20v-181q0 -59 20.5 -94t81.5 -35q20 0 59 5.5t62 9.5t30 -3.5t9 -19.5l16 -86q4 -16 0 -22.5t-20 -12.5q-31 -14 -84.5 -19t-94.5 -5q-68 0 -114.5 18.5t-74.5 51t-40 77.5t-12 101v215q0 20 -23 20h-104q-20 0 -21 18z" />
<glyph unicode="&#x168;" horiz-adv-x="1019" d="M119 328v913q0 23 22 23h127q23 0 23 -21v-915q0 -84 62.5 -137.5t154.5 -53.5q102 0 161.5 55.5t59.5 141.5v907q0 23 25 23h123q25 0 24 -21v-915q0 -82 -31.5 -145.5t-86 -106.5t-125 -65.5t-148.5 -22.5t-149.5 22.5t-125 65.5t-85 106.5t-31.5 145.5zM221 1396.5 q2 10.5 6 18.5q27 51 68 90t92 39q31 0 60.5 -12t57 -25.5t54.5 -26t49 -12.5q23 0 41.5 21.5t32.5 46.5q4 6 8 10t15 -2l65 -31q18 -5 6 -34q-33 -70 -77 -99.5t-83 -29.5q-33 0 -62.5 11t-56 24.5t-52 24.5t-52.5 11q-16 0 -37.5 -19.5t-36.5 -43.5q-12 -20 -34 -8l-56 32 q-10 4 -8 14.5z" />
<glyph unicode="&#x169;" horiz-adv-x="940" d="M98 330v547q0 20 19 20h127q18 0 18 -18v-549q0 -86 49 -143.5t148 -57.5q90 0 143 56.5t53 144.5v547q0 20 19 20h127q20 0 20 -18v-859q0 -20 -20 -20h-117q-20 0 -20 18v31q0 14 -9.5 17.5t-19.5 -7.5q-39 -35 -98.5 -53t-112.5 -18q-154 0 -240 92t-86 250z M178 1089.5q2 10.5 6 18.5q27 51 68 90t92 39q31 0 60.5 -12.5t57 -25.5t54.5 -25.5t49 -12.5q23 0 41.5 21.5t32.5 46.5q4 6 8 10t15 -2l65 -31q18 -6 6 -35q-33 -70 -77 -99.5t-83 -29.5q-33 0 -62.5 11.5t-56 25t-52 24.5t-52.5 11q-16 0 -37.5 -19.5t-36.5 -43.5 q-12 -20 -34 -9l-56 33q-10 4 -8 14.5z" />
<glyph unicode="&#x16a;" horiz-adv-x="1019" d="M119 328v913q0 23 22 23h127q23 0 23 -21v-915q0 -84 62.5 -137.5t154.5 -53.5q102 0 161.5 55.5t59.5 141.5v907q0 23 25 23h123q25 0 24 -21v-915q0 -82 -31.5 -145.5t-86 -106.5t-125 -65.5t-148.5 -22.5t-149.5 22.5t-125 65.5t-85 106.5t-31.5 145.5zM272 1399v84 q0 20 19 20h436q20 0 21 -18v-86q0 -20 -19 -21h-436q-20 0 -21 21z" />
<glyph unicode="&#x16b;" horiz-adv-x="940" d="M98 330v547q0 20 19 20h127q18 0 18 -18v-549q0 -86 49 -143.5t148 -57.5q90 0 143 56.5t53 144.5v547q0 20 19 20h127q20 0 20 -18v-859q0 -20 -20 -20h-117q-20 0 -20 18v31q0 14 -9.5 17.5t-19.5 -7.5q-39 -35 -98.5 -53t-112.5 -18q-154 0 -240 92t-86 250zM229 1075 v84q0 20 19 21h436q20 0 21 -19v-86q0 -20 -19 -20h-436q-20 0 -21 20z" />
<glyph unicode="&#x16c;" horiz-adv-x="1019" d="M119 328v913q0 23 22 23h127q23 0 23 -21v-915q0 -84 62.5 -137.5t154.5 -53.5q102 0 161.5 55.5t59.5 141.5v907q0 23 25 23h123q25 0 24 -21v-915q0 -82 -31.5 -145.5t-86 -106.5t-125 -65.5t-148.5 -22.5t-149.5 22.5t-125 65.5t-85 106.5t-31.5 145.5zM262 1565 q0 10 4 16t21 6h43q16 0 20 -6t8 -20q18 -59 50 -90t92 -31q111 0 141 121q4 14 7 20t22 6h43q16 0 20 -6t4 -16q-2 -51 -20.5 -97.5t-49 -80t-73.5 -53t-96 -19.5q-49 0 -91 19.5t-74 53t-50.5 80t-20.5 97.5z" />
<glyph unicode="&#x16d;" horiz-adv-x="940" d="M98 330v547q0 20 19 20h127q18 0 18 -18v-549q0 -86 49 -143.5t148 -57.5q90 0 143 56.5t53 144.5v547q0 20 19 20h127q20 0 20 -18v-859q0 -20 -20 -20h-117q-20 0 -20 18v31q0 14 -9.5 17.5t-19.5 -7.5q-39 -35 -98.5 -53t-112.5 -18q-154 0 -240 92t-86 250zM227 1257 q0 10 4.5 16.5t20.5 6.5h43q16 0 20 -6t9 -21q18 -59 50 -89.5t91 -30.5q111 0 141 120q4 14 7 20.5t22 6.5h43q16 0 20 -6t4 -17q-2 -51 -20 -97t-49 -79.5t-74 -53t-96 -19.5q-49 0 -91 19.5t-74 53t-50.5 79.5t-20.5 97z" />
<glyph unicode="&#x16e;" horiz-adv-x="1019" d="M119 328v913q0 23 22 23h127q23 0 23 -21v-915q0 -84 62.5 -137.5t154.5 -53.5q102 0 161.5 55.5t59.5 141.5v907q0 23 25 23h123q25 0 24 -21v-915q0 -82 -31.5 -145.5t-86 -106.5t-125 -65.5t-148.5 -22.5t-149.5 22.5t-125 65.5t-85 106.5t-31.5 145.5zM330 1481 q0 35 13 66.5t38 56t56.5 39t68.5 14.5q72 0 124 -50t52 -122q0 -35 -13.5 -67t-38 -55.5t-56 -37.5t-68.5 -14t-68.5 13t-55.5 35.5t-38 54.5t-14 67zM422 1483q0 -37 24.5 -62.5t59.5 -25.5t61.5 25.5t26.5 62.5q0 35 -26.5 62.5t-61.5 27.5t-59.5 -26.5t-24.5 -63.5z" />
<glyph unicode="&#x16f;" horiz-adv-x="940" d="M98 330v547q0 20 19 20h127q18 0 18 -18v-549q0 -86 49 -143.5t148 -57.5q90 0 143 56.5t53 144.5v547q0 20 19 20h127q20 0 20 -18v-859q0 -20 -20 -20h-117q-20 0 -20 18v31q0 14 -9.5 17.5t-19.5 -7.5q-39 -35 -98.5 -53t-112.5 -18q-154 0 -240 92t-86 250zM285 1149 q0 35 13 66.5t37.5 56t56.5 39t69 14.5q72 0 124 -50t52 -122q0 -35 -13.5 -66.5t-38 -55t-56 -38t-68.5 -14.5t-69 13.5t-55.5 36t-37.5 54t-14 66.5zM377 1151q0 -37 24.5 -62.5t59.5 -25.5t61.5 25.5t26.5 62.5q0 35 -26.5 62.5t-61.5 27.5t-59.5 -26.5t-24.5 -63.5z" />
<glyph unicode="&#x170;" horiz-adv-x="1019" d="M119 328v913q0 23 22 23h127q23 0 23 -21v-915q0 -84 62.5 -137.5t154.5 -53.5q102 0 161.5 55.5t59.5 141.5v907q0 23 25 23h123q25 0 24 -21v-915q0 -82 -31.5 -145.5t-86 -106.5t-125 -65.5t-148.5 -22.5t-149.5 22.5t-125 65.5t-85 106.5t-31.5 145.5zM242 1358 q-16 20 6 37l237 188q10 8 22.5 10t22.5 -8l62 -90q12 -16 6 -26.5t-16 -14.5l-271 -141q-10 -4 -22.5 -3t-20.5 11zM553 1358q-16 20 6 37l238 188q10 8 22 10t23 -8l61 -90q12 -16 6 -26.5t-16 -14.5l-270 -141q-10 -4 -22.5 -3t-20.5 11z" />
<glyph unicode="&#x171;" horiz-adv-x="940" d="M98 330v547q0 20 19 20h127q18 0 18 -18v-549q0 -86 49 -143.5t148 -57.5q90 0 143 56.5t53 144.5v547q0 20 19 20h127q20 0 20 -18v-859q0 -20 -20 -20h-117q-20 0 -20 18v31q0 14 -9.5 17.5t-19.5 -7.5q-39 -35 -98.5 -53t-112.5 -18q-154 0 -240 92t-86 250zM276 1057 l156 260q6 10 17.5 18t23.5 0l90 -59q16 -12 14 -24.5t-10 -20.5l-200 -227q-8 -8 -20.5 -12.5t-22.5 3.5l-39 25q-23 14 -9 37zM522 1057l156 260q6 10 17.5 18t23.5 0l90 -59q16 -12 14 -24.5t-10 -20.5l-201 -227q-8 -8 -20 -12.5t-23 3.5l-39 25q-23 14 -8 37z" />
<glyph unicode="&#x172;" horiz-adv-x="1019" d="M119 328v913q0 23 22 23h127q23 0 23 -21v-915q0 -84 62.5 -137.5t154.5 -53.5q102 0 161.5 55.5t59.5 141.5v907q0 23 25 23h123q25 0 24 -21v-915q0 -74 -26.5 -133.5t-72.5 -102.5t-107.5 -68.5t-131.5 -31.5q-37 -45 -60.5 -101.5t-23.5 -107.5q0 -27 13.5 -45.5 t54.5 -18.5q29 0 60.5 15.5t62.5 32.5q12 6 18 -3l33 -45q4 -4 4 -8q0 -6 -6 -12q-31 -29 -87.5 -55.5t-113.5 -26.5q-92 0 -127 43t-35 107q0 53 29 115.5t70 109.5q-70 6 -130.5 31.5t-106.5 67.5t-72.5 101.5t-26.5 135.5z" />
<glyph unicode="&#x173;" horiz-adv-x="940" d="M98 330v547q0 20 19 20h127q18 0 18 -18v-549q0 -86 49 -143.5t148 -57.5q90 0 143 56.5t53 144.5v547q0 20 19 20h127q20 0 20 -18v-859q0 -20 -20 -20h-58q-41 -45 -66.5 -104.5t-25.5 -112.5q0 -27 13.5 -45.5t54.5 -18.5q29 0 60.5 15.5t62.5 32.5q12 6 18 -3l33 -45 q4 -4 4 -8q0 -6 -6 -12q-31 -29 -87 -55.5t-114 -26.5q-92 0 -127 43t-35 107q0 31 10.5 66.5t29 70.5t42 65.5t49.5 53.5l5 4v22q0 14 -9.5 17.5t-19.5 -7.5q-39 -35 -98.5 -53t-112.5 -18q-154 0 -240 92t-86 250z" />
<glyph unicode="&#x174;" horiz-adv-x="1363" d="M18 1235q-2 10 3.5 19.5t21.5 9.5h133q16 0 19.5 -8.5t5.5 -18.5l141 -651l59 -303q4 -10 11 0q12 72 26.5 146.5t26.5 145.5l135 674q2 4 7 9.5t22 5.5h116q23 0 29 -21l141 -665l58 -295q0 -6 4 -5t6 5l57 301l138 659q4 20 26 21h121q23 0 27 -11.5t0 -23.5 l-281 -1211q-4 -6 -10 -12t-12 -6h-152q-18 0 -23 16l-141 672l-47 248q0 4 -4 0l-47 -252l-133 -670q-6 -14 -25 -14h-147q-18 0 -25 12zM397 1382l197 203q10 10 19.5 14.5t25.5 4.5h66q16 0 25 -4.5t20 -14.5l196 -203q23 -18 -2 -34l-29 -21q-14 -10 -24 -8t-21 10 l-180 125q-14 14 -31 0l-186 -125q-12 -8 -21.5 -10t-23.5 8l-29 21q-25 16 -2 34z" />
<glyph unicode="&#x175;" horiz-adv-x="1236" d="M20 870q-10 29 17 29h127q29 0 35 -27l75 -337l60 -283q2 -8 7 -8t7 8l78 274l104 340q4 16 12.5 24.5t24.5 8.5h92q10 0 20.5 -4t16.5 -27l125 -405l60 -211q2 -6 7 -7t7 7l39 197l92 421q4 12 11 20.5t26 8.5h121q25 0 18 -27l-231 -843q-8 -29 -33 -29h-92 q-16 0 -24.5 3t-12.5 20l-131 417l-64 232q-8 14 -12 0l-65 -248l-123 -401q-4 -16 -13.5 -19.5t-23.5 -3.5h-92q-14 0 -23.5 5t-13.5 22zM323 1055.5q1 11.5 11 21.5l196 240q10 10 19.5 16t25.5 6h66q16 0 25.5 -6t19.5 -16l197 -240q10 -10 11 -21.5t-13 -21.5l-29 -24 q-14 -12 -23.5 -9t-21.5 13l-186 164q-16 16 -31 2l-180 -166q-10 -10 -20.5 -13.5t-24.5 9.5l-29 24q-14 10 -13 21.5z" />
<glyph unicode="&#x176;" horiz-adv-x="890" d="M35 1229q-14 35 20 35h117q33 0 43 -23l221 -561q10 -16 19 -2q55 139 110.5 279.5t108.5 279.5q8 16 16 21.5t31 5.5h113q23 0 25.5 -9.5t-3.5 -23.5l-315 -729q-10 -23 -11 -49v-428q0 -25 -24 -25h-123q-25 0 -25 23v434q0 25 -8 41zM160 1382l196 203 q10 10 19.5 14.5t25.5 4.5h66q16 0 25.5 -4.5t19.5 -14.5l197 -203q23 -18 -2 -34l-29 -21q-14 -10 -24.5 -8t-20.5 10l-180 125q-14 14 -31 0l-186 -125q-12 -8 -21.5 -10t-24.5 8l-28 21q-25 16 -2 34z" />
<glyph unicode="&#x177;" horiz-adv-x="843" d="M35 862q-4 16 0 26.5t22 10.5h109q20 0 30.5 -9t14.5 -22l172 -690q4 -16 12 -19t17 19l225 682q4 12 13 25.5t34 13.5h96q20 0 25.5 -11t1.5 -28l-395 -1192q-4 -14 -19.5 -28.5t-44.5 -14.5h-76q-45 0 -28 53l96 291q4 10 5 20.5t-15 10.5h-21q-39 0 -49 41z M140.5 1055.5q0.5 11.5 11.5 21.5l196 240q10 10 19.5 16t25.5 6h66q16 0 25.5 -6t19.5 -16l196 -240q10 -10 11.5 -21.5t-13.5 -21.5l-28 -24q-14 -12 -23.5 -9t-21.5 13l-187 164q-16 16 -30 2l-181 -166q-10 -10 -20 -13.5t-25 9.5l-28 24q-14 10 -13.5 21.5z" />
<glyph unicode="&#x178;" horiz-adv-x="890" d="M35 1229q-14 35 20 35h117q33 0 43 -23l221 -561q10 -16 19 -2q55 139 110.5 279.5t108.5 279.5q8 16 16 21.5t31 5.5h113q23 0 25.5 -9.5t-3.5 -23.5l-315 -729q-10 -23 -11 -49v-428q0 -25 -24 -25h-123q-25 0 -25 23v434q0 25 -8 41zM176 1434q0 41 27.5 68.5 t68.5 27.5t69 -27.5t28 -68.5t-28 -69t-69 -28t-68.5 28t-27.5 69zM508 1434q0 41 27.5 68.5t68.5 27.5t68.5 -27.5t27.5 -68.5t-26.5 -69t-67.5 -28t-69.5 28t-28.5 69z" />
<glyph unicode="&#x179;" horiz-adv-x="860" d="M70 33v65q0 29 14 58l489 936q14 25 -14 24h-434q-25 0 -25 23v102q0 23 25 23h616q27 0 36 -9.5t9 -27.5v-60q0 -20 -9 -44.5t-17 -39.5l-473 -909q-14 -25 12 -24h475q10 0 17.5 -6.5t7.5 -16.5v-102q0 -25 -25 -25h-665q-20 0 -29.5 10t-9.5 23zM293 1368q-16 20 6 37 l238 188q10 8 22 10.5t23 -8.5l61 -90q12 -16 6 -26.5t-16 -14.5l-271 -141q-10 -4 -22 -3t-21 11z" />
<glyph unicode="&#x17a;" horiz-adv-x="823" d="M74 29v55q0 12 2 26.5t12 26.5l397 592q10 12 4 21.5t-22 9.5h-352q-20 0 -21 18v99q0 20 19 20h563q41 0 41 -35v-57q0 -14 -4 -29.5t-8 -23.5l-394 -582q-16 -31 19 -31h401q20 0 21 -20v-99q0 -20 -19 -20h-627q-16 0 -24 9t-8 20zM313 1057l154 260q6 10 15.5 19.5 t25.5 -1.5l90 -59q16 -12 14 -24.5t-8 -20.5l-203 -227q-6 -8 -18 -12.5t-25 3.5l-39 25q-18 14 -6 37z" />
<glyph unicode="&#x17b;" horiz-adv-x="860" d="M70 33v65q0 29 14 58l489 936q14 25 -14 24h-434q-25 0 -25 23v102q0 23 25 23h616q27 0 36 -9.5t9 -27.5v-60q0 -20 -9 -44.5t-17 -39.5l-473 -909q-14 -25 12 -24h475q10 0 17.5 -6.5t7.5 -16.5v-102q0 -25 -25 -25h-665q-20 0 -29.5 10t-9.5 23zM360 1450 q0 41 28 68.5t69 27.5t68.5 -27.5t27.5 -66.5q0 -41 -27.5 -68.5t-66.5 -27.5q-41 0 -70 26.5t-29 67.5z" />
<glyph unicode="&#x17c;" horiz-adv-x="823" d="M74 29v55q0 12 2 26.5t12 26.5l397 592q10 12 4 21.5t-22 9.5h-352q-20 0 -21 18v99q0 20 19 20h563q41 0 41 -35v-57q0 -14 -4 -29.5t-8 -23.5l-394 -582q-16 -31 19 -31h401q20 0 21 -20v-99q0 -20 -19 -20h-627q-16 0 -24 9t-8 20zM356 1130q0 41 28 69t69 28 t68.5 -27.5t27.5 -66.5q0 -41 -27.5 -69t-66.5 -28q-41 0 -70 27t-29 67z" />
<glyph unicode="&#x17d;" horiz-adv-x="860" d="M70 33v65q0 29 14 58l489 936q14 25 -14 24h-434q-25 0 -25 23v102q0 23 25 23h616q27 0 36 -9.5t9 -27.5v-60q0 -20 -9 -44.5t-17 -39.5l-473 -909q-14 -25 12 -24h475q10 0 17.5 -6.5t7.5 -16.5v-102q0 -25 -25 -25h-665q-20 0 -29.5 10t-9.5 23zM164 1546q-23 18 2 35 l29 21q14 10 23 8t22 -11l186 -124q16 -14 31 0l180 124q10 8 20.5 10.5t24.5 -7.5l29 -21q25 -16 2 -35l-197 -203q-10 -10 -19.5 -14t-25.5 -4h-65q-16 0 -25.5 4t-20.5 14z" />
<glyph unicode="&#x17e;" horiz-adv-x="823" d="M74 29v55q0 12 2 26.5t12 26.5l397 592q10 12 4 21.5t-22 9.5h-352q-20 0 -21 18v99q0 20 19 20h563q41 0 41 -35v-57q0 -14 -4 -29.5t-8 -23.5l-394 -582q-16 -31 19 -31h401q20 0 21 -20v-99q0 -20 -19 -20h-627q-16 0 -24 9t-8 20zM122 1272.5q-1 11.5 13 21.5l29 25 q14 12 24.5 9t20.5 -13l180 -166q14 -14 31 2l186 164q12 10 21.5 13t23.5 -9l29 -25q14 -10 13 -21t-11 -22l-197 -239q-10 -10 -19 -16.5t-26 -6.5h-65q-16 0 -25.5 6t-19.5 17l-197 239q-10 10 -11 21.5z" />
<glyph unicode="&#x192;" horiz-adv-x="972" d="M61 -158l41 105q6 16 12.5 17t28.5 -5q78 -23 132.5 5t70.5 120l80 504q2 10 0 17t-12 7h-123q-27 0 -27 23v94q4 23 29 23h139q23 0 23 18l34 211q14 88 43 146.5t69 93t87 50t100 15.5q35 0 70 -7t55 -15q16 -6 23.5 -12.5t1.5 -22.5l-41 -105q-6 -16 -12 -18t-29 6 q-72 27 -128 -1t-71 -118l-34 -225q-4 -16 14 -16h139q27 0 27 -23v-94q0 -23 -25 -23h-160q-16 0 -22 -7t-6 -15l-68 -455q-14 -98 -45 -164.5t-73 -107.5t-91 -59.5t-102 -18.5q-35 0 -70 7t-55 15q-16 6 -23.5 12.5t-1.5 22.5z" />
<glyph unicode="&#x1fc;" horiz-adv-x="1492" d="M45 39l444 1196q4 8 12.5 18.5t33.5 10.5h864q27 0 26 -23v-100q0 -25 -24 -25h-496q-18 0 -18 -16v-361q0 -16 16 -16h410q25 0 24 -25v-102q0 -23 -22 -23h-410q-18 0 -18 -18v-387q0 -18 16 -18h504q25 0 25 -23v-102q0 -25 -25 -25h-668q-25 0 -24 23v258q0 10 -3 18 t-20 8h-370q-8 0 -9.5 -2t-3.5 -6l-98 -279q-8 -20 -29 -20h-114q-18 0 -22.5 11.5t-0.5 27.5zM371 473q-6 -14 8 -14h313q23 0 23 24v617q0 16 -19 16h-80q-16 0 -24 -18zM825 1368q-16 20 6 37l238 188q10 8 22.5 10.5t22.5 -8.5l62 -90q12 -16 6 -26.5t-17 -14.5 l-270 -141q-10 -4 -22.5 -3t-20.5 11z" />
<glyph unicode="&#x1fd;" horiz-adv-x="1413" d="M82 303q0 72 26.5 130.5t71.5 99t106.5 63t133.5 22.5q35 0 81 -13t74 -30q14 -10 25.5 -6t11.5 23v22q0 82 -58 119t-144 37q-39 0 -95.5 -14.5t-95.5 -34.5q-23 -10 -31 12l-34 90q-6 20 10 27q55 29 124.5 45t143.5 16q92 0 161 -24.5t109 -85.5q47 53 116 81.5 t155 28.5q82 0 148.5 -25.5t113.5 -72.5t72.5 -112.5t25.5 -143.5v-96q0 -23 -13 -36t-28 -13h-479q-16 0 -26.5 -10.5t-10.5 -26.5v-39q0 -84 53.5 -144.5t143.5 -60.5q61 0 108 29.5t82 77.5q16 23 41 6l78 -51q25 -16 16 -33q-49 -90 -135 -131t-186 -41q-98 0 -174 32.5 t-123 92.5q-41 -55 -112.5 -89t-161.5 -34q-68 0 -126.5 20.5t-102.5 60.5t-69.5 98t-25.5 134zM236 305q0 -76 44 -130t136 -54q43 0 76.5 15.5t57 42t36 59t12.5 67.5q0 76 -49 130t-131 54q-80 0 -131 -53t-51 -131zM682 1057l154 260q6 10 15 19.5t26 -1.5l90 -59 q16 -12 14 -24.5t-8 -20.5l-203 -227q-6 -8 -18.5 -12.5t-24.5 3.5l-39 25q-18 14 -6 37zM780 567q0 -8 6.5 -16t24.5 -8h336q20 0 20 22v19q0 78 -53 132t-141 54q-86 0 -139.5 -55.5t-53.5 -132.5v-15z" />
<glyph unicode="&#x1fe;" horiz-adv-x="1017" d="M119 338v594q0 82 30.5 146.5t83 109.5t123 68.5t152.5 23.5q133 0 231 -57q10 -8 23 4q6 12 15 26.5t16 26.5q10 16 28 8q16 -8 31.5 -17t32.5 -16q18 -10 8 -26q-10 -23 -23.5 -43.5t-23.5 -42.5q-4 -8 -3 -13.5t3 -9.5q23 -37 38 -86t15 -102v-594q0 -84 -29.5 -148.5 t-82 -109.5t-123 -68.5t-154.5 -23.5q-72 0 -129 13t-105 44q-4 4 -11 6t-11 -8l-27 -49q-14 -20 -28 -10l-66 34q-14 8 -4 29l39 72q6 16 2 26q-23 35 -37 86.5t-14 106.5zM291 365q0 -4 2 -8.5t6 3.5l367 682q4 8 6 17.5t-8 17.5q-59 53 -154 53q-100 0 -159.5 -58 t-59.5 -144v-563zM346 213q-6 -10 2 -23q59 -53 160 -53q102 0 160.5 56.5t58.5 148.5v571q0 4 -1 5.5t-1 -0.5zM426 1382q-16 20 6 37l238 189q10 8 22.5 10t22.5 -8l61 -90q12 -16 6 -26.5t-16 -14.5l-270 -142q-10 -4 -22.5 -3t-20.5 12z" />
<glyph unicode="&#x1ff;" horiz-adv-x="917" d="M98 332v235q0 158 95.5 251t263.5 93q135 0 231 -67q4 -2 9 -4t12 6l36 45q4 4 8.5 6t12.5 -4l47 -39q10 -10 4 -20l-47 -58q-6 -8 -5 -11t3 -7q51 -80 51 -191v-233q0 -166 -97 -256t-263 -90q-72 0 -131.5 17.5t-104.5 49.5q-4 2 -9 4t-13 -8l-31 -41q-4 -6 -8 -8 t-12 4l-50 37q-8 8 0 18l45 60q6 8 0 18q-47 78 -47 193zM262 315.5q0 -8.5 2 -16.5q2 -6 5 -10t7 2l314 405q10 12 5 18.5t-7 8.5q-27 20 -58.5 32.5t-70.5 12.5q-90 0 -143.5 -55.5t-53.5 -145.5v-235v-16.5zM326 176q23 -29 56.5 -38t74.5 -9q102 0 149 56.5t49 146.5 v235v21.5t-4 19.5q-4 10 -10 4l-315 -403q-10 -16 0 -33zM389 1057l154 260q6 10 15 19.5t26 -1.5l90 -59q16 -12 14 -24.5t-8 -20.5l-203 -227q-6 -8 -18.5 -12.5t-24.5 3.5l-39 25q-18 14 -6 37z" />
<glyph unicode="&#x218;" horiz-adv-x="927" d="M51 147q-18 20 8 41l76 70q12 10 21.5 5t23.5 -19q47 -51 110.5 -78t133.5 -27q117 0 190.5 52.5t73.5 156.5q0 51 -21.5 87t-55 60.5t-75.5 42t-83 31.5q-59 20 -125 47t-120 68t-90 101.5t-36 146.5q0 82 28.5 146.5t79 109.5t118 68.5t145.5 23.5q74 0 166 -18.5 t180 -83.5q18 -14 12 -25.5t-10 -19.5l-49 -78q-10 -14 -24.5 -12.5t-27.5 10.5q-70 41 -123 58t-106 17q-45 0 -85 -10t-69.5 -33.5t-47 -61.5t-17.5 -95q0 -41 21.5 -72t56.5 -54.5t78 -42t86 -34.5q68 -27 133 -54.5t116.5 -68.5t83 -100.5t31.5 -151.5 q0 -84 -31.5 -150.5t-89 -112.5t-137.5 -71.5t-174 -25.5q-117 0 -218.5 40t-156.5 117zM350 -434l21 321q4 33 30 33h127q39 0 27 -41l-96 -323q-10 -25 -31 -25h-55q-14 0 -19.5 11.5t-3.5 23.5z" />
<glyph unicode="&#x219;" horiz-adv-x="802" d="M70 190q-6 16 8 23l104 47q10 4 15.5 0t9.5 -10q31 -59 85 -93t124 -34q66 0 109.5 33.5t43.5 81.5q0 49 -34.5 75.5t-94.5 48.5q-47 18 -107.5 39t-113.5 52.5t-89 80t-36 121.5q0 61 25.5 108.5t68.5 79t98.5 48t116.5 16.5q86 2 164 -27.5t138 -93.5q14 -14 -7 -34 l-55 -64q-20 -23 -47 2q-41 37 -92 58.5t-103 21.5q-68 0 -107.5 -27.5t-39.5 -74.5q0 -45 34 -73t93 -50q59 -23 120.5 -45.5t112 -54t82 -79.5t31.5 -122q0 -51 -21.5 -97.5t-62.5 -81t-101.5 -55t-138.5 -20.5q-109 0 -200.5 49t-132.5 151zM309 -434l21 321q4 33 30 33 h127q39 0 27 -41l-96 -323q-10 -25 -31 -25h-55q-14 0 -19.5 11.5t-3.5 23.5z" />
<glyph unicode="&#x259;" horiz-adv-x="897" d="M96 344v96q0 23 13.5 36t27.5 13h479q16 0 26.5 10.5t10.5 26.5v39q0 84 -53 144.5t-143 60.5q-61 0 -108.5 -29.5t-82.5 -76.5q-16 -23 -41 -7l-78 52q-25 16 -16 32q49 90 135 131t187 41q166 0 265 -91t99 -244v-234q0 -78 -26.5 -143.5t-74.5 -112.5t-113.5 -72.5 t-145.5 -25.5q-82 0 -148.5 25.5t-114 72.5t-73 112.5t-25.5 143.5zM262 317q0 -78 53.5 -132t141.5 -54q86 0 139 55.5t53 132.5v15q0 8 -6 16t-25 8h-335q-20 0 -21 -22v-19z" />
<glyph unicode="&#x2b9;" horiz-adv-x="481" d="M50.5 821.5q0.5 12.5 6.5 28.5l191 432q6 16 20.5 24.5t30.5 0.5l104 -50q23 -10 21 -29.5t-8 -31.5l-240 -408q-8 -14 -21.5 -22t-31.5 2l-55 31q-18 10 -17.5 22.5z" />
<glyph unicode="&#x2c6;" horiz-adv-x="907" d="M181.5 1055.5q0.5 11.5 11.5 21.5l196 240q10 10 19.5 16t25.5 6h66q16 0 25.5 -6t19.5 -16l196 -240q10 -10 11.5 -21.5t-13.5 -21.5l-28 -24q-14 -12 -23.5 -9t-21.5 13l-187 164q-16 16 -30 2l-181 -166q-10 -10 -20 -13.5t-25 9.5l-28 24q-14 10 -13.5 21.5z" />
<glyph unicode="&#x2c7;" horiz-adv-x="897" d="M185.5 1272.5q-1.5 11.5 13.5 21.5l28 25q14 12 24.5 9t20.5 -13l181 -166q14 -14 30 2l187 164q12 10 21 13t24 -9l28 -25q14 -10 13.5 -21t-11.5 -22l-196 -239q-10 -10 -19.5 -16.5t-25.5 -6.5h-66q-16 0 -25.5 6t-19.5 17l-196 239q-10 10 -11.5 21.5z" />
<glyph unicode="&#x2d8;" horiz-adv-x="897" d="M223 1257q0 10 4 16.5t21 6.5h43q16 0 20 -6t8 -21q18 -59 50 -89.5t92 -30.5q111 0 141 120q4 14 7 20.5t22 6.5h43q16 0 20 -6t4 -17q-2 -51 -20.5 -97t-49 -79.5t-73.5 -53t-96 -19.5q-49 0 -91 19.5t-74 53t-50.5 79.5t-20.5 97z" />
<glyph unicode="&#x2d9;" horiz-adv-x="894" d="M379 1130q0 41 27.5 69t68.5 28t68.5 -27.5t27.5 -66.5q0 -41 -27.5 -69t-66.5 -28q-41 0 -69.5 27t-28.5 67z" />
<glyph unicode="&#x2da;" horiz-adv-x="897" d="M291 1149q0 35 13 66.5t38 56t56.5 39t68.5 14.5q72 0 124 -50t52 -122q0 -35 -13.5 -66.5t-38 -55t-56 -38t-68.5 -14.5t-68.5 13.5t-55.5 36t-38 54t-14 66.5zM383 1151q0 -37 24.5 -62.5t59.5 -25.5t61.5 25.5t26.5 62.5q0 35 -26.5 62.5t-61.5 27.5t-59.5 -26.5 t-24.5 -63.5z" />
<glyph unicode="&#x2db;" horiz-adv-x="921" d="M317 -233q0 31 10.5 66.5t29 70.5t42 65.5t50.5 53.5q16 14 27 17t26 3h45q12 0 12 -10q0 -6 -4 -10q-47 -45 -81 -113t-34 -127q0 -27 13.5 -45.5t54.5 -18.5q29 0 60.5 15.5t62.5 32.5q12 6 18 -3l33 -45q4 -4 4 -8q0 -6 -6 -12q-31 -29 -87 -55.5t-114 -26.5 q-92 0 -127 43t-35 107z" />
<glyph unicode="&#x2dc;" horiz-adv-x="905" d="M172 1089.5q2 10.5 6 18.5q27 51 68 90t92 39q31 0 60.5 -12.5t57 -25.5t54.5 -25.5t49 -12.5q23 0 41 21.5t33 46.5q4 6 8 10t14 -2l66 -31q18 -6 6 -35q-33 -70 -77 -99.5t-83 -29.5q-33 0 -62.5 11.5t-56 25t-52 24.5t-52.5 11q-16 0 -37.5 -19.5t-36.5 -43.5 q-12 -20 -34 -9l-56 33q-10 4 -8 14.5z" />
<glyph unicode="&#x2dd;" horiz-adv-x="917" d="M283 1057l155 260q6 10 17.5 18t23.5 0l90 -59q16 -12 14.5 -24.5t-10.5 -20.5l-200 -227q-8 -8 -20.5 -12.5t-22.5 3.5l-39 25q-23 14 -8 37zM528 1057l156 260q6 10 17.5 18t23.5 0l90 -59q16 -12 14 -24.5t-10 -20.5l-201 -227q-8 -8 -20 -12.5t-23 3.5l-38 25 q-23 14 -9 37z" />
<glyph unicode="&#x384;" horiz-adv-x="897" d="M389 1057l154 260q6 10 18 18t23 0l90 -59q16 -12 14 -24.5t-8 -20.5l-203 -227q-6 -8 -18.5 -12.5t-24.5 3.5l-39 25q-18 14 -6 37z" />
<glyph unicode="&#x385;" horiz-adv-x="897" d="M147 1137q0 41 28 68.5t69 27.5t68.5 -27.5t27.5 -68.5t-27.5 -69t-68.5 -28t-69 28t-28 69zM354 1057l154 260q6 10 18.5 18t22.5 0l90 -59q16 -12 14 -24.5t-8 -20.5l-203 -227q-6 -8 -18 -12.5t-25 3.5l-39 25q-18 14 -6 37zM641 1137q0 41 28.5 68.5t69.5 27.5 q39 0 68 -27.5t29 -68.5t-28 -69t-69 -28t-69.5 28t-28.5 69z" />
<glyph unicode="&#x386;" horiz-adv-x="935" d="M-102 981l153 260q6 10 18.5 18.5t22.5 0.5l90 -60q16 -12 14.5 -24.5t-8.5 -20.5l-202 -227q-6 -8 -18.5 -12.5t-24.5 4.5l-39 24q-18 14 -6 37zM41 31l303 1208q2 10 9 17.5t24 7.5h174q25 0 31 -21l311 -1208q4 -10 2 -22.5t-21 -12.5h-124q-27 0 -29 14l-68 267 q-4 8 -8 8h-362q-8 0 -9.5 -2t-3.5 -4l-65 -269q-2 -14 -27 -14h-110q-16 0 -23.5 6t-3.5 25zM308 433q1 -3 11 -3h283q10 0 12 3t0 13l-90 369l-57 258q-2 6 -5 6t-5 -4l-56 -252l-92 -377q-2 -10 -1 -13z" />
<glyph unicode="&#x387;" horiz-adv-x="436" d="M109 674q0 43 31.5 75.5t76.5 32.5t79 -32.5t34 -73.5q0 -47 -33 -80t-80 -33q-45 0 -76.5 32t-31.5 79z" />
<glyph unicode="&#x388;" horiz-adv-x="901" d="M-299 981l154 260q6 10 18 18.5t23 0.5l90 -60q16 -12 14 -24.5t-8 -20.5l-203 -227q-6 -8 -18.5 -12.5t-24.5 4.5l-39 24q-18 14 -6 37zM123 23v1218q0 23 24 23h660q27 0 27 -23v-100q0 -25 -25 -25h-498q-16 0 -16 -16v-350q0 -16 14 -17h412q25 0 24 -24v-103 q0 -23 -22 -22h-412q-16 0 -16 -19v-397q0 -18 14 -18h506q25 0 25 -23v-102q0 -25 -25 -25h-668q-25 0 -24 23z" />
<glyph unicode="&#x389;" horiz-adv-x="1284" d="M-299 981l154 260q6 10 18 18.5t23 0.5l90 -60q16 -12 14 -24.5t-8 -20.5l-203 -227q-6 -8 -18.5 -12.5t-24.5 4.5l-39 24q-18 14 -6 37zM129 23v1218q0 23 23 23h124q25 0 25 -21v-498q0 -18 16 -18h437q16 0 16 18v496q0 23 23 23h125q27 0 26 -21v-1218q0 -25 -24 -25 h-125q-25 0 -25 23v538q0 18 -16 19h-437q-16 0 -16 -19v-536q0 -25 -22 -25h-125q-25 0 -25 23z" />
<glyph unicode="&#x38a;" horiz-adv-x="493" d="M-264 981l153 260q6 10 18.5 18.5t22.5 0.5l90 -60q16 -12 14.5 -24.5t-7.5 -20.5l-203 -227q-6 -8 -18.5 -12.5t-24.5 4.5l-39 24q-18 14 -6 37zM156 23v1218q0 23 24 23h127q25 0 25 -21v-1218q0 -25 -25 -25h-127q-25 0 -24 23z" />
<glyph unicode="&#x38c;" horiz-adv-x="1017" d="M-254 981l154 260q6 10 18 18.5t23 0.5l90 -60q16 -12 14 -24.5t-8 -20.5l-203 -227q-6 -8 -18.5 -12.5t-24.5 4.5l-39 24q-18 14 -6 37zM119 338v594q0 82 30.5 146.5t83 109.5t123 68.5t152.5 23.5q80 0 150.5 -22.5t125 -66.5t85 -109.5t30.5 -149.5v-594 q0 -84 -29.5 -148.5t-82 -109.5t-123 -68.5t-154.5 -23.5t-154.5 22.5t-124 66.5t-83 109.5t-29.5 151.5zM291 342q0 -92 56 -148.5t161 -56.5q102 0 160.5 56.5t58.5 148.5v586q0 88 -59.5 145t-157.5 57q-100 0 -159.5 -58t-59.5 -144v-586z" />
<glyph unicode="&#x38e;" horiz-adv-x="890" d="M-340 981l154 260q6 10 18 18.5t23 0.5l90 -60q16 -12 14 -24.5t-8 -20.5l-203 -227q-6 -8 -18.5 -12.5t-24.5 4.5l-39 24q-18 14 -6 37zM35 1229q-14 35 20 35h117q33 0 43 -23l221 -561q10 -16 19 -2q55 139 110.5 279.5t108.5 279.5q8 16 16 21.5t31 5.5h113 q23 0 25.5 -9.5t-3.5 -23.5l-315 -729q-10 -23 -11 -49v-428q0 -25 -24 -25h-123q-25 0 -25 23v434q0 25 -8 41z" />
<glyph unicode="&#x38f;" horiz-adv-x="1064" d="M-246 981l154 260q6 10 18.5 18.5t22.5 0.5l90 -60q16 -12 14 -24.5t-8 -20.5l-203 -227q-6 -8 -18 -12.5t-25 4.5l-39 24q-18 14 -6 37zM100 23v102q0 25 25 25h86q4 0 5 2t-3 6q-57 41 -71.5 109.5t-14.5 144.5v503q0 82 31.5 151t87 116t129.5 73.5t157 26.5 q195 0 300.5 -100.5t105.5 -266.5v-503q0 -76 -22.5 -141.5t-73.5 -112.5q-4 -8 4 -8h94q25 0 25 -23v-102q0 -25 -23 -25h-317q-16 0 -21.5 4t-5.5 19v131q0 14 3 18t15 6q66 12 108 66.5t42 126.5v553q0 43 -13.5 80.5t-42 66.5t-71.5 46.5t-104 17.5q-113 0 -174.5 -62.5 t-61.5 -148.5v-551q0 -72 39 -128.5t108 -66.5q10 -4 13.5 -6t3.5 -18v-129q0 -16 -3 -20.5t-22 -4.5h-313q-25 0 -25 23z" />
<glyph unicode="&#x390;" horiz-adv-x="450" d="M-109 1137q0 41 28 68.5t69 27.5t68.5 -27.5t27.5 -68.5t-27.5 -69t-68.5 -28t-69 28t-28 69zM98 1057l154 260q6 10 18.5 18t22.5 0l90 -59q16 -12 14 -24.5t-8 -20.5l-203 -227q-6 -8 -18 -12.5t-25 3.5l-39 25q-18 14 -6 37zM135 18v859q0 20 19 20h129q20 0 20 -18 v-859q0 -20 -20 -20h-127q-20 0 -21 18zM385 1137q0 41 28.5 68.5t69.5 27.5q39 0 68 -27.5t29 -68.5t-28 -69t-69 -28t-69.5 28t-28.5 69z" />
<glyph unicode="&#x391;" horiz-adv-x="935" d="M41 31l303 1208q2 10 9 17.5t24 7.5h174q25 0 31 -21l311 -1208q4 -10 2 -22.5t-21 -12.5h-124q-27 0 -29 14l-68 267q-4 8 -8 8h-362q-8 0 -9.5 -2t-3.5 -4l-65 -269q-2 -14 -27 -14h-110q-16 0 -23.5 6t-3.5 25zM308 433q1 -3 11 -3h283q10 0 12 3t0 13l-90 369 l-57 258q-2 6 -5 6t-5 -4l-56 -252l-92 -377q-2 -10 -1 -13z" />
<glyph unicode="&#x392;" horiz-adv-x="974" d="M111 23v1218q0 23 22 23h367q166 0 263 -84t97 -246q0 -33 -10 -68t-28.5 -67.5t-43 -61t-53.5 -49.5q-4 -8 2 -14q84 -43 127 -125t43 -172q0 -84 -25.5 -152.5t-73.5 -119t-116 -78t-152 -27.5h-395q-25 0 -24 23zM283 168q0 -18 16 -18h227q94 0 147.5 61.5 t53.5 159.5q0 43 -11 85t-38 73.5t-70 52t-104 20.5h-205q-16 0 -16 -16v-418zM283 766q0 -18 16 -18h201q96 0 143 56t47 134q0 82 -49 130t-143 48h-199q-16 0 -16 -16v-334z" />
<glyph unicode="&#x393;" horiz-adv-x="872" d="M164 23v1218q0 23 24 23h643q25 0 25 -21v-104q0 -23 -25 -23h-479q-16 0 -16 -16v-1075q0 -25 -23 -25h-125q-25 0 -24 23z" />
<glyph unicode="&#x394;" horiz-adv-x="958" d="M31 31q82 293 170 606t168 606q6 20 28 21h162q16 0 20.5 -7.5t6.5 -11.5l340 -1204q4 -16 0 -28.5t-21 -12.5h-850q-16 0 -21 9t-3 22zM250 168q-6 -25 16 -25h426q20 0 15 25v-2l-152 573l-76 308q-2 8 -6 9t-6 -7l-76 -312z" />
<glyph unicode="&#x395;" horiz-adv-x="901" d="M123 23v1218q0 23 24 23h660q27 0 27 -23v-100q0 -25 -25 -25h-498q-16 0 -16 -16v-350q0 -16 14 -17h412q25 0 24 -24v-103q0 -23 -22 -22h-412q-16 0 -16 -19v-397q0 -18 14 -18h506q25 0 25 -23v-102q0 -25 -25 -25h-668q-25 0 -24 23z" />
<glyph unicode="&#x396;" horiz-adv-x="860" d="M70 33v65q0 29 14 58l489 936q14 25 -14 24h-434q-25 0 -25 23v102q0 23 25 23h616q27 0 36 -9.5t9 -27.5v-60q0 -20 -9 -44.5t-17 -39.5l-473 -909q-14 -25 12 -24h475q10 0 17.5 -6.5t7.5 -16.5v-102q0 -25 -25 -25h-665q-20 0 -29.5 10t-9.5 23z" />
<glyph unicode="&#x397;" horiz-adv-x="1284" d="M129 23v1218q0 23 23 23h124q25 0 25 -21v-498q0 -18 16 -18h437q16 0 16 18v496q0 23 23 23h125q27 0 26 -21v-1218q0 -25 -24 -25h-125q-25 0 -25 23v538q0 18 -16 19h-437q-16 0 -16 -19v-536q0 -25 -22 -25h-125q-25 0 -25 23z" />
<glyph unicode="&#x398;" horiz-adv-x="1058" d="M119 338v594q0 82 31.5 146.5t87 109.5t130 68.5t160.5 23.5q92 0 168 -22.5t130.5 -66.5t84 -109.5t29.5 -149.5v-594q0 -84 -29.5 -148.5t-84 -109.5t-129 -68.5t-167.5 -23.5q-90 0 -164.5 22.5t-130 66.5t-86 109.5t-30.5 151.5zM291 342q0 -92 61.5 -148.5 t175.5 -56.5q115 0 177.5 56.5t62.5 148.5v586q0 88 -63.5 145t-174.5 57q-115 0 -177 -58t-62 -144v-586zM348 588v110q0 16 14 17h334q14 0 15 -17v-110q0 -14 -13 -15h-338q-12 0 -12 15z" />
<glyph unicode="&#x399;" horiz-adv-x="493" d="M156 23v1218q0 23 24 23h127q25 0 25 -21v-1218q0 -25 -25 -25h-127q-25 0 -24 23z" />
<glyph unicode="&#x39a;" horiz-adv-x="1021" d="M129 18v1225q0 20 23 21h133q18 0 18 -19v-508q0 -18 8 -16t15 8l424 520q12 14 28 15h133q20 0 24.5 -9.5t-3.5 -19.5l-379 -465q-8 -10 -4 -15t14 -5q16 0 29.5 1t28.5 -1q141 -10 209.5 -98.5t78.5 -239.5l31 -392q0 -20 -20 -20h-119q-23 0 -23 18l-24 369 q-2 33 -10.5 74t-31 75.5t-63.5 58t-110 23.5q-117 0 -176.5 -67.5t-59.5 -175.5v-355q0 -20 -18 -20h-133q-23 0 -23 18z" />
<glyph unicode="&#x39b;" horiz-adv-x="942" d="M31 39l340 1206q8 18 30 19h140q23 0 28 -17l338 -1206q4 -10 2 -25.5t-30 -15.5h-123q-25 0 -29 20v-2q-41 160 -82 315.5t-82 315.5l-94 367q0 4 -4 4t-4 -4l-88 -365l-158 -628v-3q-6 -20 -29 -20h-129q-18 0 -24 11.5t-2 27.5z" />
<glyph unicode="&#x39c;" horiz-adv-x="1284" d="M123 23v1202q0 39 37 39h80q29 0 35 -5.5t16 -25.5l274 -733l78 -226q10 -16 19 -2q20 55 39.5 116t39.5 116l273 731q10 16 19 22.5t30 6.5h82q23 0 30 -10.5t7 -26.5v-1202q0 -25 -23 -25h-117q-23 0 -22 23v794q0 4 -3 5t-5 -3l-86 -239l-199 -510q-4 -6 -12 -17.5 t-27 -11.5h-80q-16 0 -25.5 5t-15.5 22l-188 495l-88 250q-6 6 -6 0v-788q0 -25 -23 -25h-115q-25 0 -24 23z" />
<glyph unicode="&#x39d;" horiz-adv-x="1062" d="M125 23v1189q0 27 7 39.5t36 12.5h74q25 0 35 -9.5t20 -23.5l477 -879q2 -4 4 -5t2 3v891q0 23 23 23h115q25 0 24 -21v-1202q0 -27 -13.5 -34t-25.5 -7h-78q-23 0 -34 7t-19 24l-477 876q-6 6 -6 0v-882q0 -25 -23 -25h-116q-25 0 -25 23z" />
<glyph unicode="&#x39e;" horiz-adv-x="974" d="M96 25v102q0 23 25 23h264q16 0 16 18v387q0 18 -18 18h-170q-23 0 -23 23v102q0 25 25 25h170q16 0 16 16v361q0 16 -18 16h-258q-25 0 -25 25v100q0 23 27 23h721q27 0 26 -23v-100q0 -25 -24 -25h-272q-18 0 -19 -16v-361q0 -16 16 -16h185q25 0 24 -25v-102 q0 -23 -22 -23h-184q-18 0 -19 -18v-387q0 -18 16 -18h279q25 0 25 -23v-102q0 -25 -25 -25h-733q-25 0 -25 25z" />
<glyph unicode="&#x39f;" horiz-adv-x="1017" d="M119 338v594q0 82 30.5 146.5t83 109.5t123 68.5t152.5 23.5q80 0 150.5 -22.5t125 -66.5t85 -109.5t30.5 -149.5v-594q0 -84 -29.5 -148.5t-82 -109.5t-123 -68.5t-154.5 -23.5t-154.5 22.5t-124 66.5t-83 109.5t-29.5 151.5zM291 342q0 -92 56 -148.5t161 -56.5 q102 0 160.5 56.5t58.5 148.5v586q0 88 -59.5 145t-157.5 57q-100 0 -159.5 -58t-59.5 -144v-586z" />
<glyph unicode="&#x3a0;" horiz-adv-x="1138" d="M154 23v1218q0 23 24 23h783q25 0 24 -21v-1218q0 -25 -24 -25h-125q-23 0 -23 23v1077q0 18 -16 18h-453q-16 0 -16 -18v-1075q0 -25 -25 -25h-125q-25 0 -24 23z" />
<glyph unicode="&#x3a1;" horiz-adv-x="937" d="M131 23v1218q0 23 25 23h350q90 0 160.5 -29t120 -79t76 -118.5t26.5 -148.5q0 -76 -29 -143.5t-80 -117.5t-120.5 -79t-151.5 -29h-189q-16 0 -16 -18v-477q0 -25 -24 -25h-123q-25 0 -25 23zM301 684q0 -18 16 -18h189q96 0 154.5 60t58.5 165q0 39 -13.5 80t-40 72.5 t-66.5 52t-93 20.5h-187q-18 0 -18 -16v-416z" />
<glyph unicode="&#x3a3;" horiz-adv-x="870" d="M94 33v71q0 29 15 58l225 446q8 16 12 35t-8 41l-223 414q-4 10 -10.5 24.5t-6.5 30.5v72q0 18 9.5 28.5t35.5 10.5h619q25 0 24 -21v-104q0 -23 -22 -23h-445q-12 0 -16 -7t0 -17l221 -392q16 -31 16.5 -51t-10.5 -41l-231 -434q-14 -25 14 -24h486q10 0 17 -6.5 t7 -16.5v-102q0 -25 -24 -25h-666q-20 0 -29.5 10t-9.5 23z" />
<glyph unicode="&#x3a4;" horiz-adv-x="854" d="M31 1139v102q0 23 24 23h744q25 0 24 -21v-104q0 -23 -24 -23h-271q-18 0 -18 -16v-1075q0 -25 -23 -25h-125q-25 0 -24 23v1075q0 18 -16 18h-267q-25 0 -24 23z" />
<glyph unicode="&#x3a5;" horiz-adv-x="890" d="M35 1229q-14 35 20 35h117q33 0 43 -23l221 -561q10 -16 19 -2q55 139 110.5 279.5t108.5 279.5q8 16 16 21.5t31 5.5h113q23 0 25.5 -9.5t-3.5 -23.5l-315 -729q-10 -23 -11 -49v-428q0 -25 -24 -25h-123q-25 0 -25 23v434q0 25 -8 41z" />
<glyph unicode="&#x3a6;" horiz-adv-x="1169" d="M121 481v348q0 74 26.5 136.5t73.5 108.5t112.5 75t145.5 33q18 0 19 14v45q0 23 22 23h123q23 0 23 -21v-47q0 -14 14 -14q82 -4 149.5 -32t116.5 -74t76 -108.5t27 -136.5v-350q0 -68 -30 -129t-79 -108t-114.5 -77t-139.5 -36q-20 -2 -20 -22v-86q0 -23 -21 -23h-125 q-20 0 -20 20v89q0 23 -23 22q-76 4 -140.5 31.5t-112.5 74t-75.5 109t-27.5 135.5zM285 477q0 -72 52 -128t144 -66q18 0 19 16v719q0 18 -19 18q-96 -4 -146 -63.5t-50 -130.5v-365zM666 301q0 -18 20 -18q82 10 141.5 59t59.5 135v363q0 39 -11.5 73.5t-36 61t-63.5 43 t-96 18.5q-14 0 -14 -14v-721z" />
<glyph unicode="&#x3a7;" horiz-adv-x="923" d="M41 33l315 602q10 23 6 33t-8 18l-286 549q-16 29 22 29h135q18 0 26.5 -5.5t14.5 -17.5l199 -410q8 -8 16 0q51 100 102.5 204t100.5 206q6 12 14.5 17.5t26.5 5.5h123q33 0 22 -29q-72 -139 -146.5 -278.5t-145.5 -278.5q-10 -25 0 -41q37 -70 76.5 -146.5t81.5 -155.5 t83 -156t78 -146q16 -33 -18 -33h-127q-16 0 -26.5 3t-18.5 20l-228 454q-2 6 -9 9t-11 -7l-228 -456q-10 -16 -19 -19.5t-26 -3.5h-127q-35 0 -18 33z" />
<glyph unicode="&#x3a8;" horiz-adv-x="1153" d="M111 633v608q0 23 22 23h123q25 0 25 -21v-631q0 -37 16 -69.5t43 -58t60.5 -42t68.5 -20.5q18 -2 18 18v820q0 25 25 24h123q25 0 24 -24v-820q0 -23 23 -18q37 4 69.5 20.5t59.5 42t42 58t15 69.5v629q0 23 25 23h127q23 0 22 -21v-610q0 -72 -27.5 -136.5 t-76.5 -113.5t-115.5 -80t-144.5 -35q-18 0 -19 -16v-227q0 -25 -22 -25h-125q-23 0 -23 23v225q0 20 -18 20q-78 4 -143.5 34t-113.5 78t-75.5 113.5t-27.5 139.5z" />
<glyph unicode="&#x3a9;" horiz-adv-x="1064" d="M100 23v102q0 25 25 25h86q4 0 5 2t-3 6q-57 41 -71.5 109.5t-14.5 144.5v503q0 82 31.5 151t87 116t129.5 73.5t157 26.5q195 0 300.5 -100.5t105.5 -266.5v-503q0 -76 -22.5 -141.5t-73.5 -112.5q-4 -8 4 -8h94q25 0 25 -23v-102q0 -25 -23 -25h-317q-16 0 -21.5 4 t-5.5 19v131q0 14 3 18t15 6q66 12 108 66.5t42 126.5v553q0 43 -13.5 80.5t-42 66.5t-71.5 46.5t-104 17.5q-113 0 -174.5 -62.5t-61.5 -148.5v-551q0 -72 39 -128.5t108 -66.5q10 -4 13.5 -6t3.5 -18v-129q0 -16 -3 -20.5t-22 -4.5h-313q-25 0 -25 23z" />
<glyph unicode="&#x3aa;" horiz-adv-x="493" d="M-18 1434q0 41 27.5 68.5t68.5 27.5t68.5 -27.5t27.5 -68.5t-27.5 -69t-68.5 -28t-68.5 28t-27.5 69zM156 23v1218q0 23 24 23h127q25 0 25 -21v-1218q0 -25 -25 -25h-127q-25 0 -24 23zM313 1434q0 41 28 68.5t69 27.5t68.5 -27.5t27.5 -68.5t-26.5 -69t-67.5 -28 t-70 28t-29 69z" />
<glyph unicode="&#x3ab;" horiz-adv-x="890" d="M35 1229q-14 35 20 35h117q33 0 43 -23l221 -561q10 -16 19 -2q55 139 110.5 279.5t108.5 279.5q8 16 16 21.5t31 5.5h113q23 0 25.5 -9.5t-3.5 -23.5l-315 -729q-10 -23 -11 -49v-428q0 -25 -24 -25h-123q-25 0 -25 23v434q0 25 -8 41zM182 1434q0 41 28 68.5t69 27.5 t68.5 -27.5t27.5 -68.5t-28 -69t-68 -28q-41 0 -69 28t-28 69zM514 1434q0 41 27.5 68.5t68.5 27.5t69 -27.5t28 -68.5t-27 -69t-68 -28t-69.5 28t-28.5 69z" />
<glyph unicode="&#x3ac;" horiz-adv-x="927" d="M98 319v254q0 74 27 135.5t73 105.5t109.5 68.5t134.5 24.5q78 0 123 -21.5t70 -41.5q10 -10 21.5 -9t11.5 13v29q0 20 18 20h115q20 0 20 -18v-859q0 -20 -20 -20h-125q-18 0 -19 18v21q0 14 -8 18t-24 -8q-27 -23 -77 -39t-104 -16q-160 0 -253 85t-93 240zM262 319 q0 -80 50 -138t149 -58q84 0 139 57.5t55 138.5l2 254q0 82 -55 137.5t-141 55.5q-98 0 -148.5 -56.5t-50.5 -136.5v-254zM389 1057l154 260q6 10 18 18t23 0l90 -59q16 -12 14 -24.5t-8 -20.5l-203 -227q-6 -8 -18.5 -12.5t-24.5 3.5l-39 25q-18 14 -6 37z" />
<glyph unicode="&#x3ad;" horiz-adv-x="782" d="M78 279q0 41 27.5 93t82.5 79q8 4 9.5 11t-9.5 11q-57 16 -81.5 62.5t-24.5 87.5q0 66 26.5 119t72.5 89.5t106.5 57t130.5 20.5q92 0 176 -32.5t141 -118.5q8 -12 9 -21.5t-9 -17.5l-84 -60q-16 -10 -26.5 -6t-20.5 19q-35 49 -86 72.5t-104 23.5q-23 0 -50.5 -6 t-52 -21.5t-42 -40t-17.5 -61.5q0 -59 42 -80.5t91 -21.5h143q18 0 19 -19v-98q0 -16 -19 -17h-147q-49 0 -92 -29.5t-43 -90.5q0 -41 17.5 -71t43 -48.5t55 -26.5t54.5 -8q59 0 114.5 29.5t81.5 64.5q10 14 21.5 21.5t25.5 -4.5l74 -60q31 -25 17 -43 q-59 -80 -148.5 -114.5t-185.5 -34.5q-147 0 -242.5 72.5t-95.5 218.5zM319 1057l154 260q6 10 18.5 18t22.5 0l90 -59q16 -12 14 -24.5t-8 -20.5l-202 -227q-6 -8 -18.5 -12.5t-24.5 3.5l-39 25q-18 14 -7 37z" />
<glyph unicode="&#x3ae;" horiz-adv-x="946" d="M113 18v859q0 20 18 20h119q18 0 18 -18v-31q0 -18 15 -19q4 0 16 9q86 72 205 71q154 0 243 -93t89 -249v-547q0 -20 -19 -20h-127q-18 0 -18 18v547q0 88 -49.5 145.5t-147.5 57.5q-90 0 -143 -56.5t-53 -144.5v-547q0 -20 -21 -20h-125q-20 0 -20 18zM346 1057 l154 260q6 10 18 18t23 0l90 -59q16 -12 14 -24.5t-8 -20.5l-203 -227q-6 -8 -18.5 -12.5t-24.5 3.5l-39 25q-18 14 -6 37z" />
<glyph unicode="&#x3af;" horiz-adv-x="436" d="M135 18v859q0 20 19 20h129q20 0 20 -18v-859q0 -20 -20 -20h-127q-20 0 -21 18zM164 1057l153 260q6 10 18.5 18t22.5 0l91 -59q16 -12 14 -24.5t-8 -20.5l-203 -227q-6 -8 -18.5 -12.5t-24.5 3.5l-39 25q-18 14 -6 37z" />
<glyph unicode="&#x3b0;" horiz-adv-x="929" d="M109 317v560q0 20 20 20h123q20 0 20 -20v-560q0 -80 52.5 -139t144.5 -59q94 0 145.5 58.5t51.5 139.5v560q0 20 20 20h127q18 0 18 -20v-560q0 -76 -25.5 -138t-73.5 -106t-114.5 -68.5t-148.5 -24.5t-148.5 23.5t-113.5 68.5t-72.5 106.5t-25.5 138.5zM127 1137 q0 41 27.5 68.5t68.5 27.5t68.5 -27.5t27.5 -68.5t-27.5 -69t-68.5 -28t-68.5 28t-27.5 69zM334 1057l153 260q6 10 18.5 18t22.5 0l90 -59q16 -12 14.5 -24.5t-7.5 -20.5l-203 -227q-6 -8 -18.5 -12.5t-24.5 3.5l-39 25q-18 14 -6 37zM621 1137q0 41 28.5 68.5t69.5 27.5 q39 0 67.5 -27.5t28.5 -68.5t-27.5 -69t-68.5 -28t-69.5 28t-28.5 69z" />
<glyph unicode="&#x3b1;" horiz-adv-x="927" d="M98 319v254q0 74 27 135.5t73 105.5t109.5 68.5t134.5 24.5q78 0 123 -21.5t70 -41.5q10 -10 21.5 -9t11.5 13v29q0 20 18 20h115q20 0 20 -18v-859q0 -20 -20 -20h-125q-18 0 -19 18v21q0 14 -8 18t-24 -8q-27 -23 -77 -39t-104 -16q-160 0 -253 85t-93 240zM262 319 q0 -80 50 -138t149 -58q84 0 139 57.5t55 138.5l2 254q0 82 -55 137.5t-141 55.5q-98 0 -148.5 -56.5t-50.5 -136.5v-254z" />
<glyph unicode="&#x3b2;" horiz-adv-x="937" d="M109 -281v1233q0 74 24.5 137.5t70.5 111.5t110.5 76t146.5 28q168 0 261 -90.5t93 -237.5q0 -61 -25.5 -125t-84.5 -92q-16 -8 0 -15q66 -29 97.5 -94t31.5 -139v-188q0 -70 -26 -131.5t-70 -107.5t-104.5 -72.5t-129.5 -26.5q-72 0 -115 14t-90 49q-10 6 -17.5 4 t-7.5 -14v-318q0 -20 -18 -20h-127q-20 0 -20 18zM274 324q0 -41 15.5 -76t42 -62.5t62.5 -43t77 -15.5q84 0 141.5 57.5t57.5 139.5v188q0 86 -56.5 133t-142.5 47h-90q-18 0 -19 19v94q0 20 21 20h94q68 0 120 38t52 116q0 80 -46 130t-138 50q-96 0 -143.5 -59.5 t-47.5 -138.5v-637z" />
<glyph unicode="&#x3b3;" horiz-adv-x="821" d="M16 858q-4 18 21 27q63 23 102 22q59 0 85 -33.5t48 -103.5l140 -489q6 -14 12 -15q10 0 12 15q49 162 90 288q16 55 34 107.5t31 95.5t22.5 71.5t11.5 33.5q4 8 10 14t22 6h117q20 0 21 -18q0 -8 -2 -13l-275 -792q-10 -25 -13 -51.5t-3 -45.5v-327q0 -20 -21 -21h-125 q-20 0 -20 19v336q0 27 -3 44t-9 35l-197 639q-6 16 -14.5 34t-42.5 18h-23.5t-11.5 14z" />
<glyph unicode="&#x3b4;" horiz-adv-x="929" d="M104 317v220q0 92 42 174t122 123q10 4 11.5 12t-9.5 16q-35 25 -55 50.5t-31.5 49t-15.5 44t-4 32.5q-2 76 25.5 127.5t74.5 82t107.5 44t122.5 13.5q66 0 137 -11.5t125 -40.5q20 -8 12 -28l-33 -86q-8 -20 -26 -15q-59 25 -129 37.5t-125 3.5q-53 -8 -86 -34.5 t-33 -73.5q0 -29 22.5 -53.5t57.5 -40.5t79 -39t91 -45q47 -23 90 -50.5t76.5 -67.5t54 -95.5t20.5 -128.5v-220q0 -76 -25.5 -138t-73.5 -106t-114.5 -68.5t-148.5 -24.5t-148.5 23.5t-113.5 68.5t-73 106.5t-26 138.5zM268 317q0 -80 48.5 -138t148.5 -58 q104 0 151.5 57.5t47.5 138.5v220q0 29 -8.5 61.5t-29 63t-55 56t-88.5 40.5q-20 6 -29.5 6t-25.5 -4q-78 -23 -119 -85.5t-41 -137.5v-220z" />
<glyph unicode="&#x3b5;" horiz-adv-x="782" d="M78 279q0 41 27.5 93t82.5 79q8 4 9.5 11t-9.5 11q-57 16 -81.5 62.5t-24.5 87.5q0 66 26.5 119t72.5 89.5t106.5 57t130.5 20.5q92 0 176 -32.5t141 -118.5q8 -12 9 -21.5t-9 -17.5l-84 -60q-16 -10 -26.5 -6t-20.5 19q-35 49 -86 72.5t-104 23.5q-23 0 -50.5 -6 t-52 -21.5t-42 -40t-17.5 -61.5q0 -59 42 -80.5t91 -21.5h143q18 0 19 -19v-98q0 -16 -19 -17h-147q-49 0 -92 -29.5t-43 -90.5q0 -41 17.5 -71t43 -48.5t55 -26.5t54.5 -8q59 0 114.5 29.5t81.5 64.5q10 14 21.5 21.5t25.5 -4.5l74 -60q31 -25 17 -43 q-59 -80 -148.5 -114.5t-185.5 -34.5q-147 0 -242.5 72.5t-95.5 218.5z" />
<glyph unicode="&#x3b6;" horiz-adv-x="778" d="M74 385q0 106 49 213t122.5 202t162 175t165.5 133q8 8 9 10q0 4 -11 4h-391q-23 0 -30 9.5t-7 29.5v80q0 29 37 29h631q45 0 45 -33v-57q0 -37 -22 -54q-80 -47 -182.5 -130t-194.5 -183t-155.5 -209.5t-63.5 -208.5q0 -63 36.5 -110t95 -82t132 -62.5t147.5 -52.5 q92 -31 123 -69.5t31 -88.5q0 -35 -27.5 -99t-89.5 -163q-10 -16 -22 -16q-6 0 -19 4l-70 33q-18 6 -18 22q0 8 6 21l45 92q6 12 12.5 29.5t6.5 31.5q0 49 -86 78q-59 20 -140.5 49t-154 76t-122.5 119t-50 178z" />
<glyph unicode="&#x3b7;" horiz-adv-x="946" d="M113 18v859q0 20 18 20h119q18 0 18 -18v-31q0 -16 10.5 -18.5t20.5 8.5q45 37 88 54t102 17q76 0 140.5 -24.5t109.5 -68.5t71 -107.5t26 -141.5v-547q0 -20 -19 -20h-127q-18 0 -18 18v547q0 88 -55.5 145.5t-141.5 57.5q-90 0 -143 -56.5t-53 -144.5v-547 q0 -20 -21 -20h-125q-20 0 -20 18z" />
<glyph unicode="&#x3b8;" horiz-adv-x="931" d="M111 326v643q0 154 97 245t263 91t264.5 -92.5t98.5 -243.5v-641q0 -154 -98.5 -247t-264.5 -93t-263 92t-97 246zM274 437q0 -42 1 -75.5t1 -37.5q-4 -43 11.5 -79t42 -61.5t63.5 -40t78 -14.5q98 0 148.5 58.5t50.5 138.5v256q0 23 -23 22h-350q-8 0 -15.5 -6t-7.5 -16 v-61.5v-83.5zM274 772q0 -29 29 -29h344q20 0 21 23v203q0 78 -49.5 136t-147.5 58q-86 0 -141.5 -56t-55.5 -138v-197z" />
<glyph unicode="&#x3b9;" horiz-adv-x="436" d="M135 18v859q0 20 19 20h129q20 0 20 -18v-859q0 -20 -20 -20h-127q-20 0 -21 18z" />
<glyph unicode="&#x3ba;" horiz-adv-x="903" d="M117 18v863q0 20 18 20h127q18 0 19 -18v-322q0 -23 10 -27t20 7l318 346q10 10 28 10h152q23 0 22 -18q0 -4 -3 -9.5t-7 -9.5l-270 -291q-12 -14 8 -20q20 -2 37.5 -4t34.5 -6q57 -14 96 -44t62.5 -72t35 -93t15.5 -109l8 -186q0 -35 -29 -35h-108q-29 0 -29 29l-10 190 q-2 39 -11.5 75t-31 63.5t-58 43t-92.5 15.5q-96 0 -146 -57.5t-50 -137.5v-201q0 -20 -21 -20h-125q-20 0 -20 18z" />
<glyph unicode="&#x3bb;" horiz-adv-x="970" d="M115 18v557q0 76 25.5 137.5t69.5 105.5t105.5 68.5t135.5 24.5q53 0 99 -12t87 -45q23 -18 30 -8t7 16v105q0 80 -52.5 137t-156.5 57q-47 0 -82 -9t-92 -34q-23 -10 -32 -9t-15 13l-33 72q-10 20 -5 28.5t21 18.5q25 14 60 26.5t71.5 20.5t72.5 12.5t65 4.5 q80 0 143 -26t107.5 -71t68 -106.5t23.5 -132.5v-949q0 -20 -21 -20h-125q-18 0 -18 18v560q0 39 -15.5 74.5t-42 62t-62.5 42t-77 15.5t-76.5 -15.5t-62.5 -42t-42 -62.5t-15 -74v-558q0 -20 -21 -20h-125q-20 0 -20 18z" />
<glyph unicode="&#x3bc;" horiz-adv-x="970" d="M113 -352v1229q0 18 20 18h125q18 0 18 -18v-555q0 -39 15.5 -74t42 -61.5t63.5 -42t78 -15.5q86 0 140.5 55.5t54.5 137.5v555q0 18 20 18h125q20 0 21 -18v-859q0 -18 -19 -18h-117q-20 0 -20 18v31q0 14 -10.5 16.5t-20.5 -6.5q-29 -27 -69 -45q-53 -27 -123 -26 q-43 0 -78 11t-64 34q-18 14 -27 5t-9 -20v-368q0 -20 -19 -21h-125q-20 0 -22 19z" />
<glyph unicode="&#x3bd;" horiz-adv-x="827" d="M29 868q-10 29 16 29h113q35 0 41 -25l139 -423l68 -232q4 -10 9 -10t9 8l63 221l140 430q4 10 11 20.5t28 10.5h116q29 0 19 -27l-299 -845q-4 -14 -11.5 -19.5t-25.5 -5.5h-100q-29 0 -37 23z" />
<glyph unicode="&#x3be;" horiz-adv-x="753" d="M53 334q0 92 54.5 178t158.5 127q6 2 6 4t-6 6q-78 29 -120 90.5t-42 126.5q0 51 16.5 89t44.5 67t64.5 51.5t75.5 40.5q10 4 10 8q0 6 -12 6l-207 2q-23 0 -31 8.5t-8 28.5v80q0 29 39 29h621q43 0 43 -31v-63q0 -37 -23 -41q-250 -53 -361.5 -122t-111.5 -145 q0 -39 18.5 -67.5t49 -48t71.5 -28.5t84 -9h189q39 0 39 -29v-69q0 -20 -8.5 -28.5t-30.5 -8.5h-187q-47 0 -94 -18.5t-87 -49.5t-64.5 -73t-24.5 -91q0 -88 62.5 -140t205.5 -93q76 -23 122 -43.5t73 -42t36 -44t9 -46.5q0 -27 -19.5 -90.5t-95.5 -184.5q-8 -14 -24 -14 q-4 0 -17 4l-75 35q-20 8 -21 24q0 8 6 19q39 72 54.5 116t15.5 56q0 23 -39 39t-123 43q-182 57 -259 140t-77 202z" />
<glyph unicode="&#x3bf;" horiz-adv-x="917" d="M98 332v235q0 158 92.5 251t266.5 93t268 -90t94 -254v-233q0 -166 -97 -256t-263 -90q-170 0 -265.5 89t-95.5 255zM262 332q0 -88 45 -145.5t150 -57.5q104 0 150 56.5t48 146.5v235q0 88 -48 144.5t-148 56.5q-90 0 -143.5 -55.5t-53.5 -145.5v-235z" />
<glyph unicode="&#x3c0;" horiz-adv-x="940" d="M109 18v859q0 20 20 20h680q20 0 20 -18v-859q0 -20 -18 -20h-125q-18 0 -18 18v715q0 23 -23 23h-350q-20 0 -21 -21v-715q0 -20 -20 -20h-125q-20 0 -20 18z" />
<glyph unicode="&#x3c1;" horiz-adv-x="911" d="M98 -352v913q0 82 28 147.5t77 110.5t116.5 68.5t147.5 23.5q158 0 256 -89t98 -242v-232q0 -168 -86 -265t-246 -97q-57 0 -105 14t-93 49q-14 10 -20.5 4t-6.5 -16v-387q0 -20 -20 -21h-125q-18 0 -21 19zM262 330q0 -84 53.5 -143.5t143.5 -59.5q96 0 147 58.5 t51 144.5l-2 237q-2 86 -51 143.5t-143 57.5q-92 0 -145.5 -56.5t-53.5 -146.5v-235z" />
<glyph unicode="&#x3c2;" horiz-adv-x="774" d="M55 190q-6 16 8 23l105 47q10 4 15 0t10 -10q31 -59 72.5 -93t111.5 -34q72 0 116 31.5t44 85.5q0 51 -36 75.5t-95 46.5q-39 16 -76 28.5t-72 29.5q-78 35 -130 88t-52 147q0 70 29.5 118t75.5 79t104.5 45t117.5 14q82 0 143.5 -17t94.5 -32q14 -6 25.5 -15t5.5 -26 l-33 -86q-6 -16 -19.5 -16t-25.5 6q-53 27 -107.5 38t-89.5 11q-61 0 -113.5 -24.5t-52.5 -81.5q0 -35 20.5 -59.5t51.5 -41t65.5 -28t63.5 -21.5q49 -18 97.5 -38.5t86 -51.5t60 -76t22.5 -108q0 -111 -86 -182.5t-241 -71.5q-72 0 -131.5 19.5t-106.5 66.5 q-29 29 -48 58.5t-30 55.5z" />
<glyph unicode="&#x3c3;" horiz-adv-x="921" d="M92 330v225q0 74 22.5 137.5t65.5 108.5t105.5 70.5t140.5 25.5h457q20 0 20 -18v-101q0 -18 -18 -18h-115q-16 0 -21.5 -9.5t5.5 -21.5q33 -39 46 -80t13 -88v-231q0 -160 -99.5 -251t-260.5 -91q-166 0 -263.5 91t-97.5 251zM254 330q0 -84 50 -142.5t147 -58.5 q100 0 148 57.5t48 143.5v225q0 84 -51 142.5t-143 58.5q-88 0 -143.5 -57.5t-55.5 -141.5v-227z" />
<glyph unicode="&#x3c4;" horiz-adv-x="679" d="M31 776v101q0 20 16 20h561q20 0 21 -18v-101q0 -20 -21 -20h-202q-23 0 -23 -21v-469q0 -51 24.5 -90t86.5 -39q20 0 46.5 3t43.5 8q16 4 22 2t10 -13l21 -98q4 -16 -2 -23.5t-21 -11.5q-59 -16 -143 -16q-121 0 -185.5 68.5t-64.5 179.5v499q0 20 -22 21h-148 q-20 0 -20 18z" />
<glyph unicode="&#x3c5;" horiz-adv-x="929" d="M109 317v560q0 20 20 20h123q20 0 20 -20v-560q0 -80 52.5 -139t144.5 -59q94 0 145.5 58.5t51.5 139.5v560q0 20 20 20h127q18 0 18 -20v-560q0 -76 -25.5 -138t-73.5 -106t-114.5 -68.5t-148.5 -24.5t-148.5 23.5t-113.5 68.5t-72.5 106.5t-25.5 138.5z" />
<glyph unicode="&#x3c6;" horiz-adv-x="1087" d="M86 322v251q0 106 57.5 184.5t147.5 119.5l18 8q14 4 19.5 1t9.5 -14l47 -96q8 -18 -14 -28q-51 -23 -86 -70t-35 -103v-251q0 -37 15.5 -73t42 -63.5t61 -45t73.5 -19.5q20 -2 21 18v750q0 20 20 20h121q80 0 152.5 -22.5t127 -66.5t87.5 -108.5t33 -148.5v-241 q0 -74 -27 -135.5t-74 -106.5t-112.5 -72.5t-143.5 -29.5q-12 0 -15 -5.5t-3 -15.5v-309q0 -20 -21 -21h-125q-18 0 -18 19v311q0 20 -21 21q-78 2 -144.5 28.5t-113.5 71.5t-73.5 106.5t-26.5 135.5zM627 143q0 -20 20 -20q37 4 72 21.5t61.5 45t43 61.5t16.5 73v239 q0 84 -58.5 138.5t-134.5 64.5q-20 0 -20 -21v-602z" />
<glyph unicode="&#x3c7;" horiz-adv-x="792" d="M21.5 9q-3.5 9 5.5 20l256 407q14 23 12 34t-10 26l-232 370q-8 12 -4 21.5t21 9.5h118q20 0 28.5 -3t19.5 -20l151 -260q8 -12 13.5 -10t9.5 12l149 258q10 16 18.5 19.5t28.5 3.5h119q16 0 20.5 -9t-4.5 -22l-235 -372q-12 -20 -8 -30.5t8 -19.5l262 -415 q8 -10 5 -19.5t-19 -9.5h-125q-14 0 -25.5 4t-21.5 21l-174 297q-8 14 -14.5 8t-10.5 -11l-172 -294q-10 -16 -21.5 -20.5t-25.5 -4.5h-123q-16 0 -19.5 9z" />
<glyph unicode="&#x3c8;" horiz-adv-x="1095" d="M94 322v555q0 20 19 20h125q20 0 20 -18v-555q0 -84 56.5 -139.5t134.5 -61.5q18 0 18 18v795q0 20 20 20h125q18 0 19 -20v-793q0 -20 20 -20q37 4 72 21.5t60.5 43t41 60.5t15.5 74v555q0 20 18 20h125q20 0 21 -18v-555q0 -74 -26 -135.5t-72 -106.5t-111.5 -72.5 t-143.5 -29.5q-12 0 -15 -5.5t-3 -15.5v-309q0 -20 -21 -21h-125q-18 0 -18 19v311q0 20 -20 21q-78 2 -143.5 28.5t-113 71.5t-73 106.5t-25.5 135.5z" />
<glyph unicode="&#x3c9;" horiz-adv-x="1294" d="M100 305v273q0 74 25 135t70 105t107.5 68.5t135.5 24.5q12 0 21.5 -2t9.5 -18v-105q0 -18 -18 -18q-82 -4 -135.5 -59.5t-53.5 -133.5v-237q0 -96 42 -152.5t112 -56.5q74 0 111.5 58.5t37.5 136.5v317q-4 18 19 18h125q20 0 20 -16v-319q0 -78 38 -135.5t114 -57.5 q70 0 111.5 47t41.5 117v280q0 78 -55 133.5t-133 59.5q-20 0 -21 18v105q0 16 9.5 18t19.5 2q76 0 138.5 -24.5t107.5 -69.5t69.5 -106.5t24.5 -135.5v-245q0 -162 -86 -252t-227 -90q-51 0 -88 10t-65 28.5t-47 42t-34 52.5q-35 -55 -93 -94t-151 -39q-137 0 -220 86 t-83 231z" />
<glyph unicode="&#x3ca;" horiz-adv-x="436" d="M-39 1116q0 41 27.5 68.5t68.5 27.5t69 -27.5t28 -68.5t-28 -68.5t-69 -27.5t-68.5 27.5t-27.5 68.5zM135 18v859q0 20 19 20h129q20 0 20 -18v-859q0 -20 -20 -20h-127q-20 0 -21 18zM293 1116q0 41 27.5 68.5t68.5 27.5t68.5 -27.5t27.5 -68.5t-26.5 -68.5t-67.5 -27.5 t-69.5 27.5t-28.5 68.5z" />
<glyph unicode="&#x3cb;" horiz-adv-x="929" d="M109 317v560q0 20 20 20h123q20 0 20 -20v-560q0 -80 52.5 -139t144.5 -59q94 0 145.5 58.5t51.5 139.5v560q0 20 20 20h127q18 0 18 -20v-560q0 -76 -25.5 -138t-73.5 -106t-114.5 -68.5t-148.5 -24.5t-148.5 23.5t-113.5 68.5t-72.5 106.5t-25.5 138.5zM219 1116 q0 41 27.5 68.5t68.5 27.5t69 -27.5t28 -68.5t-28 -68.5t-69 -27.5t-68.5 27.5t-27.5 68.5zM551 1116q0 41 27.5 68.5t68.5 27.5t68.5 -27.5t27.5 -68.5t-26.5 -68.5t-67.5 -27.5t-69.5 27.5t-28.5 68.5z" />
<glyph unicode="&#x3cc;" horiz-adv-x="917" d="M98 332v235q0 158 92.5 251t266.5 93t268 -90t94 -254v-233q0 -166 -97 -256t-263 -90q-170 0 -265.5 89t-95.5 255zM262 332q0 -88 45 -145.5t150 -57.5q104 0 150 56.5t48 146.5v235q0 88 -48 144.5t-148 56.5q-90 0 -143.5 -55.5t-53.5 -145.5v-235zM391 1057l154 260 q6 10 18 18t23 0l90 -59q16 -12 14 -24.5t-8 -20.5l-203 -227q-6 -8 -18 -12.5t-25 3.5l-39 25q-18 14 -6 37z" />
<glyph unicode="&#x3cd;" horiz-adv-x="929" d="M109 317v560q0 20 20 20h123q20 0 20 -20v-560q0 -80 52.5 -139t144.5 -59q94 0 145.5 58.5t51.5 139.5v560q0 20 20 20h127q18 0 18 -20v-560q0 -76 -25.5 -138t-73.5 -106t-114.5 -68.5t-148.5 -24.5t-148.5 23.5t-113.5 68.5t-72.5 106.5t-25.5 138.5zM401 1057 l154 260q6 10 18.5 18t22.5 0l90 -59q16 -12 14 -24.5t-8 -20.5l-203 -227q-6 -8 -18 -12.5t-25 3.5l-38 25q-18 14 -7 37z" />
<glyph unicode="&#x3ce;" horiz-adv-x="1294" d="M100 305v273q0 74 25 135t70 105t107.5 68.5t135.5 24.5q12 0 21.5 -2t9.5 -18v-105q0 -18 -18 -18q-82 -4 -135.5 -59.5t-53.5 -133.5v-237q0 -96 42 -152.5t112 -56.5q74 0 111.5 58.5t37.5 136.5v317q-4 18 19 18h125q20 0 20 -16v-319q0 -78 38 -135.5t114 -57.5 q70 0 111.5 47t41.5 117v280q0 78 -55 133.5t-133 59.5q-20 0 -21 18v105q0 16 9.5 18t19.5 2q76 0 138.5 -24.5t107.5 -69.5t69.5 -106.5t24.5 -135.5v-245q0 -162 -86 -252t-227 -90q-51 0 -88 10t-65 28.5t-47 42t-34 52.5q-35 -55 -93 -94t-151 -39q-137 0 -220 86 t-83 231zM557 1057l154 260q6 10 18 18t23 0l90 -59q16 -12 14 -24.5t-8 -20.5l-203 -227q-6 -8 -18.5 -12.5t-24.5 3.5l-39 25q-18 14 -6 37z" />
<glyph unicode="&#x401;" horiz-adv-x="901" d="M123 23v1218q0 23 24 23h660q27 0 27 -23v-100q0 -25 -25 -25h-498q-16 0 -16 -16v-350q0 -16 14 -17h412q25 0 24 -24v-103q0 -23 -22 -22h-412q-16 0 -16 -19v-397q0 -18 14 -18h506q25 0 25 -23v-102q0 -25 -25 -25h-668q-25 0 -24 23zM211 1434q0 41 27.5 68.5 t68.5 27.5t68.5 -27.5t27.5 -68.5t-27.5 -69t-68.5 -28t-68.5 28t-27.5 69zM543 1434q0 41 27.5 68.5t68.5 27.5t68.5 -27.5t27.5 -68.5t-26.5 -69t-67.5 -28t-69.5 28t-28.5 69z" />
<glyph unicode="&#x402;" horiz-adv-x="1267" d="M49 1139v102q0 23 25 23h866q25 0 25 -21v-104q0 -23 -25 -23h-414q-18 0 -18 -16v-320q0 -14 8 -12t16 6q119 53 248 53q166 0 261.5 -96t95.5 -256v-166q0 -43 -6.5 -102.5t-39 -117.5t-99 -106.5t-187.5 -66.5q-23 -4 -36 -1t-15 24l-13 92q-4 23 11.5 25.5t29.5 6.5 q63 14 100.5 41t55.5 61t22.5 71.5t4.5 74.5v138q0 47 -9.5 88t-34 71.5t-66.5 49t-110 18.5q-72 0 -129 -20.5t-94 -51.5q-4 -4 -9 -10t-5 -23v-548q0 -23 -23 -23h-123q-25 0 -24 20v1078q0 18 -16 18h-248q-25 0 -25 23z" />
<glyph unicode="&#x403;" horiz-adv-x="872" d="M164 23v1218q0 23 24 23h643q25 0 25 -21v-104q0 -23 -25 -23h-479q-16 0 -16 -16v-1075q0 -25 -23 -25h-125q-25 0 -24 23zM336 1368q-16 20 6 37l238 188q10 8 22 10.5t23 -8.5l61 -90q12 -16 6 -26.5t-16 -14.5l-270 -141q-10 -4 -22.5 -3t-21.5 11z" />
<glyph unicode="&#x404;" horiz-adv-x="917" d="M119 334v598q0 80 27.5 144.5t76.5 109.5t118 69.5t151 24.5q94 0 182 -31t166 -121q10 -12 10 -21t-16 -24l-78 -65q-8 -8 -21.5 -5t-21.5 13q-37 47 -96.5 75.5t-122.5 28.5q-98 0 -150.5 -55t-52.5 -143v-199q0 -8 4 -9t8 -1h393q25 0 25 -25v-102q0 -23 -23 -23h-393 q-4 0 -9 -1t-5 -11v-225q0 -86 57.5 -142.5t155.5 -56.5q63 0 118.5 32t90.5 67q10 12 20 19t27 -5l82 -68q6 -4 7 -14t-3 -18q-61 -80 -151.5 -121t-190.5 -41q-82 0 -152.5 22.5t-122 66.5t-81 108.5t-29.5 148.5z" />
<glyph unicode="&#x405;" horiz-adv-x="927" d="M51 147q-18 20 8 41l76 70q12 10 21.5 5t23.5 -19q47 -51 110.5 -78t133.5 -27q117 0 190.5 52.5t73.5 156.5q0 51 -21.5 87t-55 60.5t-75.5 42t-83 31.5q-59 20 -125 47t-120 68t-90 101.5t-36 146.5q0 82 28.5 146.5t79 109.5t118 68.5t145.5 23.5q74 0 166 -18.5 t180 -83.5q18 -14 12 -25.5t-10 -19.5l-49 -78q-10 -14 -24.5 -12.5t-27.5 10.5q-70 41 -123 58t-106 17q-45 0 -85 -10t-69.5 -33.5t-47 -61.5t-17.5 -95q0 -41 21.5 -72t56.5 -54.5t78 -42t86 -34.5q68 -27 133 -54.5t116.5 -68.5t83 -100.5t31.5 -151.5 q0 -84 -31.5 -150.5t-89 -112.5t-137.5 -71.5t-174 -25.5q-117 0 -218.5 40t-156.5 117z" />
<glyph unicode="&#x406;" horiz-adv-x="493" d="M156 23v1218q0 23 24 23h127q25 0 25 -21v-1218q0 -25 -25 -25h-127q-25 0 -24 23z" />
<glyph unicode="&#x407;" horiz-adv-x="493" d="M-18 1434q0 41 27.5 68.5t68.5 27.5t68.5 -27.5t27.5 -68.5t-27.5 -69t-68.5 -28t-68.5 28t-27.5 69zM156 23v1218q0 23 24 23h127q25 0 25 -21v-1218q0 -25 -25 -25h-127q-25 0 -24 23zM313 1434q0 41 28 68.5t69 27.5t68.5 -27.5t27.5 -68.5t-26.5 -69t-67.5 -28 t-70 28t-29 69z" />
<glyph unicode="&#x408;" horiz-adv-x="550" d="M-23.5 -102.5q0.5 10.5 23.5 18.5q55 23 102.5 47.5t80 61t51 90t18.5 135.5v987q0 27 31 27h106q31 0 31 -27v-971q0 -96 -17.5 -176t-60.5 -143.5t-114.5 -109.5t-180.5 -77q-16 -4 -25.5 1.5t-15.5 27.5l-26 82q-4 16 -3.5 26.5z" />
<glyph unicode="&#x409;" horiz-adv-x="1597" d="M33 68q-8 25 24 38q41 20 71 42t51.5 56t35.5 87t22.5 136t11.5 203t3 285v326q0 23 24 23h627q12 -2 16.5 -6.5t8.5 -14.5v-479q0 -18 16 -19h211q86 0 158.5 -28.5t124 -78.5t80 -118.5t28.5 -148.5t-27.5 -147.5t-78.5 -118t-124 -78t-163 -27.5h-371q-16 0 -21 6 t-5 17v1077q0 18 -17 18h-311q-16 0 -16 -18v-182q0 -260 -11.5 -428t-45 -272.5t-95 -159t-160.5 -87.5q-18 -6 -25 0t-14 19zM928 160q4 -10 18 -10h207q49 0 91 17t70.5 48t45 71t16.5 83q0 115 -63.5 172t-159.5 57h-209q-16 0 -16 -14v-424z" />
<glyph unicode="&#x40a;" horiz-adv-x="1529" d="M131 23v1218q0 23 23 23h122q25 0 25 -21v-479q0 -18 16 -19h357q16 0 16 19v479q0 20 25 21h121q25 0 24 -21v-479q0 -18 17 -19h233q88 0 156.5 -28.5t116 -78.5t72 -118.5t24.5 -148.5t-28 -147.5t-79 -118t-123.5 -78t-163.5 -27.5h-370q-25 0 -25 25v555 q0 18 -16 18h-357q-16 0 -16 -18v-555q0 -25 -22 -25h-123q-25 0 -25 23zM860 166q0 -16 19 -16h206q49 0 91.5 17t72 48t46 71t16.5 83q0 115 -64.5 172t-161.5 57h-208q-16 0 -17 -18v-414z" />
<glyph unicode="&#x40b;" horiz-adv-x="1247" d="M47 1139v102q0 23 25 23h866q25 0 25 -21v-104q0 -23 -25 -23h-414q-18 0 -18 -16v-320q0 -14 8 -12t16 6q119 53 248 53q166 0 261.5 -96t95.5 -256v-452q0 -23 -23 -23h-127q-23 0 -22 20v429q0 47 -9.5 88t-34 71.5t-66.5 49t-110 18.5q-72 0 -129 -20.5t-94 -51.5 q-4 -4 -9 -10t-5 -23v-548q0 -23 -23 -23h-123q-25 0 -24 20v1078q0 18 -17 18h-247q-25 0 -25 23z" />
<glyph unicode="&#x40c;" horiz-adv-x="1021" d="M129 18v1225q0 20 23 21h133q18 0 18 -19v-508q0 -18 8 -16t15 8l424 520q12 14 28 15h133q20 0 24.5 -9.5t-3.5 -19.5l-379 -465q-8 -10 -4 -15t14 -5q14 0 27.5 1t25.5 -1q141 -10 212 -98.5t81 -239.5l31 -392q0 -20 -20 -20h-119q-23 0 -23 18l-24 369 q-2 33 -10.5 74t-31 75.5t-63.5 58t-110 23.5q-117 0 -176.5 -67.5t-59.5 -175.5v-355q0 -20 -18 -20h-133q-23 0 -23 18zM385 1374q-16 20 6 37l238 188q10 8 22.5 10.5t22.5 -7.5l61 -91q12 -16 6 -26t-16 -15l-270 -141q-10 -4 -22.5 -3t-20.5 11z" />
<glyph unicode="&#x40e;" horiz-adv-x="888" d="M25 1231q-14 35 20 35h115q35 0 43 -23l241 -731q6 -8 15 0l231 727q8 27 47 27h103q23 0 25.5 -9.5t-3.5 -23.5l-315 -934q-25 -74 -47.5 -134.5t-53 -103.5t-74.5 -65.5t-114 -22.5h-92q-23 0 -28 7.5t-5 29.5v82q0 23 5 28t22 5h53q41 0 66.5 10t48.5 49t27.5 67 t-7.5 64zM209 1540q0 10 4 16.5t20 6.5h43q16 0 20.5 -6.5t8.5 -20.5q18 -59 50 -90t91 -31q111 0 142 121q4 14 7 20.5t21 6.5h43q16 0 20.5 -6.5t4.5 -16.5q-2 -51 -20.5 -97t-49 -80t-73.5 -53.5t-97 -19.5q-49 0 -91 19.5t-73.5 53.5t-50 80t-20.5 97z" />
<glyph unicode="&#x40f;" horiz-adv-x="1138" d="M154 25v1218q0 20 24 21h125q25 0 25 -23v-1075q0 -18 16 -19h453q16 0 16 19v1077q0 20 23 21h125q25 0 24 -23v-1218q0 -23 -24 -23h-281q-31 0 -31 -25v-276q-2 -25 -13 -32t-24 -7h-94q-16 0 -21 9t-8 30v278q-2 12 -6 17.5t-26 5.5h-279q-25 0 -24 25z" />
<glyph unicode="&#x410;" horiz-adv-x="935" d="M41 31l303 1208q2 10 9 17.5t24 7.5h174q25 0 31 -21l311 -1208q4 -10 2 -22.5t-21 -12.5h-124q-27 0 -29 14l-68 267q-4 8 -8 8h-362q-8 0 -9.5 -2t-3.5 -4l-65 -269q-2 -14 -27 -14h-110q-16 0 -23.5 6t-3.5 25zM308 433q1 -3 11 -3h283q10 0 12 3t0 13l-90 369 l-57 258q-2 6 -5 6t-5 -4l-56 -252l-92 -377q-2 -10 -1 -13z" />
<glyph unicode="&#x411;" horiz-adv-x="968" d="M131 25v1218q0 20 25 21h639q25 0 24 -21v-104q0 -23 -24 -23h-476q-16 0 -16 -16v-336q0 -18 16 -19h209q92 0 165 -28.5t123 -78.5t77 -118.5t27 -148.5t-28 -147.5t-79 -118t-124 -78t-163 -27.5h-370q-25 0 -25 25zM301 166q0 -16 18 -16h207q49 0 91 17t71 48 t45.5 71t16.5 83q0 115 -63.5 172t-160.5 57h-209q-16 0 -16 -18v-414z" />
<glyph unicode="&#x412;" horiz-adv-x="974" d="M111 23v1218q0 23 22 23h367q166 0 263 -84t97 -246q0 -33 -10 -68t-28.5 -67.5t-43 -61t-53.5 -49.5q-4 -8 2 -14q84 -43 127 -125t43 -172q0 -84 -25.5 -152.5t-73.5 -119t-116 -78t-152 -27.5h-395q-25 0 -24 23zM283 168q0 -18 16 -18h227q94 0 147.5 61.5 t53.5 159.5q0 43 -11 85t-38 73.5t-70 52t-104 20.5h-205q-16 0 -16 -16v-418zM283 766q0 -18 16 -18h201q96 0 143 56t47 134q0 82 -49 130t-143 48h-199q-16 0 -16 -16v-334z" />
<glyph unicode="&#x413;" horiz-adv-x="872" d="M164 23v1218q0 23 24 23h643q25 0 25 -21v-104q0 -23 -25 -23h-479q-16 0 -16 -16v-1075q0 -25 -23 -25h-125q-25 0 -24 23z" />
<glyph unicode="&#x414;" horiz-adv-x="1136" d="M18 78q0 31 8.5 39t26.5 16l37 14q59 23 91 95.5t44 185.5q8 61 13.5 130t11.5 160t11 214t13 293q2 23 11.5 31t29.5 8h615q18 0 27.5 -8.5t9.5 -30.5v-1057q0 -4 2 -11t10 -7h43q23 0 28 -9.5t5 -29.5v-361q-2 -29 -9.5 -33t-21.5 -4h-90q-16 0 -23.5 6.5t-9.5 30.5 v232q-2 14 -10 16t-19 2h-669q-18 0 -21.5 -5t-7.5 -22v-221q-2 -29 -9 -34t-22 -5h-94q-16 0 -22.5 5.5t-8.5 23.5v336zM309 162q-8 -12 10 -12h457q4 0 11.5 2t7.5 16v924q0 25 -27 24h-326q-10 0 -13 -8t-3 -12q-4 -72 -8 -160t-8 -178t-10.5 -173t-12.5 -147 q-4 -29 -10 -64.5t-15.5 -73.5t-22.5 -74t-30 -64z" />
<glyph unicode="&#x415;" horiz-adv-x="901" d="M123 23v1218q0 23 24 23h660q27 0 27 -23v-100q0 -25 -25 -25h-498q-16 0 -16 -16v-350q0 -16 14 -17h412q25 0 24 -24v-103q0 -23 -22 -22h-412q-16 0 -16 -19v-397q0 -18 14 -18h506q25 0 25 -23v-102q0 -25 -25 -25h-668q-25 0 -24 23z" />
<glyph unicode="&#x416;" horiz-adv-x="1566" d="M74 20l41 410q12 127 82.5 210t189.5 99q16 2 31.5 2h32.5q10 0 14 5.5t-4 15.5l-379 473q-8 10 -4 19.5t24 9.5h131q16 0 29 -15l412 -501q4 -6 12 -9.5t10 11.5v495q0 18 19 19h133q23 0 22 -21v-500q2 -14 9.5 -11t13.5 9l412 508q12 14 28 15h131q20 0 24.5 -9.5 t-3.5 -19.5l-379 -473q-8 -10 -4 -15.5t14 -5.5h27.5t25.5 -2q133 -12 209 -104t86 -244l29 -371q2 -20 -20 -20h-119q-23 0 -23 18l-28 361q-2 33 -11.5 74t-32 75.5t-62.5 58t-101 23.5q-111 0 -168.5 -70.5t-57.5 -174.5v-347q0 -18 -22 -18h-133q-18 0 -19 20v359 q0 109 -51 170t-170 61q-63 0 -104 -23.5t-64.5 -58t-34 -75.5t-12.5 -74l-24 -361q0 -18 -23 -18h-119q-23 0 -20 20z" />
<glyph unicode="&#x417;" horiz-adv-x="993" d="M78 179q2 9 16 20q18 14 41 27.5t41 27.5q14 10 23.5 10t19.5 -14q33 -47 98.5 -80t143.5 -33q123 0 188.5 67.5t65.5 166.5q0 119 -71 174t-177 55h-141q-25 0 -25 23v104q0 23 23 23h176q86 0 139 52t53 138q0 82 -55 137.5t-164 55.5q-49 0 -107.5 -24t-105.5 -77 q-8 -8 -18.5 -15t-26.5 1l-80 53q-16 10 -14 22.5t8 22.5q53 84 148 124t210 40q92 0 162 -25.5t118 -69.5t72.5 -105.5t24.5 -133.5q0 -39 -10 -80t-30.5 -77.5t-50.5 -66.5t-68 -42q-4 -2 -4.5 -5t1.5 -5q78 -29 131.5 -103.5t53.5 -185.5q0 -88 -30 -161t-85 -124 t-134 -79.5t-177 -28.5q-55 0 -111.5 8t-108 27.5t-93.5 53.5t-68 83q-4 10 -2 19z" />
<glyph unicode="&#x418;" horiz-adv-x="1062" d="M127 25v1218q0 20 25 21h114q23 0 23 -23v-903q0 -4 2 -3t4 5l477 891q10 14 20.5 23.5t34.5 9.5h95q23 0 22 -23v-1218q0 -23 -24 -23h-117q-23 0 -23 25v915q0 6 -6 0q-113 -217 -238.5 -454.5t-238.5 -454.5q-10 -23 -18.5 -27t-34.5 -4h-92q-25 0 -25 25z" />
<glyph unicode="&#x419;" horiz-adv-x="1062" d="M127 25v1218q0 20 25 21h114q23 0 23 -23v-903q0 -4 2 -3t4 5l477 891q10 14 20.5 23.5t34.5 9.5h95q23 0 22 -23v-1218q0 -23 -24 -23h-117q-23 0 -23 25v915q0 6 -6 0q-113 -217 -238.5 -454.5t-238.5 -454.5q-10 -23 -18.5 -27t-34.5 -4h-92q-25 0 -25 25zM297 1540 q0 10 4 16.5t21 6.5h43q16 0 20 -6.5t8 -20.5q18 -59 50 -90t92 -31q111 0 141 121q4 14 7 20.5t22 6.5h43q16 0 20 -6.5t4 -16.5q-2 -51 -20.5 -97t-49 -80t-73.5 -53.5t-97 -19.5q-49 0 -91 19.5t-73.5 53.5t-50 80t-20.5 97z" />
<glyph unicode="&#x41a;" horiz-adv-x="1021" d="M129 18v1225q0 20 23 21h133q18 0 18 -19v-508q0 -18 8 -16t15 8l424 520q12 14 28 15h133q20 0 24.5 -9.5t-3.5 -19.5l-379 -465q-8 -10 -4 -15t14 -5q14 0 27.5 1t25.5 -1q141 -10 212 -98.5t81 -239.5l31 -392q0 -20 -20 -20h-119q-23 0 -23 18l-24 369 q-2 33 -10.5 74t-31 75.5t-63.5 58t-110 23.5q-117 0 -176.5 -67.5t-59.5 -175.5v-355q0 -20 -18 -20h-133q-23 0 -23 18z" />
<glyph unicode="&#x41b;" horiz-adv-x="1071" d="M29 78q0 10 8 17t18 11q39 20 70 41t54.5 53.5t41 82t27.5 125t15 184t5 260.5v389q0 23 25 23h629q25 0 24 -21v-1218q0 -25 -24 -25h-125q-23 0 -23 23v1077q0 18 -16 18h-324q-16 0 -16 -18v-264q0 -231 -14.5 -381t-50.5 -244t-97 -147.5t-158 -92.5q-4 -2 -14 -2 q-18 0 -25 21l-28 80q0 2 -1 4t-1 4z" />
<glyph unicode="&#x41c;" horiz-adv-x="1284" d="M123 23v1202q0 39 37 39h80q29 0 35 -5.5t16 -25.5l274 -733l78 -226q10 -16 19 -2q20 55 39.5 116t39.5 116l273 731q10 16 19 22.5t30 6.5h82q23 0 30 -10.5t7 -26.5v-1202q0 -25 -23 -25h-117q-23 0 -22 23v794q0 4 -3 5t-5 -3l-86 -239l-199 -510q-4 -6 -12 -17.5 t-27 -11.5h-80q-16 0 -25.5 5t-15.5 22l-188 495l-88 250q-6 6 -6 0v-788q0 -25 -23 -25h-115q-25 0 -24 23z" />
<glyph unicode="&#x41d;" horiz-adv-x="1284" d="M129 23v1218q0 23 23 23h124q25 0 25 -21v-498q0 -18 16 -18h437q16 0 16 18v496q0 23 23 23h125q27 0 26 -21v-1218q0 -25 -24 -25h-125q-25 0 -25 23v538q0 18 -16 19h-437q-16 0 -16 -19v-536q0 -25 -22 -25h-125q-25 0 -25 23z" />
<glyph unicode="&#x41e;" horiz-adv-x="1017" d="M119 338v594q0 82 30.5 146.5t83 109.5t123 68.5t152.5 23.5q80 0 150.5 -22.5t125 -66.5t85 -109.5t30.5 -149.5v-594q0 -84 -29.5 -148.5t-82 -109.5t-123 -68.5t-154.5 -23.5t-154.5 22.5t-124 66.5t-83 109.5t-29.5 151.5zM291 342q0 -92 56 -148.5t161 -56.5 q102 0 160.5 56.5t58.5 148.5v586q0 88 -59.5 145t-157.5 57q-100 0 -159.5 -58t-59.5 -144v-586z" />
<glyph unicode="&#x41f;" horiz-adv-x="1118" d="M154 23v1218q0 23 24 23h783q25 0 24 -21v-1218q0 -25 -24 -25h-125q-23 0 -23 23v1077q0 18 -16 18h-453q-16 0 -16 -18v-1075q0 -25 -25 -25h-125q-25 0 -24 23z" />
<glyph unicode="&#x420;" horiz-adv-x="937" d="M131 23v1218q0 23 25 23h350q90 0 160.5 -29t120 -79t76 -118.5t26.5 -148.5q0 -76 -29 -143.5t-80 -117.5t-120.5 -79t-151.5 -29h-189q-16 0 -16 -18v-477q0 -25 -24 -25h-123q-25 0 -25 23zM301 684q0 -18 16 -18h189q96 0 154.5 60t58.5 165q0 39 -13.5 80t-40 72.5 t-66.5 52t-93 20.5h-187q-18 0 -18 -16v-416z" />
<glyph unicode="&#x421;" horiz-adv-x="880" d="M119 334v598q0 80 27.5 144.5t76.5 109.5t118 69.5t151 24.5q94 0 182 -31t166 -121q10 -12 10 -21t-16 -24l-78 -65q-8 -8 -21.5 -5t-21.5 13q-37 47 -96.5 75.5t-122.5 28.5q-98 0 -150.5 -55t-52.5 -143v-596q0 -86 57.5 -142.5t155.5 -56.5q63 0 118.5 32t90.5 67 q10 12 20 19t27 -5l82 -68q6 -4 7 -14t-3 -18q-61 -80 -151.5 -121t-190.5 -41q-82 0 -152.5 22.5t-122 66.5t-81 108.5t-29.5 148.5z" />
<glyph unicode="&#x422;" horiz-adv-x="854" d="M31 1139v102q0 23 24 23h744q25 0 24 -21v-104q0 -23 -24 -23h-271q-18 0 -18 -16v-1075q0 -25 -23 -25h-125q-25 0 -24 23v1075q0 18 -16 18h-267q-25 0 -24 23z" />
<glyph unicode="&#x423;" horiz-adv-x="888" d="M25 1231q-14 35 20 35h115q35 0 43 -23l241 -731q6 -8 15 0l231 727q8 27 47 27h103q23 0 25.5 -9.5t-3.5 -23.5l-315 -934q-25 -74 -47.5 -134.5t-53 -103.5t-74.5 -65.5t-114 -22.5h-92q-23 0 -28 7.5t-5 29.5v82q0 23 5 28t22 5h53q41 0 66.5 10t48.5 49t27.5 67 t-7.5 64z" />
</font>
</defs>
</svg>
